<?xml version="1.0" encoding="UTF-8"?>
<svg xmlns="http://www.w3.org/2000/svg"
     xmlns:xlink="http://www.w3.org/1999/xlink"
     width="800" height="800"
     viewBox="0 0 800 800">
  <rect width="100%" height="100%" fill="#F5F0E8"/>
    <ellipse cx="79.0824" cy="580" rx="20.7848" ry="6.2352" fill="#000000" stroke="none" stroke-width="4" opacity="0.12" style="mix-blend-mode:multiply"/>
    <ellipse cx="390.8512" cy="528" rx="20.7848" ry="6.2352" fill="#000000" stroke="none" stroke-width="4" opacity="0.12" style="mix-blend-mode:multiply"/>
    <polygon points="120.652,460 79.0824,484 79.0824,604 120.652,580" fill="#666" stroke="#333" stroke-width="2.4"/>
    <polygon points="432.4208,408 390.8512,432 390.8512,552 432.4208,528" fill="#555" stroke="#333" stroke-width="2.4"/>
    <polygon points="37.5128,460 37.5128,580 79.0824,604 79.0824,484" fill="#666" stroke="#333" stroke-width="2.4"/>
    <polygon points="349.2816,408 349.2816,528 390.8512,552 390.8512,432" fill="#555" stroke="#333" stroke-width="2.4"/>
    <ellipse cx="234.9664" cy="434" rx="121.2432" ry="36.3728" fill="#000000" stroke="none" stroke-width="4" opacity="0.12" style="mix-blend-mode:multiply"/>
    <polygon points="432.4208,368 189.9336,508 189.9336,548 432.4208,408" fill="#A0522D" stroke="#333333" stroke-width="2.4"/>
    <polygon points="37.5128,420 37.5128,460 189.9336,548 189.9336,508" fill="#A0522D" stroke="#333333" stroke-width="2.4"/>
    <polygon points="280,280 37.5128,420 189.9336,508 432.4208,368" fill="#A0522D" stroke="#333333" stroke-width="2.4"/>
</svg>
