<?xml version="1.0" encoding="UTF-8"?>
<svg xmlns="http://www.w3.org/2000/svg"
     xmlns:xlink="http://www.w3.org/1999/xlink"
     width="1000" height="700"
     viewBox="0 0 1000 700">
  <rect width="100%" height="100%" fill="#F5F0E8"/>
  <defs>
  <linearGradient id="grad_1060059248" x1="0" y1="0" x2="0" y2="1">
    <stop offset="0" stop-color="#E8DDD0"/>
    <stop offset="0.6" stop-color="#E0D5C5"/>
    <stop offset="1" stop-color="#D4C8B5"/>
  </linearGradient>

  <linearGradient id="grad_570921381" x1="0" y1="0" x2="0" y2="1">
    <stop offset="0" stop-color="#C4A882"/>
    <stop offset="0.3" stop-color="#BFA07A"/>
    <stop offset="1" stop-color="#A0805E"/>
  </linearGradient>

  <linearGradient id="grad_1229650926" x1="0" y1="0" x2="0" y2="1">
    <stop offset="0" stop-color="#F0EBE0"/>
    <stop offset="1" stop-color="#E8E0D0"/>
  </linearGradient>

  <linearGradient id="grad_638069724" x1="0" y1="0" x2="1" y2="1">
    <stop offset="0" stop-color="#D8ECF8"/>
    <stop offset="0.5" stop-color="#C8E4F4"/>
    <stop offset="1" stop-color="#A8D4E8"/>
  </linearGradient>

  <linearGradient id="grad_2802198717" x1="0" y1="0" x2="1" y2="1">
    <stop offset="0" stop-color="#F5E6D0"/>
    <stop offset="1" stop-color="#D4B898"/>
  </linearGradient>

  <linearGradient id="grad_1959155459" x1="0" y1="0" x2="1" y2="0">
    <stop offset="0" stop-color="#B8962E"/>
    <stop offset="0.3" stop-color="#F5E6A0"/>
    <stop offset="0.7" stop-color="#D4AF37"/>
    <stop offset="1" stop-color="#B8962E"/>
  </linearGradient>

  <radialGradient id="grad_2105123760" cx="0.5" cy="0.3" r="0.5">
    <stop offset="0" stop-color="#FFF8DC"/>
    <stop offset="0.5" stop-color="#F5E6C8"/>
    <stop offset="1" stop-color="#D4C4A0"/>
  </radialGradient>

  <radialGradient id="grad_1018028072" cx="0.5" cy="0.3" r="0.6">
    <stop offset="0" stop-color="#FFF8DC"/>
    <stop offset="0.6" stop-color="#F5E6C8"/>
    <stop offset="1" stop-color="#D4C4A0"/>
  </radialGradient>

  <linearGradient id="grad_3758494778" x1="0" y1="0" x2="0" y2="1">
    <stop offset="0" stop-color="#4A90D9"/>
    <stop offset="0.5" stop-color="#1a1a2e"/>
    <stop offset="1" stop-color="#0a0a15"/>
  </linearGradient>

  <linearGradient id="grad_4236983315" x1="0" y1="0" x2="0" y2="1">
    <stop offset="0" stop-color="#F5E6A0"/>
    <stop offset="0.5" stop-color="#D4AF37"/>
    <stop offset="1" stop-color="#B8962E"/>
  </linearGradient>

  </defs>
    <polygon points="0,49 1000,49 1000,392 0,392" fill="url(#grad_1060059248)" stroke="#333333" stroke-width="0.7"/>
    <polygon points="0,392 1000,392 1000,700 0,700" fill="url(#grad_570921381)" stroke="#333333" stroke-width="0.7"/>
    <polygon points="0,0 1000,0 1000,49 0,49" fill="url(#grad_1229650926)" stroke="#333333" stroke-width="0.7"/>
    <polygon points="0,0 1000,0 1000,700 0,700" fill="#1a1a2e" stroke="#333333" stroke-width="0.7" opacity="0.03" style="mix-blend-mode:multiply"/>
    <polygon points="0,371 1000,371 1000,392 0,392" fill="#D4C4A8" stroke="#333333" stroke-width="0.7"/>
    <polygon points="0,42 1000,42 1000,45.5 0,45.5" fill="#D4C4A8" stroke="#333333" stroke-width="0.7"/>
    <polygon points="0,45.5 1000,45.5 1000,49 0,49" fill="#C4B490" stroke="#333333" stroke-width="0.7"/>
    <polygon points="370,98 500,98 500,560 100,560" fill="#FFF8DC" stroke="#333333" stroke-width="0.7" opacity="0.08" style="mix-blend-mode:screen"/>
    <polygon points="350,84 650,84 650,350 350,350" fill="#D8E8F0" stroke="#8B7355" stroke-width="4.2"/>
    <path d="M100,525 C113,522.6669 887,522.6669 900,525 C913,527.3331 893,662.6669 880,665 C867,667.3331 133,667.3331 120,665 C107,662.6669 87,527.3331 100,525 Z" fill="#6B8E6B" stroke="#5A7A5A" stroke-width="0.7"/>
    <polygon points="120,105 260,105 260,294 120,294" fill="#5C4033" stroke="#4A3228" stroke-width="2.1"/>
    <polygon points="720,105 920,105 920,350 720,350" fill="#8B7355" stroke="#6B5535" stroke-width="2.8"/>
    <polygon points="550,280 680,280 680,364 550,364" fill="#3E2723" stroke="#2C1810" stroke-width="2.1"/>
    <path d="M450,70 C456.667,59.5 543.333,59.5 550,70 C556.667,80.5 656.667,374.5 650,385 C643.333,395.5 356.667,395.5 350,385 C343.333,374.5 443.333,80.5 450,70 Z" fill="#FFFACD" stroke="#333333" stroke-width="0.7" opacity="0.04" style="mix-blend-mode:screen"/>
    <ellipse cx="960" cy="196" rx="180" ry="126" fill="#D7A283" stroke="#4D2B27" stroke-width="3.5"/>
    <polygon points="370,98 630,98 630,336 370,336" fill="url(#grad_638069724)" stroke="#A0C4D8" stroke-width="0.7" opacity="0.6"/>
    <polygon points="135,115.5 245,115.5 245,283.5 135,283.5" fill="#F5F0E0" stroke="#333333" stroke-width="0.7"/>
    <polygon points="720,161 920,161 920,175 720,175" fill="#6B5535" stroke="#333333" stroke-width="0.7"/>
    <polygon points="720,231 920,231 920,245 720,245" fill="#6B5535" stroke="#333333" stroke-width="0.7"/>
    <polygon points="720,301 920,301 920,315 720,315" fill="#6B5535" stroke="#333333" stroke-width="0.7"/>
    <polygon points="455,126 495,126 495,168 455,168" fill="#F5F0E0" stroke="#5C4033" stroke-width="2.8"/>
    <polygon points="345,350 655,350 655,357 345,357" fill="#D4C4A8" stroke="#B8A880" stroke-width="2.1"/>
    <polygon points="560,245 670,245 670,280 560,280" fill="url(#grad_3758494778)" stroke="#333" stroke-width="2.1"/>
    <polyline points="500,35 500,56" fill="none" stroke="#D4AF37" stroke-width="2.1"/>
    <polygon points="100,581 500,581 500,588 100,588" fill="#B8A880" stroke="#333333" stroke-width="0.7" opacity="0.3"/>
    <polygon points="575,581 775,581 775,588 575,588" fill="#B8A880" stroke="#333333" stroke-width="0.7" opacity="0.3"/>
    <polygon points="560,637 620,637 620,644 560,644" fill="#B8A880" stroke="#333333" stroke-width="0.7" opacity="0.3"/>
    <polyline points="100,665 880,665" fill="none" stroke="#5A7A5A" stroke-width="2.8" stroke-dasharray="2 3"/>
    <path d="M100,525 C105.833,522.0831 395,522.0831 400,525 C405,527.9169 405.833,697.0831 400,700 C394.167,702.9169 55,702.9169 50,700 C45,697.0831 94.167,527.9169 100,525 Z" fill="#FFF8DC" stroke="#333333" stroke-width="0.7" opacity="0.06" style="mix-blend-mode:screen"/>
    <polygon points="280,644 500,644 500,651 280,651" fill="#B8A880" stroke="#333333" stroke-width="0.7" opacity="0.3"/>
    <polyline points="370,210 630,210" fill="none" stroke="#8B7355" stroke-width="2.8"/>
    <polyline points="500,98 500,336" fill="none" stroke="#8B7355" stroke-width="2.8"/>
    <polygon points="148,126 232,126 232,273 148,273" fill="#A8C4D8" stroke="#333333" stroke-width="0.7"/>
    <polygon points="735,112 760,112 760,157.5 735,157.5" fill="#C0392B" stroke="#333333" stroke-width="0.7"/>
    <polygon points="765,112 785,112 785,157.5 765,157.5" fill="#2980B9" stroke="#333333" stroke-width="0.7"/>
    <polygon points="790,112 830,112 830,157.5 790,157.5" fill="#27AE60" stroke="#333333" stroke-width="0.7"/>
    <polygon points="835,119 860,119 860,157.5 835,157.5" fill="#8E44AD" stroke="#333333" stroke-width="0.7"/>
    <polygon points="865,112 905,112 905,157.5 865,157.5" fill="#D4A017" stroke="#333333" stroke-width="0.7"/>
    <polygon points="735,178.5 755,178.5 755,227.5 735,227.5" fill="#E67E22" stroke="#333333" stroke-width="0.7"/>
    <polygon points="760,178.5 790,178.5 790,227.5 760,227.5" fill="#1ABC9C" stroke="#333333" stroke-width="0.7"/>
    <polygon points="795,182 825,182 825,227.5 795,227.5" fill="#E74C3C" stroke="#333333" stroke-width="0.7"/>
    <polygon points="830,178.5 865,178.5 865,227.5 830,227.5" fill="#3498DB" stroke="#333333" stroke-width="0.7"/>
    <polygon points="870,182 905,182 905,227.5 870,227.5" fill="#9B59B6" stroke="#333333" stroke-width="0.7"/>
    <polygon points="735,248.5 770,248.5 770,297.5 735,297.5" fill="#2ECC71" stroke="#333333" stroke-width="0.7"/>
    <polygon points="775,252 800,252 800,297.5 775,297.5" fill="#F39C12" stroke="#333333" stroke-width="0.7"/>
    <polygon points="805,248.5 840,248.5 840,297.5 805,297.5" fill="#C0392B" stroke="#333333" stroke-width="0.7"/>
    <polygon points="845,248.5 880,248.5 880,297.5 845,297.5" fill="#2980B9" stroke="#333333" stroke-width="0.7"/>
    <polygon points="885,252 905,252 905,297.5 885,297.5" fill="#D35400" stroke="#333333" stroke-width="0.7"/>
    <polyline points="475,150.5 485,150.5" fill="none" stroke="#333" stroke-width="2.1"/>
    <polyline points="475,150.5 475,136.5" fill="none" stroke="#333" stroke-width="1.4"/>
    <polygon points="560,287 615,287 615,357 560,357" fill="#4E342E" stroke="#3E2723" stroke-width="1.4"/>
    <polygon points="450,56 550,56 550,70 450,70" fill="url(#grad_4236983315)" stroke="#B8962E" stroke-width="2.1"/>
    <polyline points="450,56 420,42" fill="none" stroke="#D4AF37" stroke-width="1.4"/>
    <polyline points="550,56 580,42" fill="none" stroke="#D4AF37" stroke-width="1.4"/>
    <path d="M350,70 C365,63 635,63 650,70 C665,77 665,203 650,210 C635,217 365,217 350,210 C335,203 335,77 350,70 Z" fill="#FFFACD" stroke="#333333" stroke-width="0.7" opacity="0.06" style="mix-blend-mode:screen"/>
    <path d="M560,245 C562.167,244.1831 667.833,244.1831 670,245 C672.167,245.8169 692.167,293.1831 690,294 C687.833,294.8169 542.167,294.8169 540,294 C537.833,293.1831 557.833,245.8169 560,245 Z" fill="#ADD8E6" stroke="#333333" stroke-width="0.7" opacity="0.15" style="mix-blend-mode:screen"/>
    <path d="M300,70 C300.833,65.1 349.167,65.1 350,70 C350.833,74.9 350.833,359.1 350,364 C349.167,368.9 300.833,368.9 300,364 C299.167,359.1 299.167,74.9 300,70 Z" fill="#8B6F47" stroke="#6B5535" stroke-width="2.8"/>
    <path d="M650,70 C650.833,65.1 699.167,65.1 700,70 C700.833,74.9 700.833,359.1 700,364 C699.167,368.9 650.833,368.9 650,364 C649.167,359.1 649.167,74.9 650,70 Z" fill="#8B6F47" stroke="#6B5535" stroke-width="2.8"/>
    <polygon points="148,126 232,126 232,196 148,196" fill="#87CEEB" stroke="#333333" stroke-width="0.7"/>
    <path d="M148,231 C144.9,227.85 167.9,169.05 170,168 C172.1,166.95 188,209.65 190,210 C192,210.35 207.9,173.95 210,175 C212.1,176.05 235.1,228.2 232,231 C228.9,233.8 151.1,234.15 148,231 Z" fill="#6B8E6B" stroke="#333333" stroke-width="0.7"/>
    <path d="M474,149.8 C474.267,149.6131 475.733,149.6131 476,149.8 C476.267,149.9869 476.267,151.0131 476,151.2 C475.733,151.3869 474.267,151.3869 474,151.2 C473.733,151.0131 473.733,149.9869 474,149.8 Z" fill="#333" stroke="#333333" stroke-width="0.7"/>
    <path d="M630,294 C630.333,293.8831 669.667,293.8831 670,294 C670.333,294.1169 670.333,307.8831 670,308 C669.667,308.1169 630.333,308.1169 630,308 C629.667,307.8831 629.667,294.1169 630,294 Z" fill="#D4AF37" stroke="#B8962E" stroke-width="1.4"/>
    <path d="M500,385 C504,373.45 576,373.45 580,385 C584,396.55 584,604.45 580,616 C576,627.55 504,627.55 500,616 C496,604.45 496,396.55 500,385 Z" fill="#FFF8DC" stroke="#333333" stroke-width="0.7" opacity="0.08" style="mix-blend-mode:screen"/>
    <polygon points="350,84 650,84 650,406 350,406" fill="#FFF8DC" stroke="#333333" stroke-width="0.7" opacity="0.04" style="mix-blend-mode:screen"/>
    <path d="M400,28 C406.667,27.0669 593.333,27.0669 600,28 C606.667,28.9331 606.667,55.0669 600,56 C593.333,56.9331 406.667,56.9331 400,56 C393.333,55.0669 393.333,28.9331 400,28 Z" fill="#FFFACD" stroke="#333333" stroke-width="0.7" opacity="0.1" style="mix-blend-mode:screen"/>
    <path d="M500,364 C503.5,361.2 566.5,361.2 570,364 C573.5,366.8 573.5,417.2 570,420 C566.5,422.8 503.5,422.8 500,420 C496.5,417.2 496.5,366.8 500,364 Z" fill="#FFF8DC" stroke="#333333" stroke-width="0.7" opacity="0.12" style="mix-blend-mode:screen"/>
    <polygon points="280,63 720,63 720,77 280,77" fill="#5C4033" stroke="#4A3228" stroke-width="2.1"/>
    <path d="M200,133 C201.333,130.2 208.667,130.2 210,133 C211.333,135.8 211.333,151.2 210,154 C208.667,156.8 201.333,156.8 200,154 C198.667,151.2 198.667,135.8 200,133 Z" fill="#FFD700" stroke="#333333" stroke-width="0.7"/>
    <path d="M100,420 C103.333,419.3 496.667,419.3 500,420 C503.333,420.7 503.333,503.3 500,504 C496.667,504.7 103.333,504.7 100,504 C96.667,503.3 96.667,420.7 100,420 Z" fill="url(#grad_2802198717)" stroke="#6B3410" stroke-width="2.8"/>
    <path d="M575.25,420 C576.913,419.3 773.088,419.3 774.75,420 C776.413,420.7 776.413,503.3 774.75,504 C773.088,504.7 576.913,504.7 575.25,504 C573.588,503.3 573.588,420.7 575.25,420 Z" fill="url(#grad_2802198717)" stroke="#1A252F" stroke-width="2.8"/>
    <polygon points="305,70 315,70 315,364 305,364" fill="#7A5F3E" stroke="#333333" stroke-width="0.7" opacity="0.4"/>
    <polygon points="325,70 335,70 335,364 325,364" fill="#7A5F3E" stroke="#333333" stroke-width="0.7" opacity="0.4"/>
    <polygon points="665,70 675,70 675,364 665,364" fill="#7A5F3E" stroke="#333333" stroke-width="0.7" opacity="0.4"/>
    <polygon points="685,70 695,70 695,364 685,364" fill="#7A5F3E" stroke="#333333" stroke-width="0.7" opacity="0.4"/>
    <path d="M330,350 C327.5,347.0831 303.333,330.1669 300,329 C296.667,327.8331 287.5,333.0831 290,336 C292.5,338.9169 326.667,362.8331 330,364 C333.333,365.1669 332.5,352.9169 330,350 Z" fill="#FF8C00" stroke="#E67E22" stroke-width="2.1"/>
    <path d="M100,504 C103.333,503.4169 496.667,503.4169 500,504 C503.333,504.5831 503.333,573.4169 500,574 C496.667,574.5831 103.333,574.5831 100,574 C96.667,573.4169 96.667,504.5831 100,504 Z" fill="url(#grad_2802198717)" stroke="#8B4513" stroke-width="2.8"/>
    <polygon points="120,574 130,574 130,588 120,588" fill="#3E2723" stroke="#333333" stroke-width="0.7"/>
    <polygon points="470,574 480,574 480,588 470,588" fill="#3E2723" stroke="#333333" stroke-width="0.7"/>
    <path d="M575.25,504 C576.913,503.4169 773.088,503.4169 774.75,504 C776.413,504.5831 776.413,573.4169 774.75,574 C773.088,574.5831 576.913,574.5831 575.25,574 C573.588,573.4169 573.588,504.5831 575.25,504 Z" fill="url(#grad_2802198717)" stroke="#2C3E50" stroke-width="2.8"/>
    <polygon points="620,574 630,574 630,588 620,588" fill="#1A252F" stroke="#333333" stroke-width="0.7"/>
    <polygon points="730,574 740,574 740,588 730,588" fill="#1A252F" stroke="#333333" stroke-width="0.7"/>
    <path d="M530,616 C530.583,615.5331 559.417,615.5331 560,616 C560.583,616.4669 565.583,643.5331 565,644 C564.417,644.4669 525.583,644.4669 525,644 C524.417,643.5331 529.417,616.4669 530,616 Z" fill="#D4AF37" stroke="#B8962E" stroke-width="2.1"/>
    <path d="M780,602 C780.292,601.5919 819.708,601.5919 820,602 C820.292,602.4081 815.292,650.5919 815,651 C814.708,651.4081 785.292,651.4081 785,651 C784.708,650.5919 779.708,602.4081 780,602 Z" fill="#8B4513" stroke="#6B3410" stroke-width="2.1"/>
    <polygon points="570,602 575,602 575,637 570,637" fill="#4A2E1A" stroke="#333333" stroke-width="0.7"/>
    <polygon points="605,602 610,602 610,637 605,637" fill="#4A2E1A" stroke="#333333" stroke-width="0.7"/>
    <path d="M330,350 C334,348.6 406,348.6 410,350 C414,351.4 414,376.6 410,378 C406,379.4 334,379.4 330,378 C326,376.6 326,351.4 330,350 Z" fill="#FF8C00" stroke="#E67E22" stroke-width="2.1"/>
    <polygon points="290,630 295,630 295,651 290,651" fill="#4A2E1A" stroke="#333333" stroke-width="0.7"/>
    <polygon points="485,630 490,630 490,651 485,651" fill="#4A2E1A" stroke="#333333" stroke-width="0.7"/>
    <path d="M100,420 C100.333,418.7169 139.667,418.7169 140,420 C140.333,421.2831 140.333,572.7169 140,574 C139.667,575.2831 100.333,575.2831 100,574 C99.667,572.7169 99.667,421.2831 100,420 Z" fill="url(#grad_2802198717)" stroke="#6B3410" stroke-width="2.1"/>
    <path d="M460,420 C460.333,418.7169 499.667,418.7169 500,420 C500.333,421.2831 500.333,572.7169 500,574 C499.667,575.2831 460.333,575.2831 460,574 C459.667,572.7169 459.667,421.2831 460,420 Z" fill="url(#grad_2802198717)" stroke="#6B3410" stroke-width="2.1"/>
    <path d="M575.25,448 C575.582,446.95 614.818,446.95 615.15,448 C615.482,449.05 615.482,572.95 615.15,574 C614.818,575.05 575.582,575.05 575.25,574 C574.918,572.95 574.918,449.05 575.25,448 Z" fill="url(#grad_2802198717)" stroke="#1A252F" stroke-width="2.1"/>
    <path d="M734.85,448 C735.182,446.95 774.418,446.95 774.75,448 C775.083,449.05 775.083,572.95 774.75,574 C774.418,575.05 735.182,575.05 734.85,574 C734.518,572.95 734.518,449.05 734.85,448 Z" fill="url(#grad_2802198717)" stroke="#1A252F" stroke-width="2.1"/>
    <polygon points="543,455 547,455 555,616 535,616" fill="url(#grad_1959155459)" stroke="#B8962E" stroke-width="1.4"/>
    <polygon points="780,602 820,602 820,616 780,616" fill="#3E2723" stroke="#333333" stroke-width="0.7"/>
    <path d="M560,574 C560.3,573.86 619.7,573.86 620,574 C620.3,574.14 620.3,601.86 620,602 C619.7,602.14 560.3,602.14 560,602 C559.7,601.86 559.7,574.14 560,574 Z" fill="#6B4226" stroke="#4A2E1A" stroke-width="2.1"/>
    <path d="M405,336 C406.333,334.8331 423.667,334.8331 425,336 C426.333,337.1669 426.333,352.3331 425,353.5 C423.667,354.6669 406.333,354.6669 405,353.5 C403.667,352.3331 403.667,337.1669 405,336 Z" fill="#FF8C00" stroke="#E67E22" stroke-width="2.1"/>
    <path d="M280,595 C281.1,594.825 498.9,594.825 500,595 C501.1,595.175 501.1,629.825 500,630 C498.9,630.175 281.1,630.175 280,630 C278.9,629.825 278.9,595.175 280,595 Z" fill="#6B4226" stroke="#4A2E1A" stroke-width="2.8"/>
    <path d="M150,511 C151.292,510.5331 303.708,510.5331 305,511 C306.292,511.4669 306.292,566.5331 305,567 C303.708,567.4669 151.292,567.4669 150,567 C148.708,566.5331 148.708,511.4669 150,511 Z" fill="#B8652A" stroke="#A0522D" stroke-width="0.7"/>
    <path d="M315,511 C316.125,510.5331 448.875,510.5331 450,511 C451.125,511.4669 451.125,566.5331 450,567 C448.875,567.4669 316.125,567.4669 315,567 C313.875,566.5331 313.875,511.4669 315,511 Z" fill="#B8652A" stroke="#A0522D" stroke-width="0.7"/>
    <path d="M510,420 C511.083,419.4169 578.917,419.4169 580,420 C581.083,420.5831 576.083,454.4169 575,455 C573.917,455.5831 516.083,455.5831 515,455 C513.917,454.4169 508.917,420.5831 510,420 Z" fill="url(#grad_2105123760)" stroke="#D4C4A0" stroke-width="2.1"/>
    <path d="M800,602 C798.333,598.2669 780.667,550.2 780,546 C779.333,541.8 788.333,535.2669 790,539 C791.667,542.7331 804.333,597.8 805,602 C805.667,606.2 801.667,605.7331 800,602 Z" fill="#2E7D32" stroke="#1B5E20" stroke-width="2.1"/>
    <path d="M800,602 C800.333,597.3331 818,536.6669 820,532 C822,527.3331 830.333,527.3331 830,532 C829.667,536.6669 817,597.3331 815,602 C813,606.6669 799.667,606.6669 800,602 Z" fill="#388E3C" stroke="#2E7D32" stroke-width="2.1"/>
    <path d="M800,602 C798.667,595.4669 790,511 790,504 C790,497 798.667,490.4669 800,497 C801.333,503.5331 810,595 810,602 C810,609 801.333,608.5331 800,602 Z" fill="#43A047" stroke="#388E3C" stroke-width="2.1"/>
    <path d="M800,602 C801.667,596.4 837,523.1331 840,518 C843,512.8669 846.667,519.4 845,525 C843.333,530.6 818,596.8669 815,602 C812,607.1331 798.333,607.6 800,602 Z" fill="#2E7D32" stroke="#1B5E20" stroke-width="2.1"/>
    <path d="M585,570.5 C585.125,570.4706 599.875,570.4706 600,570.5 C600.125,570.5294 600.125,573.9706 600,574 C599.875,574.0294 585.125,574.0294 585,574 C584.875,573.9706 584.875,570.5294 585,570.5 Z" fill="#D4AF37" stroke="#B8962E" stroke-width="1.4"/>
    <polygon points="565,584.5 582,584.5 582,598.5 565,598.5" fill="#8E44AD" stroke="#6C3483" stroke-width="1.4"/>
    <path d="M800,602 C797.667,596.4 771.333,524.0669 770,518 C768.667,511.9331 777.667,505.4 780,511 C782.333,516.6 803.667,595.9331 805,602 C806.333,608.0669 802.333,607.6 800,602 Z" fill="#43A047" stroke="#2E7D32" stroke-width="2.1"/>
    <path d="M800,602 C801,594.5331 827.333,497 830,490 C832.667,483 841,489.5331 840,497 C839,504.4669 817.667,595 815,602 C812.333,609 799,609.4669 800,602 Z" fill="#388E3C" stroke="#2E7D32" stroke-width="2.1"/>
    <path d="M408,336 C407.867,335.7669 413.667,329 414,329 C414.333,329 418.2,335.7669 418,336 C417.8,336.2331 408.133,336.2331 408,336 Z" fill="#FF8C00" stroke="#E67E22" stroke-width="0.7"/>
    <path d="M418,336 C417.9,335.7669 421.767,329 422,329 C422.233,329 425.133,335.7669 425,336 C424.867,336.2331 418.1,336.2331 418,336 Z" fill="#FF8C00" stroke="#E67E22" stroke-width="0.7"/>
    <path d="M570,504 C572,500.5 608,500.5 610,504 C612,507.5 612,570.5 610,574 C608,577.5 572,577.5 570,574 C568,570.5 568,507.5 570,504 Z" fill="#FFFACD" stroke="#333333" stroke-width="0.7" opacity="0.08" style="mix-blend-mode:screen"/>
    <path d="M560,504 C563,500.5 617,500.5 620,504 C623,507.5 623,570.5 620,574 C617,577.5 563,577.5 560,574 C557,570.5 557,507.5 560,504 Z" fill="#FFFACD" stroke="#333333" stroke-width="0.7" opacity="0.1" style="mix-blend-mode:screen"/>
    <path d="M300,609 C300.8,608.9475 459.2,608.9475 460,609 C460.8,609.0525 460.8,619.4475 460,619.5 C459.2,619.5525 300.8,619.5525 300,619.5 C299.2,619.4475 299.2,609.0525 300,609 Z" fill="#D4C4A0" stroke="#B8A880" stroke-width="2.1"/>
    <path d="M155,423.5 C156.625,421.6625 218.375,421.6625 220,423.5 C221.625,425.3375 221.625,495.1625 220,497 C218.375,498.8375 156.625,498.8375 155,497 C153.375,495.1625 153.375,425.3375 155,423.5 Z" fill="#E8D44D" stroke="#C4B830" stroke-width="0.7"/>
    <path d="M380,423.5 C381.625,421.6625 443.375,421.6625 445,423.5 C446.625,425.3375 446.625,495.1625 445,497 C443.375,498.8375 381.625,498.8375 380,497 C378.375,495.1625 378.375,425.3375 380,423.5 Z" fill="#E8D44D" stroke="#C4B830" stroke-width="0.7"/>
    <path d="M360,546 C360.75,544.8625 389.25,544.8625 390,546 C390.75,547.1375 390.75,590.3625 390,591.5 C389.25,592.6375 360.75,592.6375 360,591.5 C359.25,590.3625 359.25,547.1375 360,546 Z" fill="#5DADE2" stroke="#2E86C1" stroke-width="2.1"/>
    <path d="M580,553 C580.167,552.8544 604.833,552.8544 605,553 C605.167,553.1456 600.167,570.3544 600,570.5 C599.833,570.6456 585.167,570.6456 585,570.5 C584.833,570.3544 579.833,553.1456 580,553 Z" fill="url(#grad_1018028072)" stroke="#D4C4A0" stroke-width="2.1"/>
    <path d="M510,420 C511.333,419.4169 578.667,419.4169 580,420 C581.333,420.5831 591.333,454.4169 590,455 C588.667,455.5831 501.333,455.5831 500,455 C498.667,454.4169 508.667,420.5831 510,420 Z" fill="#FFF8DC" stroke="#333333" stroke-width="0.7" opacity="0.15"/>
    <path d="M410,340.2 C410.267,339.8269 411.733,339.8269 412,340.2 C412.267,340.5731 412.267,342.6269 412,343 C411.733,343.3731 410.267,343.3731 410,343 C409.733,342.6269 409.733,340.5731 410,340.2 Z" fill="#2ECC71" stroke="#333333" stroke-width="0.7"/>
    <path d="M418,340.2 C418.267,339.8269 419.733,339.8269 420,340.2 C420.267,340.5731 420.267,342.6269 420,343 C419.733,343.3731 418.267,343.3731 418,343 C417.733,342.6269 417.733,340.5731 418,340.2 Z" fill="#2ECC71" stroke="#333333" stroke-width="0.7"/>
    <path d="M330,598.5 C331.25,598.4594 478.75,598.4594 480,598.5 C481.25,598.5406 481.25,603.3594 480,603.4 C478.75,603.4406 331.25,603.4406 330,603.4 C328.75,603.3594 328.75,598.5406 330,598.5 Z" fill="#FFF8DC" stroke="#333333" stroke-width="0.7" opacity="0.08" style="mix-blend-mode:screen"/>
    <path d="M375,546 C375,546 365,504 365,504" fill="none" stroke="#27AE60" stroke-width="2.1"/>
    <path d="M375,546 C375,546 385,490 385,490" fill="none" stroke="#27AE60" stroke-width="2.1"/>
    <path d="M360,500.5 C361.333,499.5669 368.667,499.5669 370,500.5 C371.333,501.4331 371.333,506.5669 370,507.5 C368.667,508.4331 361.333,508.4331 360,507.5 C358.667,506.5669 358.667,501.4331 360,500.5 Z" fill="#E74C3C" stroke="#333333" stroke-width="0.7"/>
    <path d="M380,486.5 C381.333,485.5669 388.667,485.5669 390,486.5 C391.333,487.4331 391.333,492.5669 390,493.5 C388.667,494.4331 381.333,494.4331 380,493.5 C378.667,492.5669 378.667,487.4331 380,486.5 Z" fill="#F39C12" stroke="#333333" stroke-width="0.7"/>
    <path d="M183,469 C186.467,466.2 193.067,463.3069 198,462 C202.933,460.6931 214.133,459.2 220,459.2 C225.867,459.2 237.067,460.6931 242,462 C246.933,463.3069 253.533,466.2 257,469 C260.467,471.8 266,478.3331 268,483 C270,487.6669 271.733,498.4 272,504 C272.267,509.6 270.933,518.4669 270,525 C269.067,531.5331 269,548.8 265,553 C261,557.2 246,555.7531 240,556.5 C234,557.2469 225.333,558.6 220,558.6 C214.667,558.6 206,557.2469 200,556.5 C194,555.7531 179,557.2 175,553 C171,548.8 170.933,531.5331 170,525 C169.067,518.4669 167.733,509.6 168,504 C168.267,498.4 170,487.6669 172,483 C174,478.3331 179.533,471.8 183,469 Z" fill="#D7A283" stroke="#4D2B27" stroke-width="3.5"/>
    <path d="M185,476 C182.067,474.6 170.933,477.6331 168,479.5 C165.067,481.3669 163,487.48 163,490 C163,492.52 165.733,497.28 168,498.4 C170.267,499.52 177.067,499.52 180,498.4 C182.933,497.28 189.333,492.9869 190,490 C190.667,487.0131 187.933,477.4 185,476 Z" fill="#D7A283" stroke="#4D2B27" stroke-width="3.5"/>
    <ellipse cx="195" cy="556.5" rx="20" ry="8.4" fill="#D7A283" stroke="#4D2B27" stroke-width="3.5"/>
    <ellipse cx="245" cy="556.5" rx="20" ry="8.4" fill="#D7A283" stroke="#4D2B27" stroke-width="3.5"/>
    <path d="M323,469 C326.467,466.2 333.067,463.3069 338,462 C342.933,460.6931 354.133,459.2 360,459.2 C365.867,459.2 377.067,460.6931 382,462 C386.933,463.3069 393.533,466.2 397,469 C400.467,471.8 406,478.3331 408,483 C410,487.6669 411.733,498.4 412,504 C412.267,509.6 410.933,518.4669 410,525 C409.067,531.5331 409,548.8 405,553 C401,557.2 386,555.7531 380,556.5 C374,557.2469 365.333,558.6 360,558.6 C354.667,558.6 346,557.2469 340,556.5 C334,555.7531 319,557.2 315,553 C311,548.8 310.933,531.5331 310,525 C309.067,518.4669 307.733,509.6 308,504 C308.267,498.4 310,487.6669 312,483 C314,478.3331 319.533,471.8 323,469 Z" fill="#F8F8F6" stroke="#4A2C29" stroke-width="3.5"/>
    <path d="M395,476 C397.4,474.6 405.333,477.6331 408,479.5 C410.667,481.3669 414.733,487.48 415,490 C415.267,492.52 412,497.28 410,498.4 C408,499.52 402.667,499.52 400,498.4 C397.333,497.28 390.667,492.9869 390,490 C389.333,487.0131 392.6,477.4 395,476 Z" fill="#F8F8F6" stroke="#4A2C29" stroke-width="3.5"/>
    <ellipse cx="335" cy="556.5" rx="20" ry="8.4" fill="#F8F8F6" stroke="#4A2C29" stroke-width="3.5"/>
    <ellipse cx="385" cy="556.5" rx="20" ry="8.4" fill="#F8F8F6" stroke="#4A2C29" stroke-width="3.5"/>
    <ellipse cx="403" cy="549.5" rx="10" ry="5.6" fill="#4A2C29" stroke="#4A2C29" stroke-width="2.1"/>
    <path d="M255,476 C256.6,475.0669 266.667,475.0669 270,476 C273.333,476.9331 278.667,480.6669 280,483 C281.333,485.3331 281.333,492.1 280,493.5 C278.667,494.9 272.933,494.9 270,493.5 C267.067,492.1 260,485.3331 258,483 C256,480.6669 253.4,476.9331 255,476 Z" fill="#D7A283" stroke="#4D2B27" stroke-width="3.5"/>
    <path d="M175,490 C173.417,489.7081 166.583,492.8 166,493.5 C165.417,494.2 167,497.875 168,498.4 C169,498.925 176.583,499.9169 178,499.8 C179.417,499.6831 185.25,497.8169 185,497 C184.75,496.1831 176.583,490.2919 175,490 Z" fill="#D4B896" stroke="#C4A880" stroke-width="2.1"/>
    <path d="M270,484.4 C270.667,484.1669 277.167,486.6169 278,487.2 C278.833,487.7831 280.25,490.875 280,491.4 C279.75,491.925 275.833,493.6169 275,493.5 C274.167,493.3831 270.417,490.7581 270,490 C269.583,489.2419 269.333,484.6331 270,484.4 Z" fill="#D4B896" stroke="#C4A880" stroke-width="2.1"/>
    <ellipse cx="195" cy="558.6" rx="14" ry="5.6" fill="#D4B896" stroke="#C4A880" stroke-width="2.1"/>
    <ellipse cx="245" cy="558.6" rx="14" ry="5.6" fill="#D4B896" stroke="#C4A880" stroke-width="2.1"/>
    <path d="M315,467.6 C316.75,466.2931 324.75,464.0531 330,463.4 C335.25,462.7469 353.583,462 360,462 C366.417,462 379.75,462.7469 385,463.4 C390.25,464.0531 402.317,466.2931 405,467.6 C407.683,468.9069 409.167,473.4569 408,474.6 C406.833,475.7431 400.6,476.91 395,477.4 C389.4,477.89 367.583,478.8 360,478.8 C352.417,478.8 335.25,477.89 330,477.4 C324.75,476.91 316.75,475.7431 315,474.6 C313.25,473.4569 313.25,468.9069 315,467.6 Z" fill="#4A2C29" stroke="#333333" stroke-width="0.7"/>
    <path d="M322,476 C320.933,475.0669 312.933,475.0669 310,476 C307.067,476.9331 301.333,480.6669 300,483 C298.667,485.3331 298.667,492.1 300,493.5 C301.333,494.9 307.6,494.9 310,493.5 C312.4,492.1 316.4,485.3331 318,483 C319.6,480.6669 323.067,476.9331 322,476 Z" fill="#F8F8F6" stroke="#4A2C29" stroke-width="3.5"/>
    <ellipse cx="342" cy="518" rx="5" ry="4.2" fill="#4A2C29" stroke="#333333" stroke-width="0.7"/>
    <ellipse cx="335" cy="558.6" rx="14" ry="5.6" fill="#FFFCF5" stroke="#E0D8C8" stroke-width="2.1"/>
    <ellipse cx="385" cy="558.6" rx="14" ry="5.6" fill="#FFFCF5" stroke="#E0D8C8" stroke-width="2.1"/>
    <ellipse cx="220" cy="439.6" rx="72" ry="50.4" fill="#D7A283" stroke="#4D2B27" stroke-width="3.5"/>
    <ellipse cx="360" cy="439.6" rx="72" ry="50.4" fill="#F8F8F6" stroke="#4A2C29" stroke-width="3.5"/>
    <ellipse cx="178" cy="400.4" rx="12" ry="9.8" fill="#D7A283" stroke="#4D2B27" stroke-width="3.5"/>
    <ellipse cx="262" cy="400.4" rx="12" ry="9.8" fill="#D7A283" stroke="#4D2B27" stroke-width="3.5"/>
    <ellipse cx="318" cy="400.4" rx="12" ry="9.8" fill="#4A2C29" stroke="#4A2C29" stroke-width="2.8"/>
    <ellipse cx="402" cy="400.4" rx="12" ry="9.8" fill="#4A2C29" stroke="#4A2C29" stroke-width="2.8"/>
    <ellipse cx="181" cy="401.8" rx="7" ry="6.3" fill="#B97C62" stroke="#333333" stroke-width="0.7"/>
    <ellipse cx="259" cy="401.8" rx="7" ry="6.3" fill="#B97C62" stroke="#333333" stroke-width="0.7"/>
    <ellipse cx="202" cy="429.8" rx="2" ry="1.75" fill="#3C2623" stroke="#333333" stroke-width="0.7"/>
    <ellipse cx="238" cy="429.8" rx="2" ry="1.75" fill="#3C2623" stroke="#333333" stroke-width="0.7"/>
    <ellipse cx="220" cy="453.6" rx="2.5" ry="2.45" fill="#3C2623" stroke="#333333" stroke-width="0.7"/>
    <path d="M207,460.6 C205.1,461.16 212.7,465.36 214,466.2 C215.3,467.04 218.8,469 220,469 C221.2,469 224.7,467.04 226,466.2 C227.3,465.36 234.9,461.16 233,460.6 C231.1,460.04 208.9,460.04 207,460.6 Z" fill="#F26F8E" stroke="#3C2623" stroke-width="2.1"/>
    <ellipse cx="195" cy="448" rx="6" ry="5.6" fill="#F3C56E" stroke="#333333" stroke-width="0.7" opacity="0.6"/>
    <ellipse cx="245" cy="448" rx="6" ry="5.6" fill="#F3C56E" stroke="#333333" stroke-width="0.7" opacity="0.6"/>
    <ellipse cx="342" cy="429.8" rx="2" ry="1.75" fill="#3C2623" stroke="#333333" stroke-width="0.7"/>
    <ellipse cx="378" cy="429.8" rx="2" ry="1.75" fill="#3C2623" stroke="#333333" stroke-width="0.7"/>
    <ellipse cx="360" cy="453.6" rx="2.5" ry="2.45" fill="#3C2623" stroke="#333333" stroke-width="0.7"/>
    <path d="M347,460.6 C345.1,461.16 352.7,465.36 354,466.2 C355.3,467.04 358.8,469 360,469 C361.2,469 364.7,467.04 366,466.2 C367.3,465.36 374.9,461.16 373,460.6 C371.1,460.04 348.9,460.04 347,460.6 Z" fill="#F8F8F6" stroke="#3C2623" stroke-width="2.1"/>
    <ellipse cx="335" cy="448" rx="6" ry="5.6" fill="#F7BCC9" stroke="#333333" stroke-width="0.7" opacity="0.6"/>
    <ellipse cx="385" cy="448" rx="6" ry="5.6" fill="#F7BCC9" stroke="#333333" stroke-width="0.7" opacity="0.6"/>
    <path d="M211,464.1 C209.833,464.5081 214.25,468.3581 215,469 C215.75,469.6419 219.167,471.8 220,471.8 C220.833,471.8 224.25,469.6419 225,469 C225.75,468.3581 230.167,464.5081 229,464.1 C227.833,463.6919 212.167,463.6919 211,464.1 Z" fill="#F47A96" stroke="#333333" stroke-width="0.7"/>
    <path d="M351,464.1 C349.833,464.5081 354.25,468.3581 355,469 C355.75,469.6419 359.167,471.8 360,471.8 C360.833,471.8 364.25,469.6419 365,469 C365.75,468.3581 370.167,464.5081 369,464.1 C367.833,463.6919 352.167,463.6919 351,464.1 Z" fill="#F57A95" stroke="#333333" stroke-width="0.7"/>
</svg>
