<?xml version="1.0" encoding="UTF-8"?>
<svg xmlns="http://www.w3.org/2000/svg"
     xmlns:xlink="http://www.w3.org/1999/xlink"
     width="1200" height="1600"
     viewBox="0 0 1200 1600">
  <rect width="100%" height="100%" fill="#F0E8D8"/>
    <rect x="18" y="24" width="1158" height="528" fill="#FFFFFF" stroke="#111111" stroke-width="4.8"/>
    <rect x="18" y="576" width="558" height="328" fill="#FFFFFF" stroke="#111111" stroke-width="4.8"/>
    <rect x="606" y="576" width="570" height="328" fill="#FFFFFF" stroke="#111111" stroke-width="4.8"/>
    <rect x="18" y="936" width="1158" height="632" fill="#FFFFFF" stroke="#111111" stroke-width="6"/>
    <ellipse cx="624" cy="336" rx="48" ry="48" fill="#888888" stroke="#333333" stroke-width="6" opacity="0.08"/>
    <line x1="72" y1="1120" x2="360" y2="1120" fill="none" stroke="#999999" stroke-width="1.8"/>
    <line x1="72" y1="1184" x2="420" y2="1184" fill="none" stroke="#999999" stroke-width="1.8"/>
    <line x1="72" y1="1248" x2="456" y2="1248" fill="none" stroke="#999999" stroke-width="1.8"/>
    <line x1="72" y1="1312" x2="504" y2="1312" fill="none" stroke="#999999" stroke-width="1.8"/>
    <line x1="72" y1="1376" x2="384" y2="1376" fill="none" stroke="#999999" stroke-width="1.8"/>
    <line x1="72" y1="1440" x2="528" y2="1440" fill="none" stroke="#999999" stroke-width="1.8"/>
    <line x1="780" y1="1120" x2="1140" y2="1120" fill="none" stroke="#999999" stroke-width="1.8"/>
    <line x1="780" y1="1376" x2="1140" y2="1376" fill="none" stroke="#999999" stroke-width="1.8"/>
    <rect x="300" y="1200" width="9.6" height="48" rx="4.8" fill="#999999" stroke="#333333" stroke-width="6" opacity="0.5"/>
    <rect x="420" y="1288" width="7.2" height="40" rx="3.6" fill="#999999" stroke="#333333" stroke-width="6" opacity="0.5"/>
    <rect x="660" y="1152" width="7.2" height="40" rx="3.6" fill="#999999" stroke="#333333" stroke-width="6" opacity="0.5"/>
    <rect x="720" y="1200" width="6" height="32" rx="3" fill="#999999" stroke="#333333" stroke-width="6" opacity="0.5"/>
    <ellipse cx="600" cy="552" rx="240" ry="16" fill="#888888" stroke="#333333" stroke-width="6" opacity="0.06"/>
    <ellipse cx="900" cy="880" rx="144" ry="24" fill="#888888" stroke="#333333" stroke-width="6" opacity="0.06"/>
    <ellipse cx="600" cy="536" rx="420" ry="40" fill="#999999" stroke="#333333" stroke-width="6" opacity="0.08"/>
    <ellipse cx="600" cy="480" rx="24" ry="28.8" fill="#888888" stroke="#333333" stroke-width="6" opacity="0.06"/>
    <line x1="96" y1="576" x2="1104" y2="576" fill="none" stroke="#CCCCCC" stroke-width="1.2"/>
    <line x1="360" y1="576" x2="384" y2="624" fill="none" stroke="#FFD700" stroke-width="1.2" opacity="0.4"/>
    <line x1="396" y1="576" x2="360" y2="640" fill="none" stroke="#FFD700" stroke-width="1.2" opacity="0.4"/>
    <line x1="420" y1="576" x2="420" y2="656" fill="none" stroke="#FFD700" stroke-width="1.2" opacity="0.3"/>
    <line x1="72" y1="880" x2="528" y2="880" fill="none" stroke="#CCCCCC" stroke-width="1.2"/>
    <line x1="840" y1="640" x2="840" y2="880" fill="none" stroke="#999999" stroke-width="1.2" opacity="0.2"/>
    <line x1="888" y1="608" x2="888" y2="872" fill="none" stroke="#999999" stroke-width="1.2" opacity="0.2"/>
    <line x1="936" y1="624" x2="936" y2="864" fill="none" stroke="#999999" stroke-width="1.2" opacity="0.15"/>
    <line x1="792" y1="640" x2="792" y2="880" fill="none" stroke="#999999" stroke-width="1.2" opacity="0.15"/>
    <ellipse cx="900" cy="864" rx="144" ry="24" fill="#888888" stroke="#333333" stroke-width="6" opacity="0.06"/>
    <line x1="636" y1="864" x2="1152" y2="864" fill="none" stroke="#CCCCCC" stroke-width="1.2"/>
    <line x1="180" y1="992" x2="420" y2="1088" fill="none" stroke="#999999" stroke-width="2.4" opacity="0.4"/>
    <line x1="180" y1="1056" x2="456" y2="1152" fill="none" stroke="#999999" stroke-width="2.4" opacity="0.35"/>
    <line x1="180" y1="1152" x2="480" y2="1248" fill="none" stroke="#999999" stroke-width="2.4" opacity="0.3"/>
    <line x1="180" y1="1248" x2="420" y2="1344" fill="none" stroke="#999999" stroke-width="2.4" opacity="0.35"/>
    <line x1="180" y1="1344" x2="480" y2="1440" fill="none" stroke="#999999" stroke-width="2.4" opacity="0.3"/>
    <line x1="180" y1="1408" x2="384" y2="1504" fill="none" stroke="#999999" stroke-width="1.8" opacity="0.25"/>
    <line x1="840" y1="992" x2="1140" y2="1120" fill="none" stroke="#999999" stroke-width="2.4" opacity="0.25"/>
    <line x1="840" y1="1344" x2="1140" y2="1472" fill="none" stroke="#999999" stroke-width="2.4" opacity="0.25"/>
    <line x1="48" y1="960" x2="72" y2="1248" fill="none" stroke="#888888" stroke-width="3.6" opacity="0.5"/>
    <line x1="24" y1="1040" x2="108" y2="1360" fill="none" stroke="#888888" stroke-width="2.4" opacity="0.4"/>
    <line x1="36" y1="880" x2="84" y2="1120" fill="none" stroke="#888888" stroke-width="2.4" opacity="0.35"/>
    <ellipse cx="48" cy="1152" rx="18" ry="16" fill="#CCCCCC" stroke="#333333" stroke-width="6" opacity="0.3"/>
    <ellipse cx="72" cy="1120" rx="12" ry="9.6" fill="#CCCCCC" stroke="#333333" stroke-width="6" opacity="0.25"/>
    <ellipse cx="576" cy="264" rx="108" ry="88" fill="#D4A070" stroke="#333333" stroke-width="6" opacity="0.3"/>
    <ellipse cx="600" cy="368" rx="96" ry="56" fill="#E8D0B0" stroke="#333333" stroke-width="6" opacity="0.3"/>
    <ellipse cx="306" cy="720" rx="48" ry="56" fill="#D4A070" stroke="#333333" stroke-width="6" opacity="0.25"/>
    <ellipse cx="888" cy="768" rx="60" ry="44.8" fill="#D4A070" stroke="#333333" stroke-width="6" opacity="0.25"/>
    <ellipse cx="852" cy="784" rx="48" ry="40" fill="#E8D0B0" stroke="#333333" stroke-width="6" opacity="0.2"/>
    <ellipse cx="600" cy="1232" rx="72" ry="40" fill="#D4A070" stroke="#333333" stroke-width="6" opacity="0.25"/>
    <ellipse cx="552" cy="1264" rx="48" ry="32" fill="#E8D0B0" stroke="#333333" stroke-width="6" opacity="0.2"/>
    <rect x="18" y="24" width="1158" height="400" fill="#E8E0D0" stroke="#333333" stroke-width="6"/>
    <rect x="18" y="432" width="1158" height="120" fill="#D4C4A0" stroke="#333333" stroke-width="6"/>
    <rect x="18" y="424" width="1158" height="9.6" fill="#C4B090" stroke="#333333" stroke-width="6"/>
    <line x1="18" y1="480" x2="1176" y2="480" fill="none" stroke="#C4B090" stroke-width="1.2"/>
    <line x1="18" y1="528" x2="1176" y2="528" fill="none" stroke="#C4B090" stroke-width="1.2"/>
    <rect x="840" y="32" width="240" height="368" fill="#D8E0E8" stroke="#C4B890" stroke-width="2.4"/>
    <line x1="960" y1="32" x2="960" y2="400" fill="none" stroke="#C4B890" stroke-width="1.8"/>
    <line x1="840" y1="208" x2="1080" y2="208" fill="none" stroke="#C4B890" stroke-width="1.8"/>
    <line x1="864" y1="32" x2="864" y2="400" fill="none" stroke="#C4B890" stroke-width="1.8"/>
    <line x1="1056" y1="32" x2="1056" y2="400" fill="none" stroke="#C4B890" stroke-width="1.8"/>
    <rect x="18" y="576" width="558" height="192" fill="#DAE4E8" stroke="#333333" stroke-width="6"/>
    <rect x="18" y="704" width="558" height="128" fill="#C4A882" stroke="#333333" stroke-width="6"/>
    <line x1="120" y1="704" x2="120" y2="832" fill="none" stroke="#B89872" stroke-width="2.4"/>
    <line x1="216" y1="704" x2="216" y2="832" fill="none" stroke="#B89872" stroke-width="2.4"/>
    <line x1="312" y1="704" x2="312" y2="832" fill="none" stroke="#B89872" stroke-width="2.4"/>
    <line x1="408" y1="704" x2="408" y2="832" fill="none" stroke="#B89872" stroke-width="2.4"/>
    <line x1="504" y1="704" x2="504" y2="832" fill="none" stroke="#B89872" stroke-width="2.4"/>
    <rect x="18" y="832" width="558" height="72" fill="#C4D4A0" stroke="#333333" stroke-width="6"/>
    <line x1="18" y1="832" x2="576" y2="832" fill="none" stroke="#A8B888" stroke-width="1.2"/>
    <ellipse cx="96" cy="800" rx="14.4" ry="12.8" fill="#A8C888" stroke="#333333" stroke-width="6"/>
    <ellipse cx="144" cy="800" rx="12" ry="11.2" fill="#8AB878" stroke="#333333" stroke-width="6"/>
    <rect x="606" y="576" width="570" height="160" fill="#DAE4E8" stroke="#333333" stroke-width="6"/>
    <rect x="606" y="672" width="570" height="128" fill="#C4A882" stroke="#333333" stroke-width="6"/>
    <line x1="720" y1="672" x2="720" y2="800" fill="none" stroke="#B89872" stroke-width="2.4"/>
    <line x1="840" y1="672" x2="840" y2="800" fill="none" stroke="#B89872" stroke-width="2.4"/>
    <line x1="960" y1="672" x2="960" y2="800" fill="none" stroke="#B89872" stroke-width="2.4"/>
    <line x1="1080" y1="672" x2="1080" y2="800" fill="none" stroke="#B89872" stroke-width="2.4"/>
    <rect x="606" y="800" width="570" height="104" fill="#C4D4A0" stroke="#333333" stroke-width="6"/>
    <rect x="18" y="936" width="1158" height="208" fill="#DAE4E8" stroke="#333333" stroke-width="6"/>
    <rect x="18" y="1056" width="1158" height="192" fill="#C4A882" stroke="#333333" stroke-width="6"/>
    <rect x="18" y="1200" width="1158" height="368" fill="#C4D4A0" stroke="#333333" stroke-width="6"/>
    <ellipse cx="600" cy="312" rx="144" ry="136" fill="#F5E0C0" stroke="#222222" stroke-width="3.6"/>
    <ellipse cx="306" cy="776" rx="72" ry="104" fill="#F5E0C0" stroke="#222222" stroke-width="3.6"/>
    <ellipse cx="900" cy="784" rx="84" ry="64" fill="#F5E0C0" stroke="#222222" stroke-width="3.6"/>
    <ellipse cx="600" cy="1248" rx="96" ry="56" fill="#F5E0C0" stroke="#222222" stroke-width="3.6"/>
    <ellipse cx="504" cy="312" rx="72" ry="83.2" fill="#F5E0C0" stroke="#222222" stroke-width="3.6"/>
    <line x1="696" y1="240" x2="744" y2="224" fill="none" stroke="#F5E0C0" stroke-width="9.6" stroke-linecap="round"/>
    <ellipse cx="660" cy="384" rx="30" ry="28.8" fill="#F5E0C0" stroke="#222222" stroke-width="3"/>
    <ellipse cx="564" cy="392" rx="30" ry="28.8" fill="#F5E0C0" stroke="#222222" stroke-width="3"/>
    <line x1="576" y1="240" x2="624" y2="256" fill="none" stroke="#D4A070" stroke-width="4.8" stroke-linecap="round"/>
    <line x1="576" y1="280" x2="636" y2="288" fill="none" stroke="#D4A070" stroke-width="4.8" stroke-linecap="round"/>
    <line x1="540" y1="368" x2="588" y2="384" fill="none" stroke="#D4A070" stroke-width="3.6" stroke-linecap="round"/>
    <ellipse cx="306" cy="688" rx="57.6" ry="67.2" fill="#F5E0C0" stroke="#222222" stroke-width="3.6"/>
    <ellipse cx="306" cy="848" rx="18" ry="12.8" fill="#F5E0C0" stroke="#222222" stroke-width="2.4"/>
    <ellipse cx="306" cy="864" rx="18" ry="12.8" fill="#F5E0C0" stroke="#222222" stroke-width="2.4"/>
    <line x1="306" y1="832" x2="306" y2="848" fill="none" stroke="#D4A070" stroke-width="3.6" stroke-linecap="round"/>
    <line x1="306" y1="832" x2="306" y2="864" fill="none" stroke="#D4A070" stroke-width="3.6" stroke-linecap="round"/>
    <line x1="360" y1="800" x2="384" y2="768" fill="none" stroke="#F5E0C0" stroke-width="7.2" stroke-linecap="round"/>
    <ellipse cx="840" cy="752" rx="50.4" ry="60.8" fill="#F5E0C0" stroke="#222222" stroke-width="3.6"/>
    <ellipse cx="786" cy="840" rx="18" ry="12.8" fill="#F5E0C0" stroke="#222222" stroke-width="2.4"/>
    <ellipse cx="804" cy="840" rx="18" ry="12.8" fill="#F5E0C0" stroke="#222222" stroke-width="2.4"/>
    <ellipse cx="996" cy="840" rx="21.6" ry="19.2" fill="#F5E0C0" stroke="#222222" stroke-width="2.4"/>
    <ellipse cx="1008" cy="840" rx="21.6" ry="19.2" fill="#F5E0C0" stroke="#222222" stroke-width="2.4"/>
    <line x1="960" y1="736" x2="1008" y2="688" fill="none" stroke="#F5E0C0" stroke-width="6" stroke-linecap="round"/>
    <ellipse cx="516" cy="1168" rx="54" ry="64" fill="#F5E0C0" stroke="#222222" stroke-width="3.6"/>
    <ellipse cx="438" cy="1152" rx="16.8" ry="11.2" fill="#F5E0C0" stroke="#222222" stroke-width="2.4" transform="rotate(-10,438,1152)"/>
    <ellipse cx="456" cy="1160" rx="16.8" ry="11.2" fill="#F5E0C0" stroke="#222222" stroke-width="2.4" transform="rotate(-5,456,1160)"/>
    <ellipse cx="696" cy="1328" rx="21.6" ry="16" fill="#F5E0C0" stroke="#222222" stroke-width="2.4"/>
    <ellipse cx="708" cy="1328" rx="21.6" ry="16" fill="#F5E0C0" stroke="#222222" stroke-width="2.4"/>
    <line x1="744" y1="1312" x2="900" y2="1248" fill="none" stroke="#F5E0C0" stroke-width="6" stroke-linecap="round"/>
    <line x1="276" y1="792" x2="294" y2="800" fill="none" stroke="#D4A070" stroke-width="3.6"/>
    <line x1="306" y1="800" x2="318" y2="808" fill="none" stroke="#D4A070" stroke-width="3.6"/>
    <line x1="876" y1="784" x2="912" y2="800" fill="none" stroke="#D4A070" stroke-width="3.6"/>
    <line x1="900" y1="776" x2="936" y2="792" fill="none" stroke="#D4A070" stroke-width="3.6"/>
    <line x1="624" y1="1264" x2="672" y2="1280" fill="none" stroke="#D4A070" stroke-width="3.6"/>
    <line x1="648" y1="1256" x2="696" y2="1272" fill="none" stroke="#D4A070" stroke-width="3.6"/>
    <line x1="672" y1="1248" x2="720" y2="1264" fill="none" stroke="#D4A070" stroke-width="3.6"/>
    <path d="M456,224 C456.9,223.44 491.1,235.6 492,236.8 C492.9,238 475.8,248.64 474,248 C472.2,247.36 455.1,224.56 456,224 Z" fill="#F5E0C0" stroke="#222222" stroke-width="3"/>
    <path d="M522,224 C522.9,223.44 557.1,235.6 558,236.8 C558.9,238 541.8,248.64 540,248 C538.2,247.36 521.1,224.56 522,224 Z" fill="#F5E0C0" stroke="#222222" stroke-width="3"/>
    <line x1="696" y1="240" x2="744" y2="224" fill="none" stroke="#222222" stroke-width="3.6" stroke-linecap="round"/>
    <path d="M276,624 C275.7996,623.2 293.1996,607.7328 294,608 C294.8004,608.2672 300.6,631.4672 300,632 C299.4,632.5328 276.2004,624.8 276,624 Z" fill="#F5E0C0" stroke="#222222" stroke-width="3"/>
    <path d="M312,608 C312.3996,607.7328 335.6004,623.2 336,624 C336.3996,624.8 324.8004,632.5328 324,632 C323.1996,631.4672 311.6004,608.2672 312,608 Z" fill="#F5E0C0" stroke="#222222" stroke-width="3"/>
    <line x1="360" y1="800" x2="384" y2="768" fill="none" stroke="#222222" stroke-width="3" stroke-linecap="round"/>
    <path d="M816,696 C815.7996,695.2 833.1996,687.4672 834,688 C834.8004,688.5328 840.6,711.7328 840,712 C839.4,712.2672 816.2004,696.8 816,696 Z" fill="#F5E0C0" stroke="#222222" stroke-width="3"/>
    <path d="M846,688 C846.2004,687.4672 863.6004,695.2 864,696 C864.3996,696.8 858.6,712.2672 858,712 C857.4,711.7328 845.7996,688.5328 846,688 Z" fill="#F5E0C0" stroke="#222222" stroke-width="3"/>
    <line x1="960" y1="736" x2="1008" y2="688" fill="none" stroke="#222222" stroke-width="2.4" stroke-linecap="round"/>
    <path d="M480,1104 C479.7996,1103.2 497.1996,1095.4672 498,1096 C498.8004,1096.5328 504.6,1119.7328 504,1120 C503.4,1120.2672 480.2004,1104.8 480,1104 Z" fill="#F5E0C0" stroke="#222222" stroke-width="3"/>
    <path d="M510,1096 C510.2004,1095.4672 527.6004,1103.2 528,1104 C528.3996,1104.8 522.6,1120.2672 522,1120 C521.4,1119.7328 509.7996,1096.5328 510,1096 Z" fill="#F5E0C0" stroke="#222222" stroke-width="3"/>
    <line x1="744" y1="1312" x2="900" y2="1248" fill="none" stroke="#222222" stroke-width="2.4" stroke-linecap="round"/>
    <line x1="528" y1="256" x2="552" y2="224" fill="none" stroke="#D4A070" stroke-width="1.8"/>
    <line x1="552" y1="272" x2="576" y2="240" fill="none" stroke="#D4A070" stroke-width="1.8"/>
    <line x1="600" y1="264" x2="624" y2="240" fill="none" stroke="#D4A070" stroke-width="1.8"/>
    <line x1="378" y1="568" x2="390" y2="584" fill="none" stroke="#D4A070" stroke-width="1.8"/>
    <line x1="384" y1="560" x2="396" y2="576" fill="none" stroke="#D4A070" stroke-width="1.8"/>
    <line x1="504" y1="268.8" x2="528" y2="256" fill="none" stroke="#D4A070" stroke-width="1.2"/>
    <line x1="552" y1="248" x2="576" y2="236.8" fill="none" stroke="#D4A070" stroke-width="1.2"/>
    <line x1="600" y1="236.8" x2="624" y2="227.2" fill="none" stroke="#D4A070" stroke-width="1.2"/>
    <line x1="648" y1="240" x2="672" y2="232" fill="none" stroke="#D4A070" stroke-width="1.2"/>
    <line x1="528" y1="320" x2="552" y2="304" fill="none" stroke="#D4A070" stroke-width="1.2"/>
    <line x1="624" y1="296" x2="648" y2="284.8" fill="none" stroke="#D4A070" stroke-width="1.2"/>
    <ellipse cx="660" cy="368" rx="7.2" ry="6.4" fill="#F0B0A0" stroke="#333333" stroke-width="6" opacity="0.4"/>
    <ellipse cx="564" cy="380.8" rx="7.2" ry="6.4" fill="#F0B0A0" stroke="#333333" stroke-width="6" opacity="0.4"/>
    <line x1="744" y1="1312" x2="816" y2="1280" fill="none" stroke="#D4A070" stroke-width="2.4"/>
    <line x1="780" y1="1312" x2="852" y2="1280" fill="none" stroke="#D4A070" stroke-width="2.4"/>
    <path d="M462,232 C463.5,231.7328 485.4996,239.0672 486,240 C486.5004,240.9328 470.0004,243.8672 468,243.2 C465.9996,242.5328 460.5,232.2672 462,232 Z" fill="#F0B0A0" stroke="#333333" stroke-width="6"/>
    <path d="M528,232 C529.2996,231.7328 551.3004,239.0672 552,240 C552.6996,240.9328 538.4004,243.8672 536.4,243.2 C534.3996,242.5328 526.7004,232.2672 528,232 Z" fill="#F0B0A0" stroke="#333333" stroke-width="6"/>
    <line x1="486" y1="312" x2="522" y2="312" fill="none" stroke="#222222" stroke-width="3" stroke-linecap="round"/>
    <line x1="504" y1="312" x2="504" y2="323.2" fill="none" stroke="#222222" stroke-width="1.8" stroke-linecap="round"/>
    <line x1="482.4" y1="300.8" x2="492" y2="297.6" fill="none" stroke="#222222" stroke-width="2.4" stroke-linecap="round"/>
    <line x1="516" y1="300.8" x2="525.6" y2="297.6" fill="none" stroke="#222222" stroke-width="2.4" stroke-linecap="round"/>
    <line x1="444" y1="320" x2="468" y2="312" fill="none" stroke="#222222" stroke-width="1.8"/>
    <line x1="444" y1="328" x2="468" y2="320" fill="none" stroke="#222222" stroke-width="1.8"/>
    <line x1="540" y1="320" x2="564" y2="312" fill="none" stroke="#222222" stroke-width="1.8"/>
    <line x1="540" y1="328" x2="564" y2="320" fill="none" stroke="#222222" stroke-width="1.8"/>
    <path d="M282,619.2 C281.9004,618 295.1004,612.1328 296.4,612.8 C297.6996,613.4672 298.8,626.6672 297.6,627.2 C296.4,627.7328 282.0996,620.4 282,619.2 Z" fill="#F0B0A0" stroke="#333333" stroke-width="6"/>
    <path d="M314.4,612.8 C315.0996,612.1328 329.4,618 330,619.2 C330.6,620.4 322.8996,627.7328 321.6,627.2 C320.3004,626.6672 313.7004,613.4672 314.4,612.8 Z" fill="#F0B0A0" stroke="#333333" stroke-width="6"/>
    <ellipse cx="294" cy="684.8" rx="14.4" ry="22.4" fill="#222222" stroke="#333333" stroke-width="6"/>
    <ellipse cx="318" cy="684.8" rx="14.4" ry="22.4" fill="#222222" stroke="#333333" stroke-width="6"/>
    <ellipse cx="828" cy="748.8" rx="9.6" ry="19.2" fill="#222222" stroke="#333333" stroke-width="6"/>
    <ellipse cx="852" cy="748.8" rx="9.6" ry="19.2" fill="#222222" stroke="#333333" stroke-width="6"/>
    <ellipse cx="504" cy="1164.8" rx="12" ry="20.8" fill="#222222" stroke="#333333" stroke-width="6"/>
    <ellipse cx="528" cy="1164.8" rx="12" ry="20.8" fill="#222222" stroke="#333333" stroke-width="6"/>
    <ellipse cx="492" cy="312" rx="4.8" ry="4.8" fill="#D4A070" stroke="#333333" stroke-width="6"/>
    <ellipse cx="480" cy="312" rx="3.6" ry="3.2" fill="#D4A070" stroke="#333333" stroke-width="6"/>
    <ellipse cx="528" cy="312" rx="4.8" ry="4.8" fill="#D4A070" stroke="#333333" stroke-width="6"/>
    <ellipse cx="516" cy="312" rx="3.6" ry="3.2" fill="#D4A070" stroke="#333333" stroke-width="6"/>
    <text x="600" y="112" font-size="80" font-family="sans-serif, Apple Symbols, sans-serif" font-weight="bold" font-style="normal" text-anchor="middle" fill="#555555" stroke="none" stroke-width="6">Z</text>
    <text x="648" y="88" font-size="56" font-family="sans-serif, Apple Symbols, sans-serif" font-weight="bold" font-style="normal" text-anchor="middle" fill="#888888" stroke="none" stroke-width="6">z</text>
    <text x="684" y="72" font-size="40" font-family="sans-serif, Apple Symbols, sans-serif" font-weight="bold" font-style="normal" text-anchor="middle" fill="#AAAAAA" stroke="none" stroke-width="6">z</text>
    <ellipse cx="294" cy="684.8" rx="9.6" ry="16" fill="#FFFFFF" stroke="#333333" stroke-width="6"/>
    <ellipse cx="318" cy="684.8" rx="9.6" ry="16" fill="#FFFFFF" stroke="#333333" stroke-width="6"/>
    <line x1="306" y1="704" x2="306" y2="713.6" fill="none" stroke="#222222" stroke-width="1.8"/>
    <line x1="302.4" y1="708.8" x2="309.6" y2="708.8" fill="none" stroke="#222222" stroke-width="1.44"/>
    <line x1="264" y1="696" x2="282" y2="691.2" fill="none" stroke="#222222" stroke-width="1.8"/>
    <line x1="264" y1="704" x2="282" y2="700.8" fill="none" stroke="#222222" stroke-width="1.8"/>
    <line x1="330" y1="696" x2="348" y2="691.2" fill="none" stroke="#222222" stroke-width="1.8"/>
    <line x1="330" y1="704" x2="348" y2="700.8" fill="none" stroke="#222222" stroke-width="1.8"/>
    <path d="M372,592 C372.3996,592 376.8,580.8 378,580.8 C379.2,580.8 389.6004,591.7872 390,592 C390.3996,592.2128 385.2,584.7472 384,584 C382.8,583.2528 372.8004,580.2672 372,580.8 C371.1996,581.3328 371.6004,592 372,592 Z" fill="#D4A070" stroke="#222222" stroke-width="1.8"/>
    <path d="M396,592 C396.3996,592 406.4004,580.8 408,580.8 C409.5996,580.8 419.6004,591.7872 420,592 C420.3996,592.2128 415.2,584.7472 414,584 C412.8,583.2528 403.2,580.2672 402,580.8 C400.8,581.3328 395.6004,592 396,592 Z" fill="#D4A070" stroke="#222222" stroke-width="1.8"/>
    <ellipse cx="396" cy="585.6" rx="6" ry="12.8" fill="#F5E0C0" stroke="#222222" stroke-width="1.8"/>
    <ellipse cx="828" cy="748.8" rx="6" ry="12.8" fill="#FFD700" stroke="#333333" stroke-width="6"/>
    <ellipse cx="852" cy="748.8" rx="6" ry="12.8" fill="#FFD700" stroke="#333333" stroke-width="6"/>
    <line x1="852" y1="768" x2="852" y2="776" fill="none" stroke="#222222" stroke-width="1.8"/>
    <line x1="792" y1="760" x2="816" y2="755.2" fill="none" stroke="#222222" stroke-width="1.8"/>
    <line x1="864" y1="760" x2="888" y2="755.2" fill="none" stroke="#222222" stroke-width="1.8"/>
    <ellipse cx="504" cy="1164.8" rx="8.4" ry="16" fill="#FFD700" stroke="#333333" stroke-width="6"/>
    <ellipse cx="528" cy="1164.8" rx="8.4" ry="16" fill="#FFD700" stroke="#333333" stroke-width="6"/>
    <line x1="516" y1="1184" x2="516" y2="1196.8" fill="none" stroke="#222222" stroke-width="1.8"/>
    <line x1="456" y1="1176" x2="480" y2="1171.2" fill="none" stroke="#222222" stroke-width="1.8"/>
    <line x1="540" y1="1176" x2="564" y2="1171.2" fill="none" stroke="#222222" stroke-width="1.8"/>
    <path d="M384,1120 C384.48,1120 392.0004,1107.2 393.6,1107.2 C395.1996,1107.2 407.4396,1119.68 408,1120 C408.5604,1120.32 403.44,1112.8528 402,1112 C400.56,1111.1472 387.6,1106.6672 386.4,1107.2 C385.2,1107.7328 383.52,1120 384,1120 Z" fill="#D4A070" stroke="#222222" stroke-width="1.8"/>
    <path d="M414,1120 C414.6396,1120 428.0004,1107.2 429.6,1107.2 C431.1996,1107.2 437.8404,1119.68 438,1120 C438.1596,1120.32 433.2,1112.8528 432,1112 C430.8,1111.1472 421.2,1106.6672 420,1107.2 C418.8,1107.7328 413.3604,1120 414,1120 Z" fill="#D4A070" stroke="#222222" stroke-width="1.8"/>
    <ellipse cx="414" cy="1112" rx="4.8" ry="11.2" fill="#F5E0C0" stroke="#222222" stroke-width="1.8"/>
    <ellipse cx="296.4" cy="680" rx="3.6" ry="4.8" fill="#222222" stroke="#333333" stroke-width="6"/>
    <ellipse cx="320.4" cy="680" rx="3.6" ry="4.8" fill="#222222" stroke="#333333" stroke-width="6"/>
    <text x="336" y="592" font-size="64" font-family="sans-serif, Apple Symbols, sans-serif" font-weight="bold" font-style="normal" text-anchor="middle" fill="#222222" stroke="none" stroke-width="6">!</text>
    <line x1="342" y1="600" x2="342" y2="584" fill="none" stroke="#222222" stroke-width="1.8"/>
    <line x1="384" y1="600" x2="384" y2="584" fill="none" stroke="#222222" stroke-width="1.8"/>
    <ellipse cx="828" cy="748.8" rx="2.4" ry="9.6" fill="#222222" stroke="#333333" stroke-width="6"/>
    <ellipse cx="852" cy="748.8" rx="2.4" ry="9.6" fill="#222222" stroke="#333333" stroke-width="6"/>
    <ellipse cx="504" cy="1164.8" rx="2.4" ry="9.6" fill="#222222" stroke="#333333" stroke-width="6"/>
    <ellipse cx="528" cy="1164.8" rx="2.4" ry="9.6" fill="#222222" stroke="#333333" stroke-width="6"/>
    <line x1="282" y1="704" x2="288" y2="697.6" fill="none" stroke="#D4A070" stroke-width="1.2"/>
    <line x1="288" y1="696" x2="294" y2="688" fill="none" stroke="#D4A070" stroke-width="1.2"/>
    <line x1="318" y1="704" x2="324" y2="697.6" fill="none" stroke="#D4A070" stroke-width="1.2"/>
    <line x1="324" y1="696" x2="330" y2="688" fill="none" stroke="#D4A070" stroke-width="1.2"/>
    <line x1="816" y1="764.8" x2="822" y2="758.4" fill="none" stroke="#D4A070" stroke-width="1.2"/>
    <line x1="828" y1="760" x2="834" y2="752" fill="none" stroke="#D4A070" stroke-width="1.2"/>
    <line x1="858" y1="764.8" x2="864" y2="758.4" fill="none" stroke="#D4A070" stroke-width="1.2"/>
    <line x1="864" y1="760" x2="870" y2="752" fill="none" stroke="#D4A070" stroke-width="1.2"/>
    <line x1="504" y1="1184" x2="507.6" y2="1176" fill="none" stroke="#D4A070" stroke-width="1.2"/>
    <line x1="516" y1="1177.6" x2="519.6" y2="1168" fill="none" stroke="#D4A070" stroke-width="1.2"/>
    <line x1="528" y1="1180.8" x2="531.6" y2="1171.2" fill="none" stroke="#D4A070" stroke-width="1.2"/>
    <ellipse cx="291.6" cy="678.4" rx="2.4" ry="3.2" fill="#FFFFFF" stroke="#333333" stroke-width="6"/>
    <ellipse cx="315.6" cy="678.4" rx="2.4" ry="3.2" fill="#FFFFFF" stroke="#333333" stroke-width="6"/>
    <text x="360" y="1040" font-size="88" font-family="sans-serif, Apple Symbols, sans-serif" font-weight="bold" font-style="normal" text-anchor="middle" fill="#222222" stroke="none" stroke-width="6">NYAA!</text>
    <text x="600" y="1480" font-size="48" font-family="sans-serif, Apple Symbols, sans-serif" font-weight="bold" font-style="normal" text-anchor="middle" fill="#555555" stroke="none" stroke-width="6">SHOO!</text>
    <ellipse cx="264" cy="600" rx="36" ry="35.2" fill="#FFFFFF" stroke="#222222" stroke-width="2.4"/>
    <polygon points="282,635.2 288,648 294,632" fill="#FFFFFF" stroke="#222222" stroke-width="2.4"/>
    <ellipse cx="816" cy="680" rx="42" ry="40" fill="#FFFFFF" stroke="#222222" stroke-width="2.4"/>
    <polygon points="834,720 840,732.8 846,716.8" fill="#FFFFFF" stroke="#222222" stroke-width="2.4"/>
    <ellipse cx="372" cy="592" rx="9.6" ry="12.8" fill="#FFD700" stroke="#333333" stroke-width="6" opacity="0.5"/>
    <ellipse cx="432" cy="568" rx="7.2" ry="9.6" fill="#FFD700" stroke="#333333" stroke-width="6" opacity="0.5"/>
    <ellipse cx="360" cy="560" rx="6" ry="8" fill="#FFD700" stroke="#333333" stroke-width="6" opacity="0.5"/>
    <ellipse cx="396" cy="584" rx="3.6" ry="4.8" fill="#FFFFFF" stroke="#333333" stroke-width="6"/>
    <ellipse cx="360" cy="552" rx="4.8" ry="6.4" fill="#FFFFFF" stroke="#333333" stroke-width="6"/>
    <ellipse cx="300" cy="704" rx="3.6" ry="3.2" fill="#D4A070" stroke="#333333" stroke-width="6"/>
    <ellipse cx="312" cy="704" rx="3.6" ry="3.2" fill="#D4A070" stroke="#333333" stroke-width="6"/>
    <ellipse cx="834" cy="768" rx="3.6" ry="3.2" fill="#D4A070" stroke="#333333" stroke-width="6"/>
    <ellipse cx="846" cy="768" rx="2.4" ry="3.2" fill="#D4A070" stroke="#333333" stroke-width="6"/>
    <ellipse cx="828" cy="768" rx="2.4" ry="3.2" fill="#D4A070" stroke="#333333" stroke-width="6"/>
    <ellipse cx="516" cy="1187.2" rx="3.6" ry="3.2" fill="#D4A070" stroke="#333333" stroke-width="6"/>
    <ellipse cx="510" cy="1187.2" rx="2.4" ry="3.2" fill="#D4A070" stroke="#333333" stroke-width="6"/>
    <ellipse cx="522" cy="1187.2" rx="2.4" ry="3.2" fill="#D4A070" stroke="#333333" stroke-width="6"/>
    <text x="24" y="16" font-size="24" font-family="sans-serif, Apple Symbols, sans-serif" font-weight="normal" font-style="normal" text-anchor="start" fill="#555555" stroke="none" stroke-width="6">CH.1 — The Chase</text>
    <text x="1164" y="1576" font-size="28.8" font-family="sans-serif, Apple Symbols, sans-serif" font-weight="normal" font-style="normal" text-anchor="end" fill="#888888" stroke="none" stroke-width="6">1</text>
    <text x="264" y="601.6" font-size="35.2" font-family="sans-serif, Apple Symbols, sans-serif" font-weight="bold" font-style="normal" text-anchor="middle" fill="#222222" stroke="none" stroke-width="6">!?</text>
    <text x="816" y="681.6" font-size="20.8" font-family="sans-serif, Apple Symbols, sans-serif" font-weight="normal" font-style="normal" text-anchor="middle" fill="#222222" stroke="none" stroke-width="6">...gotcha</text>
    <text x="864" y="1024" font-size="64" font-family="sans-serif, Apple Symbols, sans-serif" font-weight="bold" font-style="normal" text-anchor="middle" fill="#444444" stroke="none" stroke-width="6" transform="rotate(-5,864,1024)">WHOOSH!</text>
</svg>
