<?xml version="1.0" encoding="UTF-8"?>
<svg xmlns="http://www.w3.org/2000/svg"
     xmlns:xlink="http://www.w3.org/1999/xlink"
     width="800" height="1200"
     viewBox="0 0 800 1200">
  <rect width="100%" height="100%" fill="#87CEEB"/>
  <defs>
  <linearGradient id="grad_916378392" x1="0" y1="0" x2="0" y2="1">
    <stop offset="0" stop-color="#FDE2D0"/>
    <stop offset="1" stop-color="#F0C8B0"/>
  </linearGradient>

  <radialGradient id="grad_2959009950" cx="0.5" cy="0.5" r="0.5">
    <stop offset="0" stop-color="#A0C040"/>
    <stop offset="0.6" stop-color="#6B8E23"/>
    <stop offset="1" stop-color="#4A6B10"/>
  </radialGradient>

  </defs>
    <path d="M432,288 C439.4664,270.3996 535.4664,283.2 544,288 C552.5336,292.8 558.9336,344.0004 560,360 C561.0664,375.9996 565.3336,513.6 560,528 C554.6664,542.4 488.5336,574.4004 480,576 C471.4664,577.5996 435.2,571.2 432,552 C428.8,532.8 424.5336,305.6004 432,288 Z" fill="#FFD54F" stroke="#E0B020" stroke-width="1.6"/>
    <path d="M40,96 C52,88.8 96.4,70.2 112,72 C127.6,73.8 136.8,97.2 144,108 C151.2,118.8 163.6,135 160,144 C156.4,153 135.6,166.2 120,168 C104.4,169.8 69.2,163.2 56,156 C42.8,148.8 34.4,129 32,120 C29.6,111 28,103.2 40,96 Z" fill="#FFFFFF" stroke="none" stroke-width="4" opacity="0.6"/>
    <path d="M600,60 C614.4,52.8 662,44.4 680,48 C698,51.6 711.6,73.2 720,84 C728.4,94.8 739.6,111 736,120 C732.4,129 712.8,142.2 696,144 C679.2,145.8 640.8,139.2 624,132 C607.2,124.8 587.6,106.8 584,96 C580.4,85.2 585.6,67.2 600,60 Z" fill="#FFFFFF" stroke="none" stroke-width="4" opacity="0.5"/>
    <path d="M579.3464,630.0816 C579.3696,630.0792 579.5712,630.0576 579.5944,630.0552 C579.6176,630.0528 579.7856,629.85 579.8128,630.0276 C579.84,630.2052 580.136,633.5976 580.1456,633.5964 C580.1552,633.5952 579.9992,630.1812 580,630 C580.0008,629.8188 580.152,629.9724 580.1688,629.9688 C580.1856,629.9652 580.3,629.7588 580.332,629.934 C580.364,630.1092 580.7976,633.468 580.8056,633.4656 C580.8136,633.4632 580.4984,630.0756 580.4904,629.8944 C580.4824,629.7132 580.628,629.856 580.6432,629.8512 C580.6584,629.8464 580.752,629.6316 580.7912,629.8032 C580.8304,629.9748 581.4184,633.2784 581.4256,633.276 C581.4328,633.2736 580.952,629.9304 580.9344,629.7516 C580.9168,629.5728 581.0584,629.7012 581.072,629.6952 C581.0856,629.6892 581.1584,629.4696 581.2056,629.6364 C581.2528,629.8032 582.008,633.0312 582.0144,633.0276 C582.0208,633.024 581.3624,629.7492 581.3344,629.5728 C581.3064,629.3964 581.4464,629.514 581.4584,629.5068 C581.4704,629.4996 581.5656,629.4444 581.5776,629.4372 C581.5896,629.43 581.6816,629.3712 581.6928,629.364 C581.704,629.3568 581.7928,629.2956 581.804,629.2872 C581.8152,629.28 581.9,629.2164 581.9104,629.208 C581.9208,629.1996 582.0024,629.1348 582.0128,629.1264 C582.0232,629.118 582.1024,629.0496 582.112,629.0412 C582.1216,629.0328 582.1968,628.962 582.2064,628.9536 C582.216,628.9452 582.2888,628.872 582.2976,628.8624 C582.3064,628.8528 582.376,628.7796 582.3848,628.77 C582.3936,628.7604 582.46,628.6848 582.468,628.6752 C582.476,628.6656 582.54,628.5876 582.548,628.578 C582.556,628.5684 582.6176,628.488 582.6248,628.4784 C582.632,628.4688 582.524,628.128 582.6984,628.3764 C582.8728,628.6248 586.1048,633.45 586.108,633.4452 C586.1112,633.4404 582.932,628.5372 582.768,628.2732 C582.604,628.0092 582.8288,628.1796 582.8352,628.1688 C582.8416,628.158 582.8928,628.0728 582.8992,628.062 C582.9056,628.0512 582.9544,627.9636 582.96,627.9528 C582.9656,627.942 583.012,627.8544 583.0176,627.8436 C583.0232,627.8328 583.0672,627.7428 583.0728,627.732 C583.0784,627.7212 583.1208,627.6312 583.1256,627.6204 C583.1304,627.6096 583.1712,627.5196 583.176,627.5076 C583.1808,627.4968 583.2184,627.4044 583.2232,627.3924 C583.228,627.3804 583.264,627.2892 583.2688,627.2772 C583.2736,627.2652 583.308,627.174 583.312,627.162 C583.316,627.15 583.3488,627.0576 583.3528,627.0456 C583.3568,627.0336 583.3872,626.94 583.3912,626.928 C583.3952,626.916 583.424,626.8224 583.428,626.8104 C583.4312,626.7984 583.46,626.7048 583.4632,626.6928 C583.4664,626.6808 583.4928,626.5872 583.496,626.5752 C583.4992,626.5632 583.524,626.4696 583.5272,626.4576 C583.5304,626.4456 583.5536,626.352 583.5568,626.34 C583.56,626.328 583.5824,626.2344 583.5848,626.2224 C583.5872,626.2104 583.6096,626.1168 583.612,626.1048 C583.6144,626.0928 583.6352,626.0004 583.6376,625.9884 C583.64,625.9764 583.6592,625.884 583.6616,625.872 C583.664,625.86 583.6824,625.7676 583.6848,625.7556 C583.6872,625.7436 583.7048,625.6536 583.7072,625.6416 C583.7096,625.6308 583.7256,625.5384 583.728,625.5276 C583.7304,625.5156 583.7464,625.4244 583.7488,625.4136 C583.7504,625.4028 583.7664,625.3128 583.768,625.302 C583.7696,625.2912 583.7856,625.2024 583.7872,625.1916 C583.7888,625.1808 583.804,625.0932 583.8056,625.0824 C583.8072,625.0716 583.8224,624.9852 583.824,624.9744 C583.8256,624.9636 583.84,624.8784 583.8416,624.8676 C583.8432,624.8568 583.8568,624.774 583.8584,624.7632 C583.86,624.7524 583.8744,624.6696 583.876,624.66 C583.8776,624.6492 583.8912,624.5688 583.8928,624.5592 C583.8944,624.5496 583.9088,624.4692 583.9104,624.4596 C583.912,624.45 583.9264,624.3732 583.928,624.3636 C583.9296,624.354 583.9432,624.2784 583.9448,624.2688 C583.9464,624.2592 583.9616,624.186 583.9632,624.1764 C583.9648,624.1668 583.98,624.096 583.9816,624.0876 C583.9832,624.0792 583.9984,624.0084 584,624 C584.0016,623.9916 584.0168,623.9196 584.0184,623.91 C584.02,623.9004 584.0352,623.8212 584.0368,623.8104 C584.0384,623.7996 584.0528,623.7144 584.0544,623.7036 C584.056,623.6928 584.0696,623.5992 584.0712,623.5872 C584.0728,623.5752 584.0864,623.4768 584.088,623.4636 C584.0896,623.4504 584.1016,623.346 584.1032,623.3328 C584.1048,623.3196 584.1168,623.208 584.1184,623.1936 C584.12,623.1792 584.1312,623.0616 584.1328,623.0472 C584.1344,623.0328 584.1456,622.9104 584.1472,622.8948 C584.1488,622.8792 583.9208,622.7064 584.16,622.7352 C584.3992,622.764 588.9336,623.49 588.9344,623.4816 C588.9352,623.4732 584.4104,622.6236 584.1728,622.5696 C583.9352,622.5156 584.1832,622.4148 584.1848,622.3968 C584.1856,622.3788 584.196,622.2372 584.1968,622.2192 C584.1976,622.2012 584.2064,622.0548 584.2072,622.0368 C584.208,622.0188 584.2168,621.8664 584.2176,621.8472 C584.2184,621.828 584.2264,621.6732 584.2272,621.654 C584.228,621.6348 584.236,621.4764 584.2368,621.456 C584.2376,621.4356 584.244,621.2736 584.2448,621.2532 C584.2456,621.2328 584.252,621.0672 584.2528,621.0468 C584.2536,621.0264 584.2592,620.8584 584.26,620.8368 C584.2608,620.8152 584.2656,620.6436 584.2664,620.622 C584.2672,620.6004 584.272,620.4264 584.2728,620.4048 C584.2736,620.3832 584.2776,620.2056 584.2784,620.184 C584.2792,620.1612 584.2824,619.9836 584.2832,619.9608 C584.284,619.938 584.2872,619.758 584.2872,619.7352 C584.2872,619.7124 584.2912,619.53 584.2912,619.5072 C584.2912,619.4844 584.2936,619.2996 584.2936,619.2768 C584.2936,619.254 584.296,619.068 584.296,619.0452 C584.296,619.0224 584.2984,618.8352 584.2984,618.8124 C584.2984,618.7896 584.2992,618.6024 584.2992,618.5784 C584.2992,618.5544 584.3,618.3672 584.3,618.3432 C584.3,618.3192 584.3,618.1308 584.3,618.1068 C584.3,618.0828 584.2992,617.8956 584.2992,617.8716 C584.2992,617.8476 584.2984,617.6592 584.2984,617.6352 C584.2984,617.6112 584.296,617.4228 584.296,617.3988 C584.296,617.3748 584.2936,617.1876 584.2936,617.1636 C584.2936,617.1396 584.2912,616.9524 584.2912,616.9296 C584.2912,616.9068 584.2872,616.7184 584.2872,616.6956 C584.2872,616.6728 584.284,616.4868 584.2832,616.464 C584.2824,616.4412 584.2792,616.2564 584.2784,616.2336 C584.2776,616.2108 584.2736,616.0272 584.2728,616.0044 C584.272,615.9816 584.2672,615.8004 584.2664,615.7776 C584.2656,615.7548 584.2608,615.576 584.26,615.5532 C584.2592,615.5304 584.2536,615.354 584.2528,615.3324 C584.252,615.3108 584.2456,615.1356 584.2448,615.114 C584.244,615.0924 584.2376,614.9196 584.2368,614.898 C584.236,614.8764 584.228,614.7072 584.2272,614.6868 C584.2264,614.6664 584.2184,614.4996 584.2176,614.4792 C584.2168,614.4588 584.208,614.2956 584.2072,614.2752 C584.2064,614.2548 584.1976,614.094 584.1968,614.0748 C584.196,614.0556 584.1856,613.8996 584.1848,613.8804 C584.1832,613.8612 584.1744,613.71 584.1728,613.6908 C584.1712,613.6716 584.1616,613.524 584.16,613.506 C584.1584,613.488 584.1488,613.344 584.1472,613.326 C584.1456,613.308 584.1344,613.1688 584.1328,613.152 C584.1312,613.1352 584.12,613.0008 584.1184,612.984 C584.1168,612.9672 584.1048,612.8388 584.1032,612.8232 C584.1016,612.8076 584.0896,612.6828 584.088,612.6672 C584.0864,612.6516 584.0728,612.534 584.0712,612.5196 C584.0696,612.5052 583.82,612.4584 584.0544,612.378 C584.2888,612.2976 588.7552,610.9188 588.7544,610.9116 C588.7536,610.9044 584.2736,612.1848 584.0368,612.2448 C583.8,612.3048 584.02,612.1308 584.0184,612.1188 C584.0168,612.1068 584.0016,612.012 584,612 C583.9984,611.988 583.9832,611.8932 583.9816,611.8812 C583.98,611.8692 583.9648,611.7672 583.9632,611.754 C583.9616,611.7408 583.9464,611.6316 583.9448,611.6172 C583.9432,611.6028 583.9296,611.4876 583.928,611.4732 C583.9264,611.4588 583.912,611.3376 583.9104,611.322 C583.9088,611.3064 583.8944,611.1792 583.8928,611.1624 C583.8912,611.1456 583.8776,611.0124 583.876,610.9956 C583.8744,610.9788 583.86,610.8408 583.8584,610.8228 C583.8568,610.8048 583.8432,610.6608 583.8416,610.6428 C583.84,610.6248 583.8256,610.476 583.824,610.4568 C583.8224,610.4376 583.8072,610.284 583.8056,610.2648 C583.804,610.2456 583.7888,610.0872 583.7872,610.0668 C583.7856,610.0464 583.7696,609.8844 583.768,609.864 C583.7664,609.8436 583.7504,609.678 583.7488,609.6564 C583.7464,609.636 583.7304,609.4656 583.728,609.444 C583.7256,609.4224 583.7096,609.2484 583.7072,609.2268 C583.7048,609.2052 583.6872,609.0288 583.6848,609.006 C583.6824,608.9832 583.664,608.8044 583.6616,608.7816 C583.6592,608.7588 583.64,608.5764 583.6376,608.5536 C583.6352,608.5308 583.6144,608.3448 583.612,608.322 C583.6096,608.2992 583.5872,608.1132 583.5848,608.0892 C583.5824,608.0652 583.56,607.8768 583.5568,607.8528 C583.5536,607.8288 583.5304,607.6392 583.5272,607.6152 C583.524,607.5912 583.4992,607.3992 583.496,607.3752 C583.4928,607.3512 583.4664,607.1568 583.4632,607.1328 C583.46,607.1088 583.4312,606.9144 583.428,606.8904 C583.424,606.8664 583.3952,606.6708 583.3912,606.6468 C583.3872,606.6228 583.3568,606.4272 583.3528,606.4032 C583.3488,606.3792 583.316,606.1836 583.312,606.1596 C583.308,606.1356 583.2736,605.9388 583.2688,605.9148 C583.264,605.8908 583.228,605.6952 583.2232,605.6712 C583.2184,605.6472 583.1808,605.4528 583.176,605.4288 C583.1712,605.4048 583.1304,605.2104 583.1256,605.1864 C583.1208,605.1624 583.0784,604.9704 583.0728,604.9464 C583.0672,604.9224 583.0232,604.7316 583.0176,604.7076 C583.012,604.6836 582.9656,604.4952 582.96,604.4712 C582.9544,604.4472 582.9056,604.26 582.8992,604.2372 C582.8928,604.2144 582.8416,604.0284 582.8352,604.0056 C582.8288,603.9828 582.7752,603.7992 582.768,603.7764 C582.7608,603.7536 582.7056,603.5736 582.6984,603.5508 C582.6912,603.528 582.632,603.3504 582.6248,603.3288 C582.6176,603.3072 582.556,603.1332 582.548,603.1116 C582.54,603.09 582.476,602.9196 582.468,602.898 C582.46,602.8764 582.3936,602.7084 582.3848,602.688 C582.376,602.6676 582.3064,602.5044 582.2976,602.484 C582.2888,602.4636 582.216,602.304 582.2064,602.2848 C582.1968,602.2656 581.9312,602.3292 582.112,602.0916 C582.2928,601.854 585.8344,597.5448 585.8296,597.5352 C585.8248,597.5256 582.2088,601.6944 582.0128,601.9032 C581.8168,602.112 581.9208,601.74 581.9104,601.722 C581.9,601.704 581.8152,601.5636 581.804,601.5468 C581.7928,601.53 581.704,601.3944 581.6928,601.3776 C581.6816,601.3608 581.5896,601.2324 581.5776,601.2168 C581.5656,601.2012 581.4704,601.0788 581.4584,601.0632 C581.4464,601.0488 581.3472,600.9312 581.3344,600.9168 C581.3216,600.9024 581.2184,600.792 581.2056,600.7788 C581.1928,600.7656 581.0856,600.6612 581.072,600.648 C581.0584,600.6348 580.9488,600.5388 580.9344,600.5268 C580.92,600.5148 580.8056,600.426 580.7912,600.4152 C580.7768,600.4044 580.6584,600.3216 580.6432,600.312 C580.628,600.3024 580.5056,600.2268 580.4904,600.2184 C580.4752,600.21 580.348,600.144 580.332,600.1356 C580.316,600.1284 580.1856,600.0696 580.1688,600.0624 C580.152,600.0552 580.0176,600.006 580,600 C579.9824,599.994 579.8328,599.9496 579.8128,599.9436 C579.7928,599.9376 579.6176,599.8944 579.5944,599.8896 C579.5712,599.8848 579.3728,599.8416 579.3464,599.8368 C579.32,599.832 579.0976,599.7912 579.0688,599.7864 C579.04,599.7816 578.7952,599.742 578.7632,599.7372 C578.7312,599.7324 578.4656,599.694 578.4312,599.6892 C578.3968,599.6844 578.1096,599.6496 578.0728,599.6448 C578.036,599.64 577.7288,599.6052 577.6896,599.6004 C577.6504,599.5956 577.324,599.5632 577.2824,599.5596 C577.2408,599.556 576.8744,599.8212 576.8528,599.5188 C576.8312,599.2164 576.868,593.5116 576.8456,593.5092 C576.8232,593.5068 576.4464,599.1852 576.4008,599.4816 C576.3552,599.778 575.976,599.448 575.928,599.4444 C575.88,599.4408 575.4864,599.4144 575.436,599.4108 C575.3856,599.4072 574.9768,599.3808 574.9248,599.3772 C574.8728,599.3736 574.4488,599.3496 574.3952,599.3472 C574.3416,599.3448 573.9048,599.3208 573.8496,599.3184 C573.7944,599.316 573.3448,599.2932 573.288,599.2908 C573.2312,599.2884 572.7696,599.268 572.7112,599.2656 C572.6528,599.2632 572.1808,599.244 572.1208,599.2416 C572.0608,599.2392 571.5792,599.2224 571.5184,599.22 C571.4576,599.2176 570.9656,599.202 570.904,599.1996 C570.8424,599.1972 570.3416,599.1828 570.2784,599.1816 C570.2152,599.1804 569.7072,599.1672 569.6432,599.166 C569.5792,599.1648 569.0648,599.1528 569,599.1516 C568.9352,599.1504 568.4144,599.1396 568.3488,599.1384 C568.2832,599.1372 567.7576,599.1288 567.6912,599.1276 C567.6248,599.1264 567.0936,599.1192 567.0272,599.118 C566.9608,599.1168 566.4264,599.112 566.3592,599.1108 C566.292,599.1096 565.7552,599.106 565.688,599.106 C565.6208,599.106 565.0808,599.1024 565.0136,599.1024 C564.9464,599.1024 564.4064,599.1 564.3384,599.1 C564.2704,599.1 563.7296,599.1 563.6616,599.1 C563.5936,599.1 563.0536,599.1024 562.9864,599.1024 C562.9192,599.1024 562.3792,599.106 562.312,599.106 C562.2448,599.106 561.708,599.1096 561.6408,599.1108 C561.5736,599.112 561.0392,599.1168 560.9728,599.118 C560.9064,599.1192 560.3752,599.1264 560.3088,599.1276 C560.2424,599.1288 559.7168,599.1372 559.6512,599.1384 C559.5856,599.1396 559.0648,599.1504 559,599.1516 C558.9352,599.1528 558.4208,599.1648 558.3568,599.166 C558.2928,599.1672 557.7848,599.1804 557.7216,599.1816 C557.6584,599.1828 557.1576,599.1972 557.096,599.1996 C557.0344,599.202 556.5424,599.2176 556.4816,599.22 C556.4208,599.2224 555.9392,599.2392 555.8792,599.2416 C555.8192,599.244 555.3472,599.2632 555.2888,599.2656 C555.2304,599.268 554.7688,599.2884 554.712,599.2908 C554.6552,599.2932 554.2056,599.316 554.1504,599.3184 C554.0952,599.3208 553.6584,599.3448 553.6048,599.3472 C553.5512,599.3496 553.1272,599.3736 553.0752,599.3772 C553.0232,599.3808 552.6144,599.4072 552.564,599.4108 C552.5136,599.4144 552.12,599.4408 552.072,599.4444 C552.024,599.448 551.6456,599.478 551.5992,599.4816 C551.5528,599.4852 551.1912,599.5152 551.1472,599.5188 C551.1032,599.5224 550.7592,599.556 550.7176,599.5596 C550.676,599.5632 550.3496,599.5956 550.3104,599.6004 C550.2712,599.6052 549.964,599.64 549.9272,599.6448 C549.8904,599.6496 549.6032,599.6844 549.5688,599.6892 C549.5344,599.694 549.2688,599.7324 549.2368,599.7372 C549.2048,599.742 548.96,599.7816 548.9312,599.7864 C548.9024,599.7912 548.7016,600.1296 548.6536,599.8368 C548.6056,599.544 547.98,593.9208 547.9672,593.9232 C547.9544,593.9256 548.3944,599.5884 548.4056,599.8896 C548.4168,600.1908 548.2072,599.9376 548.1872,599.9436 C548.1672,599.9496 548.0176,599.994 548,600 C547.9824,600.006 547.848,600.0552 547.8312,600.0624 C547.8144,600.0696 547.684,600.1284 547.668,600.1356 C547.652,600.144 547.5248,600.21 547.5096,600.2184 C547.4944,600.2268 547.372,600.3024 547.3568,600.312 C547.3416,600.3216 547.2232,600.4044 547.2088,600.4152 C547.1944,600.426 547.08,600.5148 547.0656,600.5268 C547.0512,600.5388 546.9416,600.6348 546.928,600.648 C546.9144,600.6612 546.8072,600.7656 546.7944,600.7788 C546.7816,600.792 546.6784,600.9024 546.6656,600.9168 C546.6528,600.9312 546.5536,601.0488 546.5416,601.0632 C546.5296,601.0788 546.4344,601.2012 546.4224,601.2168 C546.4104,601.2324 546.3184,601.3608 546.3072,601.3776 C546.296,601.3944 546.2072,601.53 546.196,601.5468 C546.1848,601.5636 546.1,601.704 546.0896,601.722 C546.0792,601.74 545.9976,601.8852 545.9872,601.9032 C545.9768,601.9212 545.8976,602.0724 545.888,602.0916 C545.8784,602.1108 545.8032,602.2656 545.7936,602.2848 C545.784,602.304 545.7112,602.4636 545.7024,602.484 C545.6936,602.5044 545.624,602.6676 545.6152,602.688 C545.6064,602.7084 545.54,602.8764 545.532,602.898 C545.524,602.9196 545.46,603.09 545.452,603.1116 C545.444,603.1332 545.3824,603.3072 545.3752,603.3288 C545.368,603.3504 545.3088,603.528 545.3016,603.5508 C545.2944,603.5736 545.2392,603.7536 545.232,603.7764 C545.2248,603.7992 545.1712,603.9828 545.1648,604.0056 C545.1584,604.0284 545.1072,604.2144 545.1008,604.2372 C545.0944,604.26 545.0456,604.4472 545.04,604.4712 C545.0344,604.4952 544.988,604.6836 544.9824,604.7076 C544.9768,604.7316 544.9328,604.9224 544.9272,604.9464 C544.9216,604.9704 544.8792,605.1624 544.8744,605.1864 C544.8696,605.2104 544.8288,605.4048 544.824,605.4288 C544.8192,605.4528 544.7816,605.6472 544.7768,605.6712 C544.772,605.6952 544.736,605.8908 544.7312,605.9148 C544.7264,605.9388 544.692,606.1356 544.688,606.1596 C544.684,606.1836 544.6512,606.3792 544.6472,606.4032 C544.6432,606.4272 544.6128,606.6228 544.6088,606.6468 C544.6048,606.6708 544.5752,606.8664 544.572,606.8904 C544.568,606.9144 544.54,607.1088 544.5368,607.1328 C544.5336,607.1568 544.5072,607.3512 544.504,607.3752 C544.5008,607.3992 544.476,607.5912 544.4728,607.6152 C544.4696,607.6392 544.4464,607.8288 544.4432,607.8528 C544.44,607.8768 544.4176,608.0652 544.4152,608.0892 C544.4128,608.1132 544.3904,608.2992 544.388,608.322 C544.3856,608.3448 544.3648,608.5308 544.3624,608.5536 C544.36,608.5764 544.3408,608.7588 544.3384,608.7816 C544.336,608.8044 544.3176,608.9832 544.3152,609.006 C544.3128,609.0288 544.4928,609.2532 544.2928,609.2268 C544.0936,609.2004 540.324,608.472 540.3232,608.4828 C540.3224,608.4936 544.0752,609.3852 544.272,609.444 C544.468,609.5028 544.2528,609.636 544.2512,609.6564 C544.2488,609.678 544.2336,609.8436 544.232,609.864 C544.2304,609.8844 544.2144,610.0464 544.2128,610.0668 C544.2112,610.0872 544.196,610.2456 544.1944,610.2648 C544.1928,610.284 544.1776,610.4376 544.176,610.4568 C544.1744,610.476 544.16,610.6248 544.1584,610.6428 C544.1568,610.6608 544.1432,610.8048 544.1416,610.8228 C544.14,610.8408 544.1256,610.9788 544.124,610.9956 C544.1224,611.0124 544.1088,611.1456 544.1072,611.1624 C544.1056,611.1792 544.0912,611.3064 544.0896,611.322 C544.088,611.3376 544.0736,611.4588 544.072,611.4732 C544.0704,611.4876 544.0568,611.6028 544.0552,611.6172 C544.0536,611.6316 544.0384,611.7408 544.0368,611.754 C544.0352,611.7672 544.02,611.8692 544.0184,611.8812 C544.0168,611.8932 544.0016,612 544,612 C543.9984,612 543.9904,611.8968 543.9888,611.8848 C543.9872,611.8728 543.972,611.778 543.9696,611.766 C543.9672,611.754 543.9464,611.658 543.9432,611.646 C543.94,611.634 543.9144,611.5344 543.9104,611.5224 C543.9064,611.5104 543.8736,611.4096 543.8696,611.3976 C543.8656,611.3856 543.828,611.2848 543.8232,611.2716 C543.8184,611.2584 543.7752,611.1552 543.7696,611.142 C543.764,611.1288 543.7168,611.0256 543.7104,611.0124 C543.704,610.9992 543.652,610.8936 543.6456,610.8804 C543.6384,610.8672 543.5816,610.7604 543.5744,610.7472 C543.5672,610.734 543.5064,610.626 543.4984,610.6128 C543.4904,610.5996 543.4256,610.4916 543.4168,610.4784 C543.408,610.4652 543.3384,610.356 543.3296,610.3428 C543.3208,610.3296 543.248,610.2192 543.2384,610.206 C543.2288,610.1928 543.152,610.0824 543.1424,610.0692 C543.1328,610.056 543.0528,609.9456 543.0424,609.9312 C543.032,609.9168 542.948,609.8064 542.9376,609.7932 C542.9272,609.78 542.84,609.6696 542.8288,609.6564 C542.8176,609.6432 542.728,609.5316 542.7168,609.5184 C542.7056,609.5052 542.6136,609.3948 542.6016,609.3816 C542.5896,609.3684 542.4952,609.258 542.4832,609.2448 C542.4712,609.2316 542.3736,609.1212 542.3616,609.108 C542.3496,609.0948 542.2496,608.9856 542.2368,608.9724 C542.224,608.9592 542.1224,608.8512 542.1096,608.838 C542.0968,608.8248 541.9936,608.718 541.9808,608.7048 C541.968,608.6916 541.8632,608.586 541.8496,608.5728 C541.836,608.5596 541.7296,608.4552 541.716,608.442 C541.7024,608.4288 541.5952,608.3256 541.5816,608.3124 C541.568,608.2992 541.4584,608.1984 541.4448,608.1852 C541.4312,608.172 541.3216,608.0712 541.308,608.0592 C541.2944,608.0472 541.1832,607.9476 541.1696,607.9356 C541.156,607.9236 541.044,607.8264 541.0304,607.8144 C541.0168,607.8024 540.9048,607.7076 540.8912,607.6956 C540.8776,607.6836 540.6664,607.8516 540.7512,607.5792 C540.836,607.3068 542.5968,602.2548 542.5896,602.2488 C542.5824,602.2428 540.7168,607.2096 540.6112,607.4652 C540.5056,607.7208 540.4856,607.3644 540.472,607.3536 C540.4584,607.3428 540.3456,607.2564 540.332,607.2456 C540.3184,607.2348 540.2072,607.152 540.1936,607.1412 C540.18,607.1304 540.0696,607.0488 540.056,607.0392 C540.0424,607.0296 539.9328,606.9504 539.9192,606.9408 C539.9056,606.9312 539.7976,606.8556 539.784,606.846 C539.7704,606.8364 539.664,606.7644 539.6504,606.756 C539.6368,606.7476 539.5312,606.6768 539.5184,606.6684 C539.5056,606.66 539.4008,606.594 539.388,606.5856 C539.3752,606.5772 539.2736,606.5148 539.2608,606.5076 C539.248,606.5004 539.148,606.4404 539.1352,606.4332 C539.1224,606.426 539.0248,606.3708 539.0128,606.3636 C539.0008,606.3564 538.9048,606.3048 538.8928,606.2988 C538.8808,606.2928 538.788,606.2448 538.7768,606.2388 C538.7656,606.2328 538.6744,606.1884 538.6632,606.1836 C538.652,606.1788 538.564,606.1392 538.5536,606.1344 C538.5432,606.1296 538.4584,606.0948 538.448,606.09 C538.4376,606.0864 538.3552,606.054 538.3456,606.0504 C538.336,606.0468 538.2576,606.0216 538.248,606.018 C538.2384,606.0144 538.164,605.9928 538.1552,605.9904 C538.1464,605.988 538.076,605.9712 538.0672,605.9688 C538.0584,605.9664 537.992,605.9544 537.984,605.9532 C537.976,605.952 537.9128,605.9448 537.9056,605.9448 C537.8984,605.9448 537.84,605.9424 537.8328,605.9424 C537.8256,605.9424 537.772,605.9448 537.7656,605.946 C537.7592,605.9472 537.7096,605.9556 537.704,605.9568 C537.6984,605.958 537.6544,605.9724 537.6488,605.9748 C537.6432,605.9772 537.6048,605.9964 537.6,606 C537.5952,606.0036 537.5584,606.0312 537.5536,606.0348 C537.5488,606.0384 537.5088,606.0768 537.504,606.0816 C537.4992,606.0864 537.4584,606.1356 537.4536,606.1416 C537.4488,606.1476 537.4064,606.2052 537.4008,606.2124 C537.3952,606.2196 537.352,606.2856 537.3464,606.294 C537.3408,606.3024 537.2952,606.378 537.2896,606.3876 C537.284,606.3972 537.2376,606.48 537.232,606.4908 C537.2264,606.5016 537.1792,606.5928 537.1728,606.6048 C537.1664,606.6168 537.1184,606.714 537.112,606.7272 C537.1056,606.7404 537.0568,606.846 537.0504,606.8604 C537.044,606.8748 536.9928,606.9888 536.9864,607.0032 C536.98,607.0176 536.9288,607.1376 536.9224,607.1532 C536.916,607.1688 536.8632,607.296 536.8568,607.3128 C536.8504,607.3296 536.7968,607.4628 536.7904,607.4796 C536.784,607.4964 536.7296,607.6368 536.7232,607.6548 C536.7168,607.6728 536.6624,607.8192 536.6552,607.8372 C536.6488,607.8552 536.5944,608.0064 536.5872,608.0256 C536.58,608.0448 536.5248,608.2008 536.5176,608.2212 C536.5104,608.2416 536.4552,608.4036 536.448,608.424 C536.4408,608.4444 536.3856,608.6112 536.3784,608.6316 C536.3712,608.6532 536.3152,608.8224 536.308,608.844 C536.3008,608.8656 536.2448,609.0408 536.2376,609.0624 C536.2304,609.084 536.1744,609.2628 536.1672,609.2856 C536.16,609.3084 536.104,609.4908 536.0968,609.5136 C536.0896,609.5364 536.0344,609.7224 536.0272,609.7452 C536.02,609.768 535.964,609.9564 535.9568,609.9804 C535.9496,610.0044 535.8944,610.1952 535.8872,610.2192 C535.88,610.2432 535.8248,610.4364 535.8176,610.4604 C535.8104,610.4844 535.756,610.6812 535.7488,610.7052 C535.7416,610.7292 535.6872,610.926 535.6808,610.9512 C535.6744,610.9764 535.62,611.1744 535.6136,611.1996 C535.6072,611.2248 535.5528,611.4252 535.5464,611.4504 C535.54,611.4756 535.4872,611.676 535.4808,611.7012 C535.4744,611.7264 535.4224,611.928 535.416,611.9532 C535.4096,611.9784 535.3592,612.18 535.3528,612.2052 C535.3464,612.2304 535.2968,612.4332 535.2904,612.4584 C535.284,612.4836 535.2352,612.6852 535.2288,612.7104 C535.2224,612.7356 535.1744,612.9372 535.1688,612.9624 C535.1632,612.9876 535.116,613.188 535.1104,613.2132 C535.1048,613.2384 535.0592,613.4376 535.0536,613.4628 C535.048,613.488 535.004,613.6848 534.9984,613.71 C534.9928,613.7352 534.9504,613.932 534.9448,613.956 C534.9392,613.98 534.8984,614.1744 534.8936,614.1984 C534.8888,614.2224 534.8488,614.4156 534.844,614.4396 C534.8392,614.4636 534.8016,614.652 534.7968,614.676 C534.792,614.7 534.756,614.8872 534.7512,614.91 C534.7464,614.9328 534.712,615.1176 534.708,615.1404 C534.704,615.1632 534.6712,615.3432 534.6672,615.366 C534.6632,615.3888 534.6328,615.5652 534.6288,615.5868 C534.6248,615.6084 534.596,615.7812 534.5928,615.8028 C534.5896,615.8244 534.5624,615.9936 534.5592,616.014 C534.556,616.0344 534.532,616.1988 534.5288,616.2192 C534.5256,616.2396 534.504,616.3992 534.5016,616.4184 C534.4992,616.4376 534.4792,616.5924 534.4768,616.6116 C534.4744,616.6308 534.4568,616.7796 534.4544,616.7976 C534.452,616.8156 534.4376,616.9584 534.436,616.9764 C534.4344,616.9944 534.4224,617.1312 534.4208,617.148 C534.4192,617.1648 534.4088,617.2956 534.408,617.3112 C534.4072,617.3268 534.4,617.4516 534.3992,617.4672 C534.3984,617.4828 534.3944,617.5992 534.3944,617.6136 C534.3944,617.628 534.392,617.7384 534.392,617.7516 C534.392,617.7648 534.3936,617.8692 534.3944,617.8812 C534.3944,617.8932 534.3992,617.988 534.4,618 C534.4008,618.012 534.4088,618.1068 534.4104,618.12 C534.412,618.1332 534.424,618.2388 534.4256,618.252 C534.4272,618.2652 534.444,618.3792 534.4464,618.3936 C534.4488,618.408 534.4688,618.5316 534.4712,618.5472 C534.4736,618.5628 534.4984,618.6924 534.5016,618.7092 C534.5048,618.726 534.532,618.864 534.536,618.882 C534.54,618.9 534.5712,619.0452 534.5752,619.0632 C534.5792,619.0812 534.6136,619.2348 534.6184,619.254 C534.6232,619.2732 534.6608,619.4316 534.6656,619.452 C534.6704,619.4724 534.712,619.638 534.7176,619.6584 C534.7232,619.68 534.7672,619.8504 534.7728,619.872 C534.7784,619.8936 534.8248,620.0688 534.8312,620.0916 C534.8376,620.1144 534.8872,620.2956 534.8936,620.3184 C534.9,620.3412 534.9536,620.5272 534.96,620.5512 C534.9664,620.5752 535.0216,620.766 535.0288,620.79 C535.036,620.814 535.0936,621.0096 535.1008,621.0336 C535.108,621.0576 535.168,621.2556 535.176,621.2808 C535.184,621.306 535.2456,621.5088 535.2536,621.534 C535.2616,621.5592 535.3264,621.7644 535.3344,621.7896 C535.3424,621.8148 535.408,622.0224 535.4168,622.0488 C535.4248,622.0752 535.4936,622.2852 535.5024,622.3116 C535.5112,622.338 535.5808,622.5492 535.5896,622.5756 C535.5984,622.602 535.6704,622.8156 535.6792,622.842 C535.688,622.8684 535.7608,623.0844 535.7704,623.1108 C535.78,623.1372 535.8536,623.3532 535.8632,623.3796 C535.8728,623.406 535.9488,623.622 535.9584,623.6496 C535.968,623.676 536.0448,623.892 536.0544,623.9196 C536.064,623.9472 536.1416,624.1632 536.1512,624.1896 C536.1608,624.216 536.24,624.432 536.2496,624.4584 C536.2592,624.4848 536.3392,624.6996 536.3496,624.726 C536.3592,624.7524 536.4392,624.966 536.4496,624.9924 C536.46,625.0188 536.54,625.23 536.5504,625.2564 C536.5608,625.2828 536.6416,625.4928 536.652,625.5192 C536.6624,625.5456 536.7432,625.752 536.7536,625.7772 C536.764,625.8024 536.8456,626.0076 536.856,626.0328 C536.8664,626.058 536.948,626.2596 536.9584,626.2848 C536.9688,626.31 537.0496,626.508 537.06,626.532 C537.0704,626.556 537.152,626.7504 537.1624,626.7744 C537.1728,626.7984 537.2536,626.988 537.264,627.012 C537.2744,627.036 537.3544,627.2208 537.3648,627.2436 C537.3752,627.2664 537.4544,627.4464 537.4648,627.4692 C537.4744,627.492 537.5552,627.6672 537.5648,627.6888 C537.5744,627.7104 537.6536,627.8808 537.6632,627.9012 C537.6728,627.9216 537.7512,628.086 537.7608,628.1064 C537.7704,628.1268 537.8472,628.284 537.8568,628.3032 C537.8664,628.3224 537.9416,628.4736 537.9512,628.4916 C537.9608,628.5096 538.0352,628.6536 538.0448,628.6716 C538.0544,628.6896 538.1272,628.8264 538.136,628.8432 C538.1448,628.86 538.2168,628.9884 538.2256,629.004 C538.2344,629.0196 538.304,629.1408 538.3128,629.1552 C538.3216,629.1696 538.3896,629.2824 538.3984,629.2956 C538.4072,629.3088 538.4736,629.4132 538.4816,629.4252 C538.4896,629.4372 538.5544,629.5332 538.5624,629.544 C538.5704,629.5548 538.632,629.64 538.64,629.6496 C538.648,629.6592 538.708,629.736 538.7152,629.7444 C538.7224,629.7528 538.7808,629.8188 538.788,629.826 C538.7952,629.8332 538.8504,629.8872 538.8568,629.8932 C538.8632,629.8992 538.9168,629.9436 538.9232,629.9484 C538.9296,629.9532 538.9792,629.9844 538.9856,629.988 C538.992,629.9916 539.0392,630.012 539.0448,630.0144 C539.0504,630.0168 539.0952,630.0252 539.1008,630.0252 C539.1064,630.0252 539.1472,630.0216 539.152,630.0204 C539.1568,630.0192 539.1952,630.0036 539.2,630 C539.2048,629.9976 539.2432,629.9652 539.248,629.9604 C539.2528,629.9556 539.2944,629.9076 539.3,629.9004 C539.3056,629.8932 539.3512,629.8284 539.3568,629.8188 C539.3624,629.8092 539.4112,629.7288 539.4176,629.718 C539.424,629.7072 539.476,629.6112 539.4824,629.598 C539.4888,629.5848 539.5432,629.4744 539.5504,629.46 C539.5576,629.4456 539.6152,629.3208 539.6224,629.304 C539.6296,629.2872 539.6904,629.148 539.6984,629.13 C539.7064,629.112 539.7688,628.9608 539.7768,628.9404 C539.7848,628.9212 539.8504,628.7556 539.8584,628.734 C539.8664,628.7124 539.9336,628.5348 539.9424,628.512 C539.9512,628.4892 540.0208,628.3008 540.0296,628.2768 C540.0384,628.2528 540.1104,628.0512 540.1192,628.026 C540.128,628.0008 540.2016,627.7896 540.2112,627.7632 C540.2208,627.7368 540.296,627.5148 540.3056,627.4872 C540.3152,627.4596 540.392,627.228 540.4016,627.1992 C540.4112,627.1692 540.4904,626.9292 540.5,626.8992 C540.5096,626.8692 540.5888,626.6196 540.5992,626.5884 C540.6096,626.5572 540.6904,626.3004 540.7008,626.268 C540.7112,626.2356 540.7928,625.9728 540.8032,625.9392 C540.8136,625.9056 540.896,625.6344 540.9064,625.5996 C540.9168,625.5648 541.0008,625.2876 541.0112,625.2528 C541.0216,625.218 541.1064,624.9348 541.1168,624.8988 C541.1272,624.8628 541.212,624.5736 541.2224,624.5376 C541.2328,624.5016 541.3184,624.2076 541.3288,624.1704 C541.3392,624.1332 541.4256,623.8344 541.436,623.7972 C541.4464,623.76 541.532,623.4576 541.5424,623.4192 C541.5528,623.3808 541.6392,623.076 541.6496,623.0376 C541.66,622.9992 541.7456,622.6896 541.756,622.6512 C541.7664,622.6128 541.852,622.302 541.8624,622.2624 C541.8728,622.224 541.9568,621.9108 541.9672,621.8712 C541.9776,621.8316 542.0616,621.5184 542.072,621.4788 C542.0824,621.4392 542.1656,621.1236 542.176,621.084 C542.1864,621.0444 542.2688,620.73 542.2792,620.6904 C542.2896,620.6508 542.3696,620.3364 542.38,620.2968 C542.3904,620.2572 542.4704,619.9428 542.48,619.9032 C542.4896,619.8636 542.5688,619.5516 542.5784,619.512 C542.588,619.4724 542.6656,619.1604 542.6752,619.122 C542.6848,619.0836 542.76,618.774 542.7696,618.7356 C542.7792,618.6972 542.8536,618.3912 542.8624,618.3528 C542.8712,618.3144 542.9432,618.0108 542.952,617.9736 C542.9608,617.9364 543.0312,617.6376 543.04,617.6004 C543.0488,617.5632 543.1168,617.2692 543.1248,617.232 C543.1328,617.1948 543.1992,616.9044 543.2072,616.8684 C543.2152,616.8324 543.2784,616.548 543.2864,616.5132 C543.2944,616.4784 543.3552,616.2 543.3624,616.1652 C543.3696,616.1304 543.428,615.858 543.4352,615.8244 C543.4424,615.7908 543.4976,615.5256 543.504,615.4932 C543.5104,615.4608 543.5632,615.2016 543.5696,615.1704 C543.576,615.1392 543.6256,614.8896 543.6312,614.8584 C543.6368,614.8272 543.6824,614.586 543.688,614.556 C543.6936,614.526 543.7368,614.2944 543.7416,614.2656 C543.7464,614.2368 543.7864,614.01 543.7904,613.9872 C543.7944,613.9644 543.8176,613.8216 543.8192,613.8168 C543.8208,613.812 543.816,613.8672 543.8152,613.8804 C543.8144,613.8936 543.804,614.0556 543.8032,614.0748 C543.8024,614.094 543.7936,614.2548 543.7928,614.2752 C543.792,614.2956 543.7832,614.4588 543.7824,614.4792 C543.7816,614.4996 543.7736,614.6664 543.7728,614.6868 C543.772,614.7072 543.764,614.8764 543.7632,614.898 C543.7624,614.9196 543.756,615.0924 543.7552,615.114 C543.7544,615.1356 543.748,615.3108 543.7472,615.3324 C543.7464,615.354 543.7408,615.5304 543.74,615.5532 C543.7392,615.576 543.7344,615.7548 543.7336,615.7776 C543.7328,615.8004 543.728,615.9816 543.7272,616.0044 C543.7264,616.0272 543.7224,616.2108 543.7216,616.2336 C543.7208,616.2564 543.7176,616.4412 543.7168,616.464 C543.716,616.4868 543.7136,616.6728 543.7128,616.6956 C543.7128,616.7184 543.7088,616.9068 543.7088,616.9296 C543.7088,616.9524 543.7064,617.1396 543.7064,617.1636 C543.7064,617.1876 543.704,617.3748 543.704,617.3988 C543.704,617.4228 543.7016,617.6112 543.7016,617.6352 C543.7016,617.6592 543.7008,617.8476 543.7008,617.8716 C543.7008,617.8956 543.7,618.0828 543.7,618.1068 C543.7,618.1308 543.7,618.3192 543.7,618.3432 C543.7,618.3672 543.7008,618.5544 543.7008,618.5784 C543.7008,618.6024 543.7016,618.7896 543.7016,618.8124 C543.7016,618.8352 543.704,619.0224 543.704,619.0452 C543.704,619.068 543.7064,619.254 543.7064,619.2768 C543.7064,619.2996 543.7088,619.4844 543.7088,619.5072 C543.7088,619.53 543.7128,619.7124 543.7128,619.7352 C543.7136,619.758 543.716,619.938 543.7168,619.9608 C543.7176,619.9836 543.7208,620.1612 543.7216,620.184 C543.7224,620.2056 543.7264,620.3832 543.7272,620.4048 C543.728,620.4264 543.7328,620.6004 543.7336,620.622 C543.7344,620.6436 543.7392,620.8152 543.74,620.8368 C543.7408,620.8584 543.7464,621.0264 543.7472,621.0468 C543.748,621.0672 543.7544,621.2328 543.7552,621.2532 C543.756,621.2736 543.7624,621.4356 543.7632,621.456 C543.764,621.4764 543.772,621.6348 543.7728,621.654 C543.7736,621.6732 543.7816,621.828 543.7824,621.8472 C543.7832,621.8664 543.792,622.0188 543.7928,622.0368 C543.7936,622.0548 543.8024,622.2012 543.8032,622.2192 C543.804,622.2372 543.8136,622.3788 543.8152,622.3968 C543.816,622.4148 543.8256,622.5528 543.8272,622.5696 C543.8288,622.5864 543.8384,622.7184 543.84,622.7352 C543.8416,622.752 543.8512,622.8792 543.8528,622.8948 C543.8544,622.9104 543.8656,623.0328 543.8672,623.0472 C543.8688,623.0616 543.88,623.1792 543.8816,623.1936 C543.8832,623.208 543.8952,623.3196 543.8968,623.3328 C543.8984,623.346 543.9104,623.4504 543.912,623.4636 C543.9136,623.4768 543.9272,623.5752 543.9288,623.5872 C543.9304,623.5992 543.944,623.6928 543.9456,623.7036 C543.9472,623.7144 543.9616,623.7996 543.9632,623.8104 C543.9648,623.8212 543.98,623.9004 543.9816,623.91 C543.9832,623.9196 543.9984,623.9916 544,624 C544.0016,624.0084 544.0168,624.0792 544.0184,624.0876 C544.02,624.096 544.0352,624.1668 544.0368,624.1764 C544.0384,624.186 544.0536,624.2592 544.0552,624.2688 C544.0568,624.2784 544.0704,624.354 544.072,624.3636 C544.0736,624.3732 544.088,624.45 544.0896,624.4596 C544.0912,624.4692 544.1056,624.5496 544.1072,624.5592 C544.1088,624.5688 544.1224,624.6492 544.124,624.66 C544.1256,624.6696 544.14,624.7524 544.1416,624.7632 C544.1432,624.774 544.1568,624.8568 544.1584,624.8676 C544.16,624.8784 544.1744,624.9636 544.176,624.9744 C544.1776,624.9852 544.1928,625.0716 544.1944,625.0824 C544.196,625.0932 544.2112,625.1808 544.2128,625.1916 C544.2144,625.2024 544.2304,625.2912 544.232,625.302 C544.2336,625.3128 544.2488,625.4028 544.2512,625.4136 C544.2528,625.4244 544.2696,625.5156 544.272,625.5276 C544.2744,625.5384 544.2904,625.6308 544.2928,625.6416 C544.2952,625.6536 544.3128,625.7436 544.3152,625.7556 C544.3176,625.7676 544.336,625.86 544.3384,625.872 C544.3408,625.884 544.36,625.9764 544.3624,625.9884 C544.3648,626.0004 544.3856,626.0928 544.388,626.1048 C544.3904,626.1168 544.4128,626.2104 544.4152,626.2224 C544.4176,626.2344 544.44,626.328 544.4432,626.34 C544.4464,626.352 544.4696,626.4456 544.4728,626.4576 C544.476,626.4696 544.5008,626.5632 544.504,626.5752 C544.5072,626.5872 544.5336,626.6808 544.5368,626.6928 C544.54,626.7048 544.568,626.7984 544.572,626.8104 C544.5752,626.8224 544.6048,626.916 544.6088,626.928 C544.6128,626.94 544.6432,627.0336 544.6472,627.0456 C544.6512,627.0576 544.684,627.15 544.688,627.162 C544.692,627.174 544.7264,627.2652 544.7312,627.2772 C544.736,627.2892 544.772,627.3804 544.7768,627.3924 C544.7816,627.4044 544.8192,627.4968 544.824,627.5076 C544.8288,627.5196 544.8696,627.6096 544.8744,627.6204 C544.8792,627.6312 544.9216,627.7212 544.9272,627.732 C544.9328,627.7428 544.9768,627.8328 544.9824,627.8436 C544.988,627.8544 545.0344,627.942 545.04,627.9528 C545.0456,627.9636 545.0944,628.0512 545.1008,628.062 C545.1072,628.0728 545.1584,628.158 545.1648,628.1688 C545.1712,628.1796 545.2248,628.2624 545.232,628.2732 C545.2392,628.284 545.2944,628.3656 545.3016,628.3764 C545.3088,628.3872 545.368,628.4688 545.3752,628.4784 C545.3824,628.488 545.444,628.5684 545.452,628.578 C545.46,628.5876 545.524,628.6656 545.532,628.6752 C545.54,628.6848 545.6064,628.7604 545.6152,628.77 C545.624,628.7796 545.6936,628.8528 545.7024,628.8624 C545.7112,628.872 545.784,628.9452 545.7936,628.9536 C545.8032,628.962 545.8784,629.0328 545.888,629.0412 C545.8976,629.0496 545.9768,629.118 545.9872,629.1264 C545.9976,629.1348 546.0792,629.1996 546.0896,629.208 C546.1,629.2164 546.1848,629.28 546.196,629.2872 C546.2072,629.2956 546.296,629.3568 546.3072,629.364 C546.3184,629.3712 546.4104,629.43 546.4224,629.4372 C546.4344,629.4444 546.5296,629.4996 546.5416,629.5068 C546.5536,629.514 546.6528,629.5668 546.6656,629.5728 C546.6784,629.5788 546.7816,629.6304 546.7944,629.6364 C546.8072,629.6424 546.9144,629.6892 546.928,629.6952 C546.9416,629.7012 547.0512,629.7456 547.0656,629.7516 C547.08,629.7564 547.1944,629.7984 547.2088,629.8032 C547.2232,629.808 547.3416,629.8464 547.3568,629.8512 C547.372,629.856 547.4944,629.8908 547.5096,629.8944 C547.5248,629.898 547.652,629.9304 547.668,629.934 C547.684,629.9376 547.8144,629.9652 547.8312,629.9688 C547.848,629.9724 547.9824,629.9976 548,630 C548.0176,630.0024 548.1672,630.0252 548.1872,630.0276 C548.2072,630.03 548.3824,630.0528 548.4056,630.0552 C548.4288,630.0576 548.6304,630.0792 548.6536,630.0816 C548.6768,630.084 548.872,630.0936 548.8752,630.102 C548.8784,630.1104 548.74,630.2304 548.7224,630.2472 C548.7056,630.264 548.5496,630.4236 548.5312,630.4428 C548.5128,630.462 548.3696,630.6204 548.3528,630.6396 C548.336,630.6588 548.204,630.8184 548.188,630.8376 C548.172,630.8568 548.0528,631.0152 548.0384,631.0356 C548.024,631.0548 547.9168,631.2144 547.904,631.2336 C547.8912,631.254 547.796,631.4124 547.7848,631.4316 C547.7736,631.4508 547.692,631.6104 547.6824,631.6296 C547.6728,631.6488 547.6048,631.8072 547.5968,631.8264 C547.5888,631.8456 547.5344,632.004 547.5288,632.0232 C547.5232,632.0424 547.4832,632.1984 547.4792,632.2176 C547.4752,632.2368 547.4504,632.3928 547.448,632.412 C547.4456,632.4312 547.4368,632.5848 547.4368,632.604 C547.4368,632.6232 547.4432,632.7744 547.4456,632.7948 C547.448,632.8152 547.4736,632.9832 547.4776,633.0072 C547.4824,633.0312 547.5264,633.2364 547.5336,633.264 C547.5408,633.2916 547.6048,633.5316 547.6144,633.564 C547.624,633.5964 547.7072,633.87 547.7184,633.906 C547.7296,633.942 547.8304,634.248 547.844,634.2876 C547.8576,634.3272 547.976,634.6632 547.992,634.7076 C548.008,634.752 548.1432,635.118 548.1608,635.166 C548.1784,635.214 548.3288,635.6076 548.3488,635.6592 C548.3688,635.7108 548.5352,636.1332 548.5568,636.1872 C548.5784,636.2412 548.76,636.6912 548.7832,636.7488 C548.8064,636.8064 549.0016,637.2792 549.0264,637.3404 C549.0512,637.4016 549.26,637.8984 549.2872,637.962 C549.3144,638.0256 549.5352,638.5464 549.564,638.6124 C549.5928,638.6784 549.8264,639.2208 549.856,639.2904 C549.8856,639.36 550.1304,639.9216 550.1616,639.9936 C550.1928,640.0656 550.4488,640.6464 550.4816,640.7208 C550.5144,640.7952 550.7808,641.394 550.8144,641.4696 C550.848,641.5452 551.124,642.1632 551.1592,642.2412 C551.1944,642.3192 551.4792,642.9504 551.5152,643.0308 C551.5512,643.1112 551.8448,643.758 551.8816,643.8396 C551.9184,643.9212 552.2192,644.5824 552.2576,644.6652 C552.296,644.748 552.6032,645.42 552.6424,645.5052 C552.6816,645.5904 552.9952,646.2732 553.0352,646.3596 C553.0752,646.446 553.3952,647.1384 553.4352,647.226 C553.4752,647.3136 553.8008,648.0156 553.8416,648.1032 C553.8824,648.1908 554.212,648.9012 554.2536,648.99 C554.2952,649.0788 554.6288,649.794 554.6704,649.884 C554.712,649.974 555.0488,650.6952 555.0912,650.7852 C555.1336,650.8752 555.4728,651.6 555.5152,651.6912 C555.5576,651.7824 555.9,652.5096 555.9424,652.6008 C555.9848,652.692 556.3272,653.4216 556.3704,653.5128 C556.4136,653.604 556.756,654.3336 556.7992,654.4248 C556.8424,654.516 557.1856,655.2444 557.2288,655.3356 C557.272,655.4268 557.6144,656.1528 557.6568,656.244 C557.6992,656.3352 558.0416,657.0588 558.084,657.1488 C558.1264,657.2388 558.4656,657.9588 558.508,658.0488 C558.5504,658.1388 558.888,658.8528 558.9296,658.9416 C558.9712,659.0304 559.3056,659.7384 559.3472,659.826 C559.3888,659.9136 559.7288,660.636 559.7592,660.7008 C559.7896,660.7656 559.9488,661.1196 559.96,661.1268 C559.9712,661.134 559.9632,660.7944 559.9776,660.8364 C559.992,660.8784 560.2152,661.8408 560.2456,661.9692 C560.276,662.0976 560.5528,663.2688 560.5872,663.4128 C560.6216,663.5568 560.8952,664.7136 560.9296,664.8576 C560.964,665.0016 561.2376,666.1572 561.272,666.3012 C561.3064,666.4452 561.58,667.5972 561.6144,667.7412 C561.6488,667.8852 561.9208,669.0324 561.9544,669.1752 C561.988,669.318 562.26,670.4592 562.2936,670.6008 C562.3272,670.7424 562.5968,671.8752 562.6304,672.0156 C562.664,672.156 562.9304,673.278 562.9632,673.4172 C562.996,673.5564 563.268,674.7 563.2928,674.8032 C563.3176,674.9064 563.4408,675.4776 563.4528,675.4764 C563.4648,675.4752 563.52,674.88 563.532,674.772 C563.544,674.664 563.6792,673.4676 563.696,673.3212 C563.7128,673.1748 563.8464,671.988 563.8616,671.8536 C563.8768,671.7192 563.9864,670.632 564,670.632 C564.0136,670.632 564.1232,671.7192 564.1384,671.8536 C564.1536,671.988 564.2872,673.1748 564.304,673.3212 C564.3208,673.4676 564.456,674.664 564.468,674.772 C564.48,674.88 564.5352,675.4752 564.5472,675.4764 C564.5592,675.4776 564.6824,674.9064 564.7072,674.8032 C564.732,674.7 565.004,673.5564 565.0368,673.4172 C565.0696,673.278 565.336,672.156 565.3696,672.0156 C565.4032,671.8752 565.6728,670.7424 565.7064,670.6008 C565.74,670.4592 566.012,669.318 566.0456,669.1752 C566.0792,669.0324 566.3512,667.8852 566.3856,667.7412 C566.42,667.5972 566.6936,666.4452 566.728,666.3012 C566.7624,666.1572 567.036,665.0016 567.0704,664.8576 C567.1048,664.7136 567.3784,663.5568 567.4128,663.4128 C567.4472,663.2688 567.724,662.0976 567.7544,661.9692 C567.7848,661.8408 568.008,660.8784 568.0224,660.8364 C568.0368,660.7944 568.0288,661.134 568.04,661.1268 C568.0512,661.1196 568.2104,660.7656 568.2408,660.7008 C568.2712,660.636 568.6112,659.9136 568.6528,659.826 C568.6944,659.7384 569.0288,659.0304 569.0704,658.9416 C569.112,658.8528 569.4496,658.1388 569.492,658.0488 C569.5344,657.9588 569.8736,657.2388 569.916,657.1488 C569.9584,657.0588 570.3008,656.3352 570.3432,656.244 C570.3856,656.1528 570.728,655.4268 570.7712,655.3356 C570.8144,655.2444 571.1576,654.516 571.2008,654.4248 C571.244,654.3336 571.5864,653.604 571.6296,653.5128 C571.6728,653.4216 572.0152,652.692 572.0576,652.6008 C572.1,652.5096 572.4424,651.7824 572.4848,651.6912 C572.5272,651.6 572.8664,650.8752 572.9088,650.7852 C572.9512,650.6952 573.288,649.974 573.3296,649.884 C573.3712,649.794 573.7048,649.0788 573.7464,648.99 C573.788,648.9012 574.1176,648.1908 574.1584,648.1032 C574.1992,648.0156 574.5248,647.3136 574.5648,647.226 C574.6048,647.1384 574.9248,646.446 574.9648,646.3596 C575.0048,646.2732 575.3184,645.5904 575.3576,645.5052 C575.3968,645.42 575.704,644.748 575.7424,644.6652 C575.7808,644.5824 576.0816,643.9212 576.1184,643.8396 C576.1552,643.758 576.4488,643.1112 576.4848,643.0308 C576.5208,642.9504 576.8056,642.3192 576.8408,642.2412 C576.876,642.1632 577.152,641.5452 577.1856,641.4696 C577.2192,641.394 577.4856,640.7952 577.5184,640.7208 C577.5512,640.6464 577.8072,640.0656 577.8384,639.9936 C577.8696,639.9216 578.1144,639.36 578.144,639.2904 C578.1736,639.2208 578.4072,638.6784 578.436,638.6124 C578.4648,638.5464 578.6856,638.0256 578.7128,637.962 C578.74,637.8984 578.9488,637.4016 578.9736,637.3404 C578.9992,637.2792 579.1936,636.8064 579.2168,636.7488 C579.24,636.6912 579.4216,636.2412 579.4432,636.1872 C579.4648,636.1332 579.6312,635.7108 579.6512,635.6592 C579.6712,635.6076 579.8216,635.214 579.8392,635.166 C579.8568,635.118 579.992,634.752 580.008,634.7076 C580.024,634.6632 580.1424,634.3272 580.156,634.2876 C580.1696,634.248 580.2704,633.942 580.2816,633.906 C580.2928,633.87 580.376,633.5964 580.3856,633.564 C580.3952,633.5316 580.4592,633.2916 580.4664,633.264 C580.4736,633.2364 580.5184,633.0312 580.5224,633.0072 C580.5264,632.9832 580.552,632.8152 580.5544,632.7948 C580.5568,632.7744 580.5632,632.6232 580.5632,632.604 C580.5632,632.5848 580.5544,632.4312 580.552,632.412 C580.5496,632.3928 580.5248,632.2368 580.5208,632.2176 C580.5168,632.1984 580.4768,632.0424 580.4712,632.0232 C580.4656,632.004 580.4112,631.8456 580.4032,631.8264 C580.3952,631.8072 580.3272,631.6488 580.3176,631.6296 C580.308,631.6104 580.2264,631.4508 580.2152,631.4316 C580.204,631.4124 580.1088,631.254 580.096,631.2336 C580.0832,631.2144 579.976,631.0548 579.9616,631.0356 C579.9472,631.0152 579.828,630.8568 579.812,630.8376 C579.796,630.8184 579.664,630.6588 579.6472,630.6396 C579.6304,630.6204 579.4872,630.462 579.4688,630.4428 C579.4504,630.4236 579.2944,630.264 579.2776,630.2472 C579.26,630.2304 579.1216,630.1104 579.1248,630.102 C579.128,630.0936 579.3232,630.084 579.3464,630.0816 Z" fill="#F7D7C4" stroke="none" stroke-width="4"/>
    <path d="M201.9888,509.4828 C201.9824,509.4408 201.892,508.8108 201.8808,508.7352 C201.8696,508.6596 201.7008,508.0608 201.7704,507.978 C201.84,507.8952 203.2824,507.1164 203.2768,507.078 C203.2712,507.0396 201.7448,507.2412 201.6584,507.2088 C201.572,507.1764 201.5544,506.5104 201.5432,506.4324 C201.532,506.3544 201.3576,505.734 201.4272,505.6488 C201.4968,505.5636 202.9352,504.768 202.9296,504.7284 C202.924,504.6888 201.396,504.8916 201.3088,504.858 C201.2216,504.8244 201.2016,504.1428 201.1896,504.0636 C201.1776,503.9844 201.0008,503.3508 201.0696,503.2644 C201.1384,503.178 202.576,502.3728 202.5696,502.3332 C202.5632,502.2936 201.036,502.4976 200.9488,502.464 C200.8616,502.4304 200.8392,501.744 200.8272,501.6636 C200.8152,501.5832 200.636,500.9496 200.7048,500.8632 C200.7736,500.7768 202.2104,499.968 202.204,499.9284 C202.1976,499.8888 200.6704,500.0976 200.5832,500.0652 C200.496,500.0328 200.4744,499.3488 200.4624,499.2696 C200.4504,499.1904 200.3528,498.558 200.3408,498.4788 C200.3288,498.3996 200.2328,497.772 200.2208,497.694 C200.2088,497.616 200.1144,496.9932 200.1024,496.9164 C200.0904,496.8396 199.996,496.2252 199.984,496.1484 C199.972,496.0716 199.8792,495.4644 199.868,495.3888 C199.8568,495.3132 199.764,494.7108 199.7536,494.6412 C199.7432,494.5716 199.668,493.9968 199.6552,493.9956 C199.6424,493.9944 199.6568,494.652 199.4952,494.6136 C199.3336,494.5752 196.4296,493.194 196.42,493.23 C196.4104,493.266 199.1744,495.1872 199.3096,495.3288 C199.4448,495.4704 199.1408,495.9804 199.1216,496.0536 C199.1024,496.1268 198.9504,496.7148 198.9312,496.7892 C198.912,496.8636 198.7576,497.4576 198.7384,497.532 C198.7192,497.6064 198.5624,498.2064 198.5432,498.282 C198.524,498.3576 198.3672,498.9624 198.3472,499.038 C198.3272,499.1136 198.1704,499.7232 198.1504,499.7988 C198.1304,499.8756 197.9728,500.4852 197.9528,500.562 C197.9328,500.6388 197.7752,501.2508 197.7552,501.3276 C197.7352,501.4044 197.5776,502.0176 197.5576,502.0944 C197.5376,502.1712 197.38,502.7832 197.36,502.86 C197.34,502.9368 197.1832,503.5476 197.164,503.6232 C197.1448,503.6988 196.9888,504.3084 196.9696,504.384 C196.9504,504.4596 196.7952,505.0644 196.776,505.14 C196.7568,505.2156 196.6048,505.8168 196.5856,505.8912 C196.5664,505.9656 196.4152,506.5596 196.3968,506.634 C196.3784,506.7084 196.2296,507.2976 196.2112,507.3708 C196.1928,507.444 196.044,508.0368 196.0288,508.0968 C196.0136,508.1568 195.9216,508.572 195.9096,508.572 C195.8976,508.572 195.804,508.152 195.7888,508.0908 C195.7736,508.0296 195.6216,507.4284 195.6032,507.354 C195.5848,507.2796 195.4336,506.6856 195.4144,506.6112 C195.3952,506.5368 195.2432,505.9356 195.224,505.86 C195.2048,505.7844 195.0496,505.1796 195.0304,505.104 C195.0112,505.0284 194.8552,504.4188 194.836,504.3432 C194.8168,504.2664 194.66,503.6568 194.64,503.58 C194.62,503.5032 194.4624,502.8912 194.4424,502.8144 C194.4224,502.7376 194.2648,502.1244 194.2448,502.0476 C194.2248,501.9708 194.0672,501.3588 194.0472,501.282 C194.0272,501.2052 193.8696,500.5944 193.8496,500.5188 C193.8296,500.4432 193.6728,499.8336 193.6528,499.758 C193.6328,499.6824 193.476,499.0776 193.4568,499.002 C193.4376,498.9264 193.2808,498.3264 193.2616,498.252 C193.2424,498.1776 193.088,497.5836 193.0688,497.5092 C193.0496,497.4348 192.8976,496.8468 192.8784,496.7736 C192.8592,496.7004 192.7088,496.1208 192.6904,496.0488 C192.672,495.9768 192.5224,495.4008 192.5048,495.3336 C192.4872,495.2664 192.3576,494.7144 192.3448,494.7156 C192.332,494.7168 192.2568,495.2916 192.2464,495.3612 C192.236,495.4308 192.1432,496.0332 192.132,496.1088 C192.1208,496.1844 192.028,496.7916 192.016,496.8684 C192.004,496.9452 191.9096,497.5596 191.8976,497.6364 C191.8856,497.7132 191.7912,498.336 191.7792,498.414 C191.7672,498.492 191.6712,499.1196 191.6592,499.1988 C191.6472,499.278 191.7024,499.9836 191.5376,499.9896 C191.3728,499.9956 188.3632,499.2816 188.3568,499.3212 C188.3504,499.3608 191.2696,500.6724 191.4168,500.7852 C191.564,500.898 191.3072,501.5028 191.2952,501.5832 C191.2832,501.6636 191.1848,502.3032 191.1728,502.3836 C191.1608,502.464 191.0632,503.1036 191.0512,503.184 C191.0392,503.2644 190.9424,503.904 190.9304,503.9844 C190.9184,504.0648 190.8224,504.7044 190.8104,504.7836 C190.7984,504.8628 190.7032,505.4988 190.6912,505.578 C190.6792,505.6572 190.5848,506.2896 190.5728,506.3688 C190.5608,506.448 190.468,507.0744 190.4568,507.1524 C190.4456,507.2304 190.3528,507.852 190.3416,507.9288 C190.3304,508.0056 190.2408,508.6212 190.2296,508.698 C190.2184,508.7748 190.1304,509.3796 190.1192,509.4552 C190.108,509.5308 190.0216,510.1284 190.0112,510.2028 C190.0008,510.2772 189.9152,510.8772 189.9064,510.9372 C189.8976,510.9972 189.8504,511.4016 189.8392,511.41 C189.828,511.4184 189.7024,511.134 189.6832,511.0956 C189.664,511.0572 189.4792,510.6876 189.456,510.642 C189.4328,510.5964 189.2504,510.2316 189.2272,510.186 C189.204,510.1404 189.0208,509.7732 188.9976,509.7276 C188.9744,509.682 188.7896,509.3136 188.7664,509.268 C188.7432,509.2224 188.5576,508.854 188.5344,508.8084 C188.5112,508.7628 188.3256,508.3956 188.3024,508.35 C188.2792,508.3044 188.0936,507.9384 188.0704,507.8928 C188.0472,507.8472 187.8632,507.4824 187.84,507.4368 C187.8168,507.3912 187.6336,507.0288 187.6104,506.9832 C187.5872,506.9376 187.4048,506.5788 187.3824,506.5344 C187.36,506.49 187.1784,506.1324 187.156,506.088 C187.1336,506.0436 186.9552,505.6908 186.9328,505.6476 C186.9104,505.6044 186.7336,505.2564 186.712,505.2132 C186.6904,505.17 186.5152,504.8244 186.4952,504.7848 C186.4752,504.7452 186.32,504.4104 186.3072,504.414 C186.2944,504.4188 186.2488,504.8196 186.2416,504.8688 C186.2344,504.918 186.1736,505.3416 186.1656,505.3944 C186.1576,505.4472 186.096,505.8744 186.088,505.9284 C186.08,505.9824 186.0176,506.4156 186.0096,506.4696 C186.0016,506.5236 185.9384,506.9616 185.9304,507.0168 C185.9224,507.072 185.8584,507.5136 185.8504,507.5688 C185.8424,507.624 185.7776,508.0692 185.7696,508.1244 C185.7616,508.1808 185.6968,508.6284 185.6888,508.6848 C185.6808,508.7412 185.616,509.19 185.608,509.2464 C185.6,509.3028 185.5352,509.7528 185.5272,509.8092 C185.5192,509.8656 185.4544,510.3156 185.4464,510.372 C185.4384,510.4284 185.3744,510.8784 185.3664,510.9348 C185.3584,510.9912 185.2952,511.44 185.2872,511.4964 C185.2792,511.5528 185.216,511.9992 185.208,512.0544 C185.2,512.1096 185.1384,512.5548 185.1304,512.61 C185.1224,512.6652 185.0616,513.1056 185.0544,513.1608 C185.0472,513.216 184.9864,513.6528 184.9792,513.7068 C184.972,513.7608 184.9128,514.1916 184.9056,514.2456 C184.8984,514.2996 184.996,514.7844 184.8336,514.7772 C184.6712,514.77 181.6632,514.0752 181.66,514.1016 C181.6568,514.128 184.612,515.2164 184.764,515.3016 C184.916,515.3868 184.7032,515.766 184.6968,515.8164 C184.6904,515.8668 184.6376,516.27 184.6312,516.3204 C184.6248,516.3708 184.5752,516.7656 184.5688,516.8148 C184.5624,516.864 184.5144,517.248 184.5088,517.296 C184.5032,517.344 184.4576,517.7184 184.452,517.7652 C184.4464,517.8108 184.4032,518.1756 184.3976,518.22 C184.392,518.2644 184.352,518.616 184.3472,518.6592 C184.3424,518.7024 184.3048,519.042 184.3,519.084 C184.2952,519.126 184.2608,519.4524 184.2568,519.492 C184.2528,519.5316 184.2208,519.8436 184.2168,519.882 C184.2128,519.9204 184.1848,520.2168 184.1816,520.2528 C184.1784,520.2888 184.1536,520.5708 184.1504,520.6044 C184.1472,520.638 184.1256,520.9032 184.1232,520.9356 C184.1208,520.968 184.1032,521.2164 184.1016,521.2464 C184.1,521.2764 184.0856,521.5056 184.084,521.5332 C184.0824,521.5608 184.0728,521.7744 184.072,521.7972 C184.0712,521.82 184.0704,521.9688 184.0664,521.9784 C184.0632,521.988 184.0096,521.9964 184,522 C183.9904,522.0036 183.8808,522.0432 183.868,522.048 C183.8552,522.0528 183.752,522.0936 183.7392,522.0984 C183.7264,522.1032 183.6264,522.1476 183.6136,522.1536 C183.6008,522.1596 183.5024,522.2064 183.4904,522.2124 C183.4784,522.2184 183.3824,522.2676 183.3704,522.2736 C183.3584,522.2796 183.264,522.3324 183.2528,522.3396 C183.2408,522.3468 183.1496,522.3996 183.1384,522.4068 C183.1272,522.414 183.0384,522.4716 183.0272,522.4788 C183.016,522.486 182.928,522.546 182.9176,522.5532 C182.9064,522.5604 182.8216,522.6216 182.8112,522.63 C182.8008,522.6384 182.7184,522.7008 182.708,522.7092 C182.6976,522.7176 182.616,522.7836 182.6064,522.792 C182.596,522.8004 182.5176,522.8688 182.508,522.8772 C182.4984,522.8856 182.4216,522.9564 182.412,522.9648 C182.4024,522.9732 182.328,523.0452 182.3184,523.0548 C182.3088,523.0644 182.236,523.1364 182.2272,523.146 C182.2184,523.1556 182.1472,523.2312 182.1384,523.2408 C182.1296,523.2504 182.0616,523.3272 182.0528,523.3368 C182.044,523.3464 181.9768,523.4244 181.9688,523.434 C181.9608,523.4436 181.8952,523.524 181.8872,523.5336 C181.8792,523.5432 181.8152,523.6248 181.8072,523.6356 C181.7992,523.6464 181.7376,523.728 181.7304,523.7388 C181.7232,523.7496 181.6624,523.8324 181.6552,523.8432 C181.648,523.854 181.5896,523.938 181.5824,523.9488 C181.5752,523.9596 181.5184,524.0448 181.5112,524.0556 C181.504,524.0664 181.4488,524.1528 181.4424,524.1636 C181.436,524.1744 181.3824,524.262 181.376,524.2728 C181.3696,524.2836 181.3176,524.3724 181.3112,524.3832 C181.3048,524.394 181.2552,524.484 181.2488,524.4948 C181.2424,524.5056 181.1936,524.5956 181.188,524.6064 C181.1816,524.6172 181.2608,524.8548 181.1288,524.7192 C180.9968,524.5824 178.5504,521.8764 178.5472,521.8824 C178.544,521.8884 180.9488,524.6784 181.072,524.832 C181.1952,524.9856 181.0216,524.934 181.016,524.9448 C181.0104,524.9556 180.968,525.048 180.9624,525.0588 C180.9568,525.0696 180.916,525.1608 180.9112,525.1716 C180.9064,525.1824 180.8656,525.2748 180.8608,525.2856 C180.856,525.2976 180.8168,525.3888 180.812,525.3996 C180.8072,525.4116 180.7696,525.5028 180.7648,525.5136 C180.76,525.5244 180.7248,525.6156 180.72,525.6264 C180.7152,525.6372 180.68,525.7284 180.676,525.7392 C180.672,525.75 180.6376,525.8412 180.6336,525.852 C180.6296,525.8628 180.5968,525.954 180.5928,525.9648 C180.5888,525.9756 180.5568,526.0656 180.5528,526.0764 C180.5488,526.0872 180.5192,526.176 180.5152,526.1868 C180.5112,526.1976 180.4824,526.2852 180.4784,526.296 C180.4744,526.3068 180.4456,526.3944 180.4424,526.4052 C180.4392,526.416 180.4112,526.5024 180.408,526.5132 C180.4048,526.524 180.3784,526.608 180.3752,526.6188 C180.372,526.6296 180.3464,526.7136 180.3432,526.7244 C180.34,526.7352 180.316,526.8168 180.3128,526.8276 C180.3096,526.8384 180.2864,526.9212 180.2832,526.9308 C180.28,526.9404 180.2568,527.0208 180.2544,527.0304 C180.252,527.04 180.2296,527.1204 180.2272,527.13 C180.2248,527.1396 180.2032,527.2176 180.2008,527.2272 C180.1984,527.2368 180.1776,527.3124 180.1752,527.322 C180.1728,527.3316 180.1528,527.4048 180.1504,527.4144 C180.148,527.424 180.1288,527.496 180.1264,527.5056 C180.124,527.514 180.1056,527.586 180.1032,527.5944 C180.1008,527.6028 180.084,527.6724 180.0816,527.6808 C180.0792,527.6892 180.0624,527.7564 180.06,527.7648 C180.0576,527.7732 180.0416,527.8368 180.0392,527.8452 C180.0368,527.8536 180.0208,527.9172 180.0192,527.9244 C180.0176,527.9316 180.0016,527.9928 180,528 C179.9984,528.0072 179.9832,528.0696 179.9816,528.078 C179.98,528.0864 179.9648,528.1548 179.9632,528.1632 C179.9616,528.1716 179.9472,528.246 179.9456,528.2556 C179.944,528.2652 179.9304,528.3444 179.9288,528.3552 C179.9272,528.366 179.9136,528.4512 179.912,528.462 C179.9104,528.4728 179.8984,528.5616 179.8968,528.5736 C179.8952,528.5856 179.8832,528.6804 179.8816,528.6924 C179.88,528.7044 179.8688,528.804 179.8672,528.8172 C179.8656,528.8304 179.8544,528.9348 179.8528,528.948 C179.8512,528.9612 179.8416,529.0692 179.84,529.0836 C179.8384,529.0968 179.8288,529.2096 179.8272,529.224 C179.8256,529.2384 179.816,529.3548 179.8152,529.3692 C179.8144,529.3836 179.804,529.5048 179.8032,529.5204 C179.8024,529.536 179.7936,529.6596 179.7928,529.6752 C179.792,529.6908 179.7832,529.818 179.7824,529.8336 C179.7816,529.8492 179.7736,529.98 179.7728,529.9968 C179.772,530.0136 179.764,530.1468 179.7632,530.1636 C179.7624,530.1804 179.9152,530.3376 179.7552,530.334 C179.5952,530.3304 176.5592,530.0796 176.5592,530.088 C176.5592,530.0964 179.588,530.4768 179.7472,530.5068 C179.9064,530.5368 179.7408,530.6652 179.74,530.6832 C179.7392,530.7012 179.7344,530.844 179.7336,530.862 C179.7328,530.88 179.728,531.0252 179.7272,531.0432 C179.7264,531.0612 179.7224,531.21 179.7216,531.228 C179.7208,531.246 179.7176,531.3936 179.7168,531.4128 C179.716,531.432 179.7128,531.582 179.7128,531.6012 C179.7128,531.6204 179.7088,531.7704 179.7088,531.7896 C179.7088,531.8088 179.7064,531.9612 179.7064,531.9804 C179.7064,531.9996 179.704,532.152 179.704,532.1712 C179.704,532.1904 179.7016,532.344 179.7016,532.3632 C179.7016,532.3824 179.7008,532.536 179.7008,532.5552 C179.7008,532.5744 179.7,532.7292 179.7,532.7484 C179.7,532.7676 179.7,532.9224 179.7,532.9416 C179.7,532.9608 179.7008,533.1144 179.7008,533.1336 C179.7008,533.1528 179.7016,533.3076 179.7016,533.3268 C179.7016,533.346 179.704,533.4984 179.704,533.5176 C179.704,533.5368 179.7064,533.6892 179.7064,533.7084 C179.7064,533.7276 179.7088,533.8788 179.7088,533.898 C179.7088,533.9172 179.7128,534.066 179.7128,534.0852 C179.7128,534.1044 179.716,534.2532 179.7168,534.2712 C179.7176,534.2892 179.7208,534.438 179.7216,534.456 C179.7224,534.474 179.7264,534.6204 179.7272,534.6384 C179.728,534.6564 179.7328,534.7992 179.7336,534.8172 C179.7344,534.8352 179.7392,534.9768 179.74,534.9948 C179.7408,535.0128 179.7464,535.152 179.7472,535.1688 C179.748,535.1856 179.7544,535.3236 179.7552,535.3404 C179.756,535.3572 179.7624,535.4904 179.7632,535.5072 C179.764,535.524 179.772,535.6548 179.7728,535.6716 C179.7736,535.6872 179.7816,535.8156 179.7824,535.8312 C179.7832,535.8468 179.792,535.9716 179.7928,535.9872 C179.7936,536.0028 179.8024,536.1252 179.8032,536.1396 C179.804,536.154 179.8144,536.2716 179.8152,536.286 C179.816,536.3004 179.8256,536.4132 179.8272,536.4276 C179.8288,536.442 179.8384,536.5524 179.84,536.5656 C179.8416,536.5788 179.8512,536.6832 179.8528,536.6964 C179.8544,536.7096 179.8656,536.8104 179.8672,536.8224 C179.8688,536.8344 179.88,536.9304 179.8816,536.9424 C179.8832,536.9544 179.8952,537.0456 179.8968,537.0564 C179.8984,537.0672 179.9104,537.1536 179.912,537.1644 C179.9136,537.1752 179.9272,537.2568 179.9288,537.2664 C179.9304,537.276 179.944,537.3504 179.9456,537.36 C179.9472,537.3696 179.9616,537.4392 179.9632,537.4476 C179.9648,537.456 179.98,537.5208 179.9816,537.528 C179.9832,537.5352 179.9984,537.5928 180,537.6 C180.0016,537.6072 180.0176,537.6624 180.0192,537.6696 C180.0208,537.6768 180.0368,537.7332 180.0392,537.7404 C180.0416,537.7476 180.0576,537.8052 180.06,537.8124 C180.0624,537.8196 180.0792,537.8796 180.0816,537.8868 C180.084,537.894 180.2472,537.8568 180.1032,537.9624 C179.9592,538.068 177.2072,540.0036 177.208,540.0072 C177.2088,540.0108 179.9792,538.1328 180.1264,538.038 C180.2736,537.9432 180.148,538.1076 180.1504,538.116 C180.1528,538.1244 180.1728,538.1868 180.1752,538.1952 C180.1776,538.2036 180.1984,538.2672 180.2008,538.2756 C180.2032,538.284 180.2248,538.3476 180.2272,538.356 C180.2296,538.3644 180.252,538.4304 180.2544,538.4388 C180.2568,538.4472 180.28,538.5132 180.2832,538.5216 C180.2864,538.53 180.3096,538.5972 180.3128,538.6056 C180.316,538.614 180.34,538.6812 180.3432,538.6896 C180.3464,538.698 180.372,538.7664 180.3752,538.7748 C180.3784,538.7832 180.4048,538.8528 180.408,538.8612 C180.4112,538.8696 180.4392,538.9392 180.4424,538.9476 C180.4456,538.956 180.4744,539.0256 180.4784,539.034 C180.4824,539.0424 180.5112,539.1132 180.5152,539.1216 C180.5192,539.13 180.5488,539.2008 180.5528,539.2092 C180.5568,539.2176 180.5888,539.2896 180.5928,539.298 C180.5968,539.3064 180.6296,539.3772 180.6336,539.3856 C180.6376,539.394 180.672,539.466 180.676,539.4744 C180.68,539.4828 180.7152,539.5548 180.72,539.5632 C180.7248,539.5716 180.76,539.6436 180.7648,539.652 C180.7696,539.6604 180.8072,539.7324 180.812,539.7408 C180.8168,539.7492 180.856,539.8212 180.8608,539.8296 C180.8656,539.838 180.9064,539.9088 180.9112,539.9172 C180.916,539.9256 180.9568,539.9976 180.9624,540.006 C180.968,540.0144 181.0104,540.0852 181.016,540.0936 C181.0216,540.102 181.0664,540.1728 181.072,540.1812 C181.0776,540.1896 181.1232,540.2604 181.1288,540.2688 C181.1344,540.2772 181.1816,540.3468 181.188,540.3552 C181.1936,540.3636 181.2424,540.4332 181.2488,540.4416 C181.2552,540.45 181.3048,540.5184 181.3112,540.5268 C181.3176,540.5352 181.3696,540.6036 181.376,540.612 C181.3824,540.6204 181.436,540.6876 181.4424,540.696 C181.4488,540.7044 181.504,540.7704 181.5112,540.7788 C181.5184,540.7872 181.5752,540.8532 181.5824,540.8616 C181.5896,540.87 181.648,540.9336 181.6552,540.942 C181.6624,540.9504 181.7232,541.014 181.7304,541.0224 C181.7376,541.0308 181.7992,541.0944 181.8072,541.1028 C181.8152,541.1112 181.8792,541.1736 181.8872,541.1808 C181.8952,541.188 181.9608,541.2504 181.9688,541.2576 C181.9768,541.2648 182.044,541.326 182.0528,541.3332 C182.0616,541.3404 182.1296,541.4004 182.1384,541.4076 C182.1472,541.4148 182.2184,541.4724 182.2272,541.4796 C182.236,541.4868 182.3088,541.5444 182.3184,541.5516 C182.328,541.5588 182.4024,541.614 182.412,541.6212 C182.4216,541.6284 182.4984,541.6824 182.508,541.6896 C182.5176,541.6968 182.596,541.7496 182.6064,541.7568 C182.616,541.7628 182.6976,541.8156 182.708,541.8216 C182.7184,541.8276 182.8008,541.878 182.8112,541.884 C182.8216,541.89 182.9064,541.9392 182.9176,541.9452 C182.928,541.9512 183.016,541.998 183.0272,542.004 C183.0384,542.01 183.1272,542.0556 183.1384,542.0616 C183.1496,542.0676 183.2408,542.1108 183.2528,542.1168 C183.264,542.1228 183.3584,542.1648 183.3704,542.1696 C183.3824,542.1744 183.4784,542.2152 183.4904,542.22 C183.5024,542.2248 183.6008,542.2644 183.6136,542.2692 C183.6264,542.274 183.7264,542.31 183.7392,542.3148 C183.752,542.3196 183.8552,542.3544 183.868,542.3592 C183.8808,542.364 183.9864,542.3964 184,542.4 C184.0136,542.4036 184.1288,542.4372 184.1448,542.442 C184.1608,542.4468 184.2944,542.4816 184.312,542.4864 C184.3296,542.4912 184.48,542.5296 184.5,542.5344 C184.52,542.5392 184.688,542.58 184.7096,542.5848 C184.7312,542.5896 184.9152,542.6316 184.9392,542.6376 C184.9632,542.6436 185.1624,542.688 185.188,542.694 C185.2136,542.7 185.4272,542.7468 185.4552,542.7528 C185.4832,542.7588 185.7112,542.808 185.7408,542.814 C185.7704,542.82 186.012,542.8704 186.0432,542.8764 C186.0744,542.8824 186.3296,542.9352 186.3624,542.9412 C186.3952,542.9472 186.6624,543.0012 186.6968,543.0084 C186.7312,543.0156 187.0112,543.0708 187.0472,543.078 C187.0832,543.0852 187.3744,543.1416 187.4112,543.1488 C187.448,543.156 187.7512,543.2136 187.7896,543.2208 C187.828,543.228 188.14,543.2868 188.18,543.294 C188.22,543.3012 188.5424,543.3624 188.5832,543.3696 C188.624,543.3768 188.956,543.438 188.9976,543.4452 C189.0392,543.4524 189.3792,543.5148 189.4224,543.5232 C189.4656,543.5316 189.8136,543.5928 189.8576,543.6012 C189.9016,543.6096 190.2576,543.672 190.3024,543.6804 C190.3472,543.6888 190.7096,543.7512 190.7552,543.7596 C190.8008,543.768 191.1704,543.8316 191.2168,543.84 C191.2632,543.8484 191.6376,543.912 191.6848,543.9204 C191.732,543.9288 192.1112,543.9936 192.1592,544.002 C192.2072,544.0104 192.5912,544.074 192.6392,544.0824 C192.6872,544.0908 193.076,544.1556 193.1248,544.164 C193.1736,544.1724 193.5648,544.2372 193.6136,544.2456 C193.6624,544.254 194.0576,544.3176 194.1072,544.326 C194.1568,544.3344 194.5536,544.398 194.6032,544.4064 C194.6528,544.4148 195.0512,544.4784 195.1008,544.4868 C195.1504,544.4952 195.5504,544.5576 195.6,544.566 C195.6496,544.5744 196.0504,544.6356 196.1,544.644 C196.1504,544.6524 196.5504,544.7148 196.6,544.722 C196.6496,544.7292 197.0496,544.7916 197.0992,544.7988 C197.1488,544.806 197.5472,544.8672 197.5968,544.8744 C197.6464,544.8816 198.0424,544.9416 198.092,544.9488 C198.1416,544.956 198.536,545.0136 198.5848,545.0208 C198.6336,545.028 199.0248,545.0856 199.0736,545.0928 C199.1224,545.1 199.5096,545.1552 199.5576,545.1624 C199.6056,545.1696 199.9896,545.2224 200.0376,545.2296 C200.0856,545.2368 200.4632,545.2896 200.5104,545.2956 C200.5576,545.3016 200.9312,545.3544 200.9776,545.3604 C201.024,545.3664 201.392,545.4156 201.4376,545.4216 C201.4832,545.4276 201.8448,545.4756 201.8896,545.4816 C201.9344,545.4876 202.288,545.532 202.332,545.538 C202.376,545.544 202.7232,545.5884 202.7664,545.5932 C202.8096,545.598 203.148,545.64 203.1896,545.6448 C203.2312,545.6496 203.5616,545.688 203.6024,545.6928 C203.6432,545.6976 203.964,545.7348 204.0032,545.7396 C204.0424,545.7444 204.3536,545.778 204.392,545.7816 C204.4304,545.7852 204.7312,545.8188 204.768,545.8224 C204.8048,545.826 205.0944,545.8548 205.1296,545.8584 C205.1648,545.862 205.4432,545.8872 205.4776,545.8908 C205.5112,545.8944 205.7768,545.9184 205.8096,545.9208 C205.8424,545.9232 206.0952,545.9436 206.1264,545.946 C206.1576,545.9484 206.3976,545.9652 206.4264,545.9676 C206.4552,545.97 206.6816,545.9844 206.7088,545.9856 C206.736,545.9868 206.948,545.9976 206.9736,545.9988 C206.9992,546 207.1952,546.0072 207.2192,546.0084 C207.2424,546.0096 207.424,546.0132 207.4456,546.0132 C207.4672,546.0132 207.632,546.0132 207.6512,546.0132 C207.6704,546.0132 207.8192,546.0108 207.8368,546.0096 C207.8544,546.0084 207.984,546.0012 208,546 C208.016,545.9988 208.1376,545.9868 208.1528,545.9856 C208.168,545.9844 208.292,545.9688 208.3072,545.9664 C208.3224,545.964 208.4472,545.9436 208.4624,545.9412 C208.4776,545.9388 208.6024,545.9148 208.6184,545.9112 C208.6344,545.9076 208.7592,545.8788 208.7752,545.8752 C208.7912,545.8716 208.9168,545.8404 208.9328,545.8356 C208.9488,545.8308 209.0752,545.7948 209.0912,545.79 C209.1072,545.7852 209.2336,545.7456 209.2496,545.7408 C209.2656,545.736 209.3928,545.6928 209.4088,545.6868 C209.4248,545.6808 209.552,545.634 209.568,545.628 C209.584,545.622 209.712,545.5716 209.728,545.5656 C209.744,545.5596 209.872,545.5056 209.888,545.4984 C209.904,545.4912 210.032,545.4348 210.048,545.4276 C210.064,545.4204 210.192,545.3604 210.208,545.3532 C210.224,545.346 210.352,545.2836 210.368,545.2752 C210.384,545.2668 210.5112,545.202 210.5272,545.1936 C210.5432,545.1852 210.6704,545.1168 210.6864,545.1084 C210.7024,545.1 210.8296,545.0292 210.8456,545.0208 C210.8616,545.0124 210.988,544.9392 211.004,544.9296 C211.02,544.92 211.1456,544.8444 211.1616,544.8348 C211.1776,544.8252 211.3024,544.7472 211.3184,544.7376 C211.3344,544.728 211.4584,544.6476 211.4744,544.638 C211.4904,544.6284 211.6152,544.5468 211.6304,544.536 C211.6456,544.5252 211.7688,544.4424 211.784,544.4316 C211.7992,544.4208 211.9224,544.3356 211.9376,544.3248 C211.9528,544.314 212.0744,544.2264 212.0896,544.2156 C212.1048,544.2048 212.2248,544.1148 212.24,544.104 C212.2552,544.0932 212.3744,544.002 212.3896,543.9912 C212.4048,543.9804 212.5232,543.8892 212.5376,543.8772 C212.552,543.8652 212.6696,543.774 212.684,543.762 C212.6984,543.75 212.8136,543.6564 212.828,543.6444 C212.8424,543.6324 212.9568,543.5376 212.9712,543.5256 C212.9856,543.5136 213.0984,543.4176 213.112,543.4056 C213.1264,543.3936 213.2376,543.2976 213.2512,543.2856 C213.2648,543.2736 213.3744,543.1752 213.388,543.1632 C213.4016,543.1512 213.5096,543.054 213.5232,543.042 C213.5368,543.03 213.6432,542.9304 213.656,542.9184 C213.6688,542.9064 213.7728,542.808 213.7856,542.796 C213.7984,542.784 213.9008,542.6844 213.9136,542.6724 C213.9264,542.6604 214.0264,542.5608 214.0392,542.5488 C214.0512,542.5368 214.1496,542.4372 214.1616,542.4252 C214.1736,542.4132 214.2696,542.3148 214.2816,542.3028 C214.2936,542.2908 214.3872,542.1912 214.3984,542.1792 C214.4096,542.1672 214.5016,542.0688 214.5128,542.0568 C214.524,542.0448 214.6128,541.9464 214.624,541.9344 C214.6352,541.9224 214.7216,541.8252 214.732,541.8132 C214.7424,541.8012 214.8264,541.7052 214.8368,541.6932 C214.8472,541.6812 214.928,541.5852 214.9384,541.5732 C214.9488,541.5612 215.0272,541.4676 215.0368,541.4556 C215.0464,541.4436 215.1216,541.35 215.1312,541.338 C215.1408,541.326 215.2136,541.2348 215.2224,541.2228 C215.2312,541.2108 215.3008,541.1196 215.3096,541.1088 C215.3184,541.098 215.3848,541.008 215.3928,540.9972 C215.4008,540.9864 215.4648,540.8976 215.4728,540.8868 C215.4808,540.876 215.5416,540.7884 215.5488,540.7776 C215.556,540.7668 215.6128,540.6828 215.62,540.672 C215.6272,540.6612 215.6816,540.5784 215.688,540.5676 C215.6944,540.5568 215.7448,540.4764 215.7512,540.4668 C215.7576,540.4572 215.804,540.3768 215.8096,540.3672 C215.8152,540.3576 215.8584,540.2808 215.864,540.2712 C215.8696,540.2616 215.9096,540.1872 215.9144,540.1776 C215.9192,540.168 215.9552,540.096 215.9592,540.0876 C215.9632,540.0792 215.996,540.0084 216,540 C216.004,539.9916 216.0336,539.9196 216.0376,539.91 C216.0416,539.9004 216.0704,539.8212 216.0736,539.8104 C216.0768,539.7996 216.1056,539.712 216.1088,539.7012 C216.112,539.6904 216.1392,539.5968 216.1424,539.5848 C216.1456,539.5728 216.172,539.4732 216.1752,539.46 C216.1784,539.4468 216.204,539.34 216.2072,539.3268 C216.2104,539.3136 216.2336,539.1996 216.2368,539.1852 C216.24,539.1708 216.2632,539.0532 216.2664,539.0376 C216.2696,539.022 216.2912,538.8972 216.2936,538.8816 C216.296,538.866 216.3184,538.7364 216.3208,538.7196 C216.3232,538.7028 216.3432,538.5672 216.3456,538.5504 C216.348,538.5336 216.368,538.3944 216.3704,538.3764 C216.3728,538.3584 216.3904,538.2132 216.3928,538.1952 C216.3952,538.1772 216.4128,538.0272 216.4152,538.008 C216.4176,537.9888 216.4336,537.8364 216.4352,537.8172 C216.4368,537.798 216.4528,537.6396 216.4544,537.6192 C216.456,537.5988 216.4712,537.438 216.4728,537.4176 C216.4744,537.3972 216.488,537.2316 216.4896,537.2112 C216.4912,537.1908 216.504,537.0228 216.5056,537.0012 C216.5072,536.9796 216.5184,536.808 216.52,536.7864 C216.5216,536.7648 216.532,536.5908 216.5336,536.5692 C216.5352,536.5476 216.5448,536.37 216.5456,536.3472 C216.5464,536.3244 216.5552,536.1456 216.556,536.1228 C216.5568,536.1 216.5648,535.9188 216.5656,535.896 C216.5664,535.8732 216.5736,535.6896 216.5744,535.6668 C216.5752,535.644 216.5808,535.458 216.5816,535.4352 C216.5824,535.4124 216.5872,535.2252 216.588,535.2012 C216.5888,535.1772 216.592,534.99 216.5928,534.966 C216.5936,534.942 216.596,534.7536 216.596,534.7296 C216.596,534.7056 216.5984,534.516 216.5984,534.492 C216.5984,534.468 216.6,534.2784 216.6,534.2544 C216.6,534.2304 216.6,534.0396 216.6,534.0156 C216.6,533.9916 216.5984,533.8008 216.5984,533.7768 C216.5984,533.7528 216.596,533.562 216.596,533.538 C216.596,533.514 216.5936,533.3244 216.5928,533.3004 C216.592,533.2764 216.5888,533.0868 216.588,533.0628 C216.5872,533.0388 216.5824,532.8504 216.5816,532.8264 C216.5808,532.8024 216.5752,532.6164 216.5744,532.5924 C216.5736,532.5696 216.5664,532.3812 216.5656,532.3584 C216.5648,532.3356 216.5568,532.1496 216.556,532.1268 C216.5552,532.104 216.5464,531.9204 216.5456,531.8976 C216.5448,531.8748 216.5352,531.6936 216.5336,531.6708 C216.532,531.648 216.5216,531.4692 216.52,531.4476 C216.5184,531.426 216.5072,531.2484 216.5056,531.2268 C216.504,531.2052 216.4912,531.03 216.4896,531.0084 C216.488,530.9868 216.4744,530.8164 216.4728,530.7948 C216.4712,530.7732 216.456,530.6052 216.4544,530.5848 C216.4528,530.5644 216.4368,530.4 216.4352,530.3796 C216.4336,530.3592 216.4176,530.1984 216.4152,530.178 C216.4128,530.1576 216.3952,530.0004 216.3928,529.9812 C216.3904,529.962 216.3728,529.8096 216.3704,529.7904 C216.368,529.7712 216.348,529.6224 216.3456,529.6044 C216.3432,529.5864 216.3232,529.4424 216.3208,529.4244 C216.3184,529.4064 216.296,529.2672 216.2936,529.2504 C216.2912,529.2336 216.2696,529.0992 216.2664,529.0824 C216.2632,529.0656 216.24,528.9372 216.2368,528.9216 C216.2336,528.906 216.2104,528.7824 216.2072,528.7668 C216.204,528.7512 216.1784,528.6336 216.1752,528.6192 C216.172,528.6048 216.1456,528.4932 216.1424,528.48 C216.1392,528.4668 216.112,528.36 216.1088,528.3468 C216.1056,528.3336 216.0768,528.2352 216.0736,528.2232 C216.0704,528.2112 216.0416,528.1176 216.0376,528.1068 C216.0336,528.096 216.004,528.0108 216,528 C215.996,527.9892 215.9632,527.904 215.9592,527.8932 C215.9552,527.8824 215.9192,527.7924 215.9144,527.7804 C215.9096,527.7684 215.8696,527.6724 215.864,527.6604 C215.8584,527.6484 215.8152,527.5476 215.8096,527.5344 C215.804,527.5212 215.7576,527.4156 215.7512,527.4024 C215.7448,527.3892 215.6944,527.2788 215.688,527.2644 C215.6816,527.25 215.6272,527.136 215.62,527.1216 C215.6128,527.1072 215.556,526.9884 215.5488,526.9728 C215.5416,526.9572 215.4808,526.8348 215.4728,526.8192 C215.4648,526.8036 215.4008,526.6764 215.3928,526.6608 C215.3848,526.6452 215.3184,526.5156 215.3096,526.4988 C215.3008,526.482 215.2312,526.3488 215.2224,526.332 C215.2136,526.3152 215.1408,526.1772 215.1312,526.1604 C215.1216,526.1436 215.0464,526.0044 215.0368,525.9864 C215.0272,525.9684 214.9488,525.8268 214.9384,525.8088 C214.928,525.7908 214.8472,525.6456 214.8368,525.6276 C214.8264,525.6096 214.7424,525.462 214.732,525.444 C214.7216,525.426 214.6352,525.276 214.624,525.2568 C214.6128,525.2376 214.524,525.0876 214.5128,525.0684 C214.5016,525.0492 214.4096,524.8968 214.3984,524.8776 C214.3872,524.8584 214.2936,524.7036 214.2816,524.6844 C214.2696,524.6652 214.1736,524.5092 214.1616,524.49 C214.1496,524.4708 214.0512,524.3136 214.0392,524.2944 C214.0264,524.2752 213.9264,524.1168 213.9136,524.0976 C213.9008,524.0784 213.7984,523.92 213.7856,523.8996 C213.7728,523.8792 213.6688,523.7208 213.656,523.7016 C213.6432,523.6812 213.5368,523.5228 213.5232,523.5036 C213.5096,523.4844 213.4016,523.3248 213.388,523.3056 C213.3744,523.2864 213.2648,523.1268 213.2512,523.1076 C213.2376,523.0884 213.1264,522.9288 213.112,522.9096 C213.0984,522.8904 212.9856,522.732 212.9712,522.7128 C212.9568,522.6936 212.8424,522.5364 212.828,522.5172 C212.8136,522.498 212.6984,522.342 212.684,522.3228 C212.6696,522.3036 212.552,522.1488 212.5376,522.1296 C212.5232,522.1104 212.4048,521.958 212.3896,521.9388 C212.3744,521.9196 212.2552,521.7696 212.24,521.7504 C212.2248,521.7312 212.1048,521.5812 212.0896,521.5632 C212.0744,521.5452 211.9528,521.3976 211.9376,521.3796 C211.9224,521.3616 211.7992,521.2164 211.784,521.1984 C211.7688,521.1804 211.6456,521.0388 211.6304,521.0208 C211.6152,521.0028 211.4904,520.8636 211.4744,520.8468 C211.4584,520.83 211.3344,520.692 211.3184,520.6752 C211.3024,520.6584 211.1776,520.5252 211.1616,520.5084 C211.1456,520.4916 211.02,520.362 211.004,520.3464 C210.988,520.3308 210.8616,520.2036 210.8456,520.188 C210.8296,520.1724 210.7024,520.05 210.6864,520.0344 C210.6704,520.0188 210.5432,519.9 210.5272,519.8856 C210.5112,519.8712 210.384,519.7572 210.368,519.7428 C210.352,519.7284 210.224,519.618 210.208,519.6048 C210.192,519.5916 210.064,519.486 210.048,519.4728 C210.032,519.4596 209.904,519.3588 209.888,519.3468 C209.872,519.3348 209.744,519.2388 209.728,519.2268 C209.712,519.2148 209.584,519.1248 209.568,519.114 C209.552,519.1032 209.4248,519.018 209.4088,519.0072 C209.3928,518.9964 209.2656,518.9172 209.2496,518.9076 C209.2336,518.898 209.1072,518.8248 209.0912,518.8164 C209.0752,518.808 208.9488,518.7396 208.9328,518.7312 C208.9168,518.7228 208.7912,518.6628 208.7752,518.6556 C208.7592,518.6484 208.6344,518.5932 208.6184,518.5872 C208.6024,518.5812 208.4776,518.5332 208.4624,518.5272 C208.4472,518.5212 208.3224,518.4804 208.3072,518.4756 C208.292,518.4708 208.168,518.4372 208.1528,518.4336 C208.1376,518.43 208.0152,518.4024 208,518.4 C207.9848,518.3976 207.852,518.3904 207.8432,518.3748 C207.8344,518.3592 207.8216,518.1252 207.8184,518.0928 C207.8152,518.0604 207.7872,517.7604 207.7832,517.722 C207.7792,517.6836 207.7472,517.3716 207.7432,517.332 C207.7392,517.2924 207.7048,516.966 207.7,516.924 C207.6952,516.882 207.6576,516.5424 207.6528,516.4992 C207.648,516.456 207.608,516.1044 207.6024,516.06 C207.5968,516.0156 207.5536,515.652 207.548,515.6052 C207.5424,515.5596 207.4968,515.184 207.4912,515.136 C207.4856,515.088 207.4376,514.704 207.4312,514.6548 C207.4248,514.6056 207.3752,514.2108 207.3688,514.1604 C207.3624,514.11 207.3096,513.7068 207.3032,513.6564 C207.2968,513.606 207.2432,513.1932 207.236,513.1416 C207.2288,513.09 207.1736,512.67 207.1664,512.6172 C207.1592,512.5644 207.1016,512.1396 207.0944,512.0856 C207.0872,512.0316 207.028,511.6008 207.0208,511.5468 C207.0136,511.4928 206.9528,511.056 206.9456,511.0008 C206.9384,510.9456 206.8776,510.5052 206.8696,510.45 C206.8616,510.3948 206.8,509.9496 206.792,509.8944 C206.784,509.8392 206.7208,509.3928 206.7128,509.3364 C206.7048,509.28 206.6416,508.8312 206.6336,508.7748 C206.6256,508.7184 206.5616,508.2684 206.5536,508.212 C206.5456,508.1556 206.4808,507.7056 206.4728,507.6492 C206.4648,507.5928 206.4,507.1428 206.392,507.0864 C206.384,507.03 206.3192,506.5812 206.3112,506.5248 C206.3032,506.4684 206.2384,506.0196 206.2304,505.9644 C206.2224,505.908 206.1576,505.464 206.1496,505.4088 C206.1416,505.3536 206.0776,504.912 206.0696,504.8568 C206.0616,504.8016 205.9984,504.3636 205.9904,504.3096 C205.9824,504.2556 205.92,503.8224 205.912,503.7684 C205.904,503.7144 205.8424,503.2872 205.8344,503.2344 C205.8264,503.1816 205.7656,502.758 205.7584,502.7088 C205.7512,502.6596 205.7056,502.2576 205.6928,502.254 C205.68,502.2504 205.5248,502.5852 205.5048,502.6248 C205.4848,502.6644 205.3096,503.01 205.288,503.0532 C205.2664,503.0964 205.0896,503.4444 205.0672,503.4876 C205.0448,503.5308 204.8664,503.8836 204.844,503.928 C204.8216,503.9724 204.64,504.33 204.6176,504.3744 C204.5952,504.4188 204.4128,504.7776 204.3896,504.8232 C204.3664,504.8688 204.1832,505.2312 204.16,505.2768 C204.1368,505.3224 203.9528,505.6872 203.9296,505.7328 C203.9064,505.7784 203.7208,506.1444 203.6976,506.19 C203.6744,506.2356 203.4888,506.6028 203.4656,506.6484 C203.4424,506.694 203.2568,507.0624 203.2336,507.108 C203.2104,507.1536 203.0256,507.522 203.0024,507.5676 C202.9792,507.6132 202.796,507.9804 202.7728,508.026 C202.7496,508.0716 202.5672,508.4364 202.544,508.482 C202.5216,508.5276 202.3392,508.89 202.3168,508.9356 C202.2944,508.9812 202.1088,509.3556 202.0928,509.3868 C202.0768,509.418 202.0072,509.5656 202.0016,509.5704 C201.996,509.5752 201.9952,509.5248 201.9888,509.4828 Z" fill="#F7D7C4" stroke="none" stroke-width="4"/>
    <path d="M388,1032 C388,1031.1996 372.5336,1043.1996 368,1044 C363.4664,1044.8004 324,1044 320,1044 C316,1044 308,1043.1996 308,1044 C308,1044.8004 316,1055.1996 320,1056 C324,1056.8004 363.4664,1057.5996 368,1056 C372.5336,1054.4004 388,1032.8004 388,1032 Z" fill="#E0E0E0" stroke="none" stroke-width="4"/>
    <path d="M304,672 C308.8,656.0004 379.2,665.6004 384,672 C388.8,678.3996 377.0664,756.8004 376,768 C374.9336,779.1996 369.6,830.4 368,840 C366.4,849.6 355.7336,907.2 352,912 C348.2664,916.8 315.2,927.9996 312,912 C308.8,896.0004 299.2,687.9996 304,672 Z" fill="#F7D7C4" stroke="none" stroke-width="4"/>
    <path d="M416,672 C420.8,656.0004 491.2,665.6004 496,672 C500.8,678.3996 489.0664,756.8004 488,768 C486.9336,779.1996 482.6664,830.4 480,840 C477.3336,849.6 451.7336,907.2 448,912 C444.2664,916.8 426.1336,927.9996 424,912 C421.8664,896.0004 411.2,687.9996 416,672 Z" fill="#F7D7C4" stroke="none" stroke-width="4"/>
    <path d="M380,936 C387.2,937.8 386.8,943.2 388,948 C389.2,952.8 392,975.6 392,984 C392,992.4 390.4,1026 388,1032 C385.6,1038 374.8,1042.8 368,1044 C361.2,1045.2 325.6,1046.4 320,1044 C314.4,1041.6 313.2,1026 312,1020 C310.8,1014 308.16,991.2 308,984 C307.84,976.8 309.6,953.4 310.4,948 C311.2,942.6 309.04,931.2 316,930 C322.96,928.8 372.8,934.2 380,936 Z" fill="#FFFFFF" stroke="none" stroke-width="4"/>
    <path d="M410.6664,1032 C410.6664,1031.1996 426.1336,1043.1996 430.6664,1044 C435.2,1044.8004 474.6664,1044 478.6664,1044 C482.6664,1044 490.6664,1043.1996 490.6664,1044 C490.6664,1044.8004 482.6664,1055.1996 478.6664,1056 C474.6664,1056.8004 435.2,1057.5996 430.6664,1056 C426.1336,1054.4004 410.6664,1032.8004 410.6664,1032 Z" fill="#E0E0E0" stroke="none" stroke-width="4"/>
    <path d="M312,888 C316.2664,884.7996 363.7336,884.7996 368,888 C372.2664,891.2004 380.2664,932.7996 376,936 C371.7336,939.2004 308.2664,939.2004 304,936 C299.7336,932.7996 307.7336,891.2004 312,888 Z" fill="#FFFFFF" stroke="none" stroke-width="4"/>
    <path d="M432,888 C436.2664,884.7996 483.7336,884.7996 488,888 C492.2664,891.2004 500.2664,932.7996 496,936 C491.7336,939.2004 428.2664,939.2004 424,936 C419.7336,932.7996 427.7336,891.2004 432,888 Z" fill="#FFFFFF" stroke="none" stroke-width="4"/>
    <path d="M288,552 C298.8,546 501.2,546 512,552 C522.8,558 514.8,666 504,672 C493.2,678 306.8,678 296,672 C285.2,666 277.2,558 288,552 Z" fill="#D8C3A5" stroke="#C0A888" stroke-width="1.6"/>
    <path d="M264,312 C259.2,309.6 216,326.4 208,336 C200,345.6 187.2,391.2 184,408 C180.8,424.8 175.2,489.6 176,504 C176.8,518.4 188,549.6 192,552 C196,554.4 212,537.6 216,528 C220,518.4 228,472.8 232,456 C236,439.2 252.8,374.4 256,360 C259.2,345.6 268.8,314.4 264,312 Z" fill="#F7D7C4" stroke="none" stroke-width="4"/>
    <path d="M512,336 C516.8,331.2 553.6,348 560,360 C566.4,372 574.4,434.4 576,456 C577.6,477.6 577.6,559.2 576,576 C574.4,592.8 564,621.6 560,624 C556,626.4 539.2,612 536,600 C532.8,588 530.4,523.2 528,504 C525.6,484.8 513.6,424.8 512,408 C510.4,391.2 507.2,340.8 512,336 Z" fill="#F7D7C4" stroke="none" stroke-width="4"/>
    <path d="M368,936 C368.6,933.6 379.4,933.6 380,936 C380.6,938.4 380.6,981.6 380,984 C379.4,986.4 368.6,986.4 368,984 C367.4,981.6 367.4,938.4 368,936 Z" fill="#6EC6FF" stroke="none" stroke-width="4"/>
    <path d="M424.48,936 C417.28,937.8 417.68,943.2 416.48,948 C415.28,952.8 412.48,975.6 412.48,984 C412.48,992.4 414.08,1026 416.48,1032 C418.88,1038 429.68,1042.8 436.48,1044 C443.28,1045.2 478.88,1046.4 484.48,1044 C490.08,1041.6 491.28,1026 492.48,1020 C493.68,1014 496.32,991.2 496.48,984 C496.64,976.8 494.88,953.4 494.08,948 C493.28,942.6 495.44,931.2 488.48,930 C481.52,928.8 431.68,934.2 424.48,936 Z" fill="#FFFFFF" stroke="none" stroke-width="4"/>
    <path d="M272,288 C294.6664,282 505.3336,282 528,288 C550.6664,294 543.3336,339.9996 544,360 C544.6664,380.0004 544.6664,510 536,528 C527.3336,546 454.6664,572.0004 440,576 C425.3336,579.9996 374.6664,579.9996 360,576 C345.3336,572.0004 272.6664,546 264,528 C255.3336,510 255.3336,380.0004 256,360 C256.6664,339.9996 249.3336,294 272,288 Z" fill="#6EC6FF" stroke="none" stroke-width="4"/>
    <path d="M208,324 C211.7336,319.2 260.2664,309.6 264,312 C267.7336,314.4 267.7336,355.2 264,360 C260.2664,364.8 211.7336,386.4 208,384 C204.2664,381.6 204.2664,328.8 208,324 Z" fill="#6EC6FF" stroke="none" stroke-width="4"/>
    <path d="M512,336 C515.2,334.4004 556.8,355.2 560,360 C563.2,364.8 563.2,406.4004 560,408 C556.8,409.5996 515.2,388.8 512,384 C508.8,379.2 508.8,337.5996 512,336 Z" fill="#6EC6FF" stroke="none" stroke-width="4"/>
    <path d="M488,936 C487.4,933.6 476.6,933.6 476,936 C475.4,938.4 475.4,981.6 476,984 C476.6,986.4 487.4,986.4 488,984 C488.6,981.6 488.6,938.4 488,936 Z" fill="#6EC6FF" stroke="none" stroke-width="4"/>
    <path d="M376,258 C379.2,255.9996 420.8,255.9996 424,258 C427.2,260.0004 427.2,285.9996 424,288 C420.8,290.0004 379.2,290.0004 376,288 C372.8,285.9996 372.8,260.0004 376,258 Z" fill="#F7D7C4" stroke="none" stroke-width="4"/>
    <path d="M424,312 C425.6,310.4004 439.4664,310.4004 440,312 C440.5336,313.5996 433.6,334.4004 432,336 C430.4,337.5996 416.5336,337.5996 416,336 C415.4664,334.4004 422.4,313.5996 424,312 Z" fill="#FFFFFF" stroke="none" stroke-width="4"/>
    <path d="M304,48 C336.4,37.2 463.6,37.2 496,48 C528.4,58.8 517,98.4 520,120 C523,141.6 534,170.4 516,192 C498,213.6 434.8,264 400,264 C365.2,264 302,213.6 284,192 C266,170.4 277,141.6 280,120 C283,98.4 271.6,58.8 304,48 Z" fill="url(#grad_916378392)" stroke="none" stroke-width="4"/>
    <path d="M224,408 C229.6,392.6004 278.6664,384.8004 288,396 C297.3336,407.1996 309.6,488.6004 304,504 C298.4,519.3996 249.3336,539.1996 240,528 C230.6664,516.8004 218.4,423.3996 224,408 Z" fill="#B08060" stroke="none" stroke-width="4"/>
    <path d="M288,144 C291.7336,149.6004 303.5336,163.1004 304,168 C304.4664,172.8996 294.8,181.8 292,186" fill="#F0A0A0" stroke="none" stroke-width="4" opacity="0.25"/>
    <path d="M496,144 C499.7336,149.6004 510.6,163.1004 512,168 C513.4,172.8996 508.9336,181.8 508,186" fill="#F0A0A0" stroke="none" stroke-width="4" opacity="0.25"/>
    <path d="M228,324 C236,316.8 275.4664,313.2 284,318 C292.5336,322.8 291.4664,349.5996 292,360 C292.5336,370.4004 294.4,390.3996 288,396 C281.6,401.6004 252.5336,405.2004 244,402 C235.4664,398.7996 226.1336,382.4004 224,372 C221.8664,361.5996 220,331.2 228,324 Z" fill="#B08060" stroke="none" stroke-width="4"/>
    <path d="M225.6,288 C225.1336,283.8 234.32,273.2004 236,276 C237.68,278.7996 241.2136,310.5996 240,312 C238.7864,313.4004 226.0664,292.2 225.6,288 Z" fill="#B08060" stroke="none" stroke-width="4"/>
    <path d="M276,288 C275.5336,283.8 286.1336,273.2004 288,276 C289.8664,278.7996 293.4,310.5996 292,312 C290.6,313.4004 276.4664,292.2 276,288 Z" fill="#B08060" stroke="none" stroke-width="4"/>
    <path d="M272,72 C272,67.1004 277.2,41.6004 280,36 C282.8,30.3996 291.3336,24 296,24 C300.6664,24 313.4664,35.3004 320,36 C326.5336,36.6996 344.5336,31.4004 352,30 C359.4664,28.5996 376.5336,24 384,24 C391.4664,24 408.5336,30 416,30 C423.4664,30 440.5336,24 448,24 C455.4664,24 473.4664,28.5996 480,30 C486.5336,31.4004 498.4,33.9 504,36 C509.6,38.1 527.0664,43.8 528,48 C528.9336,52.2 517.6,67.8 512,72 C506.4,76.2 493.0664,81.9 480,84 C466.9336,86.1 418.6664,90 400,90 C381.3336,90 334,85.4004 320,84 C306,82.5996 285.6,79.4004 280,78 C274.4,76.5996 272,76.8996 272,72 Z" fill="#8D6E63" stroke="none" stroke-width="4"/>
    <path d="M241.6,348 C241.88,345.7596 253.1864,343.6404 254.4,345.6 C255.6136,347.5596 253.4936,364.5204 252,364.8 C250.5064,365.0796 241.32,350.2404 241.6,348 Z" fill="#4A3020" stroke="none" stroke-width="4"/>
    <path d="M264,348 C264.28,345.7596 275.5864,343.6404 276.8,345.6 C278.0136,347.5596 275.8936,364.5204 274.4,364.8 C272.9064,365.0796 263.72,350.2404 264,348 Z" fill="#4A3020" stroke="none" stroke-width="4"/>
    <path d="M249.6,372 C250.1336,371.0004 263.3336,371.0004 264,372 C264.6664,372.9996 258.8,384 257.6,384 C256.4,384 249.0664,372.9996 249.6,372 Z" fill="#4A3020" stroke="none" stroke-width="4"/>
    <path d="M440,42 C446,39.9996 520,29.4996 528,30 C536,30.5004 536.6664,45.5004 536,48 C535.3336,50.4996 526.6664,59.4996 520,60 C513.3336,60.5004 462.6664,55.5 456,54 C449.3336,52.5 434,44.0004 440,42 Z" fill="#8D6E63" stroke="none" stroke-width="4"/>
    <path d="M264,72 C263.3336,69 270,44.0004 272,42 C274,39.9996 287.3336,45 288,48 C288.6664,51 282,75.9996 280,78 C278,80.0004 264.6664,75 264,72 Z" fill="#8D6E63" stroke="none" stroke-width="4"/>
    <path d="M320,96 C323.4136,91.2 339.2,88.4004 344,90 C348.8,91.5996 354.9336,103.2 356,108 C357.0664,112.8 354.6664,122.7996 352,126 C349.3336,129.2004 340.48,132 336,132 C331.52,132 320.5336,130.8 318.4,126 C316.2664,121.2 316.5864,100.8 320,96 Z" fill="#FFFFFF" stroke="#555555" stroke-width="1.6"/>
    <path d="M444,96 C449.12,91.2 473.6,88.4004 480,90 C486.4,91.5996 490.9336,103.2 492,108 C493.0664,112.8 491.7336,122.7996 488,126 C484.2664,129.2004 470.1864,132 464,132 C457.8136,132 444.2664,130.8 441.6,126 C438.9336,121.2 438.88,100.8 444,96 Z" fill="#FFFFFF" stroke="#555555" stroke-width="1.6"/>
    <path d="M316,84 C318.4,82.8 324,78.24 328,78 C332,77.76 350.4,80.88 356,81.6" fill="#8D6E63" stroke="none" stroke-width="4"/>
    <path d="M444,81.6 C449.6,80.88 468,77.76 472,78 C476,78.24 481.6,82.8 484,84" fill="#8D6E63" stroke="none" stroke-width="4"/>
    <path d="M396,156 C396.4,154.2 403.6,154.2 404,156 C404.4,157.8 400.8,174 400,174 C399.2,174 395.6,157.8 396,156 Z" fill="#E8BFA0" stroke="none" stroke-width="4"/>
    <path d="M376,198 C381.6,199.4004 394.4,204 400,204 C405.6,204 418.4,199.4004 424,198" fill="#E88080" stroke="none" stroke-width="4"/>
    <path d="M376,198 C381.6,199.9596 394.4,206.4 400,206.4 C405.6,206.4 418.4,199.9596 424,198" fill="none" stroke="#E06060" stroke-width="1.2"/>
    <path d="M388,162 C388.16,161.76 393.48,162.9 393.6,163.2 C393.72,163.5 390.68,168.06 390.4,168 C390.12,167.94 387.84,162.24 388,162 Z" fill="#C09070" stroke="none" stroke-width="4" opacity="0.4"/>
    <path d="M398.4,165.6 C398.48,165.36 403.04,166.5 403.2,166.8 C403.36,167.1 401.84,171.66 401.6,171.6 C401.36,171.54 398.32,165.84 398.4,165.6 Z" fill="#C09070" stroke="none" stroke-width="4" opacity="0.4"/>
    <path d="M393.6,170.4 C393.72,170.16 399.8,171.3 400,171.6 C400.2,171.9 397.92,176.46 397.6,176.4 C397.28,176.34 393.48,170.64 393.6,170.4 Z" fill="#C09070" stroke="none" stroke-width="4" opacity="0.35"/>
    <path d="M280,48 C281.6,46.2 298.4,42 304,42 C309.6,42 328,46.2 336,48 C344,49.8 376,58.2 384,60 C392,61.8 409.6,64.8 416,66 C422.4,67.2 445.6,70.2 448,72 C450.4,73.8 444.8,83.04 440,84 C435.2,84.96 408,82.8 400,81.6 C392,80.4 368,73.56 360,72 C352,70.44 327.2,67.2 320,66 C312.8,64.8 292,61.8 288,60 C284,58.2 278.4,49.8 280,48 Z" fill="#8D6E63" stroke="none" stroke-width="4"/>
    <path d="M328,102 C330.6664,98.3196 340.8,96.8004 344,98.4 C347.2,99.9996 351.4664,110.3196 352,114 C352.5336,117.6804 350.1336,123.9204 348,126 C345.8664,128.0796 339.2,129.6 336,129.6 C332.8,129.6 325.0664,129.6804 324,126 C322.9336,122.3196 325.3336,105.6804 328,102 Z" fill="url(#grad_2959009950)" stroke="none" stroke-width="4"/>
    <path d="M456,102 C458.6664,98.3196 468.2664,96.8004 472,98.4 C475.7336,99.9996 482.9336,110.3196 484,114 C485.0664,117.6804 482.1336,123.9204 480,126 C477.8664,128.0796 471.7336,129.6 468,129.6 C464.2664,129.6 453.6,129.6804 452,126 C450.4,122.3196 453.3336,105.6804 456,102 Z" fill="url(#grad_2959009950)" stroke="none" stroke-width="4"/>
    <path d="M384,54 C386,52.5 417.3336,48 424,48 C430.6664,48 462,52.5 464,54 C466,55.5 453.3336,65.0004 448,66 C442.6664,66.9996 405.3336,66.9996 400,66 C394.6664,65.0004 382,55.5 384,54 Z" fill="#A08060" stroke="none" stroke-width="4" opacity="0.3"/>
    <path d="M304,48 C306.6664,47.0004 346.6664,47.0004 352,48 C357.3336,48.9996 370.6664,59.0004 368,60 C365.3336,60.9996 325.3336,60.9996 320,60 C314.6664,59.0004 301.3336,48.9996 304,48 Z" fill="#A08060" stroke="none" stroke-width="4" opacity="0.25"/>
    <path d="M288,36 C288.3336,33.5004 302,12.5004 304,12 C306,11.4996 312.3336,27.5004 312,30 C311.6664,32.4996 302,41.4996 300,42 C298,42.5004 287.6664,38.4996 288,36 Z" fill="#8D6E63" stroke="none" stroke-width="4"/>
    <path d="M368,30 C368.6664,27.5004 389.3336,12 392,12 C394.6664,12 400.6664,27.5004 400,30 C399.3336,32.4996 386.6664,42 384,42 C381.3336,42 367.3336,32.4996 368,30 Z" fill="#8D6E63" stroke="none" stroke-width="4"/>
    <path d="M440,30 C440.6664,27 460.6664,11.4996 464,12 C467.3336,12.5004 480.6664,33 480,36 C479.3336,39 459.3336,48.5004 456,48 C452.6664,47.4996 439.3336,33 440,30 Z" fill="#8D6E63" stroke="none" stroke-width="4"/>
    <path d="M340,103.2 C339.5336,102.0804 344.48,99.96 345.6,100.8 C346.72,101.64 350.2536,110.1204 349.6,110.4 C348.9464,110.6796 340.4664,104.3196 340,103.2 Z" fill="#000000" stroke="none" stroke-width="4"/>
    <path d="M468,103.2 C467.5336,102.0804 472.48,99.96 473.6,100.8 C474.72,101.64 478.2536,110.1204 477.6,110.4 C476.9464,110.6796 468.4664,104.3196 468,103.2 Z" fill="#000000" stroke="none" stroke-width="4"/>
</svg>
