<?xml version="1.0" encoding="UTF-8"?>
<svg xmlns="http://www.w3.org/2000/svg"
     xmlns:xlink="http://www.w3.org/1999/xlink"
     width="1600" height="1100"
     viewBox="0 0 1600 1100">
  <rect width="100%" height="100%" fill="#d8e2dc"/>
    <path d="M128,0 C132.6928,-2.86 1595.0928,-2.1263 1600,0 C1604.9072,2.1263 1604.6928,635.14 1600,638 C1595.3072,640.86 196.9072,860.1263 192,858 C187.0928,855.8737 123.3072,2.86 128,0 Z" fill="#dcebe7" stroke="none" stroke-width="1.1"/>
    <path d="M256,110 C390.4,66 1436.8,60.5 1568,88 C1699.2,115.5 1702.4,341 1568,385 C1433.6,429 355.2,555.5 224,528 C92.8,500.5 121.6,154 256,110 Z" fill="#abc493" stroke="none" stroke-width="1.1" opacity="0.5"/>
    <path d="M320,165 C340,134.75 502,118.25 560,121 C618,123.75 766,159.5 784,187 C802,214.5 752,319 704,341 C656,363 448,385 400,363 C352,341 300,195.25 320,165 Z" fill="#8fac78" stroke="none" stroke-width="1.1" opacity="0.45"/>
    <path d="M864,132 C890,104.5 1094,94.875 1168,99 C1242,103.125 1430,134.75 1456,165 C1482,195.25 1438,321.75 1376,341 C1314,360.25 1024,345.125 960,319 C896,292.875 838,159.5 864,132 Z" fill="#95b47f" stroke="none" stroke-width="1.1" opacity="0.45"/>
    <path d="M224,33 C228.5872,31.075 1595.4128,25.9237 1600,27.5 C1604.5872,29.0763 1604.5872,504.075 1600,506 C1595.4128,507.925 228.5872,606.5763 224,605 C219.4128,603.4237 219.4128,34.925 224,33 Z" fill="#eff7f2" stroke="none" stroke-width="1.1" opacity="0.22"/>
    <rect x="192" y="0" width="28.8" height="858" fill="#9aa7a1" stroke="#75817b" stroke-width="1.1"/>
    <rect x="208" y="0" width="1392" height="27.5" fill="#8e9995" stroke="none" stroke-width="1.1"/>
    <line x1="352" y1="0" x2="320" y2="726" fill="none" stroke="#8c9994" stroke-width="2.42" opacity="0.8"/>
    <line x1="544" y1="0" x2="512" y2="682" fill="none" stroke="#8c9994" stroke-width="2.42" opacity="0.8"/>
    <line x1="752" y1="0" x2="736" y2="638" fill="none" stroke="#8c9994" stroke-width="2.42" opacity="0.8"/>
    <line x1="960" y1="0" x2="960" y2="605" fill="none" stroke="#8c9994" stroke-width="2.42" opacity="0.8"/>
    <line x1="1168" y1="0" x2="1200" y2="583" fill="none" stroke="#8c9994" stroke-width="2.42" opacity="0.8"/>
    <line x1="1376" y1="0" x2="1424" y2="594" fill="none" stroke="#8c9994" stroke-width="2.42" opacity="0.8"/>
    <line x1="208" y1="132" x2="1600" y2="110" fill="none" stroke="#9faaa5" stroke-width="1.98" opacity="0.85"/>
    <line x1="208" y1="264" x2="1600" y2="242" fill="none" stroke="#9faaa5" stroke-width="1.98" opacity="0.85"/>
    <line x1="208" y1="418" x2="1600" y2="385" fill="none" stroke="#9faaa5" stroke-width="1.98" opacity="0.85"/>
    <line x1="192" y1="583" x2="1536" y2="528" fill="none" stroke="#9faaa5" stroke-width="1.98" opacity="0.85"/>
    <path d="M0,0 C0.6672,-3.6663 199.4672,-2.8237 200,0 C200.5328,2.8237 160.6672,843.3337 160,847 C159.3328,850.6663 0.5328,1102.8237 0,1100 C-0.5328,1097.1763 -0.6672,3.6663 0,0 Z" fill="#b8c1ba" stroke="#7d8780" stroke-width="1.32"/>
    <path d="M0,0 C0.24,-3.6663 71.84,-3.5937 72,0 C72.16,3.5937 48.24,1074.3337 48,1078 C47.76,1081.6663 0.16,1103.5937 0,1100 C-0.16,1096.4063 -0.24,3.6663 0,0 Z" fill="#7e8982" stroke="none" stroke-width="1.1" opacity="0.35"/>
    <path d="M152,0 C152.3312,-3.3737 223.8672,-2.86 224,0 C224.1328,2.86 192.3312,854.6263 192,858 C191.6688,861.3737 124.9328,1014.86 124.8,1012 C124.6672,1009.14 151.6688,3.3737 152,0 Z" fill="#eef4ed" stroke="none" stroke-width="1.1" opacity="0.45"/>
    <path d="M160,792 C160,742.1337 237.2272,591.14 288,550 C338.7728,508.86 520.96,443.96 608,429 C695.04,414.04 956.2672,401.7937 1056,418 C1155.7328,434.2063 1426.3472,524.6263 1488,572 C1549.6528,619.3737 1612.6928,783.64 1600,836 C1587.3072,888.36 1470.2928,1005.3263 1376,1034 C1281.7072,1062.6737 891.3072,1093.9863 768,1089 C644.6928,1084.0137 356.9072,1023.66 288,990 C219.0928,956.34 160,841.8663 160,792 Z" fill="#d9c39f" stroke="#8f846f" stroke-width="1.54"/>
    <path d="M288,770 C291.7328,730.2163 365.6,615.0837 416,583 C466.4,550.9163 641.6,503.9837 720,495 C798.4,486.0163 1011.4672,489.3163 1088,506 C1164.5328,522.6837 1333.0672,602.0663 1376,638 C1418.9328,673.9337 1470.9328,778.0663 1456,814 C1441.0672,849.9337 1330.1328,924.1837 1248,946 C1165.8672,967.8163 852.8,1003.5663 752,1001 C651.2,998.4337 438.1328,950.95 384,924 C329.8672,897.05 284.2672,809.7837 288,770 Z" fill="#ead8b7" stroke="none" stroke-width="1.1" opacity="0.7"/>
    <path d="M272,759 C304,728.2 388.8,627 432,605 C475.2,583 641.6,544.5 704,539 C766.4,533.5 988.8,535.7 1056,550 C1123.2,564.3 1312,655.6 1376,682" fill="none" stroke="#b89e75" stroke-width="1.54" opacity="0.65"/>
    <path d="M352,869 C384,836 470.4,728.2 512,704 C553.6,679.8 707.2,632.5 768,627 C828.8,621.5 1051.2,632.5 1120,649 C1188.8,665.5 1388.8,763.4 1456,792" fill="none" stroke="#b89e75" stroke-width="1.54" opacity="0.58"/>
    <path d="M480,968 C512,930.6 596.8,807.4 640,781 C683.2,754.6 852.8,707.3 912,704 C971.2,700.7 1174.4,730.4 1232,748 C1289.6,765.6 1436.8,853.6 1488,880" fill="none" stroke="#b89e75" stroke-width="1.32" opacity="0.5"/>
    <line x1="832" y1="572" x2="288" y2="968" fill="none" stroke="#baa47e" stroke-width="1.1" opacity="0.45"/>
    <line x1="880" y1="572" x2="672" y2="1056" fill="none" stroke="#baa47e" stroke-width="1.1" opacity="0.42"/>
    <line x1="928" y1="572" x2="1152" y2="1001" fill="none" stroke="#baa47e" stroke-width="1.1" opacity="0.42"/>
    <path d="M288,638 C297.6,625.625 422.8,576.125 448,572 C473.2,567.875 616.8,573.925 624,583 C631.2,592.075 566.8,681.45 544,693 C521.2,704.55 339.2,741.125 320,737 C300.8,732.875 278.4,650.375 288,638 Z" fill="#f4d28f" stroke="none" stroke-width="1.1" opacity="0.3"/>
    <path d="M576,770 C592,753.5 818.6672,704.9163 864,704 C909.3328,703.0837 1109.3328,745.25 1120,759 C1130.6672,772.75 1029.3328,857.0837 992,869 C954.6672,880.9163 706.6672,910.25 672,902 C637.3328,893.75 560,786.5 576,770 Z" fill="#f3d69b" stroke="none" stroke-width="1.1" opacity="0.22"/>
    <path d="M288,517 C313.6,498.3 528,455.4 608,451 C688,446.6 1001.6,456.5 1088,473 C1174.4,489.5 1436.8,592.9 1472,616 C1507.2,639.1 1483.2,708.4 1440,704 C1396.8,699.6 1120,586.3 1040,572 C960,557.7 708.8,554.4 640,561 C571.2,567.6 387.2,642.4 352,638 C316.8,633.6 262.4,535.7 288,517 Z" fill="#8a948b" stroke="none" stroke-width="1.1" opacity="0.18"/>
    <path d="M288,517 C309.4928,499.95 392.32,440.3663 432,429 C471.68,417.6337 637.28,404.7263 672,407 C706.72,409.2737 777.92,441.9063 768,451 C758.08,460.0937 614.0272,481.36 576,495 C537.9728,508.64 429.76,561.4037 400,583 C370.24,604.5963 306.1872,694.9063 288,704 C269.8128,713.0937 230.6128,682.3663 224,671 C217.3872,659.6337 217.3872,609.9137 224,594 C230.6128,578.0863 266.5072,534.05 288,517 Z" fill="#b9874f" stroke="#8b653f" stroke-width="1.32"/>
    <path d="M304,572 C315.2,555.5 411.2,507.1 448,495 C484.8,482.9 646.4,452.65 672,451 C697.6,449.35 718.4,470.8 704,478.5 C689.6,486.2 564.8,509.85 528,528 C491.2,546.15 358.4,655.6 336,660 C313.6,664.4 292.8,588.5 304,572 Z" fill="#8f6338" stroke="none" stroke-width="1.1" opacity="0.38"/>
    <path d="M256,869 C285.3328,871.0163 524.4,960.9413 608,968 C691.6,975.0587 1087.3328,958.1 1168,946 C1248.6672,933.9 1466,839.025 1488,836 C1510,832.975 1444.6672,897.875 1408,913 C1371.3328,928.125 1158.4,989.9087 1088,1001 C1017.6,1012.0913 713.3328,1039.0413 640,1034 C566.6672,1028.9587 323.2,961.125 288,946 C252.8,930.875 226.6672,866.9837 256,869 Z" fill="#514737" stroke="none" stroke-width="1.1" opacity="0.16"/>
    <path d="M736,374 C758.4,367.07 956.16,339.46 992,341 C1027.84,342.54 1230.08,368.28 1248,396 C1265.92,423.72 1259.2,706.97 1248,737 C1236.8,767.03 1119.36,821.15 1088,825 C1056.64,828.85 829.12,800.47 800,792 C770.88,783.53 680.96,728.64 672,704 C663.04,679.36 667.52,463.1 672,440 C676.48,416.9 713.6,380.93 736,374 Z" fill="#b7cbc4" stroke="#52635f" stroke-width="1.21" opacity="0.68"/>
    <path d="M608,704 C614.6672,688.4163 786.6672,641.6663 832,638 C877.3328,634.3337 1116,649.9163 1152,660 C1188,670.0837 1270.6672,743.4163 1264,759 C1257.3328,774.5837 1114.6672,841.5 1072,847 C1029.3328,852.5 790.6672,836.9163 752,825 C713.3328,813.0837 601.3328,719.5837 608,704 Z" fill="#6b6356" stroke="none" stroke-width="1.1" opacity="0.18"/>
    <path d="M672,671 C678.4,655.6 736,601.7 768,594 C800,586.3 953.6,587.4 992,594 C1030.4,600.6 1140.8,643.5 1152,660 C1163.2,676.5 1131.2,745.8 1104,759 C1076.8,772.2 920,793.1 880,792 C840,790.9 724.8,760.1 704,748 C683.2,735.9 665.6,686.4 672,671 Z" fill="#b6c8bf" stroke="#6e7b73" stroke-width="1.43"/>
    <path d="M752,748 C766,749.925 903.7328,802.3587 928,803 C952.2672,803.6413 1158.6672,756.4337 1168,759 C1177.3328,761.5663 1109.4672,842.5087 1088,847 C1066.5328,851.4913 823.3328,840.4913 800,836 C776.6672,831.5087 690.8,775.1337 688,770 C685.2,764.8663 738,746.075 752,748 Z" fill="#4d5e58" stroke="none" stroke-width="1.1" opacity="0.2"/>
    <path d="M96,803 C119.4672,813.0837 198.8,942.7913 256,968 C313.2,993.2087 623.2,1071.95 720,1078 C816.8,1084.05 1232.8,1054.1663 1312,1034 C1391.2,1013.8337 1559.0672,859.0087 1584,858 C1608.9328,856.9913 1606,1000.8163 1584,1023 C1562,1045.1837 1421.7328,1092.9413 1344,1100 C1266.2672,1107.0587 841.6,1106.05 736,1100 C630.4,1093.95 259.4672,1056.1837 192,1034 C124.5328,1011.8163 8.8,879.175 0,858 C-8.8,836.825 72.5328,792.9163 96,803 Z" fill="#555a4e" stroke="#343a35" stroke-width="1.65"/>
    <path d="M0,880 C16.64,874.72 154.24,1016.4 208,1034 C261.76,1051.6 579.84,1094.72 672,1100 C764.16,1105.28 1285.76,1106.16 1360,1100 C1434.24,1093.84 1580.8,1023 1600,1023 C1619.2,1023 1728,1093.84 1600,1100 C1472,1106.16 128,1117.6 0,1100 C-128,1082.4 -16.64,885.28 0,880 Z" fill="#2d342f" stroke="none" stroke-width="1.1" opacity="0.26"/>
    <path d="M96,748 C115.0672,758.0837 214.8,877.8 272,902 C329.2,926.2 623.2,1005.95 720,1012 C816.8,1018.05 1250.2672,986.15 1328,968 C1405.7328,949.85 1544.5328,822.0663 1568,814 C1591.4672,805.9337 1607.4672,859.8337 1584,880 C1560.5328,900.1663 1391.2,1014.8413 1312,1034 C1232.8,1053.1587 818.2672,1095.05 720,1089 C621.7328,1082.95 300.1328,995.225 240,968 C179.8672,940.775 77.2,812.1663 64,792 C50.8,771.8337 76.9328,737.9163 96,748 Z" fill="#d8eee9" stroke="#5e6c67" stroke-width="1.21" opacity="0.2"/>
    <path d="M72,731.5 C93.6,744.7 205.6,859.87 272,885.5 C338.4,911.13 632,981.97 736,987.8 C840,993.63 1228,962.83 1312,943.8 C1396,924.77 1548.48,810.26 1576,797.5 C1603.52,784.74 1612.8,799.15 1587.2,816.2 C1561.6,833.25 1405.6,948.42 1320,968 C1234.4,987.58 837.28,1017.72 731.2,1012 C625.12,1006.28 326.72,936.65 259.2,910.8 C191.68,884.95 74.72,771.43 56,753.5 C37.28,735.57 50.4,718.3 72,731.5 Z" fill="#e8ece0" stroke="#535d56" stroke-width="1.54" opacity="0.86"/>
    <line x1="256" y1="979" x2="208" y2="1100" fill="none" stroke="#2a302c" stroke-width="1.21" opacity="0.65"/>
    <line x1="576" y1="1056" x2="576" y2="1100" fill="none" stroke="#2a302c" stroke-width="1.21" opacity="0.65"/>
    <line x1="928" y1="1056" x2="960" y2="1100" fill="none" stroke="#2a302c" stroke-width="1.21" opacity="0.65"/>
    <line x1="1248" y1="990" x2="1328" y2="1100" fill="none" stroke="#2a302c" stroke-width="1.21" opacity="0.65"/>
    <path d="M752,621.5 C761.84,619.85 1029.92,609.345 1040,610.5 C1050.08,611.655 1088,657.195 1088,660 C1088,662.805 1049.6,702.515 1040,704 C1030.4,705.485 777.84,710.655 768,709.5 C758.16,708.345 712.48,668.14 712,665.5 C711.52,662.86 742.16,623.15 752,621.5 Z" fill="#d9e1dd" stroke="#6a5a47" stroke-width="1.65" opacity="0.78"/>
    <path d="M760,627 C768.976,625.68 1022.88,617.276 1032,618.2 C1041.12,619.124 1064.144,655.754 1064,657.8 C1063.856,659.846 1035.744,685.344 1027.2,686.4 C1018.656,687.456 788.032,693.726 779.2,693 C770.368,692.274 733.376,664.18 732.8,662.2 C732.224,660.22 751.024,628.32 760,627 Z" fill="#eaf8ff" stroke="none" stroke-width="1.1" opacity="0.45"/>
    <line x1="752" y1="665.5" x2="1048" y2="649" fill="none" stroke="#8a7a60" stroke-width="1.1" opacity="0.8"/>
    <rect x="896" y="528" width="40" height="82.5" fill="#e3e2db" stroke="#9d9d93" stroke-width="1.1"/>
    <line x1="752" y1="632.5" x2="1040" y2="622.6" fill="none" stroke="#fff6d8" stroke-width="2.2" opacity="0.8"/>
    <path d="M1152,704 C1166.9328,698.1337 1506.1328,652.6663 1520,660 C1533.8672,667.3337 1574.9328,913.7337 1568,924 C1561.0672,934.2663 1328.5328,970.9337 1312,968 C1295.4672,965.0663 1077.3328,844.8 1072,836 C1066.6672,827.2 1137.0672,709.8663 1152,704 Z" fill="#4d5149" stroke="none" stroke-width="1.1" opacity="0.16"/>
    <rect x="992" y="781" width="128" height="132" fill="#e4e0d3" stroke="#9e998a" stroke-width="1.32"/>
    <rect x="1136" y="781" width="128" height="132" fill="#ddd8cc" stroke="#9e998a" stroke-width="1.32"/>
    <rect x="1312" y="638" width="160" height="198" fill="#d1c2aa" stroke="#8c8071" stroke-width="1.32"/>
    <rect x="1440" y="704" width="136" height="220" fill="#e8e0d2" stroke="#998d7c" stroke-width="1.32"/>
    <rect x="1152" y="550" width="88" height="176" fill="#2e3433" stroke="#202524" stroke-width="1.1" opacity="0.82"/>
    <path d="M288,363 C307.2,341.88 418.56,272.8 480,253 C541.44,233.2 713.6,200.64 800,198 C886.4,195.36 1107.84,213.84 1200,231 C1292.16,248.16 1523.84,317.24 1568,341 C1612.16,364.76 1614.08,431.64 1568,429 C1521.92,426.36 1274.24,336.16 1184,319 C1093.76,301.84 898.56,284.68 816,286 C733.44,287.32 555.52,312.84 496,330 C436.48,347.16 344.96,425.04 320,429 C295.04,432.96 268.8,384.12 288,363 Z" fill="#0b1113" stroke="none" stroke-width="0" opacity="0.88"/>
    <path d="M208,275 C223.36,240.68 320.64,118.36 384,88 C447.36,57.64 632.32,27.28 736,22 C839.68,16.72 1144.32,25.52 1248,44 C1351.68,62.48 1557.76,145.64 1600,176 C1642.24,206.36 1642.24,294.36 1600,297 C1557.76,299.64 1344,213.84 1248,198 C1152,182.16 896,162.36 800,165 C704,167.64 513.28,194.92 448,220 C382.72,245.08 284.8,367.4 256,374 C227.2,380.6 192.64,309.32 208,275 Z" fill="#263034" stroke="#10181b" stroke-width="1.54"/>
    <path d="M240,269.5 C255.36,246.4 338.56,130.9 400,104.5 C461.44,78.1 650.24,54.12 752,49.5 C853.76,44.88 1148.16,49.5 1248,66 C1347.84,82.5 1543.68,168.52 1584,187 C1624.32,205.48 1624.32,229.24 1584,220 C1543.68,210.76 1345.92,125.444 1248,110 C1150.08,94.556 865.92,86.68 768,91.3 C670.08,95.92 491.52,123.816 432,148.5 C372.48,173.184 295.04,282.48 272,297 C248.96,311.52 224.64,292.6 240,269.5 Z" fill="#6a7475" stroke="none" stroke-width="0" opacity="0.32"/>
    <path d="M256,319 C272.64,303.16 449.92,241.56 496,231 C542.08,220.44 773.12,187.88 832,187 C890.88,186.12 1170.56,207.68 1232,220 C1293.44,232.32 1570.56,326.04 1600,341 C1629.44,355.96 1630.72,410.52 1600,407 C1569.28,403.48 1277.44,308.44 1216,297 C1154.56,285.56 888.32,262.68 832,264 C775.68,265.32 555.52,300.3 512,313.5 C468.48,326.7 308.48,428.56 288,429 C267.52,429.44 239.36,334.84 256,319 Z" fill="#101719" stroke="none" stroke-width="1.1" opacity="0.72"/>
    <path d="M784,242 C825.0672,226.6 978.4,196.7163 1040,198 C1101.6,199.2837 1272.8,236.3163 1312,253 C1351.2,269.6837 1379.7328,320.4663 1376,341 C1372.2672,361.5337 1322.9328,414.8837 1280,429 C1237.0672,443.1163 1069.6,463.2837 1008,462 C946.4,460.7163 789.3328,433.4 752,418 C714.6672,402.6 684.2672,350.5337 688,330 C691.7328,309.4663 742.9328,257.4 784,242 Z" fill="#dce8ee" stroke="#263237" stroke-width="1.43" opacity="0.62"/>
    <path d="M816,209 C853.3328,197.45 985.8672,174.7163 1040,176 C1094.1328,177.2837 1244.5328,206.525 1280,220 C1315.4672,233.475 1347.7328,276.1 1344,291.5 C1340.2672,306.9 1285.3328,342.375 1248,352 C1210.6672,361.625 1078.1328,375.2837 1024,374 C969.8672,372.7163 819.4672,352.55 784,341 C748.5328,329.45 716.2672,290.4 720,275 C723.7328,259.6 778.6672,220.55 816,209 Z" fill="#e7eef4" stroke="#202a30" stroke-width="1.43" opacity="0.62"/>
    <path d="M752,313.5 C776.2672,302.1788 947.3328,268.9038 1008,269.5 C1068.6672,270.0962 1275.6,309.4663 1312,319 C1348.4,328.5337 1349.2,350.35 1344,357.5 C1338.8,364.65 1298.6672,386.1913 1264,385 C1229.3328,383.8087 1076,347.6913 1024,346.5 C972,345.3087 813.4672,377.575 784,374 C754.5328,370.425 727.7328,324.8212 752,313.5 Z" fill="none" stroke="#10181c" stroke-width="4.95"/>
    <line x1="816" y1="374" x2="784" y2="759" fill="none" stroke="#71827e" stroke-width="1.32" opacity="0.75"/>
    <line x1="976" y1="352" x2="976" y2="814" fill="none" stroke="#71827e" stroke-width="1.32" opacity="0.75"/>
    <line x1="1152" y1="374" x2="1184" y2="748" fill="none" stroke="#71827e" stroke-width="1.32" opacity="0.75"/>
    <path d="M232,269.5 C239.68,257.422 371.68,112.002 400,99 C428.32,85.998 682.88,53.328 704,52.8 C725.12,52.272 767.36,84.656 752,90.2 C736.64,95.744 476.8,132.594 448,145.2 C419.2,157.806 284.96,292.842 272,300.3 C259.04,307.758 224.32,281.578 232,269.5 Z" fill="#748080" stroke="none" stroke-width="1.1" opacity="0.32"/>
    <path d="M752,49.5 C761.6,48.477 1077.92,55.814 1088,57.2 C1098.08,58.586 1097.6,94.677 1088,95.7 C1078.4,96.723 778.08,92.686 768,91.3 C757.92,89.914 742.4,50.523 752,49.5 Z" fill="#7b8686" stroke="none" stroke-width="1.1" opacity="0.25"/>
    <path d="M1104,58.3 C1120.4272,60.456 1432.8528,136.4803 1456,143 C1479.1472,149.5197 1593.28,193.8937 1600,198 C1606.72,202.1063 1614.9328,234.4903 1600,231 C1585.0672,227.5097 1303.1472,129.4623 1280,123.2 C1256.8528,116.9377 1112.2128,99.8283 1104,96.8 C1095.7872,93.7717 1087.5728,56.144 1104,58.3 Z" fill="#5b6667" stroke="none" stroke-width="1.1" opacity="0.3"/>
    <ellipse cx="400" cy="126.5" rx="11.2" ry="4.4" fill="#1d2527" stroke="#7b8686" stroke-width="1.1"/>
    <ellipse cx="688" cy="71.5" rx="11.2" ry="4.4" fill="#1d2527" stroke="#7b8686" stroke-width="1.1"/>
    <ellipse cx="1008" cy="68.2" rx="11.2" ry="4.4" fill="#1d2527" stroke="#7b8686" stroke-width="1.1"/>
    <ellipse cx="1312" cy="104.5" rx="11.2" ry="4.4" fill="#1d2527" stroke="#7b8686" stroke-width="1.1"/>
    <ellipse cx="880" cy="319" rx="11.2" ry="4.4" fill="#1d2527" stroke="#7b8686" stroke-width="1.1"/>
    <ellipse cx="1152" cy="368.5" rx="11.2" ry="4.4" fill="#1d2527" stroke="#7b8686" stroke-width="1.1"/>
    <path d="M768,385 C778.2672,364.4663 920.5328,341.1837 928,363 C935.4672,384.8163 906.2672,738.4663 896,759 C885.7328,779.5337 759.4672,736.8163 752,715 C744.5328,693.1837 757.7328,405.5337 768,385 Z" fill="#ffffff" stroke="none" stroke-width="1.1" opacity="0.16"/>
    <line x1="304" y1="374" x2="1536" y2="341" fill="none" stroke="#6f7b7c" stroke-width="2.42" opacity="0.5"/>
    <ellipse cx="376" cy="649" rx="88" ry="19.8" fill="#7c6c55" stroke="none" stroke-width="1.1" opacity="0.18"/>
    <ellipse cx="464" cy="577.5" rx="80" ry="17.6" fill="#7c6c55" stroke="none" stroke-width="1.1" opacity="0.16"/>
    <ellipse cx="776" cy="909.7" rx="128" ry="24.2" fill="#7c6c55" stroke="none" stroke-width="1.1" opacity="0.18"/>
    <ellipse cx="1256" cy="930.6" rx="131.2" ry="24.2" fill="#7c6c55" stroke="none" stroke-width="1.1" opacity="0.18"/>
    <path d="M672,429 C675.7328,417.2663 796.2672,362.6337 800,374 C803.7328,385.3663 787.7328,758.2663 784,770 C780.2672,781.7337 691.7328,737.3663 688,726 C684.2672,714.6337 668.2672,440.7337 672,429 Z" fill="#6f837c" stroke="none" stroke-width="1.1" opacity="0.24"/>
    <path d="M1152,374 C1154.4,363.44 1245.12,396.44 1248,407 C1250.88,417.56 1250.4,715.44 1248,726 C1245.6,736.56 1170.88,769.56 1168,759 C1165.12,748.44 1149.6,384.56 1152,374 Z" fill="#42534f" stroke="none" stroke-width="1.1" opacity="0.28"/>
    <rect x="320" y="605" width="104" height="38.5" fill="#4f382b" stroke="#2f211b" stroke-width="1.1" opacity="0.92"/>
    <rect x="400" y="539" width="96" height="36.3" fill="#5b3f2e" stroke="#2f211b" stroke-width="1.1" opacity="0.92"/>
    <rect x="496" y="495" width="88" height="33" fill="#5b3f2e" stroke="#2f211b" stroke-width="1.1" opacity="0.92"/>
    <rect x="272" y="693" width="112" height="41.8" fill="#4f382b" stroke="#2f211b" stroke-width="1.1" opacity="0.92"/>
    <rect x="448" y="737" width="115.2" height="41.8" fill="#4a3429" stroke="#2f211b" stroke-width="1.1" opacity="0.92"/>
    <rect x="688" y="858" width="168" height="48.4" fill="#4c352a" stroke="#2f211b" stroke-width="1.1" opacity="0.92"/>
    <rect x="1168" y="880" width="176" height="46.2" fill="#4b3429" stroke="#2f211b" stroke-width="1.1" opacity="0.92"/>
    <rect x="1424" y="847" width="144" height="44" fill="#4b3429" stroke="#2f211b" stroke-width="1.1" opacity="0.92"/>
    <line x1="448" y1="143" x2="384" y2="209" fill="none" stroke="#12191b" stroke-width="1.1" opacity="0.48"/>
    <line x1="768" y1="90.2" x2="768" y2="165" fill="none" stroke="#12191b" stroke-width="1.1" opacity="0.42"/>
    <line x1="1104" y1="96.8" x2="1152" y2="187" fill="none" stroke="#12191b" stroke-width="1.1" opacity="0.42"/>
    <line x1="1312" y1="126.5" x2="1424" y2="242" fill="none" stroke="#12191b" stroke-width="1.1" opacity="0.4"/>
    <path d="M688,418 C702.4,408.925 886,374 928,374 C970,374 1224,409.75 1248,418 C1272,426.25 1267.2,480.7 1248,484 C1228.8,487.3 1030.4,461.175 992,462 C953.6,462.825 758.8,498.3 736,495 C713.2,491.7 673.6,427.075 688,418 Z" fill="#263536" stroke="none" stroke-width="1.1" opacity="0.18"/>
    <path d="M293.6128,564.7939 C293.8768,564.3649 294.9008,562.6357 295.1968,562.2166 C295.4912,561.7975 296.8,560.1596 297.1552,559.7636 C297.5104,559.3676 299.0528,557.8287 299.4656,557.4591 C299.8784,557.0895 301.64,555.6672 302.1056,555.3284 C302.5712,554.9896 304.5328,553.6982 305.0448,553.3935 C305.5568,553.0888 307.7024,551.9404 308.2576,551.6731 C308.8128,551.4058 311.1136,550.4136 311.7056,550.187 C312.2976,549.9604 314.7344,549.1343 315.3568,548.9495 C315.9792,548.7647 318.5248,548.1124 319.1712,547.9727 C319.8176,547.833 322.448,547.3622 323.112,547.2676 C323.776,547.173 326.4608,546.8892 327.1344,546.8419 C327.808,546.7946 330.5216,546.7 331.2,546.7 C331.8768,546.7 334.592,546.7946 335.2656,546.8419 C335.9392,546.8892 338.624,547.173 339.288,547.2676 C339.952,547.3622 342.5824,547.833 343.2288,547.9727 C343.8752,548.1124 346.4208,548.7647 347.0432,548.9495 C347.6656,549.1343 350.1024,549.9604 350.6944,550.187 C351.2864,550.4136 353.5872,551.4058 354.1424,551.6731 C354.6976,551.9404 356.8432,553.0888 357.3552,553.3935 C357.8672,553.6982 359.8288,554.9896 360.2944,555.3284 C360.76,555.6672 362.5216,557.0895 362.9344,557.4591 C363.3472,557.8287 364.8896,559.3676 365.2448,559.7636 C365.6,560.1596 366.9088,561.7975 367.2032,562.2166 C367.4992,562.6357 368.5232,564.3649 368.7872,564.7939" fill="none" stroke="#b47c3c" stroke-width="2.2"/>
    <path d="M394.4128,568.0939 C394.6768,567.6638 395.7008,565.9357 395.9968,565.5166 C396.2912,565.0975 397.6,563.4596 397.9552,563.0636 C398.3104,562.6676 399.8528,561.1287 400.2656,560.7591 C400.6784,560.3895 402.44,558.9672 402.9056,558.6284 C403.3712,558.2896 405.3328,556.9982 405.8448,556.6935 C406.3568,556.3888 408.5024,555.2404 409.0576,554.9731 C409.6128,554.7058 411.9136,553.7136 412.5056,553.487 C413.0976,553.2604 415.5344,552.4343 416.1568,552.2495 C416.7792,552.0647 419.3248,551.4124 419.9712,551.2727 C420.6176,551.133 423.248,550.6622 423.912,550.5676 C424.576,550.473 427.2608,550.1892 427.9344,550.1419 C428.608,550.0946 431.3216,550 432,550 C432.6784,550 435.392,550.0946 436.0656,550.1419 C436.7392,550.1892 439.424,550.473 440.088,550.5676 C440.752,550.6622 443.3824,551.133 444.0288,551.2727 C444.6752,551.4124 447.2208,552.0647 447.8432,552.2495 C448.4656,552.4343 450.9024,553.2604 451.4944,553.487 C452.0864,553.7136 454.3872,554.7058 454.9424,554.9731 C455.4976,555.2404 457.6432,556.3888 458.1552,556.6935 C458.6672,556.9982 460.6288,558.2896 461.0944,558.6284 C461.56,558.9672 463.3216,560.3895 463.7344,560.7591 C464.1472,561.1287 465.6896,562.6676 466.0448,563.0636 C466.4,563.4596 467.7088,565.0975 468.0032,565.5166 C468.2976,565.9357 469.3232,567.6638 469.5872,568.0939" fill="none" stroke="#b47c3c" stroke-width="2.2"/>
    <path d="M470.9232,532.9236 C471.1552,532.5452 472.0592,531.0228 472.3184,530.6543 C472.5776,530.2858 473.7264,528.8448 474.04,528.4961 C474.3536,528.1474 475.7104,526.7933 476.0736,526.4677 C476.4368,526.1421 477.9872,524.8914 478.3968,524.5933 C478.8064,524.2952 480.5328,523.1578 480.984,522.8894 C481.4352,522.621 483.3216,521.6123 483.8096,521.3769 C484.2976,521.1415 486.3248,520.2681 486.8448,520.0679 C487.3648,519.8677 489.5104,519.1417 490.0576,518.9789 C490.6048,518.8161 492.8464,518.243 493.4144,518.1198 C493.9824,517.9966 496.2976,517.583 496.8816,517.5005 C497.4656,517.418 499.8288,517.1672 500.4224,517.1254 C501.016,517.0836 503.4032,517 504,517 C504.5968,517 506.984,517.0836 507.5776,517.1254 C508.1712,517.1672 510.5344,517.418 511.1184,517.5005 C511.7024,517.583 514.0176,517.9966 514.5856,518.1198 C515.1536,518.243 517.3952,518.8161 517.9424,518.9789 C518.4896,519.1417 520.6352,519.8677 521.1552,520.0679 C521.6752,520.2681 523.7024,521.1415 524.1904,521.3769 C524.6784,521.6123 526.5648,522.621 527.016,522.8894 C527.4672,523.1578 529.1936,524.2952 529.6032,524.5933 C530.0128,524.8914 531.5632,526.1421 531.9264,526.4677 C532.2896,526.7933 533.6464,528.1474 533.96,528.4961 C534.2736,528.8448 535.4224,530.2858 535.6816,530.6543 C535.9408,531.0228 536.8448,532.5452 537.0768,532.9236" fill="none" stroke="#b47c3c" stroke-width="1.98"/>
    <path d="M224.9088,654.6177 C225.184,654.1711 226.2496,652.3726 226.5568,651.937 C226.864,651.5014 228.224,649.7986 228.5936,649.3861 C228.9632,648.9736 230.568,647.3731 230.9968,646.9892 C231.4256,646.6053 233.2576,645.1258 233.7408,644.7738 C234.224,644.4218 236.2672,643.0776 236.8,642.7608 C237.3328,642.444 239.5616,641.2505 240.1392,640.9722 C240.7168,640.6939 243.1104,639.6632 243.7264,639.4267 C244.3424,639.1902 246.8768,638.33 247.5232,638.1386 C248.1696,637.9472 250.8192,637.2685 251.4912,637.1233 C252.1632,636.9781 254.8976,636.4886 255.5872,636.3907 C256.2768,636.2928 259.0704,635.998 259.7712,635.9485 C260.472,635.899 263.2944,635.8 264,635.8 C264.7056,635.8 267.528,635.899 268.2288,635.9485 C268.9296,635.998 271.7232,636.2928 272.4128,636.3907 C273.1024,636.4886 275.8368,636.9781 276.5088,637.1233 C277.1808,637.2685 279.8304,637.9472 280.4768,638.1386 C281.1232,638.33 283.6576,639.1902 284.2736,639.4267 C284.8896,639.6632 287.2832,640.6939 287.8608,640.9722 C288.4384,641.2505 290.6672,642.444 291.2,642.7608 C291.7328,643.0776 293.776,644.4218 294.2592,644.7738 C294.7424,645.1258 296.5744,646.6053 297.0032,646.9892 C297.432,647.3731 299.0368,648.9736 299.4064,649.3861 C299.776,649.7986 301.136,651.5014 301.4432,651.937 C301.7504,652.3726 302.816,654.1711 303.0912,654.6177" fill="none" stroke="#b47c3c" stroke-width="2.2"/>
    <path d="M351.4048,721.3415 C351.6896,720.8773 352.7984,719.0117 353.1168,718.5585 C353.4352,718.1053 354.848,716.3365 355.232,715.9086 C355.616,715.4807 357.2816,713.8186 357.7264,713.4193 C358.1712,713.02 360.0752,711.4844 360.5776,711.1181 C361.08,710.7518 363.2,709.357 363.7536,709.0281 C364.3072,708.6992 366.6208,707.4595 367.2208,707.1713 C367.8208,706.8831 370.3088,705.8106 370.9472,705.5653 C371.5856,705.32 374.2176,704.4279 374.8896,704.2288 C375.5616,704.0297 378.312,703.3257 379.0096,703.175 C379.7072,703.0232 382.5472,702.5161 383.264,702.4138 C383.9808,702.3115 386.8816,702.0046 387.6096,701.954 C388.3376,701.9034 391.2688,701.8 392,701.8 C392.7312,701.8 395.6624,701.9034 396.3904,701.954 C397.1184,702.0046 400.0192,702.3115 400.736,702.4138 C401.4528,702.5161 404.2928,703.0232 404.9904,703.175 C405.688,703.3257 408.4384,704.0297 409.1104,704.2288 C409.7824,704.4279 412.4144,705.32 413.0528,705.5653 C413.6912,705.8106 416.1792,706.8831 416.7792,707.1713 C417.3792,707.4595 419.6928,708.6992 420.2464,709.0281 C420.8,709.357 422.92,710.7518 423.4224,711.1181 C423.9248,711.4844 425.8288,713.02 426.2736,713.4193 C426.7184,713.8186 428.384,715.4807 428.768,715.9086 C429.152,716.3365 430.5648,718.1053 430.8832,718.5585 C431.2016,719.0117 432.3104,720.8773 432.5952,721.3415" fill="none" stroke="#b47c3c" stroke-width="2.2"/>
    <path d="M549.9024,786.9653 C550.1984,786.4846 551.3456,784.5486 551.6768,784.0789 C552.008,783.6092 553.472,781.7755 553.8704,781.3311 C554.2688,780.8867 555.9952,779.1641 556.4576,778.7505 C556.92,778.3369 558.8944,776.743 559.4144,776.3635 C559.9344,775.984 562.1328,774.5375 562.7072,774.1965 C563.2816,773.8555 565.6816,772.5696 566.304,772.2704 C566.9248,771.9712 569.504,770.8591 570.1664,770.605 C570.8288,770.3509 573.56,769.4258 574.256,769.219 C574.952,769.0122 577.8048,768.2829 578.528,768.1256 C579.2512,767.9683 582.1984,767.4414 582.9408,767.3358 C583.6832,767.2302 586.6912,766.9123 587.4464,766.8595 C588.2016,766.8067 591.2416,766.7 592,766.7 C592.7584,766.7 595.7984,766.8067 596.5536,766.8595 C597.3088,766.9123 600.3168,767.2302 601.0592,767.3358 C601.8016,767.4414 604.7488,767.9683 605.472,768.1256 C606.1952,768.2829 609.048,769.0122 609.744,769.219 C610.44,769.4258 613.1712,770.3509 613.8336,770.605 C614.496,770.8591 617.0752,771.9712 617.696,772.2704 C618.3184,772.5696 620.7184,773.8555 621.2928,774.1965 C621.8672,774.5375 624.0656,775.984 624.5856,776.3635 C625.1056,776.743 627.08,778.3369 627.5424,778.7505 C628.0048,779.1641 629.7312,780.8867 630.1296,781.3311 C630.528,781.7755 631.992,783.6092 632.3232,784.0789 C632.6544,784.5486 633.8016,786.4846 634.0976,786.9653" fill="none" stroke="#b47c3c" stroke-width="2.2"/>
    <path d="M725.9024,819.9653 C726.1984,819.4846 727.3456,817.5486 727.6768,817.0789 C728.008,816.6092 729.472,814.7755 729.8704,814.3311 C730.2688,813.8867 731.9952,812.1641 732.4576,811.7505 C732.92,811.3369 734.8944,809.743 735.4144,809.3635 C735.9344,808.984 738.1328,807.5375 738.7072,807.1965 C739.2816,806.8555 741.6832,805.5696 742.304,805.2704 C742.9264,804.9712 745.504,803.8591 746.1664,803.605 C746.8288,803.3509 749.56,802.4258 750.256,802.219 C750.952,802.0122 753.8048,801.2829 754.528,801.1256 C755.2512,800.9683 758.1984,800.4414 758.9408,800.3358 C759.6832,800.2302 762.6912,799.9123 763.4464,799.8595 C764.2016,799.8067 767.2416,799.7 768,799.7 C768.7584,799.7 771.7984,799.8067 772.5536,799.8595 C773.3088,799.9123 776.3168,800.2302 777.0592,800.3358 C777.8016,800.4414 780.7488,800.9683 781.472,801.1256 C782.1952,801.2829 785.048,802.0122 785.744,802.219 C786.4416,802.4258 789.1712,803.3509 789.8336,803.605 C790.496,803.8591 793.0736,804.9712 793.696,805.2704 C794.3184,805.5696 796.7184,806.8555 797.2928,807.1965 C797.8672,807.5375 800.064,808.984 800.5856,809.3635 C801.1056,809.743 803.08,811.3369 803.5424,811.7505 C804.0048,812.1641 805.7312,813.8867 806.1296,814.3311 C806.528,814.7755 807.992,816.6092 808.3232,817.0789 C808.6544,817.5486 809.8016,819.4846 810.0976,819.9653" fill="none" stroke="#b47c3c" stroke-width="2.2"/>
    <path d="M1157.9024,841.9653 C1158.1984,841.4846 1159.3456,839.5486 1159.6768,839.0789 C1160.008,838.6092 1161.472,836.7755 1161.8704,836.3311 C1162.2688,835.8867 1163.9952,834.1641 1164.4576,833.7505 C1164.92,833.3369 1166.8944,831.743 1167.4144,831.3635 C1167.9344,830.984 1170.1328,829.5375 1170.7072,829.1965 C1171.2816,828.8555 1173.6832,827.5696 1174.304,827.2704 C1174.9264,826.9712 1177.504,825.8591 1178.1664,825.605 C1178.8288,825.3509 1181.5584,824.4258 1182.256,824.219 C1182.952,824.0122 1185.8048,823.2829 1186.528,823.1256 C1187.2512,822.9683 1190.1984,822.4414 1190.9408,822.3358 C1191.6848,822.2302 1194.6912,821.9123 1195.4464,821.8595 C1196.2016,821.8067 1199.2416,821.7 1200,821.7 C1200.7584,821.7 1203.7984,821.8067 1204.5536,821.8595 C1205.3088,821.9123 1208.3152,822.2302 1209.0592,822.3358 C1209.8016,822.4414 1212.7488,822.9683 1213.472,823.1256 C1214.1952,823.2829 1217.048,824.0122 1217.744,824.219 C1218.4416,824.4258 1221.1712,825.3509 1221.8336,825.605 C1222.496,825.8591 1225.0736,826.9712 1225.696,827.2704 C1226.3168,827.5696 1228.7184,828.8555 1229.2928,829.1965 C1229.8672,829.5375 1232.0656,830.984 1232.5856,831.3635 C1233.1056,831.743 1235.08,833.3369 1235.5424,833.7505 C1236.0048,834.1641 1237.7312,835.8867 1238.1296,836.3311 C1238.528,836.7755 1239.992,838.6092 1240.3232,839.0789 C1240.6544,839.5486 1241.8016,841.4846 1242.0976,841.9653" fill="none" stroke="#b47c3c" stroke-width="2.2"/>
    <path d="M1269.9024,841.9653 C1270.1984,841.4846 1271.3456,839.5486 1271.6768,839.0789 C1272.008,838.6092 1273.472,836.7755 1273.8704,836.3311 C1274.2688,835.8867 1275.9952,834.1641 1276.4576,833.7505 C1276.92,833.3369 1278.8928,831.743 1279.4144,831.3635 C1279.9344,830.984 1282.1328,829.5375 1282.7072,829.1965 C1283.2816,828.8555 1285.6816,827.5696 1286.304,827.2704 C1286.9264,826.9712 1289.504,825.8591 1290.1664,825.605 C1290.8288,825.3509 1293.5584,824.4258 1294.256,824.219 C1294.9536,824.0122 1297.8048,823.2829 1298.528,823.1256 C1299.2512,822.9683 1302.1984,822.4414 1302.9408,822.3358 C1303.6832,822.2302 1306.6912,821.9123 1307.4464,821.8595 C1308.2016,821.8067 1311.2416,821.7 1312,821.7 C1312.7584,821.7 1315.7984,821.8067 1316.5536,821.8595 C1317.3088,821.9123 1320.3168,822.2302 1321.0592,822.3358 C1321.8016,822.4414 1324.7488,822.9683 1325.472,823.1256 C1326.1952,823.2829 1329.0464,824.0122 1329.744,824.219 C1330.4416,824.4258 1333.1712,825.3509 1333.8336,825.605 C1334.496,825.8591 1337.0752,826.9712 1337.696,827.2704 C1338.3184,827.5696 1340.7184,828.8555 1341.2928,829.1965 C1341.8672,829.5375 1344.064,830.984 1344.5856,831.3635 C1345.1056,831.743 1347.08,833.3369 1347.5424,833.7505 C1348.0048,834.1641 1349.7312,835.8867 1350.1296,836.3311 C1350.528,836.7755 1351.992,838.6092 1352.3232,839.0789 C1352.6544,839.5486 1353.8016,841.4846 1354.0976,841.9653" fill="none" stroke="#b47c3c" stroke-width="2.2"/>
    <path d="M1448.9088,804.2177 C1449.184,803.7711 1450.2496,801.9726 1450.5568,801.537 C1450.864,801.1014 1452.224,799.3986 1452.5936,798.9861 C1452.9632,798.5736 1454.568,796.9731 1454.9968,796.5892 C1455.4256,796.2053 1457.2576,794.7258 1457.7408,794.3738 C1458.224,794.0218 1460.2672,792.6776 1460.8,792.3608 C1461.3328,792.044 1463.5616,790.8505 1464.1392,790.5722 C1464.7168,790.2939 1467.1104,789.2632 1467.7264,789.0267 C1468.3424,788.7902 1470.8768,787.9311 1471.5232,787.7386 C1472.1696,787.5472 1474.8192,786.8685 1475.4912,786.7233 C1476.1632,786.5781 1478.8976,786.0886 1479.5872,785.9907 C1480.2768,785.8928 1483.0704,785.598 1483.7712,785.5485 C1484.472,785.499 1487.296,785.4 1488,785.4 C1488.7056,785.4 1491.528,785.499 1492.2288,785.5485 C1492.9296,785.598 1495.7232,785.8928 1496.4128,785.9907 C1497.1024,786.0886 1499.8368,786.5781 1500.5088,786.7233 C1501.1808,786.8685 1503.8304,787.5472 1504.4768,787.7386 C1505.1232,787.9311 1507.6576,788.7902 1508.2736,789.0267 C1508.8896,789.2632 1511.2832,790.2939 1511.8608,790.5722 C1512.4384,790.8505 1514.6672,792.044 1515.2,792.3608 C1515.7328,792.6776 1517.776,794.0218 1518.2592,794.3738 C1518.7424,794.7258 1520.5744,796.2053 1521.0032,796.5892 C1521.432,796.9731 1523.0368,798.5736 1523.4064,798.9861 C1523.776,799.3986 1525.136,801.1014 1525.4432,801.537 C1525.7504,801.9726 1526.816,803.7711 1527.0912,804.2177" fill="none" stroke="#b47c3c" stroke-width="2.2"/>
    <path d="M1528.9088,804.2177 C1529.184,803.7711 1530.2496,801.9726 1530.5568,801.537 C1530.864,801.1014 1532.224,799.3986 1532.5936,798.9861 C1532.9632,798.5736 1534.568,796.9731 1534.9968,796.5892 C1535.4256,796.2053 1537.2576,794.7258 1537.7408,794.3738 C1538.224,794.0218 1540.2672,792.6776 1540.8,792.3608 C1541.3328,792.044 1543.5616,790.8505 1544.1392,790.5722 C1544.7168,790.2939 1547.1104,789.2632 1547.7264,789.0267 C1548.3424,788.7902 1550.8768,787.9311 1551.5232,787.7386 C1552.1696,787.5472 1554.8192,786.8685 1555.4912,786.7233 C1556.1632,786.5781 1558.8976,786.0886 1559.5872,785.9907 C1560.2768,785.8928 1563.0704,785.598 1563.7712,785.5485 C1564.472,785.499 1567.296,785.4 1568,785.4 C1568.704,785.4 1571.528,785.499 1572.2288,785.5485 C1572.9296,785.598 1575.7232,785.8928 1576.4128,785.9907 C1577.1024,786.0886 1579.8368,786.5781 1580.5088,786.7233 C1581.1808,786.8685 1583.8304,787.5472 1584.4768,787.7386 C1585.1232,787.9311 1587.6576,788.7902 1588.2736,789.0267 C1588.8896,789.2632 1591.2832,790.2939 1591.8608,790.5722 C1592.4384,790.8505 1594.6672,792.044 1595.2,792.3608 C1595.7328,792.6776 1597.8592,794.0218 1598.2592,794.3738 C1598.6592,794.7258 1599.8544,796.2053 1600,796.5892 C1600.1456,796.9731 1600,798.5736 1600,798.9861 C1600,799.3986 1600,801.1014 1600,801.537 C1600,801.9726 1600,803.7711 1600,804.2177" fill="none" stroke="#b47c3c" stroke-width="2.2"/>
    <line x1="872" y1="363" x2="856" y2="803" fill="none" stroke="#485b57" stroke-width="1.1" opacity="0.55"/>
    <line x1="1064" y1="363" x2="1096" y2="781" fill="none" stroke="#485b57" stroke-width="1.1" opacity="0.55"/>
    <ellipse cx="328" cy="588.5" rx="28.8" ry="11" fill="#695c50" stroke="#b47c3c" stroke-width="1.1"/>
    <ellipse cx="432" cy="591.8" rx="28.8" ry="11" fill="#695c50" stroke="#b47c3c" stroke-width="1.1"/>
    <ellipse cx="505.6" cy="555.5" rx="25.6" ry="9.9" fill="#695c50" stroke="#b47c3c" stroke-width="1.1"/>
    <ellipse cx="267.2" cy="678.7" rx="30.4" ry="11" fill="#695c50" stroke="#b47c3c" stroke-width="1.1"/>
    <ellipse cx="393.6" cy="749.1" rx="32" ry="12.1" fill="#695c50" stroke="#b47c3c" stroke-width="1.1"/>
    <ellipse cx="592" cy="816.2" rx="33.6" ry="12.1" fill="#695c50" stroke="#b47c3c" stroke-width="1.1"/>
    <ellipse cx="768" cy="849.2" rx="33.6" ry="12.1" fill="#695c50" stroke="#b47c3c" stroke-width="1.1"/>
    <ellipse cx="1200" cy="871.2" rx="33.6" ry="12.1" fill="#695c50" stroke="#b47c3c" stroke-width="1.1"/>
    <ellipse cx="1312" cy="871.2" rx="33.6" ry="12.1" fill="#695c50" stroke="#b47c3c" stroke-width="1.1"/>
    <ellipse cx="1488" cy="831.6" rx="32" ry="11" fill="#695c50" stroke="#b47c3c" stroke-width="1.1"/>
    <line x1="336" y1="643.5" x2="328" y2="682" fill="none" stroke="#6c492d" stroke-width="1.32" opacity="0.8"/>
    <line x1="408" y1="640.2" x2="428.8" y2="676.5" fill="none" stroke="#6c492d" stroke-width="1.32" opacity="0.8"/>
    <line x1="288" y1="733.7" x2="272" y2="775.5" fill="none" stroke="#6c492d" stroke-width="1.43" opacity="0.82"/>
    <line x1="376" y1="731.5" x2="400" y2="770" fill="none" stroke="#6c492d" stroke-width="1.43" opacity="0.82"/>
    <line x1="712" y1="902" x2="696" y2="959.2" fill="none" stroke="#6c492d" stroke-width="1.54" opacity="0.85"/>
    <line x1="840" y1="902" x2="872" y2="957" fill="none" stroke="#6c492d" stroke-width="1.54" opacity="0.85"/>
    <line x1="1192" y1="924" x2="1176" y2="976.8" fill="none" stroke="#6c492d" stroke-width="1.54" opacity="0.85"/>
    <line x1="1320" y1="924" x2="1356.8" y2="975.7" fill="none" stroke="#6c492d" stroke-width="1.54" opacity="0.85"/>
    <line x1="328" y1="598.4" x2="316.8" y2="638" fill="none" stroke="#9d6a35" stroke-width="1.32"/>
    <line x1="432" y1="600.6" x2="444.8" y2="638" fill="none" stroke="#9d6a35" stroke-width="1.32"/>
    <line x1="1200" y1="882.2" x2="1187.2" y2="924" fill="none" stroke="#9d6a35" stroke-width="1.32"/>
    <line x1="1312" y1="882.2" x2="1328" y2="924" fill="none" stroke="#9d6a35" stroke-width="1.32"/>
    <line x1="328" y1="611.6" x2="412.8" y2="607.2" fill="none" stroke="#cdb7a0" stroke-width="1.1" opacity="0.8"/>
    <line x1="408" y1="545.6" x2="484.8" y2="542.3" fill="none" stroke="#cdb7a0" stroke-width="1.1" opacity="0.75"/>
    <line x1="696" y1="866.8" x2="844.8" y2="866.8" fill="none" stroke="#cdb7a0" stroke-width="1.32" opacity="0.75"/>
    <line x1="1176" y1="887.7" x2="1336" y2="887.7" fill="none" stroke="#cdb7a0" stroke-width="1.32" opacity="0.75"/>
    <rect x="1024" y="731.5" width="80" height="17.6" fill="#d9d2c5" stroke="#80766b" stroke-width="1.1"/>
    <rect x="696" y="555.5" width="51.2" height="57.2" fill="#2b302e" stroke="#111" stroke-width="1.1"/>
    <path d="M700.8,864.6 C704.5328,864.0863 836.4272,866.25 840,866.8 C843.5728,867.35 811.7328,880.5863 808,881.1 C804.2672,881.6137 731.5728,882.75 728,882.2 C724.4272,881.65 697.0672,865.1137 700.8,864.6 Z" fill="#d3bba3" stroke="none" stroke-width="1.1" opacity="0.26"/>
    <path d="M1180.8,886.6 C1184.9072,886.1963 1332.0528,887.15 1336,887.7 C1339.9472,888.25 1303.3072,902.6963 1299.2,903.1 C1295.0928,903.5037 1216.7472,900.35 1212.8,899.8 C1208.8528,899.25 1176.6928,887.0037 1180.8,886.6 Z" fill="#d3bba3" stroke="none" stroke-width="1.1" opacity="0.26"/>
    <path d="M329.6,610.5 C331.712,610.104 409.328,608.036 411.2,608.3 C413.072,608.564 394.112,618.904 392,619.3 C389.888,619.696 342.672,621.764 340.8,621.5 C338.928,621.236 327.488,610.896 329.6,610.5 Z" fill="#d3bba3" stroke="none" stroke-width="1.1" opacity="0.24"/>
    <ellipse cx="752" cy="583" rx="28.8" ry="11" fill="#ffd06a" stroke="none" stroke-width="1.1" opacity="0.58"/>
    <line x1="736" y1="0" x2="736" y2="462" fill="none" stroke="#202b30" stroke-width="1.32" opacity="0.9"/>
    <line x1="1392" y1="0" x2="1376" y2="396" fill="none" stroke="#202b30" stroke-width="1.32" opacity="0.9"/>
    <path d="M1472,374 C1472.5328,372.9363 1599.5728,316.58 1600,319 C1600.4272,321.42 1600.1872,1097.3963 1600,1100 C1599.8128,1102.6037 1544.2672,1101.0263 1544,1100 C1543.7328,1098.9737 1520.3472,793.54 1520,792 C1519.6528,790.46 1440.16,639.3937 1440,638 C1439.84,636.6063 1471.4672,375.0637 1472,374 Z" fill="#172528" stroke="none" stroke-width="1.1" opacity="0.55"/>
    <line x1="176" y1="792" x2="208" y2="924" fill="none" stroke="#5d6864" stroke-width="1.54" opacity="0.75"/>
    <line x1="352" y1="902" x2="368" y2="1001" fill="none" stroke="#5d6864" stroke-width="1.54" opacity="0.75"/>
    <line x1="576" y1="979" x2="576" y2="1078" fill="none" stroke="#5d6864" stroke-width="1.54" opacity="0.75"/>
    <line x1="848" y1="1001" x2="848" y2="1094.5" fill="none" stroke="#5d6864" stroke-width="1.54" opacity="0.75"/>
    <line x1="1120" y1="979" x2="1112" y2="1072.5" fill="none" stroke="#5d6864" stroke-width="1.54" opacity="0.75"/>
    <line x1="1376" y1="902" x2="1352" y2="990" fill="none" stroke="#5d6864" stroke-width="1.54" opacity="0.75"/>
    <path d="M160,748 C174.6672,758.0837 229.3328,854.7913 288,880 C346.6672,905.2087 754.5328,1007.875 800,1023 C845.4672,1038.125 832.4,1054.075 784,1045 C735.6,1035.925 332.1328,949.2087 272,924 C211.8672,898.7913 138.2672,786.1337 128,770 C117.7328,753.8663 145.3328,737.9163 160,748 Z" fill="#ffffff" stroke="none" stroke-width="1.1" opacity="0.18"/>
    <path d="M880,990 C910.8,980.925 1168.9328,953.15 1232,935 C1295.0672,916.85 1535.7328,802.0837 1568,792 C1600.2672,781.9163 1613.3328,807.8587 1584,825 C1554.6672,842.1413 1311.0672,959.8413 1248,979 C1184.9328,998.1587 929.7328,1032.9913 896,1034 C862.2672,1035.0087 849.2,999.075 880,990 Z" fill="#ffffff" stroke="none" stroke-width="1.1" opacity="0.16"/>
    <rect x="1560" y="0" width="24" height="1100" fill="#152026" stroke="none" stroke-width="1.1" opacity="0.9"/>
    <path d="M1560,110 C1560.064,106.6263 1583.92,30.2137 1584,33 C1584.08,35.7863 1584.064,942.6263 1584,946 C1583.936,949.3737 1564.88,1047.7863 1564.8,1045 C1564.72,1042.2137 1559.936,113.3737 1560,110 Z" fill="#708083" stroke="none" stroke-width="1.1" opacity="0.18"/>
    <line x1="8" y1="55" x2="176" y2="0" fill="none" stroke="#69736d" stroke-width="2.2" opacity="0.7"/>
    <line x1="0" y1="198" x2="192" y2="88" fill="none" stroke="#69736d" stroke-width="2.2" opacity="0.7"/>
    <line x1="0" y1="352" x2="192" y2="220" fill="none" stroke="#69736d" stroke-width="2.2" opacity="0.7"/>
    <line x1="0" y1="528" x2="168" y2="396" fill="none" stroke="#69736d" stroke-width="2.2" opacity="0.7"/>
    <line x1="0" y1="726" x2="152" y2="572" fill="none" stroke="#69736d" stroke-width="2.2" opacity="0.7"/>
    <line x1="16" y1="132" x2="192" y2="88" fill="none" stroke="#d3dbd5" stroke-width="1.54" opacity="0.75"/>
    <line x1="8" y1="275" x2="184" y2="220" fill="none" stroke="#d3dbd5" stroke-width="1.54" opacity="0.75"/>
    <line x1="0" y1="462" x2="168" y2="396" fill="none" stroke="#d3dbd5" stroke-width="1.54" opacity="0.75"/>
</svg>
