<?xml version="1.0" encoding="UTF-8"?>
<svg xmlns="http://www.w3.org/2000/svg"
     xmlns:xlink="http://www.w3.org/1999/xlink"
     width="1200" height="1700"
     viewBox="0 0 1200 1700">
  <rect width="100%" height="100%" fill="url(#bg_3308883755)"/>
  <defs>
  <radialGradient id="grad_775443912" cx="0.52" cy="0.47" r="0.72">
    <stop offset="0" stop-color="#0A6A9D"/>
    <stop offset="0.42" stop-color="#073B70"/>
    <stop offset="1" stop-color="#020717"/>
  </radialGradient>

  <linearGradient id="grad_1394302146" x1="0" y1="0" x2="0" y2="1">
    <stop offset="0" stop-color="#063F5B"/>
    <stop offset="0.45" stop-color="#052A43"/>
    <stop offset="1" stop-color="#010714"/>
  </linearGradient>

  <linearGradient id="grad_3205984591" x1="0" y1="0" x2="1" y2="1">
    <stop offset="0" stop-color="#C7BDAA"/>
    <stop offset="0.55" stop-color="#8D897F"/>
    <stop offset="1" stop-color="#5B5F5C"/>
  </linearGradient>

  <linearGradient id="grad_295054659" x1="1" y1="0" x2="0" y2="1">
    <stop offset="0" stop-color="#CBBFAE"/>
    <stop offset="0.55" stop-color="#8B857A"/>
    <stop offset="1" stop-color="#565E5D"/>
  </linearGradient>

  <linearGradient id="grad_2571967434" x1="0" y1="0" x2="1" y2="1">
    <stop offset="0" stop-color="#D0B47C"/>
    <stop offset="0.42" stop-color="#595A65"/>
    <stop offset="1" stop-color="#101824"/>
  </linearGradient>

  <linearGradient id="grad_446629443" x1="1" y1="0" x2="0" y2="1">
    <stop offset="0" stop-color="#C8D6DF"/>
    <stop offset="0.45" stop-color="#566978"/>
    <stop offset="1" stop-color="#111825"/>
  </linearGradient>

  <linearGradient id="grad_1577827593" x1="0" y1="0" x2="0" y2="1">
    <stop offset="0" stop-color="#F4F0E6"/>
    <stop offset="1" stop-color="#A8A9A3"/>
  </linearGradient>

  <linearGradient id="grad_2485755025" x1="0" y1="0" x2="0" y2="1">
    <stop offset="0" stop-color="#FFD75C"/>
    <stop offset="1" stop-color="#AA6C15"/>
  </linearGradient>

  <linearGradient id="grad_2511982046" x1="0" y1="0" x2="1" y2="1">
    <stop offset="0" stop-color="#B9A66D"/>
    <stop offset="0.55" stop-color="#746A54"/>
    <stop offset="1" stop-color="#3C3A35"/>
  </linearGradient>

  <linearGradient id="grad_686613449" x1="0" y1="0" x2="1" y2="0">
    <stop offset="0" stop-color="#050A12"/>
    <stop offset="0.5" stop-color="#172033"/>
    <stop offset="1" stop-color="#050910"/>
  </linearGradient>

  <linearGradient id="grad_1452931435" x1="0" y1="0" x2="1" y2="1">
    <stop offset="0" stop-color="#777985"/>
    <stop offset="0.5" stop-color="#424755"/>
    <stop offset="1" stop-color="#1B222F"/>
  </linearGradient>

  <linearGradient id="grad_2702678727" x1="0" y1="0" x2="1" y2="1">
    <stop offset="0" stop-color="#393F4D"/>
    <stop offset="1" stop-color="#151B26"/>
  </linearGradient>

  <linearGradient id="grad_1807908887" x1="0" y1="0" x2="0" y2="1">
    <stop offset="0" stop-color="#EEF6F7"/>
    <stop offset="1" stop-color="#AAB7BD"/>
  </linearGradient>

  <linearGradient id="grad_70279564" x1="1" y1="0" x2="0" y2="1">
    <stop offset="0" stop-color="#9AADB9"/>
    <stop offset="0.5" stop-color="#4D6170"/>
    <stop offset="1" stop-color="#182232"/>
  </linearGradient>

  <linearGradient id="grad_1954574663" x1="0" y1="0" x2="1" y2="1">
    <stop offset="0" stop-color="#5C6A76"/>
    <stop offset="1" stop-color="#121923"/>
  </linearGradient>

  <linearGradient id="grad_2362050017" x1="0" y1="0" x2="1" y2="1">
    <stop offset="0" stop-color="#323A4B"/>
    <stop offset="1" stop-color="#151925"/>
  </linearGradient>

  <linearGradient id="grad_3452477074" x1="0" y1="0" x2="1" y2="1">
    <stop offset="0" stop-color="#F7E9F2"/>
    <stop offset="1" stop-color="#82667A"/>
  </linearGradient>

  <linearGradient id="grad_3785098222" x1="0" y1="0" x2="1" y2="1">
    <stop offset="0" stop-color="#1A2438"/>
    <stop offset="1" stop-color="#070B12"/>
  </linearGradient>

    <filter id="blur_4.00"><feGaussianBlur stdDeviation="4.00"/></filter>
    <filter id="blur_5.00"><feGaussianBlur stdDeviation="5.00"/></filter>
    <filter id="blur_6.00"><feGaussianBlur stdDeviation="6.00"/></filter>
    <filter id="blur_7.00"><feGaussianBlur stdDeviation="7.00"/></filter>
    <filter id="blur_8.00"><feGaussianBlur stdDeviation="8.00"/></filter>
    <filter id="blur_10.00"><feGaussianBlur stdDeviation="10.00"/></filter>
  </defs>
    <polygon points="0,0 1200,0 1200,1054 0,1054" fill="#061226" stroke="none" stroke-width="6"/>
    <path d="M264,374 C331.1004,311.6661 868.8996,311.6661 936,374 C1003.1004,436.3339 1063.1004,991.6661 996,1054 C928.8996,1116.3339 271.1004,1116.3339 204,1054 C136.8996,991.6661 196.8996,436.3339 264,374 Z" fill="#0B6FA6" stroke="none" stroke-width="6" opacity="0.28"/>
    <polygon points="0,0 1200,0 1200,476 0,476" fill="#010512" stroke="none" stroke-width="6" opacity="0.62"/>
    <polygon points="378,994.5 822,994.5 1176,1700 24,1700" fill="url(#grad_1394302146)" stroke="#02101B" stroke-width="2"/>
    <polygon points="0,1088 67.3668,1071.3366 138.504,1053.7399 213.738,1035.1317 293.4336,1015.4185 378,994.5 24,1700 19.1628,1700 14.3448,1700 9.5448,1700 4.7628,1700 0,1700" fill="url(#grad_3205984591)" stroke="#313B3D" stroke-width="2"/>
    <polygon points="822,994.5 906.5664,1015.4185 986.262,1035.1317 1061.496,1053.7399 1132.6332,1071.3366 1200,1088 1200,1700 1195.2372,1700 1190.4552,1700 1185.6552,1700 1180.8372,1700 1176,1700" fill="url(#grad_295054659)" stroke="#313B3D" stroke-width="2"/>
    <path d="M336,833 C377.6004,818.2661 822.3996,818.2661 864,833 C905.6004,847.7339 1001.6004,1039.2661 960,1054 C918.3996,1068.7339 281.6004,1068.7339 240,1054 C198.3996,1039.2661 294.3996,847.7339 336,833 Z" fill="#38E8FF" stroke="none" stroke-width="6" opacity="0.14"/>
    <polygon points="432,731 469.3332,731 506.6664,731 543.9996,731 581.3328,731 618.6672,731 656.0004,731 693.3336,731 730.6668,731 768,731 782.8236,803.3333 800.5164,889.6661 822,994.5 772.6668,994.5 723.3336,994.5 674.0004,994.5 624.6672,994.5 575.3328,994.5 525.9996,994.5 476.6664,994.5 427.3332,994.5 378,994.5 399.4836,889.6661 417.1764,803.3333" fill="#132E48" stroke="#305A78" stroke-width="1.2" opacity="0.82"/>
    <polygon points="0,0 444,501.5 378,1071 0,1173" fill="url(#grad_2571967434)" stroke="#050A12" stroke-width="2"/>
    <polygon points="1200,136 756,595 822,1088 1200,1190" fill="url(#grad_446629443)" stroke="#050A12" stroke-width="2"/>
    <path d="M456,1003 C464.4,985.575 735.6,985.575 744,1003 C752.4,1020.425 800.4,1682.575 792,1700 C783.6,1717.425 416.4,1717.425 408,1700 C399.6,1682.575 447.6,1020.425 456,1003 Z" fill="#020A16" stroke="none" stroke-width="6" opacity="0.36"/>
    <path d="M588,994.5 C595.2,972.825 670.5,950.0875 684,1003 C697.5,1055.9125 778.8,1647.725 768,1700 C757.2,1752.275 553.5,1730.6 540,1700 C526.5,1669.4 584.4,1344.9125 588,1292 C591.6,1239.0875 580.8,1016.175 588,994.5 Z" fill="#62F5FF" stroke="none" stroke-width="6" opacity="0.22"/>
    <path d="M864,1003 C871.2,980.305 922.5,972.4 936,1023.4 C949.5,1074.4 1054.8,1632.255 1044,1683 C1033.2,1733.745 807.3,1726.775 792,1700 C776.7,1673.225 834.6,1378.275 840,1326 C845.4,1273.725 856.8,1025.695 864,1003 Z" fill="#FF55C7" stroke="none" stroke-width="6" opacity="0.18"/>
    <path d="M192,1071 C196.9404,1053.7739 280.32,1014.1639 294,1054 C307.68,1093.8361 417.5004,1659.0861 408,1700 C398.4996,1740.9139 156.1596,1723.6861 144,1700 C131.8404,1676.3139 212.9604,1365.8361 216,1326 C219.0396,1286.1639 187.0596,1088.2261 192,1071 Z" fill="#FFD052" stroke="none" stroke-width="6" opacity="0.2"/>
    <path d="M972,1037 C981,1017.875 1040.7,1025.1 1056,1071 C1071.3,1116.9 1181.4,1603.1 1176,1649 C1170.6,1694.9 1002,1707.225 984,1683 C966,1658.775 936.9,1374.45 936,1326 C935.1,1277.55 963,1056.125 972,1037 Z" fill="#E8FFFF" stroke="none" stroke-width="6" opacity="0.18"/>
    <path d="M0,952 C9.6,936.7 182.4,907.8 192,918 C201.6,928.2 201.6,1140.7 192,1156 C182.4,1171.3 9.6,1234.2 0,1224 C-9.6,1213.8 -9.6,967.3 0,952 Z" fill="#FFB850" stroke="none" stroke-width="6" opacity="0.18"/>
    <path d="M984,935 C993.6,926.5 1189.2,1033.6 1200,1054 C1210.8,1074.4 1209.6,1334.5 1200,1343 C1190.4,1351.5 1018.8,1244.4 1008,1224 C997.2,1203.6 974.4,943.5 984,935 Z" fill="#FF5BC8" stroke="none" stroke-width="6" opacity="0.15"/>
    <path d="M30,0 C34.35,-6.5875 193.8,-7.225 198,0 C202.2,7.225 202.35,282.4125 198,289 C193.65,295.5875 28.2,270.725 24,263.5 C19.8,256.275 25.65,6.5875 30,0 Z" fill="#64FAFF" stroke="none" stroke-width="6" opacity="0.18"/>
    <path d="M828,340 C838.8,330.3661 1141.2,298.35 1152,306 C1162.8,313.65 1162.8,559.8661 1152,569.5 C1141.2,579.1339 838.8,602.65 828,595 C817.2,587.35 817.2,349.6339 828,340 Z" fill="#8BFFFF" stroke="none" stroke-width="6" opacity="0.16"/>
    <path d="M180,731 C183.2004,719.1 267.2004,735.5339 270,748 C272.7996,760.4661 267.2004,1093.1 264,1105 C260.7996,1116.9 176.7996,1117.4661 174,1105 C171.2004,1092.5339 176.7996,742.9 180,731 Z" fill="#FF297B" stroke="none" stroke-width="6" opacity="0.18"/>
    <path d="M1032,850 C1037.6004,836.4 1194.3996,801.8339 1200,816 C1205.6004,830.1661 1205.6004,1261.4 1200,1275 C1194.3996,1288.6 1037.6004,1238.1661 1032,1224 C1026.3996,1209.8339 1026.3996,863.6 1032,850 Z" fill="#FF4BC2" stroke="none" stroke-width="6" opacity="0.16"/>
    <polygon points="66,323 105.2364,338.4394 141.0972,352.5528 174,365.5 172.482,426.7901 170.9688,487.8694 169.4616,548.7396 167.9592,609.4041 166.4616,669.8595 164.9688,730.1109 163.482,790.1566 162,850 129.0528,857.7792 93.1884,866.2469 54,875.5 55.4796,807.3725 56.9652,738.9815 58.4568,670.3236 59.9532,601.4005 61.4556,532.2071 62.9652,462.7434 64.4796,393.0094" fill="#101622" stroke="#748993" stroke-width="1.2" opacity="0.82"/>
    <path d="M924,1479 C943.35,1468.1625 1173.75,1422.9 1194,1428 C1214.25,1433.1 1213.35,1536.1625 1194,1547 C1174.65,1557.8375 956.25,1577.6 936,1572.5 C915.75,1567.4 904.65,1489.8375 924,1479 Z" fill="#000000" stroke="none" stroke-width="6" opacity="0.32"/>
    <path d="M444,1045.5 C472.5996,1043.3189 570.3,1033.4436 600,1033.6 C629.7,1033.7564 737.1996,1044.7061 768,1047.2 M408,1122 C447.6,1118.26 583.2996,1100.9761 624,1101.6 C664.7004,1102.2239 810.2004,1123.8139 852,1128.8 M372,1215.5 C422.6004,1210.825 594.0996,1189.2214 648,1190 C701.9004,1190.7786 902.7996,1217.7661 960,1224 M300,1326 C363.8004,1319.1439 578.7,1287.665 648,1288.6 C717.3,1289.535 981.2004,1327.4739 1056,1336.2 M192,1453.5 C275.6004,1443.5261 562.2,1398.6325 648,1399.1 C733.8,1399.5675 1040.0004,1447.6911 1128,1458.6 M96,1598 C190.5996,1585.5339 513,1529.2214 612,1530 C711,1530.7786 1072.5996,1592.475 1176,1606.5" fill="none" stroke="#A8F8FF" stroke-width="2" opacity="0.62"/>
    <path d="M720,1088 C748.8,1086.3 836.4,1078.48 864,1079.5 C891.6,1080.52 969.6,1094.46 996,1098.2 M684,1181.5 C724.8,1177.42 847.2,1159.57 888,1161.1 C928.8,1162.63 1051.2,1189.66 1092,1196.8 M636,1283.5 C691.2,1276.7 859.2,1247.8 912,1249.5 C964.8,1251.2 1113.6,1290.3 1164,1300.5 M600,1411 C662.4,1402.5 853.2,1366.8 912,1368.5 C970.8,1370.2 1132.8,1416.1 1188,1428 M516,1564 C585.6,1552.1 796.8,1503.65 864,1504.5 C931.2,1505.35 1123.2,1558.9 1188,1572.5" fill="none" stroke="#FF8CDC" stroke-width="2" opacity="0.5"/>
    <polygon points="1128,484.5 1200,433.5 1200,1062.5 1146,1088" fill="url(#grad_1954574663)" stroke="#07101A" stroke-width="2"/>
    <polygon points="847.3356,540.4674 1129.3356,497.9674 1147.3356,1101.4674 889.3356,1143.9674" fill="#000000" stroke="none" stroke-width="2" opacity="0.25" style="mix-blend-mode:multiply" filter="url(#blur_7.00)"/>
    <path d="M144,1122 C163.2,1119.28 218.4,1108.06 240,1108.4 C261.6,1108.74 336,1122 360,1125.4 M120,1224 C148.8,1219.24 231.6,1199.52 264,1200.2 C296.4,1200.88 408,1224.68 444,1230.8 M108,1351.5 C141.6,1344.7 235.2,1316.31 276,1317.5 C316.8,1318.69 468,1354.22 516,1363.4 M84,1513 C122.4,1502.8 224.4,1461.66 276,1462 C327.6,1462.34 535.2,1505.52 600,1516.4 M72,1657.5 C117.6,1645.6 241.2,1597.15 300,1598 C358.8,1598.85 588,1652.4 660,1666" fill="none" stroke="#FFD96D" stroke-width="2" opacity="0.56"/>
    <polygon points="846,527 1128,484.5 1146,1088 888,1130.5" fill="url(#grad_70279564)" stroke="#07101A" stroke-width="2"/>
    <polygon points="378,612 444,731 414,1003 350.4,1071" fill="url(#grad_2702678727)" stroke="#090D15" stroke-width="2"/>
    <polygon points="199.6044,438.3025 376.0044,625.3025 348.4044,1084.3025 180.4044,1075.8025" fill="#000000" stroke="none" stroke-width="2" opacity="0.28" style="mix-blend-mode:multiply" filter="url(#blur_7.00)"/>
    <polygon points="201.6,425 378,612 350.4,1071 182.4,1062.5" fill="url(#grad_1452931435)" stroke="#090D15" stroke-width="2"/>
    <polygon points="0,306 134.4,348.5 126,875.5 0,926.5" fill="url(#grad_2511982046)" stroke="#11151B" stroke-width="2"/>
    <polygon points="384,963.9 414.8568,963.9 445.7148,963.9 476.5716,963.9 507.4284,963.9 538.2852,963.9 569.1432,963.9 600,963.9 630.8568,963.9 661.7148,963.9 692.5716,963.9 723.4284,963.9 754.2852,963.9 785.1432,963.9 816,963.9 840,1031.9 805.7148,1031.9 771.4284,1031.9 737.1432,1031.9 702.8568,1031.9 668.5716,1031.9 634.2852,1031.9 600,1031.9 565.7148,1031.9 531.4284,1031.9 497.1432,1031.9 462.8568,1031.9 428.5716,1031.9 394.2852,1031.9 360,1031.9" fill="#000000" stroke="none" stroke-width="2" opacity="0.28" style="mix-blend-mode:multiply" filter="url(#blur_10.00)"/>
    <polygon points="1128,535.5 1178.4,518.5 1200,1173 1166.4,1207" fill="url(#grad_3785098222)" stroke="#07101A" stroke-width="2"/>
    <polygon points="949.8156,594.9524 1112.364,547.9661 1166.1612,1199.8141 1003.9008,1239.2405" fill="#000000" stroke="none" stroke-width="6" opacity="0.22" style="mix-blend-mode:multiply" filter="url(#blur_6.00)"/>
    <polygon points="384,943.5 414.8568,943.5 445.7148,943.5 476.5716,943.5 507.4284,943.5 538.2852,943.5 569.1432,943.5 600,943.5 630.8568,943.5 661.7148,943.5 692.5716,943.5 723.4284,943.5 754.2852,943.5 785.1432,943.5 816,943.5 840,1011.5 805.7148,1011.5 771.4284,1011.5 737.1432,1011.5 702.8568,1011.5 668.5716,1011.5 634.2852,1011.5 600,1011.5 565.7148,1011.5 531.4284,1011.5 497.1432,1011.5 462.8568,1011.5 428.5716,1011.5 394.2852,1011.5 360,1011.5" fill="url(#grad_1577827593)" stroke="#657177" stroke-width="2"/>
    <polygon points="949.0632,584.8085 1111.6116,537.8222 1165.4088,1189.6702 1003.1484,1229.0966" fill="#CCCCCC" stroke="#333333" stroke-width="6"/>
    <polygon points="1104,586.5 1133.6724,575.9906 1165.5852,564.689 1200,552.5 1200,624.1635 1200,691.6382 1200,755.2811 1200,815.4067 1200,872.3023 1200,926.2195 1200,977.3861 1200,1026.0078 1200,1072.2699 1200,1116.3407 1200,1158.3715 1200,1198.5 1174.6668,1189.5274 1150.7028,1181.041 1128,1173 1126.4676,1135.5643 1124.8692,1096.5 1123.2,1055.7 1121.454,1013.0453 1119.6276,968.4067 1117.7148,921.6431 1115.7072,872.5981 1113.6,821.1 1111.3848,766.9618 1109.0532,709.9744 1106.5944,649.9049" fill="#131927" stroke="#677C8E" stroke-width="1.2"/>
    <polygon points="408,731 462,748 457.9428,828.4712 453.9432,907.7966 450,986 396,994.5 399.9372,908.0499 403.9368,820.2279" fill="#FFFFFF" stroke="#FF6A5D" stroke-width="1.2"/>
    <polygon points="738,765 792,756.5 795.0708,819.5768 798.0936,881.671 801.0696,942.8047 804,1003 751.2,1003 747.9744,944.8328 744.6996,885.7918 741.3756,825.8532" fill="#EFFBFF" stroke="#7CFFDA" stroke-width="1.2"/>
    <polygon points="1116,629 1200,586.5 1200,1198.5 1136.4,1227.4" fill="url(#grad_2362050017)" stroke="#07101A" stroke-width="2"/>
    <polygon points="138,331.5 194.4,365.5 186,1003 129.6,1040.4" fill="url(#grad_686613449)" stroke="#69D7FF" stroke-width="1.2" opacity="0.88"/>
    <polygon points="0,875.5 74.508,872.202 137.7108,869.4038 192,867 185.6004,957.6661 179.6124,1042.4842 174,1122 123.9192,1141.5721 66.4992,1164.0121 0,1190 0,1093.5981 0,989.1195" fill="#FFECC8" stroke="#FF9B3A" stroke-width="2" opacity="0.95"/>
    <polygon points="294,535.5 363.9264,563.2746 422.4,586.5 417.6588,650.6155 413.0616,712.7726 408.6036,773.0597 404.2776,831.5567 400.0788,888.3469 396,943.5 340.8516,951.3132 276,960.5 278.742,895.7674 281.5788,828.7653 284.5188,759.373 287.5644,687.4596 290.7228,612.8857" fill="#F8FFFF" stroke="#8BDDFF" stroke-width="2" opacity="0.92"/>
    <polygon points="300,612 341.058,625.9094 377.6244,638.2973 410.4,649.4 406.3584,713.1058 402.4212,775.1558 398.5848,835.6146 394.8456,894.5451 391.2,952 359.5968,957.0881 324.5904,962.7236 285.6,969 288.3084,901.8415 291.0996,832.6583 293.976,761.3569 296.9412,687.8387" fill="#182332" stroke="#CBEFFF" stroke-width="1.2" opacity="0.65"/>
    <path d="M0,1225.6932 C1.2396,1224.8993 370.5096,1073.0332 371.7492,1072.6932 C372.9888,1072.3532 372.9888,1122.8993 371.7492,1123.6932 C370.5096,1124.4871 1.2396,1310.3532 0,1310.6932 C-1.2396,1311.0332 -1.2396,1226.4871 0,1225.6932 Z" fill="#000000" stroke="none" stroke-width="1.2" opacity="0.22" style="mix-blend-mode:multiply" filter="url(#blur_5.00)"/>
    <path d="M827.7492,1064.1932 C828.9888,1064.7032 1198.5096,1275.7293 1199.7492,1276.6932 C1200.9888,1277.6571 1200.9888,1353.7032 1199.7492,1353.1932 C1198.5096,1352.6832 828.9888,1124.6571 827.7492,1123.6932 C826.5096,1122.7293 826.5096,1063.6832 827.7492,1064.1932 Z" fill="#000000" stroke="none" stroke-width="1.2" opacity="0.22" style="mix-blend-mode:multiply" filter="url(#blur_5.00)"/>
    <polygon points="42,0 78.8544,8.7023 115.1304,17.2669 150.8412,25.6989 186,34 184.752,57.8714 183.5148,81.532 182.2884,104.9818 181.0728,128.2259 179.868,151.266 178.674,174.1038 177.4908,196.7444 176.3172,219.1895 175.1532,241.4391 174,263.5 140.2716,257.2678 106.0356,250.9421 71.2824,244.5195 36,238 36.576,215.1503 37.1568,192.0983 37.7436,168.8389 38.3352,145.3704 38.9316,121.6894 39.5352,97.7942 40.1424,73.6797 40.7556,49.3459 41.3748,24.786" fill="#EFFFFF" stroke="#56F7FF" stroke-width="2"/>
    <path d="M0,1215.5 C1.2396,1214.7061 370.7604,1062.84 372,1062.5 C373.2396,1062.16 373.2396,1112.7061 372,1113.5 C370.7604,1114.2939 1.2396,1300.16 0,1300.5 C-1.2396,1300.84 -1.2396,1216.2939 0,1215.5 Z" fill="#F4E7DC" stroke="#A66A6E" stroke-width="1.2"/>
    <path d="M828,1054 C829.2396,1054.51 1198.7604,1265.5361 1200,1266.5 C1201.2396,1267.4639 1201.2396,1343.51 1200,1343 C1198.7604,1342.49 829.2396,1114.4639 828,1113.5 C826.7604,1112.5361 826.7604,1053.49 828,1054 Z" fill="#F7DBE5" stroke="#A74A71" stroke-width="1.2"/>
    <polygon points="198,263.5 288,289 278.4,552.5 189.6,527" fill="#E9FF75" stroke="#F8FFB7" stroke-width="2"/>
    <polygon points="864,382.5 1128,340 1122,527 846,561" fill="#F4FFFF" stroke="#63F3FF" stroke-width="2"/>
    <path d="M18,1156 C21,1150.3339 110.4,1111.2339 114,1113.5 C117.6,1115.7661 129,1218.3339 126,1224 C123,1229.6661 27.6,1285.7661 24,1283.5 C20.4,1281.2339 15,1161.6661 18,1156 Z" fill="#233A50" stroke="none" stroke-width="6" opacity="0.42"/>
    <path d="M984,1173 C990.6,1172.15 1175.1996,1292 1182,1300.5 C1188.8004,1309 1194.6,1427.15 1188,1428 C1181.4,1428.85 990.8004,1334.5 984,1326 C977.1996,1317.5 977.4,1173.85 984,1173 Z" fill="#40254F" stroke="none" stroke-width="6" opacity="0.42"/>
    <path d="M0,1130.5 C9,1121.6464 206.4996,1053.6464 216,1054 C225.5004,1054.3536 237,1130.1464 228,1139 C219,1147.8536 9.5004,1266.8536 0,1266.5 C-9.5004,1266.1464 -9,1139.3536 0,1130.5 Z" fill="#000000" stroke="none" stroke-width="6" opacity="0.28" style="mix-blend-mode:multiply" filter="url(#blur_5.00)"/>
    <path d="M864,1054 C876.9996,1056.125 1185.9996,1179.375 1200,1190 C1214.0004,1200.625 1212.9996,1311.125 1200,1309 C1187.0004,1306.875 902.0004,1149.625 888,1139 C873.9996,1128.375 851.0004,1051.875 864,1054 Z" fill="#000000" stroke="none" stroke-width="6" opacity="0.28" style="mix-blend-mode:multiply" filter="url(#blur_5.00)"/>
    <polygon points="204,748 255.6,765 254.388,804.7018 253.1796,844.2931 251.9748,883.7705 250.7724,923.1374 249.5748,962.3938 248.3796,1001.5397 247.188,1040.5734 246,1079.5 194.4,1082.9 195.588,1041.4761 196.7784,999.9281 197.9724,958.2543 199.1712,916.4564 200.3724,874.5327 201.5784,832.4815 202.7868,790.3045" fill="#6A0825" stroke="#FF2E64" stroke-width="2"/>
    <polygon points="960,578 1128,544 1140,875.5 978,892.5" fill="#19284A" stroke="#F3F8FF" stroke-width="2"/>
    <polygon points="786,790.5 866.4,778.6 868.2924,859.9314 870.1212,938.5207 871.89,1014.5005 873.6,1088 798,1088 795.144,1017.1916 792.1944,944.0831 789.1488,868.5589" fill="#19FF86" stroke="#D7FFE9" stroke-width="2"/>
    <path d="M0,1122 C9,1113.1464 206.4996,1045.1464 216,1045.5 C225.5004,1045.8536 237,1121.6464 228,1130.5 C219,1139.3536 9.5004,1258.3536 0,1258 C-9.5004,1257.6464 -9,1130.8536 0,1122 Z" fill="#14202E" stroke="none" stroke-width="6" opacity="0.62"/>
    <path d="M864,1045.5 C876.9996,1047.625 1185.9996,1170.875 1200,1181.5 C1214.0004,1192.125 1212.9996,1302.625 1200,1300.5 C1187.0004,1298.375 902.0004,1141.125 888,1130.5 C873.9996,1119.875 851.0004,1043.375 864,1045.5 Z" fill="#151D2E" stroke="none" stroke-width="6" opacity="0.62"/>
    <polygon points="1038,935 1128,926.5 1134,1156 1047.6,1164.5" fill="#FFFFFF" stroke="#FF3156" stroke-width="2"/>
    <polygon points="294,561 432,612 408,952 278.4,969" fill="url(#grad_1807908887)" stroke="#121923" stroke-width="2"/>
    <polygon points="1032,1037 1200,1122 1200,1394 1068,1300.5" fill="url(#grad_3452477074)" stroke="#312230" stroke-width="2"/>
    <polygon points="1134,688.5 1182,676.6 1188,850 1142.4,858.5" fill="#FF67C9" stroke="#FFD7F1" stroke-width="1.2"/>
    <polygon points="1136.4,875.5 1194,861.9 1200,1037 1146,1045.5" fill="#48E6FF" stroke="#E6FFFF" stroke-width="1.2"/>
    <polygon points="0,0 60,0 66,1700 0,1700" fill="#01040A" stroke="none" stroke-width="6" opacity="0.42"/>
    <polygon points="1146,0 1200,0 1200,1700 1128,1700" fill="#01040A" stroke="none" stroke-width="6" opacity="0.36"/>
    <path d="M36,306 C36,306 174,357 174,357 M33.6,459 C33.6,459 171.6,499.8 171.6,499.8 M31.2,612 C31.2,612 168,642.6 168,642.6 M30,765 C30,765 164.4,785.4 164.4,785.4 M290.4,654.5 C290.4,654.5 404.4,688.5 404.4,688.5 M286.8,739.5 C286.8,739.5 402,765 402,765 M283.2,824.5 C283.2,824.5 398.4,841.5 398.4,841.5 M279.6,909.5 C279.6,909.5 393.6,918 393.6,918 M348,603.5 C348,603.5 333.6,952 333.6,952 M386.4,620.5 C386.4,620.5 372,943.5 372,943.5" fill="none" stroke="#A9C0C9" stroke-width="1.2" opacity="0.65"/>
    <path d="M957.6,603.5 C957.6,603.5 1134,569.5 1134,569.5 M963.6,688.5 C963.6,688.5 1137.6,654.5 1137.6,654.5 M969.6,773.5 C969.6,773.5 1142.4,739.5 1142.4,739.5 M975.6,858.5 C975.6,858.5 1147.2,833 1147.2,833 M1110,595 C1110,595 1128,1173 1128,1173 M1149.6,578 C1149.6,578 1170,1190 1170,1190 M846,612 C846,612 1128,569.5 1128,569.5 M846,688.5 C846,688.5 1128,646 1128,646" fill="none" stroke="#C4DFE8" stroke-width="1.2" opacity="0.56"/>
    <polygon points="402,773.5 438,782 435.8784,835.686 433.77,888.9946 431.6784,941.9309 429.6,994.5 393.6,999.6 395.6772,943.704 397.7688,887.3932 399.876,830.6591" fill="#FFF7F0" stroke="#FF4A58" stroke-width="1.2"/>
    <polygon points="336,688.5 378,705.5 375.4404,756.2722 372.9636,805.3818 370.5672,852.9053 368.2476,898.9209 366,943.5 326.4,952 328.1856,902.989 330.0348,852.2321 331.9512,799.6341 333.9384,745.093" fill="#E9FFFF" stroke="#71E6FF" stroke-width="1.2"/>
    <polygon points="732,782 770.4,775.2 772.326,819.1977 774.2496,863.1257 776.1696,906.9857 778.086,950.7777 780,994.5 741.6,997.9 739.686,954.8526 737.7684,911.7389 735.8484,868.5606 733.926,825.3126" fill="#F8FFFF" stroke="#65F2FF" stroke-width="1.2"/>
    <polygon points="261.6,858.5 302.4,867 292.8,1011.5 252,1016.6" fill="#FFB443" stroke="#FFF0AA" stroke-width="1.2"/>
    <polygon points="799.2,858.5 846,850 854.4,1045.5 808.8,1045.5" fill="#26FF78" stroke="#E6FFF0" stroke-width="1.2"/>
    <polygon points="864,909.5 900,904.4 909.6,1088 873.6,1088" fill="#FF4BAC" stroke="#FFE1F2" stroke-width="1.2"/>
    <text x="980.4" y="450.5" font-size="76.5" font-family="sans-serif, Apple Symbols, sans-serif" font-weight="normal" font-style="normal" text-anchor="middle" fill="#69B9D8" stroke="none" stroke-width="6">道頓堀</text>
    <path d="M1032,620.5 C1040.25,614.2661 1085.4,625.0339 1092,637.5 C1098.6,649.9661 1105.65,738.5786 1104,756.5 C1102.35,774.4214 1081.7004,829.1036 1074,833 C1066.2996,836.8964 1026.6,810.6875 1020,799 C1013.4,787.3125 1000.8996,721.8625 1002,705.5 C1003.1004,689.1375 1023.75,626.7339 1032,620.5 Z" fill="#F0D3C9" stroke="#2D1832" stroke-width="2"/>
    <text x="834" y="909.5" font-size="85" font-family="sans-serif, Apple Symbols, sans-serif" font-weight="normal" font-style="normal" text-anchor="middle" fill="#FFFFFF" stroke="none" stroke-width="6">薬</text>
    <text x="238.8" y="326.4" font-size="45.9" font-family="sans-serif, Apple Symbols, sans-serif" font-weight="normal" font-style="normal" text-anchor="middle" fill="#A84ACC" stroke="none" stroke-width="6">高</text>
    <text x="238.8" y="382.5" font-size="45.9" font-family="sans-serif, Apple Symbols, sans-serif" font-weight="normal" font-style="normal" text-anchor="middle" fill="#A84ACC" stroke="none" stroke-width="6">収</text>
    <text x="238.8" y="438.6" font-size="45.9" font-family="sans-serif, Apple Symbols, sans-serif" font-weight="normal" font-style="normal" text-anchor="middle" fill="#A84ACC" stroke="none" stroke-width="6">入</text>
    <text x="238.8" y="494.7" font-size="45.9" font-family="sans-serif, Apple Symbols, sans-serif" font-weight="normal" font-style="normal" text-anchor="middle" fill="#A84ACC" stroke="none" stroke-width="6">求</text>
    <text x="238.8" y="550.8" font-size="45.9" font-family="sans-serif, Apple Symbols, sans-serif" font-weight="normal" font-style="normal" text-anchor="middle" fill="#A84ACC" stroke="none" stroke-width="6">人</text>
    <path d="M1010.4,612 C1019.4,607.75 1092.8004,619.0839 1101.6,629 C1110.3996,638.9161 1117.2996,715.4161 1116,731 C1114.7004,746.5839 1091.0004,816 1086,816 C1080.9996,816 1062.9996,734.4 1056,731 C1049.0004,727.6 1007.1996,779.45 1002,775.2 C996.8004,770.95 992.9004,693.6 993.6,680 C994.2996,666.4 1001.4,616.25 1010.4,612 Z" fill="#15172B" stroke="#07101C" stroke-width="2"/>
    <text x="1084.8" y="1062.5" font-size="81.6" font-family="sans-serif, Apple Symbols, sans-serif" font-weight="normal" font-style="normal" text-anchor="middle" fill="#E52945" stroke="none" stroke-width="6">50</text>
    <path d="M54,8.5 L48,246.5 M78,13.6 L72,251.6 M102,20.4 L96,256.7 M126,27.2 L120,260.1 M150,32.3 L144,263.5 M174,37.4 L168,263.5" fill="none" stroke="#5BF7FF" stroke-width="1.2" opacity="0.92"/>
    <path d="M372,1033.6 C393.9996,1032.4661 480,1026.8 504,1026.8 C528,1026.8 633.9996,1033.6 660,1033.6 C686.0004,1033.6 789.9996,1027.9339 816,1026.8 M348,1062.5 C375.9996,1061.0839 488.0004,1054 516,1054 C543.9996,1054 656.0004,1062.5 684,1062.5 C711.9996,1062.5 824.0004,1055.4161 852,1054 M324,1096.5 C356.0004,1094.5161 485.0004,1084.4589 516,1084.6 C546.9996,1084.7411 665.0004,1097.9161 696,1098.2 C726.9996,1098.4839 855.9996,1089.7 888,1088 M288,1139 C326.0004,1136.1661 480,1122 516,1122 C552,1122 684.9996,1138.7161 720,1139 C755.0004,1139.2839 900,1127.6661 936,1125.4" fill="none" stroke="#D7FDFF" stroke-width="1.2" opacity="0.55"/>
    <polygon points="21.6,399.5 70.9776,413.1272 114,425 113.1288,484.279 112.2612,543.2214 111.3996,601.8323 110.5428,660.1117 109.6908,718.0647 108.8424,775.693 108,833 65.4708,848.8542 16.8,867 17.472,801.499 18.1488,735.5764 18.8304,669.2288 19.5168,602.4511 20.2068,535.2399 20.9004,467.5918" fill="#1A2430" stroke="#D3B77B" stroke-width="1.2" opacity="0.8"/>
    <path d="M0,1130.5 C2.1,1129.3661 123.8004,1063.4911 126,1062.5 C128.1996,1061.5089 261.9,1012.0661 264,1011.5 C266.1,1010.9339 376.1004,994.7839 378,994.5 M0,1198.5 C2.1,1197.225 123.8004,1123.1339 126,1122 C128.1996,1120.8661 261.9,1063.2089 264,1062.5 C266.1,1061.7911 376.1004,1037.425 378,1037 M48,1105 C48,1105 48,1249.5 48,1249.5 M114,1067.6 C114,1067.6 114,1198.5 114,1198.5 M180,1040.4 C180,1040.4 180,1159.4 180,1159.4 M252,1013.2 C252,1013.2 252,1115.2 252,1115.2 M324,999.6 C324,999.6 324,1074.4 324,1074.4" fill="none" stroke="#D8E8E8" stroke-width="2" opacity="0.9"/>
    <path d="M822,994.5 C824.1,995.2089 945.8496,1036.0089 948,1037 C950.1504,1037.9911 1077.9,1112.0125 1080,1113.5 C1082.1,1114.9875 1197.9996,1213.8 1200,1215.5 M822,1037 C824.1,1037.85 945.8496,1086.8661 948,1088 C950.1504,1089.1339 1077.9,1171.3714 1080,1173 C1082.1,1174.6286 1197.9996,1281.6589 1200,1283.5 M876,1013.2 C876,1013.2 876,1105 876,1105 M942,1040.4 C942,1040.4 942,1147.5 942,1147.5 M1008,1074.4 C1008,1074.4 1008,1198.5 1008,1198.5 M1080,1116.9 C1080,1116.9 1080,1258 1080,1258 M1152,1181.5 C1152,1181.5 1152,1326 1152,1326" fill="none" stroke="#D8E8E8" stroke-width="2" opacity="0.9"/>
    <polygon points="237.6,620.5 278.094,646.5763 312.924,669.0044 343.2,688.5 339.96,750.9852 336.7824,812.2855 333.6636,872.4332 330.6036,931.4606 327.6,989.4 297.7752,990.8739 263.7012,992.5586 224.4,994.5 226.9188,923.134 229.4964,850.1088 232.134,775.37 234.834,698.8564" fill="#142132" stroke="#A8C0CA" stroke-width="1.2" opacity="0.82"/>
    <path d="M48,1232.5 C48,1232.5 90,1215.5 90,1215.5 M114,1203.6 C114,1203.6 156,1186.6 156,1186.6 M180,1176.4 C180,1176.4 222,1159.4 222,1159.4 M246,1149.2 C246,1149.2 288,1132.2 288,1132.2 M864,1079.5 C864,1079.5 912,1105 912,1105 M936,1122 C936,1122 984,1147.5 984,1147.5 M1008,1164.5 C1008,1164.5 1056,1190 1056,1190 M1080,1207 C1080,1207 1140,1241 1140,1241" fill="none" stroke="#E73366" stroke-width="2" opacity="0.74"/>
    <polygon points="873.6,620.5 932.6028,611.9269 991.2684,603.4031 1049.5992,594.9269 1107.6,586.5 1109.9424,645.1109 1112.256,703.0418 1114.5444,760.3063 1116.8064,816.9129 1119.042,872.8752 1121.2524,928.2034 1123.4388,982.9077 1125.6,1037 1070.2548,1046.2735 1014.6084,1055.598 958.6572,1064.9735 902.4,1074.4 898.944,1019.9252 895.4472,964.8248 891.9108,909.0903 888.3336,852.7115 884.7144,795.6731 881.0532,737.9666 877.3488,679.5801" fill="#132136" stroke="#B7D8E4" stroke-width="1.2" opacity="0.62"/>
    <polygon points="153.6,374 180,387.6 179.6124,435.2935 179.2212,483.2471 178.83,531.4608 178.4352,579.9397 178.038,628.6821 177.6396,677.6931 177.2388,726.9727 176.8356,776.5243 176.43,826.3513 176.022,876.4554 175.6128,926.8366 175.2,977.5 147.6,996.2 148.116,942.6755 148.6296,889.4638 149.1396,836.5615 149.646,783.9686 150.1512,731.6817 150.6516,679.6974 151.1508,628.0123 151.6464,576.6247 152.1384,525.5329 152.6292,474.7318 153.1152,424.2231" fill="none" stroke="#A8C6D2" stroke-width="1.2" opacity="0.8"/>
    <polygon points="216,569.5 390,663 386.0388,727.974 382.1448,791.8549 378.3156,854.6733 374.5488,916.453 370.8444,977.2212 367.2,1037 198,1045.5 200.8452,970.2614 203.7492,893.4537 206.7156,815.0276 209.7444,734.9287 212.838,653.106" fill="none" stroke="#C9D5D9" stroke-width="1.2" opacity="0.42"/>
    <polygon points="309.6,671.5 359.892,690.0062 402,705.5 398.9016,762.5537 395.8704,818.38 392.904,873.0163 390,926.5 348.8028,930.3913 300,935 302.3088,871.624 304.6776,806.6245 307.1064,739.9386" fill="#3F4B54" stroke="#EDFBFF" stroke-width="1.2" opacity="0.72"/>
    <polygon points="252,450.5 342,501.5 336,552.5 244.8,506.6" fill="#202734" stroke="#97A9B4" stroke-width="1.2"/>
    <polygon points="963.2868,651.3448 1101.8064,608.9417 1107.5604,670.0958 1113.4164,732.3243 1119.3756,795.6544 1125.4416,860.1133 1131.6168,925.735 1137.9036,992.5518 1144.3056,1060.5926 1150.8276,1129.8931 1001.6676,1170.3174 996.5652,1101.3212 991.554,1033.566 986.634,967.0195 981.7992,901.6511 977.0496,837.4285 972.3828,774.3228 967.7952,712.3051" fill="#CCCCCC" stroke="#333333" stroke-width="6"/>
    <polygon points="828,484.5 1128,433.5 1200,433.5 918,527" fill="#B6C2C9" stroke="#07101A" stroke-width="2" opacity="0.9"/>
    <polygon points="1134,688.5 1164.1488,675.6871 1194,663 1194.7752,725.6195 1195.5204,785.7349 1196.2356,843.4924 1196.9232,899.0314 1197.5844,952.4743 1198.2216,1003.9384 1198.836,1053.5308 1199.4288,1101.3552 1200,1147.5 1174.9056,1160.1973 1149.6,1173 1148.1168,1126.9198 1146.5784,1079.1498 1144.9824,1029.5965 1143.3264,978.1562 1141.6056,924.7201 1139.8176,869.1709 1137.9564,811.3777 1136.0184,751.2045" fill="#162030" stroke="#80F4FF" stroke-width="1.2" opacity="0.58"/>
    <polyline points="42,1200.2 42,1251.2 84,1169.6 84,1225.7 126,1140.7 126,1191.7 168,1115.2 168,1162.8 216,1089.7 216,1132.2 264,1064.2 264,1106.7 72,1353.2 72,1429.7 126,1310.7 126,1390.6 180,1276.7 180,1356.6 240,1242.7 240,1319.2 132,1557.2 132,1650.7 204,1497.7 204,1591.2 282,1446.7 282,1540.2" fill="#000000" stroke="none" stroke-width="5" opacity="0.28" style="mix-blend-mode:multiply" filter="url(#blur_4.00)"/>
    <polyline points="864,1098.2 864,1149.2 918,1123.7 918,1179.8 972,1157.7 972,1217.2 1026,1200.2 1026,1268.2 1086,1251.2 1086,1324.3 1152,1310.7 1152,1395.7 900,1395.7 900,1480.7 966,1438.2 966,1531.7 1038,1497.7 1038,1599.7 1116,1560.6 1116,1676.2" fill="#000000" stroke="none" stroke-width="5" opacity="0.28" style="mix-blend-mode:multiply" filter="url(#blur_4.00)"/>
    <polygon points="1068,1122 1100.6796,1138.4611 1136.52,1156.5134 1176,1176.4 1182.246,1249.8485 1188,1317.5 1150.9608,1292.8075 1117.0908,1270.2281 1086,1249.5 1077.3228,1188.0365" fill="#3A2138" stroke="#FFD8EE" stroke-width="1.2" opacity="0.65"/>
    <path d="M1142.4,612 C1142.4,612 1178.4,601.8 1178.4,601.8 M1146,714 C1146,714 1183.2,700.4 1183.2,700.4 M1149.6,816 C1149.6,816 1188,799 1188,799 M1154.4,918 C1154.4,918 1192.8,897.6 1192.8,897.6 M1158,1020 C1158,1020 1197.6,996.2 1197.6,996.2 M1161.6,1122 C1161.6,1122 1200,1096.5 1200,1096.5" fill="none" stroke="#839CAC" stroke-width="1.2" opacity="0.55"/>
    <path d="M42,1190 L42,1241 M84,1159.4 L84,1215.5 M126,1130.5 L126,1181.5 M168,1105 L168,1152.6 M216,1079.5 L216,1122 M264,1054 L264,1096.5 M72,1343 L72,1419.5 M126,1300.5 L126,1380.4 M180,1266.5 L180,1346.4 M240,1232.5 L240,1309 M132,1547 L132,1640.5 M204,1487.5 L204,1581 M282,1436.5 L282,1530" fill="none" stroke="#0C1420" stroke-width="5" opacity="0.95"/>
    <path d="M864,1088 L864,1139 M918,1113.5 L918,1169.6 M972,1147.5 L972,1207 M1026,1190 L1026,1258 M1086,1241 L1086,1314.1 M1152,1300.5 L1152,1385.5 M900,1385.5 L900,1470.5 M966,1428 L966,1521.5 M1038,1487.5 L1038,1589.5 M1116,1550.4 L1116,1666" fill="none" stroke="#0C1420" stroke-width="5" opacity="0.95"/>
    <path d="M42,1183.2 L46.8,1183.2 M84,1152.6 L88.8,1152.6 M168,1098.2 L172.8,1098.2 M72,1336.2 L78,1336.2 M180,1259.7 L186,1259.7 M282,1429.7 L288,1429.7 M864,1081.2 L868.8,1081.2 M972,1140.7 L978,1140.7 M1086,1234.2 L1092,1234.2 M966,1421.2 L972,1421.2 M1116,1543.6 L1122,1543.6" fill="none" stroke="#FFD4B8" stroke-width="3" opacity="0.78"/>
    <path d="M947.1636,1424.549 C960.0432,1419.3929 1176.804,1369.5829 1187.1636,1373.549 C1197.5232,1377.5151 1177.5636,1502.0129 1169.1636,1509.549 C1160.7636,1517.0851 1019.2032,1536.239 1007.1636,1535.049 C995.124,1533.859 913.9632,1489.2051 911.1636,1484.049 C908.364,1478.8929 934.284,1429.7051 947.1636,1424.549 Z" fill="#000000" stroke="none" stroke-width="3" opacity="0.34" style="mix-blend-mode:multiply" filter="url(#blur_8.00)"/>
    <path d="M948,1411 C960.8796,1405.8439 1177.6404,1356.0339 1188,1360 C1198.3596,1363.9661 1178.4,1488.4639 1170,1496 C1161.6,1503.5361 1020.0396,1522.69 1008,1521.5 C995.9604,1520.31 914.7996,1475.6561 912,1470.5 C909.2004,1465.3439 935.1204,1416.1561 948,1411 Z" fill="url(#grad_2485755025)" stroke="#1D120B" stroke-width="3"/>
    <path d="M402,931.6 L402,952 M426,929.9 L426,953.7 M450,928.2 L450,953.7 M474,928.2 L474,953.7 M498,928.2 L498,953.7 M522,928.2 L522,953.7 M546,928.2 L546,953.7 M570,928.2 L570,953.7 M594,928.2 L594,953.7 M618,928.2 L618,953.7 M642,928.2 L642,953.7 M666,928.2 L666,953.7 M690,928.2 L690,953.7 M714,928.2 L714,953.7 M738,929.9 L738,953.7 M762,931.6 L762,952 M786,933.3 L786,952" fill="none" stroke="#121820" stroke-width="3" opacity="0.82"/>
    <path d="M984,1343 C990.2004,1339.3161 1139.6004,1316.0839 1146,1317.5 C1152.3996,1318.9161 1182.2004,1381.8161 1176,1385.5 C1169.7996,1389.1839 966.3996,1429.4161 960,1428 C953.6004,1426.5839 977.7996,1346.6839 984,1343 Z" fill="#FFF5DA" stroke="#2B2A2C" stroke-width="2"/>
    <path d="M996,1385.5 L996,1441.6 M1038,1371.9 L1038,1428 M1080,1360 L1080,1419.5 M1122,1351.5 L1122,1405.9" fill="none" stroke="#16202D" stroke-width="4" opacity="0.9"/>
    <path d="M198,263.5 C198.6,263.67 287.7324,288.0361 288,289 C288.2676,289.9639 278.4636,550.7439 278.4,552.5 M204,748 C204.3444,748.1139 255.4596,763.895 255.6,765 C255.7404,766.105 246.0636,1077.4039 246,1079.5 M786,790.5 C786.5364,790.4201 866.1084,777.6089 866.4,778.6 C866.6916,779.5911 873.552,1085.9379 873.6,1088 M1038,935 C1038.6,934.9439 1127.6796,925.7639 1128,926.5 C1128.3204,927.2361 1133.9604,1154.47 1134,1156 M864,382.5 C865.7604,382.2161 1127.1396,339.5189 1128,340 C1128.8604,340.4811 1122.0396,525.7539 1122,527 M960,578 C961.1196,577.7739 1127.4,543.0089 1128,544 C1128.6,544.9911 1139.9196,873.29 1140,875.5" fill="none" stroke="#FFFFFF" stroke-width="1.2" opacity="0.7"/>
    <path d="M456,816 L463.2,816 M486,799 L493.2,799 M516,833 L523.2,833 M546,790.5 L553.2,790.5 M576,850 L583.2,850 M606,807.5 L613.2,807.5 M636,836.4 L643.2,836.4 M666,799 L673.2,799 M696,858.5 L703.2,858.5 M726,824.5 L733.2,824.5 M468,892.5 L475.2,892.5 M516,909.5 L523.2,909.5 M564,887.4 L571.2,887.4 M612,918 L619.2,918 M660,894.2 L667.2,894.2 M708,914.6 L715.2,914.6" fill="none" stroke="#FFE8A3" stroke-width="2" opacity="0.76"/>
    <path d="M918,1470.5 C927.9,1474.835 970.95,1496.2125 984,1499.4 C997.05,1502.5875 1075.8,1510.96 1092,1513 M930,1436.5 C941.7,1439.815 993.15,1456.9425 1008,1458.6 C1022.85,1460.2575 1110,1458.6 1128,1458.6 M942,1411 C942,1411 972,1402.5 972,1402.5 M1146,1368.5 C1146,1368.5 1178.4,1360 1178.4,1360" fill="none" stroke="#FFF6A5" stroke-width="2" opacity="0.8"/>
    <path d="M408,824.5 C408,824.5 429.6,824.5 429.6,824.5 M408,875.5 C408,875.5 429.6,875.5 429.6,875.5 M408,926.5 C408,926.5 429.6,926.5 429.6,926.5 M343.2,739.5 C343.2,739.5 368.4,739.5 368.4,739.5 M340.8,795.6 C340.8,795.6 366,795.6 366,795.6 M338.4,853.4 C338.4,853.4 363.6,853.4 363.6,853.4 M741.6,833 C741.6,833 770.4,833 770.4,833 M744,887.4 C744,887.4 774,887.4 774,887.4 M747.6,943.5 C747.6,943.5 777.6,943.5 777.6,943.5 M811.2,926.5 C811.2,926.5 843.6,926.5 843.6,926.5 M812.4,986 C812.4,986 849.6,986 849.6,986 M873.6,960.5 C873.6,960.5 906,960.5 906,960.5 M876,1023.4 C876,1023.4 909.6,1023.4 909.6,1023.4" fill="none" stroke="#FFFFFF" stroke-width="1.2" opacity="0.82"/>
    <path d="M408,926.5 L410.4,926.5 M432,924.8 L434.4,924.8 M456,923.1 L458.4,923.1 M480,923.1 L482.4,923.1 M504,923.1 L506.4,923.1 M528,923.1 L530.4,923.1 M552,923.1 L554.4,923.1 M576,923.1 L578.4,923.1 M600,923.1 L602.4,923.1 M624,923.1 L626.4,923.1 M648,923.1 L650.4,923.1 M672,923.1 L674.4,923.1 M696,923.1 L698.4,923.1 M720,924.8 L722.4,924.8 M744,926.5 L746.4,926.5 M768,928.2 L770.4,928.2" fill="none" stroke="#FFD2B8" stroke-width="2" opacity="0.76"/>
    <path d="M30,1130.5 L30,1173 M60,1116.9 L60,1164.5 M90,1105 L90,1149.2 M120,1091.4 L120,1135.6 M150,1081.2 L150,1123.7 M180,1069.3 L180,1111.8 M210,1059.1 L210,1099.9 M42,1198.5 L42,1249.5 M84,1176.4 L84,1229.1 M126,1156 L126,1207 M168,1133.9 L168,1183.2" fill="none" stroke="#080D16" stroke-width="4" opacity="0.92"/>
    <path d="M882,1062.5 L882,1110.1 M918,1074.4 L918,1125.4 M954,1091.4 L954,1145.8 M990,1110.1 L990,1167.9 M1026,1130.5 L1026,1190 M1068,1159.4 L1068,1224 M1110,1190 L1110,1258 M1152,1220.6 L1152,1295.4 M900,1147.5 L900,1207 M972,1186.6 L972,1249.5 M1050,1237.6 L1050,1305.6 M1128,1295.4 L1128,1368.5" fill="none" stroke="#080D16" stroke-width="4" opacity="0.92"/>
    <path d="M60,1111.8 L64.8,1111.8 M120,1084.6 L124.8,1084.6 M180,1062.5 L184.8,1062.5 M84,1169.6 L88.8,1169.6 M168,1127.1 L172.8,1127.1 M918,1067.6 L922.8,1067.6 M990,1103.3 L994.8,1103.3 M1068,1152.6 L1072.8,1152.6 M1152,1213.8 L1156.8,1213.8 M972,1179.8 L976.8,1179.8 M1128,1288.6 L1132.8,1288.6" fill="none" stroke="#7FEAFF" stroke-width="3" opacity="0.72"/>
    <path d="M0,1088 C0,1088 378,994.5 378,994.5 M822,994.5 C822,994.5 1200,1088 1200,1088 M378,994.5 C378,994.5 24,1700 24,1700 M822,994.5 C822,994.5 1176,1700 1176,1700 M384,943.5 C384,943.5 816,943.5 816,943.5" fill="none" stroke="#060A11" stroke-width="3" opacity="0.82"/>
    <path d="M0,306 C0.8964,306.2839 133.9404,348.415 134.4,348.5 C134.8596,348.585 137.7996,331.4439 138,331.5 C138.2004,331.5561 194.0244,365.2739 194.4,365.5 M201.6,425 C202.776,426.2461 377.1924,610.98 378,612 C378.8076,613.02 443.5596,730.2061 444,731 M294,561 C294,561 432,612 432,612 M0,926.5 C0.84,926.16 125.3916,875.0461 126,875.5 C126.6084,875.9539 181.6524,1061.8489 182.4,1062.5 C183.1476,1063.1511 349.2804,1070.9439 350.4,1071" fill="none" stroke="#05080E" stroke-width="3" opacity="0.86"/>
    <path d="M846,527 C847.8804,526.7161 1126.8204,484.8111 1128,484.5 C1129.1796,484.1889 1199.52,433.84 1200,433.5 M942,561 C943.3596,560.83 1145.2524,533.3461 1146,535.5 C1146.7476,537.6539 1166.2644,1202.5239 1166.4,1207 M1116,629 C1116,629 1200,586.5 1200,586.5 M888,1130.5 C889.7196,1130.2161 1144.9596,1088.2261 1146,1088 C1147.0404,1087.7739 1199.64,1062.67 1200,1062.5" fill="none" stroke="#05080E" stroke-width="3" opacity="0.86"/>
    <path d="M282,442 C282,442 282,348.5 282,348.5 M282,365.5 C282,365.5 306,348.5 306,348.5 M318,476 C318,476 318,416.5 318,416.5 M1032,459 C1032,459 1032,374 1032,374 M1032,382.5 C1032,382.5 1092,340 1092,340 M1116,484.5 C1116,484.5 1116,399.5 1116,399.5 M1146,467.5 C1146,467.5 1146,391 1146,391 M54,884 C54,884 90,875.5 90,875.5 M96,850 C96,850 126,841.5 126,841.5" fill="none" stroke="#B8CAD2" stroke-width="1.2" opacity="0.78"/>
</svg>
