<?xml version="1.0" encoding="UTF-8"?>
<svg xmlns="http://www.w3.org/2000/svg"
     xmlns:xlink="http://www.w3.org/1999/xlink"
     width="1200" height="1700"
     viewBox="0 0 1200 1700">
  <rect width="100%" height="100%" fill="#06152D"/>
  <defs>
  <radialGradient id="grad_3064479250" cx="0.5" cy="0.48" r="0.65">
    <stop offset="0" stop-color="#0B5B8D"/>
    <stop offset="0.38" stop-color="#073764"/>
    <stop offset="1" stop-color="#030B1F"/>
  </radialGradient>

  <linearGradient id="grad_1114052023" x1="0" y1="0" x2="0" y2="1">
    <stop offset="0" stop-color="#073A53"/>
    <stop offset="0.45" stop-color="#062333"/>
    <stop offset="1" stop-color="#020711"/>
  </linearGradient>

  <linearGradient id="grad_2599027110" x1="0" y1="0" x2="1" y2="1">
    <stop offset="0.0" stop-color="#D7D4C8"/>
    <stop offset="0.55" stop-color="#A9AA9F"/>
    <stop offset="1.0" stop-color="#7E8379"/>
  </linearGradient>

  <linearGradient id="grad_93642380" x1="0" y1="0" x2="0" y2="1">
    <stop offset="0" stop-color="#7C8090"/>
    <stop offset="0.5" stop-color="#424755"/>
    <stop offset="1" stop-color="#171D2A"/>
  </linearGradient>

    <filter id="blur_5.00"><feGaussianBlur stdDeviation="5.00"/></filter>
    <filter id="blur_7.00"><feGaussianBlur stdDeviation="7.00"/></filter>
    <filter id="blur_8.00"><feGaussianBlur stdDeviation="8.00"/></filter>
  </defs>
  <clipPath id="clip_canal_water">
    <path d="M456,969 C456,969 744,969 744,969 C744,969 1092,1700 1092,1700 C1092,1700 96,1700 96,1700 C96,1700 456,969 456,969 Z"/>
  </clipPath>
    <polygon points="0,0 1200,0 1200,986 0,986" fill="url(#grad_3064479250)" stroke="none" stroke-width="0.96"/>
    <path d="M432,714 C433.4004,709.1839 502.2,645.4339 504,646 C505.8,646.5661 538.2,748.85 540,748 C541.8,747.15 609.9996,595.2839 612,595 C614.0004,594.7161 657.8004,729.8661 660,731 C662.1996,732.1339 741.9996,659.6 744,663 C746.0004,666.4 785.4,930.4661 780,935 C774.6,939.5339 425.7996,938.6839 420,935 C414.2004,931.3161 430.5996,718.8161 432,714 Z" fill="#162A3F" stroke="#284B68" stroke-width="0.96" opacity="0.78"/>
    <polygon points="0,0 128.64,99.9379 228.1368,177.2352 307.3872,238.8041 372,289 380.8152,391.4029 390.0588,498.7766 399.7608,611.4917 409.9596,729.9596 420.6912,854.6291 432,986 362.922,1010.4647 274.9812,1041.6104 159.2304,1082.6059 0,1139 0,906.491 0,693.991 0,499.0231 0,319.5014 0,153.663" fill="url(#grad_93642380)" stroke="#111722" stroke-width="1.2"/>
    <polygon points="840,340 900.1656,297.3827 975.2796,244.1778 1071.702,175.8769 1200,85 1200,228.9169 1200,387.4657 1200,562.9975 1200,758.3955 1200,977.2331 1200,1224 1031.7204,1131.2905 916.2348,1067.6663 832.068,1021.2971 768,986 781.9356,860.9684 795,743.75 807.2724,633.6359 818.8236,530.0005 829.7148,432.2862" fill="url(#grad_93642380)" stroke="#111722" stroke-width="1.2"/>
    <polygon points="456,969 744,969 1092,1700 96,1700" fill="url(#grad_1114052023)" stroke="#04121B" stroke-width="1.2"/>
    <polygon points="0,1037 134.784,1015.784 278.4792,993.1655 432,969 254.118,1355.9999 180,1517.25 139.3548,1605.6772 113.6844,1661.5256 96,1700 63.5172,1700 31.5216,1700 0,1700 0,1662.5371 0,1608.6981 0,1524.7402 0,1375.5737" fill="url(#grad_2599027110)" stroke="#6F746C" stroke-width="2.4"/>
    <polygon points="768,969 921.5208,993.1655 1065.216,1015.784 1200,1037 1200,1356.5184 1200,1509.5167 1200,1599.2614 1200,1658.2599 1200,1700 1164.6048,1700 1128.6096,1700 1092,1700 1072.9416,1657.0002 1045.7148,1595.5707 1003.6368,1500.6359 930,1334.5" fill="url(#grad_2599027110)" stroke="#6F746C" stroke-width="2.4"/>
    <path d="M36,0 C41.1996,-7.3661 174,-8.5 180,0 C186,8.5 221.1996,247.6339 216,255 C210.8004,262.3661 30,229.5 24,221 C18,212.5 30.8004,7.3661 36,0 Z" fill="#76FFFF" stroke="none" stroke-width="0.96" opacity="0.22"/>
    <polygon points="385.8,1024.42 457.2,1024.42 528.6,1024.42 600,1024.42 671.4,1024.42 742.8,1024.42 814.2,1024.42 789,1041.08 726,1041.08 663,1041.08 600,1041.08 537,1041.08 474,1041.08 411,1041.08" fill="#000000" stroke="none" stroke-width="2.4" opacity="0.22" style="mix-blend-mode:multiply" filter="url(#blur_8.00)" clip-path="url(#clip_canal_water)"/>
    <polygon points="0,357 77.6244,366.5625 138,374 139.1592,472.5711 140.3388,572.8133 141.5388,674.7691 142.7592,778.4827 144,884 81.4428,943.0818 0,1020 0,881.4619 0,745.9923 0,613.4892 0,483.8557" fill="url(#grad_93642380)" stroke="#111722" stroke-width="1.2"/>
    <polygon points="264,493 341.3328,538.6484 408,578 411.8436,697.7973 415.0284,797.0569 417.7104,880.6442 420,952 374.4612,943.9352 324,935 312.9708,853.7502 299.8068,756.7737 283.8216,639.0181" fill="url(#grad_93642380)" stroke="#111722" stroke-width="1.2"/>
    <polygon points="42,0 53.0088,0 64.332,0 75.9816,0 87.972,0 100.3188,0 113.0376,0 126.1476,0 139.6644,0 153.6084,0 168,0 198,238 177.9828,232.9357 158.7996,228.0839 140.4,223.4293 122.736,218.96 105.7644,214.6675 89.4456,210.5382 73.7436,206.5653 58.6224,202.7403 44.0508,199.0547 30,195.5" fill="#DDFEFF" stroke="#43F6FF" stroke-width="0.96" opacity="0.95"/>
    <path d="M840,340 C845.0004,336.3161 1134.8004,336.3161 1140,340 C1145.1996,343.6839 1157.0004,557.3161 1152,561 C1146.9996,564.6839 845.1996,564.6839 840,561 C834.8004,557.3161 834.9996,343.6839 840,340 Z" fill="#BFFFFF" stroke="none" stroke-width="0.96" opacity="0.24"/>
    <path d="M156,510 C158.0004,500.3661 262.2,516.8 264,527 C265.8,537.2 266.0004,1112.3661 264,1122 C261.9996,1131.6339 145.8,1115.2 144,1105 C142.2,1094.8 153.9996,519.6339 156,510 Z" fill="#FF297C" stroke="none" stroke-width="0.96" opacity="0.2"/>
    <path d="M1056,646 C1058.6004,636.3661 1197.6,602.3661 1200,612 C1202.4,621.6339 1202.6004,1214.3661 1200,1224 C1197.3996,1233.6339 1046.4,1199.6339 1044,1190 C1041.6,1180.3661 1053.3996,655.6339 1056,646 Z" fill="#FF4BC2" stroke="none" stroke-width="0.96" opacity="0.18"/>
    <polygon points="186,221 276,229.5 274.3296,291.0451 272.7804,348.0852 271.3416,401.0997 270,450.5 192,433.5 190.6512,385.747 189.2088,334.662 187.6632,279.8863" fill="#E6FF72" stroke="#F8FFBC" stroke-width="0.96"/>
    <polygon points="1104,595 1149,579.0625 1200,561 1200,633.25 1200,705.5 1200,777.75 1200,850 1200,922.25 1200,994.5 1200,1066.75 1200,1139 1149,1120.9375 1104,1105 1104,1041.25 1104,977.5 1104,913.75 1104,850 1104,786.25 1104,722.5 1104,658.75" fill="url(#grad_93642380)" stroke="#111722" stroke-width="1.2"/>
    <polygon points="348,663 456,714 456,821.3686 456,903.7676 456,969 384,952 375,879.75 363.4284,786.8569" fill="#F9FFFF" stroke="#6CCBFF" stroke-width="0.96"/>
    <polygon points="744,799 816,782 816,855.6661 816,929.3339 816,1003 744,1003 744,935 744,867" fill="#F3F7FF" stroke="#91E8FF" stroke-width="0.96"/>
    <polygon points="216,799 264,816 264,858.6156 264,904.8862 264,955.298 264,1010.4375 264,1071 204,1054 206.8572,993.2862 209.454,938.0906 211.8264,887.6958 213.9996,841.5" fill="#C4123D" stroke="#FF335F" stroke-width="0.96"/>
    <polygon points="864,374 1116,357 1128,527 864,527" fill="#F7FFFF" stroke="#55F2FF" stroke-width="0.96"/>
    <polygon points="792,833 864,816 864,879.7007 864,948.6323 864,1023.468 864,1105 780,1105 783.36,1028.84 786.462,958.5382 789.3336,893.4452" fill="#16FF83" stroke="#CFFFF0" stroke-width="0.96"/>
    <polygon points="960,527 1128,561 1116,867 948,850" fill="#203D6A" stroke="#E8FBFF" stroke-width="0.96"/>
    <polygon points="1008,935 1092,952 1092,1054 1092,1156 1008,1139 1008,1037" fill="#FFFFFF" stroke="#FF3156" stroke-width="0.96"/>
    <polygon points="396,935 464.0004,935 531.9996,935 600,935 668.0004,935 735.9996,935 804,935 780,994.5 720,994.5 660,994.5 600,994.5 540,994.5 480,994.5 420,994.5" fill="url(#grad_2599027110)" stroke="#6F746C" stroke-width="2.4"/>
    <path d="M432,969 C438.6,957.1 484.8,973.8161 480,986 C475.2,998.1839 150.6,1688.1 144,1700 C137.4,1711.9 79.2,1712.1839 84,1700 C88.8,1687.8161 425.4,980.9 432,969 Z" fill="#010711" stroke="none" stroke-width="0.96" opacity="0.55"/>
    <path d="M744,969 C739.5996,957.1 785.6004,973.8161 792,986 C798.3996,998.1839 1123.5996,1688.1 1128,1700 C1132.4004,1711.9 1062.3996,1712.1839 1056,1700 C1049.6004,1687.8161 748.4004,980.9 744,969 Z" fill="#010711" stroke="none" stroke-width="0.96" opacity="0.48"/>
    <path d="M624,1003 L660,1088 L636,1173 L672,1275 L648,1411 L684,1632 M732,1020 L780,1139 L756,1241 L816,1394 L792,1649 M528,1020 L504,1156 L552,1292 L516,1462 L564,1666" fill="none" stroke="#75F5FF" stroke-width="0.96" opacity="0.72"/>
    <path d="M372,1037 L420,1156 L384,1292 L444,1479 L408,1666 M864,1020 L900,1156 L876,1326 L936,1530 L900,1683 M588,1071 L612,1224 L600,1377 L636,1598" fill="none" stroke="#FF58C8" stroke-width="0.96" opacity="0.65"/>
    <path d="M288,1105 L324,1258 L288,1428 L348,1666 M216,1071 L240,1241 L216,1445 L264,1683" fill="none" stroke="#FFD45A" stroke-width="0.96" opacity="0.55"/>
    <path d="M384,1071 L540,1062.5 L696,1079.5 M336,1173 L564,1164.5 L864,1190 M288,1275 L504,1266.5 L792,1288.6 L984,1275 M216,1411 L480,1394 L828,1428 L1044,1411 M144,1564 L456,1530 L816,1581 L1092,1547 M120,1657.5 L432,1640.5 L852,1674.5 L1104,1649" fill="none" stroke="#DFFBFF" stroke-width="0.96" opacity="0.45"/>
    <path d="M996,1394 C986.0004,1379.8339 947.0004,1323.1661 936,1309 C924.9996,1294.8339 873.9996,1239.5839 864,1224 C854.0004,1208.4161 824.0004,1139 816,1122" fill="none" stroke="#FF58C8" stroke-width="0.96" opacity="0.6" stroke-linecap="round"/>
    <path d="M162,476 L156,1054 M186,459 L180,1054 M294,578 L312,986 M834,646 L840,1071 M906,544 L906,1054 M1134,731 L1128,1156 M1170,731 L1164,1190" fill="none" stroke="#FF2C86" stroke-width="0.96" opacity="0.85"/>
    <path d="M920.8908,1445.663 C929.2512,1444.133 1175.6508,1424.753 1184.8908,1425.263 C1194.1308,1425.773 1200.2904,1459.093 1198.0908,1460.963 C1195.8912,1462.833 1127.6904,1481.023 1118.8908,1481.363 C1110.0912,1481.703 940.6908,1472.353 934.0908,1471.163 C927.4908,1469.973 912.5304,1447.193 920.8908,1445.663 Z" fill="#000000" stroke="none" stroke-width="2.4" opacity="0.28" style="mix-blend-mode:multiply" filter="url(#blur_7.00)"/>
    <text x="228" y="280.5" font-size="54.4" font-family="sans-serif, Apple Symbols, sans-serif" font-weight="bold" font-style="normal" text-anchor="middle" fill="#A94BD5" stroke="none" stroke-width="0.96">高収入
求人</text>
    <text x="1050" y="1037" font-size="59.5" font-family="sans-serif, Apple Symbols, sans-serif" font-weight="bold" font-style="normal" text-anchor="middle" fill="#E52B45" stroke="none" stroke-width="0.96">50</text>
    <text x="1038" y="722.5" font-size="42.5" font-family="sans-serif, Apple Symbols, sans-serif" font-weight="bold" font-style="normal" text-anchor="middle" fill="#72C8FF" stroke="none" stroke-width="0.96" transform="rotate(-5,1038,722.5)">CINEMA</text>
    <path d="M54,0 L66,204 M68.4,0 L80.4,207.4 M82.8,0 L94.8,210.8 M97.2,0 L109.2,214.2 M111.6,0 L123.6,217.6 M126,0 L138,221 M140.4,0 L152.4,224.4 M154.8,0 L166.8,227.8" fill="none" stroke="#6FFFFF" stroke-width="0.96" opacity="0.9"/>
    <path d="M972,1337.9 C974.4,1337.3339 1125,1330.76 1128,1331.1 C1131,1331.44 1154.4,1357.7339 1152,1358.3 C1149.6,1358.8661 987,1365.44 984,1365.1 C981,1364.76 969.6,1338.4661 972,1337.9 Z" fill="#000000" stroke="none" stroke-width="2.4" opacity="0.2" style="mix-blend-mode:multiply" filter="url(#blur_5.00)"/>
    <path d="M936,1394 C943.5996,1388.9 1167.6,1324.3 1176,1326 C1184.4,1327.7 1190.0004,1438.7661 1188,1445 C1185.9996,1451.2339 1124.0004,1511.8661 1116,1513 C1107.9996,1514.1339 954,1482.9661 948,1479 C942,1475.0339 928.4004,1399.1 936,1394 Z" fill="#D1A32C" stroke="#241A12" stroke-width="2.4"/>
    <path d="M972,1292 C974.4,1290.5839 1125,1274.15 1128,1275 C1131,1275.85 1154.4,1341.5839 1152,1343 C1149.6,1344.4161 987,1360.85 984,1360 C981,1359.15 969.6,1293.4161 972,1292 Z" fill="#F3EFE0" stroke="#4A4030" stroke-width="2.4"/>
    <path d="M432,943.5 C444.6,942.1111 527.4,932.0964 540,931.6 C552.6,931.1036 634.7004,934.3064 648,935 C661.2996,935.6936 753.9996,942.5089 768,943.5" fill="none" stroke="#DFFBFF" stroke-width="2.4" opacity="0.65" stroke-linecap="round"/>
    <path d="M24,1190 L396,1122 M18,1275 L348,1207 M12,1394 L264,1343 M0,1530 L156,1479" fill="none" stroke="#F4E8DE" stroke-width="2.4" opacity="0.85"/>
    <path d="M828,1122 L1188,1224 M864,1207 L1200,1326 M912,1343 L1200,1462" fill="none" stroke="#F3D1D8" stroke-width="2.4" opacity="0.85"/>
    <ellipse cx="96" cy="1156" rx="10.8" ry="30.6" fill="#1E2738" stroke="#B8D8E8" stroke-width="2.4"/>
    <ellipse cx="144" cy="1224" rx="12" ry="34" fill="#2A3546" stroke="#FFD6C0" stroke-width="2.4"/>
    <ellipse cx="204" cy="1292" rx="14.4" ry="40.8" fill="#121B28" stroke="#92D8FF" stroke-width="2.4"/>
    <ellipse cx="276" cy="1394" rx="15.6" ry="45.9" fill="#273044" stroke="#EDE0CF" stroke-width="2.4"/>
    <ellipse cx="144" cy="1530" rx="18" ry="57.8" fill="#16202D" stroke="#E2C6A6" stroke-width="2.4"/>
    <ellipse cx="240" cy="1581" rx="16.8" ry="51" fill="#304050" stroke="#7EDCFF" stroke-width="2.4"/>
    <ellipse cx="936" cy="1122" rx="10.8" ry="30.6" fill="#1C2436" stroke="#FFD6C0" stroke-width="2.4"/>
    <ellipse cx="1008" cy="1190" rx="12" ry="34" fill="#2E2130" stroke="#FF83D1" stroke-width="2.4"/>
    <ellipse cx="1080" cy="1258" rx="14.4" ry="40.8" fill="#122033" stroke="#B8F3FF" stroke-width="2.4"/>
    <ellipse cx="1032" cy="1394" rx="16.8" ry="47.6" fill="#2B3548" stroke="#EDE0CF" stroke-width="2.4"/>
    <ellipse cx="1128" cy="1462" rx="15.6" ry="45.9" fill="#111A28" stroke="#AFF1FF" stroke-width="2.4"/>
    <ellipse cx="984" cy="1581" rx="18" ry="54.4" fill="#3C2D38" stroke="#FFD6C0" stroke-width="2.4"/>
    <path d="M396,931.6 L420,923.1 M444,931.6 L468,923.1 M492,931.6 L516,923.1 M540,931.6 L564,923.1 M588,931.6 L612,923.1 M636,931.6 L660,923.1 M684,931.6 L708,923.1 M732,931.6 L756,923.1 M780,931.6 L804,923.1" fill="none" stroke="#EED6C8" stroke-width="2.4" stroke-linecap="round"/>
</svg>
