<?xml version="1.0" encoding="UTF-8"?>
<svg xmlns="http://www.w3.org/2000/svg"
     xmlns:xlink="http://www.w3.org/1999/xlink"
     width="800" height="800"
     viewBox="0 0 800 800">
  <rect width="100%" height="100%" fill="#F5F0E8"/>
    <polygon points="126.4712,473.8 84.9016,497.8 84.9016,617.8 126.4712,593.8" fill="#666" stroke="#333333" stroke-width="2.4"/>
    <polygon points="414.7536,453.28 373.1848,477.28 373.1848,597.28 414.7536,573.28" fill="#555" stroke="#333333" stroke-width="2.4"/>
    <polygon points="126.4712,314.2 84.9016,338.2 84.9016,458.2 126.4712,434.2" fill="#777" stroke="#333333" stroke-width="2.4"/>
    <polygon points="414.7536,334.72 373.1848,358.72 373.1848,478.72 414.7536,454.72" fill="#888" stroke="#333333" stroke-width="2.4"/>
    <polygon points="43.3328,473.8 43.3328,593.8 84.9016,617.8 84.9016,497.8" fill="#666" stroke="#333333" stroke-width="2.4"/>
    <polygon points="331.6152,453.28 331.6152,573.28 373.1848,597.28 373.1848,477.28" fill="#555" stroke="#333333" stroke-width="2.4"/>
    <polygon points="43.3328,314.2 43.3328,434.2 84.9016,458.2 84.9016,338.2" fill="#777" stroke="#333333" stroke-width="2.4"/>
    <polygon points="331.6152,334.72 331.6152,454.72 373.1848,478.72 373.1848,358.72" fill="#888" stroke="#333333" stroke-width="2.4"/>
    <ellipse cx="234.9664" cy="434" rx="121.2432" ry="36.3728" fill="#000000" stroke="none" stroke-width="4" opacity="0.12" style="mix-blend-mode:multiply"/>
    <polygon points="432.4208,368 189.9336,508 189.9336,548 432.4208,408" fill="#A0522D" stroke="#333333" stroke-width="2.4"/>
    <polygon points="37.5128,420 37.5128,460 189.9336,548 189.9336,508" fill="#A0522D" stroke="#333333" stroke-width="2.4"/>
    <polygon points="280,280 37.5128,420 189.9336,508 432.4208,368" fill="#A0522D" stroke="#333333" stroke-width="2.4"/>
</svg>
