<?xml version="1.0" encoding="UTF-8"?>
<svg xmlns="http://www.w3.org/2000/svg"
     xmlns:xlink="http://www.w3.org/1999/xlink"
     width="1000" height="1000"
     viewBox="0 0 1000 1000">
  <rect width="100%" height="100%" fill="#1A1A2E"/>
    <rect x="340" y="548" width="140" height="70" rx="4" fill="#000000" stroke="#904830" stroke-width="3" opacity="0.2"/>
    <rect x="330" y="316" width="60" height="60" rx="4" fill="#000000" stroke="#C0A860" stroke-width="2" opacity="0.15"/>
    <rect x="540" y="316" width="80" height="65" rx="4" fill="#000000" stroke="#C8B070" stroke-width="2" opacity="0.15"/>
    <rect x="420" y="306" width="60" height="75" rx="8" fill="#000000" stroke="#60A0C8" stroke-width="3" opacity="0.15"/>
    <rect x="680" y="316" width="70" height="65" rx="5" fill="#000000" stroke="#B0B0C0" stroke-width="2" opacity="0.15"/>
    <rect x="780" y="325" width="60" height="55" rx="3" fill="#000000" stroke="#C0B8A8" stroke-width="2" opacity="0.15"/>
    <ellipse cx="360" cy="466" rx="28" ry="26" fill="#000000" stroke="#901818" stroke-width="2" opacity="0.2"/>
    <ellipse cx="420" cy="466" rx="28" ry="26" fill="#000000" stroke="#901818" stroke-width="2" opacity="0.2"/>
    <ellipse cx="500" cy="466" rx="32" ry="30" fill="#000000" stroke="#B06818" stroke-width="2" opacity="0.2"/>
    <ellipse cx="570" cy="466" rx="30" ry="30" fill="#000000" stroke="#B07020" stroke-width="2" opacity="0.2"/>
    <rect x="760" y="546" width="60" height="70" rx="3" fill="#000000" stroke="#C0A860" stroke-width="2" opacity="0.2"/>
    <ellipse cx="780" cy="576" rx="25" ry="25" fill="#000000" stroke="#902020" stroke-width="2" opacity="0.2"/>
    <ellipse cx="840" cy="581" rx="22" ry="22" fill="#000000" stroke="#902020" stroke-width="2" opacity="0.2"/>
    <rect x="0" y="870" width="1000" height="130" fill="#1E1E32" stroke="none" stroke-width="1"/>
    <line x1="0" y1="870" x2="1000" y2="870" fill="none" stroke="#2A2A44" stroke-width="4"/>
    <polygon points="250,870 920,870 980,1000 50,1000" fill="#B0D8FF" stroke="none" stroke-width="1" opacity="0.12"/>
    <rect x="250" y="30" width="670" height="840" rx="12" fill="#2A2A3A" stroke="#444458" stroke-width="6"/>
    <rect x="300" y="60" width="570" height="770" rx="6" fill="#E8F4FF" stroke="#C0D8E8" stroke-width="3"/>
    <rect x="30" y="30" width="200" height="840" rx="8" fill="#303045" stroke="#505068" stroke-width="5"/>
    <rect x="50" y="50" width="160" height="800" rx="5" fill="#3A3A50" stroke="#505068" stroke-width="2"/>
    <rect x="300" y="60" width="570" height="220" rx="5" fill="#D6E8F8" stroke="#B0C8E0" stroke-width="2"/>
    <rect x="300" y="280" width="570" height="10" fill="#8898A8" stroke="#606878" stroke-width="2"/>
    <rect x="300" y="380" width="570" height="7" fill="#8898A8" stroke="#606878" stroke-width="1"/>
    <rect x="300" y="500" width="570" height="7" fill="#8898A8" stroke="#606878" stroke-width="1"/>
    <rect x="300" y="620" width="570" height="7" fill="#8898A8" stroke="#606878" stroke-width="1"/>
    <rect x="300" y="740" width="570" height="7" fill="#8898A8" stroke="#606878" stroke-width="1"/>
    <rect x="190" y="280" width="40" height="70" rx="2" fill="#404058" stroke="#585870" stroke-width="2"/>
    <rect x="190" y="400" width="40" height="70" rx="2" fill="#404058" stroke="#585870" stroke-width="2"/>
    <rect x="190" y="520" width="40" height="70" rx="2" fill="#404058" stroke="#585870" stroke-width="2"/>
    <rect x="190" y="640" width="40" height="70" rx="2" fill="#404058" stroke="#585870" stroke-width="2"/>
    <rect x="40" y="200" width="15" height="400" rx="5" fill="#585870" stroke="#707088" stroke-width="2"/>
    <ellipse cx="235" cy="50" rx="8" ry="8" fill="#707080" stroke="#505060" stroke-width="1"/>
    <ellipse cx="235" cy="850" rx="8" ry="8" fill="#707080" stroke="#505060" stroke-width="1"/>
    <rect x="350" y="90" width="100" height="160" rx="6" fill="#3A80C8" stroke="#2860A0" stroke-width="3"/>
    <rect x="500" y="100" width="120" height="140" rx="6" fill="#C84040" stroke="#A02828" stroke-width="3"/>
    <rect x="670" y="80" width="150" height="170" rx="6" fill="#38B870" stroke="#289058" stroke-width="3"/>
    <rect x="420" y="300" width="60" height="75" rx="8" fill="#fcfeff" stroke="#60A0C8" stroke-width="3"/>
    <rect x="433" y="285" width="34" height="18" rx="3" fill="#3070A0" stroke="#205080" stroke-width="2"/>
    <rect x="425" y="330" width="50" height="30" rx="2" fill="#4090C8" stroke="#3070A0" stroke-width="1" opacity="0.8"/>
    <rect x="330" y="310" width="60" height="60" rx="4" fill="#E8D4A0" stroke="#C0A860" stroke-width="2"/>
    <rect x="540" y="310" width="80" height="65" rx="4" fill="#F0D8A0" stroke="#C8B070" stroke-width="2"/>
    <rect x="680" y="310" width="70" height="65" rx="5" fill="#E8E8F0" stroke="#B0B0C0" stroke-width="2"/>
    <rect x="780" y="320" width="60" height="55" rx="3" fill="#F0ECE0" stroke="#C0B8A8" stroke-width="2"/>
    <ellipse cx="360" cy="460" rx="28" ry="26" fill="#D03030" stroke="#901818" stroke-width="2"/>
    <ellipse cx="420" cy="460" rx="28" ry="26" fill="#D84040" stroke="#901818" stroke-width="2"/>
    <ellipse cx="390" cy="440" rx="26" ry="24" fill="#C83030" stroke="#801818" stroke-width="2"/>
    <ellipse cx="500" cy="460" rx="32" ry="30" fill="#F0A030" stroke="#B06818" stroke-width="2"/>
    <ellipse cx="570" cy="460" rx="30" ry="30" fill="#F0A838" stroke="#B07020" stroke-width="2"/>
    <ellipse cx="530" cy="440" rx="28" ry="28" fill="#F0A838" stroke="#B06818" stroke-width="2"/>
    <line x1="360" y1="434" x2="360" y2="422" fill="none" stroke="#5A3010" stroke-width="2"/>
    <line x1="420" y1="434" x2="420" y2="422" fill="none" stroke="#5A3010" stroke-width="2"/>
    <path d="M640,430 C642.333,428.833 653,425 660,425 C667,425 690.667,428.25 700,430 C709.333,431.75 733,437.083 740,440 C747,442.917 760,454.417 760,455 C760,455.583 747,447.333 740,445 C733,442.667 709.333,436.167 700,435 C690.667,433.833 667,435 660,435 C653,435 642.333,435.583 640,435 C637.667,434.417 637.667,431.167 640,430 Z" fill="#F5E050" stroke="#C8A820" stroke-width="2"/>
    <path d="M670,445 C672.333,443.833 683,440 690,440 C697,440 720.667,443.25 730,445 C739.333,446.75 763,452.083 770,455 C777,457.917 790,469.417 790,470 C790,470.583 777,462.333 770,460 C763,457.667 739.333,451.167 730,450 C720.667,448.833 697,450 690,450 C683,450 672.333,450.583 670,450 C667.667,449.417 667.667,446.167 670,445 Z" fill="#F0D838" stroke="#C8A820" stroke-width="2"/>
    <rect x="340" y="540" width="140" height="70" rx="4" fill="#C07050" stroke="#904830" stroke-width="3"/>
    <rect x="355" y="550" width="110" height="15" rx="2" fill="#E8E0D8" stroke="#B0A898" stroke-width="1" opacity="0.8"/>
    <path d="M550,540 C552.5,536.5 564,535.5 570,535 C576,534.5 604,534.5 610,535 C616,535.5 627.5,538.5 630,540 C632.5,541.5 635,544.5 635,550 C635,555.5 633.5,589.5 630,595 C626.5,600.5 607,605 600,605 C593,605 565.5,598.5 560,595 C554.5,591.5 546,575.5 545,570 C544,564.5 547.5,543.5 550,540 Z" fill="#40B840" stroke="#208020" stroke-width="2"/>
    <path d="M660,540 C662.5,536.5 674,535.5 680,535 C686,534.5 714,534.5 720,535 C726,535.5 737.5,538.5 740,540 C742.5,541.5 745,544.5 745,550 C745,555.5 742.5,589.5 740,595 C737.5,600.5 726,604 720,605 C714,606 686.5,608.5 680,605 C673.5,601.5 657,576.5 655,570 C653,563.5 657.5,543.5 660,540 Z" fill="#D0D040" stroke="#909020" stroke-width="2"/>
    <ellipse cx="780" cy="570" rx="25" ry="25" fill="#D04040" stroke="#902020" stroke-width="2"/>
    <ellipse cx="840" cy="575" rx="22" ry="22" fill="#D84848" stroke="#902020" stroke-width="2"/>
    <path d="M350,770 C352.5,764.167 374.167,760.833 380,760 C385.833,759.167 414.167,759.167 420,760 C425.833,760.833 446.667,767.5 450,770 C453.333,772.5 460,785 460,790 C460,795 453.333,825.833 450,830 C446.667,834.167 425.833,839.167 420,840 C414.167,840.833 385.833,840.833 380,840 C374.167,839.167 352.5,835.833 350,830 C347.5,824.167 347.5,775.833 350,770 Z" fill="#58B858" stroke="#289028" stroke-width="2"/>
    <path d="M520,780 C521,777 533.75,770.25 535,770 C536.25,769.75 543.75,774.5 545,775 C546.25,775.5 559.25,777.25 560,780 C560.75,782.75 560.75,827 560,830 C559.25,833 546.5,839.5 545,840 C543.5,840.5 531.5,840.5 530,840 C528.5,839.5 515.5,833 515,830 C514.5,827 519,783 520,780 Z" fill="#E88830" stroke="#B06020" stroke-width="2"/>
    <path d="M600,790 C601,787 613.75,780.25 615,780 C616.25,779.75 623.75,784.5 625,785 C626.25,785.5 639.25,787.25 640,790 C640.75,792.75 640.75,837.5 640,840 C639.25,842.5 626.5,840 625,840 C623.5,840 611.5,840 610,840 C608.5,840 595.5,842.5 595,840 C594.5,837.5 599,793 600,790 Z" fill="#E08030" stroke="#B06020" stroke-width="2"/>
    <path d="M680,770 C681,766.5 693.75,760.25 695,760 C696.25,759.75 703.75,764.5 705,765 C706.25,765.5 719.25,766.75 720,770 C720.75,773.25 720.75,826.5 720,830 C719.25,833.5 706.5,839.5 705,840 C703.5,840.5 691.5,840.5 690,840 C688.5,839.5 675.5,833.5 675,830 C674.5,826.5 679,773.5 680,770 Z" fill="#E89830" stroke="#B07020" stroke-width="2"/>
    <rect x="760" y="540" width="60" height="70" rx="3" fill="#F0D890" stroke="#C0A860" stroke-width="2"/>
    <rect x="195" y="295" width="25" height="45" rx="3" fill="#C82828" stroke="#881818" stroke-width="2"/>
    <rect x="225" y="295" width="20" height="40" rx="3" fill="#E8C828" stroke="#A88818" stroke-width="2"/>
    <rect x="200" y="415" width="20" height="40" rx="3" fill="#C8A060" stroke="#988038" stroke-width="2"/>
    <rect x="225" y="418" width="15" height="35" rx="3" fill="#58A8D8" stroke="#3878A8" stroke-width="2"/>
    <rect x="205" y="535" width="20" height="40" rx="3" fill="#D8D8D8" stroke="#A0A0A0" stroke-width="2"/>
    <rect x="225" y="538" width="15" height="35" rx="3" fill="#88C860" stroke="#589838" stroke-width="2"/>
    <rect x="300" y="300" width="570" height="530" rx="6" fill="#E8F8FF" stroke="none" stroke-width="1" opacity="0.15"/>
    <polygon points="230,50 950,50 950,880 230,880" fill="#C0E8FF" stroke="none" stroke-width="1" opacity="0.06"/>
    <path d="M300,300 C301.5,285 290,205 280,200 C270,195 111.5,190 100,200 C88.5,210 42.5,385 50,400 C57.5,415 237.5,505 250,500 C262.5,495 298.5,315 300,300 Z" fill="#D0ECFF" stroke="none" stroke-width="1" opacity="0.04"/>
    <path d="M870,300 C872.5,285 893.5,205 900,200 C906.5,195 995,185 1000,200 C1005,215 1007.5,485 1000,500 C992.5,515 856.5,510 850,500 C843.5,490 867.5,315 870,300 Z" fill="#D0ECFF" stroke="none" stroke-width="1" opacity="0.03"/>
    <rect x="420" y="350" width="330" height="250" rx="10" fill="#FFFFFF" stroke="none" stroke-width="1" opacity="0.12"/>
    <polygon points="300,870 870,870 950,950 100,950" fill="#D0ECFF" stroke="none" stroke-width="1" opacity="0.15"/>
    <rect x="930" y="150" width="70" height="720" rx="3" fill="#222238" stroke="#383850" stroke-width="3"/>
    <rect x="930" y="150" width="70" height="15" fill="#303048" stroke="#484860" stroke-width="2"/>
    <rect x="920" y="160" width="20" height="700" rx="1" fill="#C0E8FF" stroke="none" stroke-width="1" opacity="0.08"/>
    <rect x="10" y="50" width="100" height="150" rx="5" fill="#1A1A30" stroke="#303050" stroke-width="5"/>
    <rect x="20" y="60" width="80" height="130" rx="3" fill="#1A1A40" stroke="none" stroke-width="1"/>
    <ellipse cx="60" cy="100" rx="20" ry="20" fill="#E0E0F0" stroke="none" stroke-width="1"/>
    <line x1="60" y1="60" x2="60" y2="190" fill="none" stroke="#303050" stroke-width="3"/>
    <ellipse cx="342" cy="444" rx="8" ry="5" fill="#FF8888" stroke="none" stroke-width="1" opacity="0.6"/>
    <ellipse cx="482" cy="445" rx="8" ry="5" fill="#FFE0A0" stroke="none" stroke-width="1" opacity="0.5"/>
    <rect x="428" y="305" width="10" height="55" rx="3" fill="#FFFFFF" stroke="none" stroke-width="1" opacity="0.4"/>
    <rect x="336" y="315" width="8" height="40" rx="2" fill="#FFFFFF" stroke="none" stroke-width="1" opacity="0.3"/>
    <rect x="546" y="315" width="8" height="40" rx="2" fill="#FFFFFF" stroke="none" stroke-width="1" opacity="0.3"/>
    <ellipse cx="402" cy="444" rx="8" ry="5" fill="#FF8888" stroke="none" stroke-width="1" opacity="0.6"/>
    <ellipse cx="552" cy="445" rx="7" ry="5" fill="#FFE0A0" stroke="none" stroke-width="1" opacity="0.5"/>
    <ellipse cx="560" cy="550" rx="10" ry="6" fill="#FFFFFF" stroke="none" stroke-width="1" opacity="0.35"/>
    <ellipse cx="670" cy="550" rx="10" ry="6" fill="#FFFFFF" stroke="none" stroke-width="1" opacity="0.35"/>
    <ellipse cx="770" cy="555" rx="7" ry="5" fill="#FF8888" stroke="none" stroke-width="1" opacity="0.5"/>
    <ellipse cx="830" cy="560" rx="6" ry="4" fill="#FF8888" stroke="none" stroke-width="1" opacity="0.5"/>
    <rect x="360" y="120" width="80" height="20" rx="2" fill="#60A8E0" stroke="none" stroke-width="1" opacity="0.6"/>
    <rect x="510" y="130" width="100" height="25" rx="2" fill="#E06060" stroke="none" stroke-width="1" opacity="0.6"/>
    <rect x="680" y="110" width="120" height="25" rx="2" fill="#50D888" stroke="none" stroke-width="1" opacity="0.6"/>
    <line x1="525" y1="790" x2="545" y2="790" fill="none" stroke="#C07028" stroke-width="1"/>
    <line x1="525" y1="800" x2="545" y2="800" fill="none" stroke="#C07028" stroke-width="1"/>
    <line x1="605" y1="800" x2="625" y2="800" fill="none" stroke="#C07028" stroke-width="1"/>
    <line x1="685" y1="790" x2="705" y2="790" fill="none" stroke="#C07028" stroke-width="1"/>
    <line x1="685" y1="810" x2="705" y2="810" fill="none" stroke="#C07028" stroke-width="1"/>
    <path d="M380,770 C382.5,766.667 396.667,780 400,780 C403.333,780 416.667,770 420,770 C423.333,770 439.167,775.833 440,780 C440.833,784.167 433.333,815.833 430,820 C426.667,824.167 405,830 400,830 C395,830 371.667,825 370,820 C368.333,815 377.5,773.333 380,770 Z" fill="#40A040" stroke="none" stroke-width="1" opacity="0.5"/>
    <rect x="300" y="300" width="40" height="530" rx="3" fill="#8098B0" stroke="none" stroke-width="1" opacity="0.2"/>
    <rect x="830" y="300" width="40" height="530" rx="3" fill="#8098B0" stroke="none" stroke-width="1" opacity="0.2"/>
    <ellipse cx="770" cy="550" rx="8" ry="4" fill="#FFE8A0" stroke="none" stroke-width="1" opacity="0.5"/>
    <line x1="360" y1="560" x2="440" y2="560" fill="none" stroke="#A05838" stroke-width="1.5"/>
    <line x1="380" y1="580" x2="450" y2="580" fill="none" stroke="#A05838" stroke-width="1.5"/>
    <line x1="340" y1="570" x2="400" y2="570" fill="none" stroke="#A05838" stroke-width="1.5"/>
    <ellipse cx="800" cy="340" rx="8" ry="11" fill="#F0E8D8" stroke="#D0C8B8" stroke-width="1"/>
    <ellipse cx="808" cy="340" rx="8" ry="11" fill="#F0E8D8" stroke="#D0C8B8" stroke-width="1"/>
    <ellipse cx="796" cy="355" rx="8" ry="11" fill="#F0E8D8" stroke="#D0C8B8" stroke-width="1"/>
    <ellipse cx="804" cy="355" rx="8" ry="11" fill="#F0E8D8" stroke="#D0C8B8" stroke-width="1"/>
    <ellipse cx="812" cy="355" rx="8" ry="11" fill="#F0E8D8" stroke="#D0C8B8" stroke-width="1"/>
    <path d="M20,30 C20.833,2.333 39.5,12 40,40 C40.5,68 35.833,842.333 35,870 C34.167,897.667 15.5,898 15,870 C14.5,842 19.167,57.667 20,30 Z" fill="#000000" stroke="none" stroke-width="1" opacity="0.15"/>
    <ellipse cx="816" cy="340" rx="8" ry="11" fill="#F0E8D8" stroke="#D0C8B8" stroke-width="1"/>
    <rect x="260" y="860" width="650" height="15" rx="3" fill="#000000" stroke="none" stroke-width="1" opacity="0.25"/>
    <rect x="230" y="60" width="25" height="780" rx="5" fill="#D0ECFF" stroke="none" stroke-width="1" opacity="0.1"/>
    <rect x="50" y="860" width="180" height="15" rx="3" fill="#D0ECFF" stroke="none" stroke-width="1" opacity="0.08"/>
    <rect x="412" y="295" width="60" height="75" rx="8" fill="#FFFFFF" stroke="#60A0C8" stroke-width="3" opacity="0.15"/>
    <rect x="250" y="20" width="670" height="840" rx="12" fill="#3A3A50" stroke="#444458" stroke-width="6" opacity="0.5"/>
    <rect x="32" y="30" width="200" height="840" rx="8" fill="#505070" stroke="#505068" stroke-width="5" opacity="0.3"/>
    <rect x="680" y="290" width="70" height="65" rx="5" fill="#A0A0B8" stroke="#B0B0C0" stroke-width="2" opacity="0.25"/>
    <rect x="780" y="310" width="60" height="55" rx="3" fill="#C8C0B0" stroke="#C0B8A8" stroke-width="2" opacity="0.3"/>
</svg>
