<?xml version="1.0" encoding="UTF-8"?>
<svg xmlns="http://www.w3.org/2000/svg"
     xmlns:xlink="http://www.w3.org/1999/xlink"
     width="1000" height="700"
     viewBox="0 0 1000 700">
  <rect width="100%" height="100%" fill="#87CEEB"/>
  <defs>
  <linearGradient id="grad_1807707278" x1="0" y1="0" x2="0" y2="1">
    <stop offset="0" stop-color="#4A90D9"/>
    <stop offset="0.4" stop-color="#87CEEB"/>
    <stop offset="0.7" stop-color="#B5D8F7"/>
    <stop offset="1" stop-color="#D4E8F7"/>
  </linearGradient>

  </defs>
    <polygon points="0,0 1000,0 1000,700 0,700" fill="url(#grad_1807707278)" stroke="#333333" stroke-width="0.7"/>
    <path d="M0,280 C12.5,264.25 125,198.9169 150,196 C175,193.0831 275,243.8331 300,245 C325,246.1669 425,208.25 450,210 C475,211.75 570.833,264.8331 600,266 C629.167,267.1669 766.667,222.8331 800,224 C833.333,225.1669 983.333,266.5831 1000,280 C1016.667,293.4169 1083.333,376.25 1000,385 C916.667,393.75 83.333,393.75 0,385 C-83.333,376.25 -12.5,295.75 0,280 Z" fill="#7B9DBF" stroke="#333333" stroke-width="0.7" opacity="0.5"/>
    <path d="M0,350 C16.667,338.3331 166.667,282.9169 200,280 C233.333,277.0831 366.667,316.1669 400,315 C433.333,313.8331 562.5,267.75 600,266 C637.5,264.25 816.667,288.1669 850,294 C883.333,299.8331 987.5,325.5 1000,336 C1012.5,346.5 1083.333,413 1000,420 C916.667,427 83.333,425.8331 0,420 C-83.333,414.1669 -16.667,361.6669 0,350 Z" fill="#6B8E9E" stroke="#333333" stroke-width="0.7" opacity="0.4"/>
    <path d="M50,84 C51.167,79.1 70.667,67.0831 80,63 C89.333,58.9169 118.333,51.0419 130,49 C141.667,46.9581 169.5,45.5 180,45.5 C190.5,45.5 211.833,46.9581 220,49 C228.167,51.0419 244.167,59.7331 250,63 C255.833,66.2669 270,72.9169 270,77 C270,81.0831 258.167,93.9169 250,98 C241.833,102.0831 215.167,110.3669 200,112 C184.833,113.6331 135.167,112.8169 120,112 C104.833,111.1831 78.167,108.2669 70,105 C61.833,101.7331 48.833,88.9 50,84 Z" fill="#FFFFFF" stroke="#333333" stroke-width="0.7" opacity="0.75"/>
    <path d="M650,70 C647.667,64.2831 670.667,53.0831 680,49 C689.333,44.9169 718.333,37.0419 730,35 C741.667,32.9581 768.333,31.5 780,31.5 C791.667,31.5 819.5,32.9581 830,35 C840.5,37.0419 861.833,44.9169 870,49 C878.167,53.0831 900,65.1 900,70 C900,74.9 881.667,86.9169 870,91 C858.333,95.0831 819.833,104.1831 800,105 C780.167,105.8169 717.5,102.0831 700,98 C682.5,93.9169 652.333,75.7169 650,70 Z" fill="#FFFFFF" stroke="#333333" stroke-width="0.7" opacity="0.65"/>
    <path d="M0,455 C-50,444.5 -3,256.55 0,245 C3,233.45 54,226.45 60,224 C66,221.55 114,198.45 120,196 C126,193.55 173.5,177.1 180,175 C186.5,172.9 243,156.1 250,154 C257,151.9 313.5,134.75 320,133 C326.5,131.25 373.5,120.4 380,119 C386.5,117.6 444,106.05 450,105 C456,103.95 495,98 500,98 C505,98 544,103.95 550,105 C556,106.05 613.5,117.6 620,119 C626.5,120.4 673.5,131.25 680,133 C686.5,134.75 743,151.9 750,154 C757,156.1 813.5,172.9 820,175 C826.5,177.1 874,193.55 880,196 C886,198.45 934,220.85 940,224 C946,227.15 997,247.45 1000,259 C1003,270.55 1050,445.2 1000,455 C950,464.8 50,465.5 0,455 Z" fill="#8B8378" stroke="#333333" stroke-width="0.7"/>
    <path d="M780,105 C780,104.825 798,98 800,98 C802,98 820,104.825 820,105 C820,105.175 802,101.5 800,101.5 C798,101.5 780,105.175 780,105 Z" fill="#333333" stroke="none" stroke-width="0"/>
    <path d="M820,91 C820,90.825 838,84 840,84 C842,84 860,90.825 860,91 C860,91.175 842,87.5 840,87.5 C838,87.5 820,91.175 820,91 Z" fill="#333333" stroke="none" stroke-width="0"/>
    <path d="M350,56 C350,55.895 368,52.5 370,52.5 C372,52.5 390,55.895 390,56 C390,56.105 372,54.6 370,54.6 C368,54.6 350,56.105 350,56 Z" fill="#333333" stroke="none" stroke-width="0"/>
    <path d="M500,140 C498.667,139.0669 517.333,126 520,126 C522.667,126 541.333,139.0669 540,140 C538.667,140.9331 501.333,140.9331 500,140 Z" fill="#6B6358" stroke="none" stroke-width="0" opacity="0.4"/>
    <path d="M620,140 C618.667,139.0669 637.333,126 640,126 C642.667,126 661.333,139.0669 660,140 C658.667,140.9331 621.333,140.9331 620,140 Z" fill="#6B6358" stroke="none" stroke-width="0" opacity="0.4"/>
    <path d="M880,210 C878.667,209.0669 897.333,196 900,196 C902.667,196 921.333,209.0669 920,210 C918.667,210.9331 881.333,210.9331 880,210 Z" fill="#6B6358" stroke="none" stroke-width="0" opacity="0.4"/>
    <path d="M580,35 C580,33.1331 594.667,29.4 600,28 C605.333,26.6 614.667,24.5 620,24.5 C625.333,24.5 636,26.6 640,28 C644,29.4 650,33.1331 650,35 C650,36.8669 644,40.6 640,42 C636,43.4 625.333,45.5 620,45.5 C614.667,45.5 605.333,43.4 600,42 C594.667,40.6 580,36.8669 580,35 Z" fill="#FFD54F" stroke="#333333" stroke-width="0.7"/>
    <path d="M300,56 C301.167,52.7331 323,44.0419 330,42 C337,39.9581 354.167,38.5 360,38.5 C365.833,38.5 376.5,39.9581 380,42 C383.5,44.0419 392.333,52.7331 390,56 C387.667,59.2669 368.167,68.3669 360,70 C351.833,71.6331 327,71.6331 320,70 C313,68.3669 298.833,59.2669 300,56 Z" fill="#FFFFFF" stroke="#333333" stroke-width="0.7" opacity="0.5"/>
    <path d="M450,42 C451.167,39.9581 464.167,33.1331 470,31.5 C475.833,29.8669 494.167,28 500,28 C505.833,28 516.5,29.8669 520,31.5 C523.5,33.1331 532.333,39.9581 530,42 C527.667,44.0419 508.167,48.1831 500,49 C491.833,49.8169 465.833,49.8169 460,49 C454.167,48.1831 448.833,44.0419 450,42 Z" fill="#FFFFFF" stroke="#333333" stroke-width="0.7" opacity="0.4"/>
    <path d="M100,266 C98.333,272.125 99.583,329 100,336 C100.417,343 104.167,347.6669 105,350 C105.833,352.3331 109.167,362.25 110,364 C110.833,365.75 114.167,369.8331 115,371 C115.833,372.1669 118.75,376.8331 120,378 C121.25,379.1669 127.5,383.8331 130,385 C132.5,386.1669 146.667,391.125 150,392 C153.333,392.875 166.667,395.2081 170,395.5 C173.333,395.7919 187.5,395.7919 190,395.5 C192.5,395.2081 198.75,392.875 200,392 C201.25,391.125 204.333,386.1669 205,385 C205.667,383.8331 207.583,379.75 208,378 C208.417,376.25 209.417,366.3331 210,364 C210.583,361.6669 214.167,352.3331 215,350 C215.833,347.6669 219.167,338.9169 220,336 C220.833,333.0831 224.333,318.5 225,315 C225.667,311.5 228.417,298.0831 228,294 C227.583,289.9169 222.333,268.9169 220,266 C217.667,263.0831 204.167,259.875 200,259 C195.833,258.125 175,255.5 170,255.5 C165,255.5 144.167,258.4169 140,259 C135.833,259.5831 123.333,261.9169 120,262.5 C116.667,263.0831 101.667,259.875 100,266 Z" fill="#A99E91" stroke="#333333" stroke-width="0.7"/>
    <path d="M120,259 C110,257.25 102.5,247.3331 100,245 C97.5,242.6669 90.417,233.3331 90,231 C89.583,228.6669 93.333,218.75 95,217 C96.667,215.25 107.083,211.1669 110,210 C112.917,208.8331 126.667,203.875 130,203 C133.333,202.125 146.667,200.0831 150,199.5 C153.333,198.9169 166.667,196.2919 170,196 C173.333,195.7081 186.667,195.4169 190,196 C193.333,196.5831 207.083,201.25 210,203 C212.917,204.75 223.333,214.0831 225,217 C226.667,219.9169 230.417,233.9169 230,238 C229.583,242.0831 229.167,264.25 220,266 C210.833,267.75 130,260.75 120,259 Z" fill="#6D4C41" stroke="#333333" stroke-width="0.7"/>
    <path d="M160,301 C160,300.2419 167.917,298.0831 170,297.5 C172.083,296.9169 182.5,294 185,294 C187.5,294 198.333,296.9169 200,297.5 C201.667,298.0831 205,300.4169 205,301 C205,301.5831 201.667,303.9169 200,304.5 C198.333,305.0831 187.5,307.825 185,308 C182.5,308.175 172.083,307.1831 170,306.6 C167.917,306.0169 160,301.7581 160,301 Z" fill="#5D4E3A" stroke="#333333" stroke-width="0.7"/>
    <path d="M300,196 C298.333,202.125 299.583,259 300,266 C300.417,273 304.167,277.6669 305,280 C305.833,282.3331 309.167,292.25 310,294 C310.833,295.75 314.167,299.8331 315,301 C315.833,302.1669 318.75,306.8331 320,308 C321.25,309.1669 327.5,313.8331 330,315 C332.5,316.1669 346.667,321.125 350,322 C353.333,322.875 366.667,325.2081 370,325.5 C373.333,325.7919 387.5,325.7919 390,325.5 C392.5,325.2081 398.75,322.875 400,322 C401.25,321.125 404.333,316.1669 405,315 C405.667,313.8331 407.583,309.75 408,308 C408.417,306.25 409.417,296.3331 410,294 C410.583,291.6669 414.167,282.3331 415,280 C415.833,277.6669 419.167,268.9169 420,266 C420.833,263.0831 424.333,248.5 425,245 C425.667,241.5 428.417,228.0831 428,224 C427.583,219.9169 422.333,198.9169 420,196 C417.667,193.0831 404.167,189.875 400,189 C395.833,188.125 375,185.5 370,185.5 C365,185.5 344.167,188.4169 340,189 C335.833,189.5831 323.333,191.9169 320,192.5 C316.667,193.0831 301.667,189.875 300,196 Z" fill="#A99E91" stroke="#333333" stroke-width="0.7"/>
    <path d="M320,189 C310,187.25 302.5,177.3331 300,175 C297.5,172.6669 290.417,163.3331 290,161 C289.583,158.6669 293.333,148.75 295,147 C296.667,145.25 307.083,141.1669 310,140 C312.917,138.8331 326.667,133.875 330,133 C333.333,132.125 346.667,130.0831 350,129.5 C353.333,128.9169 366.667,126.2919 370,126 C373.333,125.7081 386.667,125.4169 390,126 C393.333,126.5831 407.083,131.25 410,133 C412.917,134.75 423.333,144.0831 425,147 C426.667,149.9169 430.417,163.9169 430,168 C429.583,172.0831 429.167,194.25 420,196 C410.833,197.75 330,190.75 320,189 Z" fill="#4E342E" stroke="#333333" stroke-width="0.7"/>
    <path d="M360,231 C360,230.2419 367.917,228.0831 370,227.5 C372.083,226.9169 382.5,224 385,224 C387.5,224 398.333,226.9169 400,227.5 C401.667,228.0831 405,230.4169 405,231 C405,231.5831 401.667,233.9169 400,234.5 C398.333,235.0831 387.5,237.825 385,238 C382.5,238.175 372.083,237.1831 370,236.6 C367.917,236.0169 360,231.7581 360,231 Z" fill="#5D4E3A" stroke="#333333" stroke-width="0.7"/>
    <path d="M500,168 C498.333,174.125 499.583,231 500,238 C500.417,245 504.167,249.6669 505,252 C505.833,254.3331 509.167,264.25 510,266 C510.833,267.75 514.167,271.8331 515,273 C515.833,274.1669 518.75,278.8331 520,280 C521.25,281.1669 527.5,285.8331 530,287 C532.5,288.1669 546.667,293.125 550,294 C553.333,294.875 566.667,297.2081 570,297.5 C573.333,297.7919 587.5,297.7919 590,297.5 C592.5,297.2081 598.75,294.875 600,294 C601.25,293.125 604.333,288.1669 605,287 C605.667,285.8331 607.583,281.75 608,280 C608.417,278.25 609.417,268.3331 610,266 C610.583,263.6669 614.167,254.3331 615,252 C615.833,249.6669 619.167,240.9169 620,238 C620.833,235.0831 624.333,220.5 625,217 C625.667,213.5 628.417,200.0831 628,196 C627.583,191.9169 622.333,170.9169 620,168 C617.667,165.0831 604.167,161.875 600,161 C595.833,160.125 575,157.5 570,157.5 C565,157.5 544.167,160.4169 540,161 C535.833,161.5831 523.333,163.9169 520,164.5 C516.667,165.0831 501.667,161.875 500,168 Z" fill="#A99E91" stroke="#333333" stroke-width="0.7"/>
    <path d="M520,161 C510,159.25 502.5,149.3331 500,147 C497.5,144.6669 490.417,135.3331 490,133 C489.583,130.6669 493.333,120.75 495,119 C496.667,117.25 507.083,113.1669 510,112 C512.917,110.8331 526.667,105.875 530,105 C533.333,104.125 546.667,102.0831 550,101.5 C553.333,100.9169 566.667,98.2919 570,98 C573.333,97.7081 586.667,97.4169 590,98 C593.333,98.5831 607.083,103.25 610,105 C612.917,106.75 623.333,116.0831 625,119 C626.667,121.9169 630.417,135.9169 630,140 C629.583,144.0831 629.167,166.25 620,168 C610.833,169.75 530,162.75 520,161 Z" fill="#5D4037" stroke="#333333" stroke-width="0.7"/>
    <path d="M560,203 C560,202.2419 567.917,200.0831 570,199.5 C572.083,198.9169 582.5,196 585,196 C587.5,196 598.333,198.9169 600,199.5 C601.667,200.0831 605,202.4169 605,203 C605,203.5831 601.667,205.9169 600,206.5 C598.333,207.0831 587.5,209.825 585,210 C582.5,210.175 572.083,209.1831 570,208.6 C567.917,208.0169 560,203.7581 560,203 Z" fill="#5D4E3A" stroke="#333333" stroke-width="0.7"/>
    <path d="M700,196 C698.333,202.125 699.583,259 700,266 C700.417,273 704.167,277.6669 705,280 C705.833,282.3331 709.167,292.25 710,294 C710.833,295.75 714.167,299.8331 715,301 C715.833,302.1669 718.75,306.8331 720,308 C721.25,309.1669 727.5,313.8331 730,315 C732.5,316.1669 746.667,321.125 750,322 C753.333,322.875 766.667,325.2081 770,325.5 C773.333,325.7919 787.5,325.7919 790,325.5 C792.5,325.2081 798.75,322.875 800,322 C801.25,321.125 804.333,316.1669 805,315 C805.667,313.8331 807.583,309.75 808,308 C808.417,306.25 809.417,296.3331 810,294 C810.583,291.6669 814.167,282.3331 815,280 C815.833,277.6669 819.167,268.9169 820,266 C820.833,263.0831 824.333,248.5 825,245 C825.667,241.5 828.417,228.0831 828,224 C827.583,219.9169 822.333,198.9169 820,196 C817.667,193.0831 804.167,189.875 800,189 C795.833,188.125 775,185.5 770,185.5 C765,185.5 744.167,188.4169 740,189 C735.833,189.5831 723.333,191.9169 720,192.5 C716.667,193.0831 701.667,189.875 700,196 Z" fill="#A99E91" stroke="#333333" stroke-width="0.7"/>
    <path d="M720,189 C710,187.25 702.5,177.3331 700,175 C697.5,172.6669 690.417,163.3331 690,161 C689.583,158.6669 693.333,148.75 695,147 C696.667,145.25 707.083,141.1669 710,140 C712.917,138.8331 726.667,133.875 730,133 C733.333,132.125 746.667,130.0831 750,129.5 C753.333,128.9169 766.667,126.2919 770,126 C773.333,125.7081 786.667,125.4169 790,126 C793.333,126.5831 807.083,131.25 810,133 C812.917,134.75 823.333,144.0831 825,147 C826.667,149.9169 830.417,163.9169 830,168 C829.583,172.0831 829.167,194.25 820,196 C810.833,197.75 730,190.75 720,189 Z" fill="#3E2723" stroke="#333333" stroke-width="0.7"/>
    <path d="M760,231 C760,230.2419 767.917,228.0831 770,227.5 C772.083,226.9169 782.5,224 785,224 C787.5,224 798.333,226.9169 800,227.5 C801.667,228.0831 805,230.4169 805,231 C805,231.5831 801.667,233.9169 800,234.5 C798.333,235.0831 787.5,237.825 785,238 C782.5,238.175 772.083,237.1831 770,236.6 C767.917,236.0169 760,231.7581 760,231 Z" fill="#5D4E3A" stroke="#333333" stroke-width="0.7"/>
    <path d="M50,224 C46,221.2 57,199.5 60,196 C63,192.5 77,188.3 80,189 C83,189.7 88,199.5 90,203 C92,206.5 104,221.9 100,224 C96,226.1 54,226.8 50,224 Z" fill="#2E7D32" stroke="none" stroke-width="0"/>
    <path d="M120,196 C116,193.2 136,171.5 140,168 C144,164.5 157,160.3 160,161 C163,161.7 168,171.5 170,175 C172,178.5 185,193.9 180,196 C175,198.1 124,198.8 120,196 Z" fill="#388E3C" stroke="none" stroke-width="0"/>
    <path d="M250,154 C246,151.2 266,129.5 270,126 C274,122.5 287,118.3 290,119 C293,119.7 298,129.5 300,133 C302,136.5 315,151.9 310,154 C305,156.1 254,156.8 250,154 Z" fill="#2E7D32" stroke="none" stroke-width="0"/>
    <path d="M430,105 C426,102.2 446,80.5 450,77 C454,73.5 467,69.3 470,70 C473,70.7 478,80.5 480,84 C482,87.5 495,102.9 490,105 C485,107.1 434,107.8 430,105 Z" fill="#388E3C" stroke="none" stroke-width="0"/>
    <path d="M550,105 C546,102.2 566,80.5 570,77 C574,73.5 587,69.3 590,70 C593,70.7 598,80.5 600,84 C602,87.5 615,102.9 610,105 C605,107.1 554,107.8 550,105 Z" fill="#2E7D32" stroke="none" stroke-width="0"/>
    <path d="M680,133 C676,130.2 696,108.5 700,105 C704,101.5 717,97.3 720,98 C723,98.7 728,108.5 730,112 C732,115.5 745,130.9 740,133 C735,135.1 684,135.8 680,133 Z" fill="#388E3C" stroke="none" stroke-width="0"/>
    <path d="M830,175 C826,172.2 846,150.5 850,147 C854,143.5 867,139.3 870,140 C873,140.7 878,150.5 880,154 C882,157.5 895,172.9 890,175 C885,177.1 834,177.8 830,175 Z" fill="#2E7D32" stroke="none" stroke-width="0"/>
    <path d="M940,224 C936,221.2 956,199.5 960,196 C964,192.5 977,188.3 980,189 C983,189.7 988,199.5 990,203 C992,206.5 1005,221.9 1000,224 C995,226.1 944,226.8 940,224 Z" fill="#388E3C" stroke="none" stroke-width="0"/>
    <path d="M150,315 C150.667,313.6 176.667,301.4669 180,301 C183.333,300.5331 200.667,306.6 200,308 C199.333,309.4 173.333,321.5331 170,322 C166.667,322.4669 149.333,316.4 150,315 Z" fill="#7A6B5A" stroke="none" stroke-width="0" opacity="0.3"/>
    <path d="M350,210 C350.667,208.6 376.667,196.4669 380,196 C383.333,195.5331 400.667,201.6 400,203 C399.333,204.4 373.333,216.5331 370,217 C366.667,217.4669 349.333,211.4 350,210 Z" fill="#7A6B5A" stroke="none" stroke-width="0" opacity="0.3"/>
    <path d="M550,175 C550.667,173.6 576.667,161.4669 580,161 C583.333,160.5331 600.667,166.6 600,168 C599.333,169.4 573.333,181.5331 570,182 C566.667,182.4669 549.333,176.4 550,175 Z" fill="#7A6B5A" stroke="none" stroke-width="0" opacity="0.3"/>
    <path d="M750,210 C750.667,208.6 776.667,196.4669 780,196 C783.333,195.5331 800.667,201.6 800,203 C799.333,204.4 773.333,216.5331 770,217 C766.667,217.4669 749.333,211.4 750,210 Z" fill="#7A6B5A" stroke="none" stroke-width="0" opacity="0.3"/>
    <path d="M0,434 C5,430.5 40,420.7 50,420 C60,419.3 85,427 100,427 C115,427 180,419.3 200,420 C220,420.7 280,434 300,434 C320,434 380,420 400,420 C420,420 480,434 500,434 C520,434 580,420.7 600,420 C620,419.3 680,427 700,427 C720,427 780,419.3 800,420 C820,420.7 880,433.3 900,434 C920,434.7 990,424.9 1000,427 C1010,429.1 1100,452.2 1000,455 C900,457.8 100,457.1 0,455 C-100,452.9 -5,437.5 0,434 Z" fill="#D4E8F7" stroke="none" stroke-width="0" opacity="0.25"/>
    <path d="M80,343 C74.667,343 97.333,342.7669 100,343 C102.667,343.2331 116.667,346.5 120,346.5 C123.333,346.5 146,343.2331 150,343 C154,342.7669 184.667,343 180,343 C175.333,343 85.333,343 80,343 Z" fill="#6B6358" stroke="none" stroke-width="0" opacity="0.3"/>
    <path d="M420,175 C420,174.0669 437.333,168 440,168 C442.667,168 460,174.0669 460,175 C460,175.9331 442.667,182 440,182 C437.333,182 420,175.9331 420,175 Z" fill="#6B6358" stroke="none" stroke-width="0" opacity="0.3"/>
    <path d="M320,98 C320,97.0669 337.333,91 340,91 C342.667,91 360,97.0669 360,98 C360,98.9331 342.667,105 340,105 C337.333,105 320,98.9331 320,98 Z" fill="#6B6358" stroke="none" stroke-width="0" opacity="0.2"/>
    <path d="M20,245 C18.5,241.5 32,210 35,210 C38,210 51.5,241.5 50,245 C48.5,248.5 21.5,248.5 20,245 Z" fill="#388E3C" stroke="none" stroke-width="0"/>
    <path d="M60,224 C58.5,220.5 72,189 75,189 C78,189 91.5,220.5 90,224 C88.5,227.5 61.5,227.5 60,224 Z" fill="#2E7D32" stroke="none" stroke-width="0"/>
    <path d="M820,196 C818.5,192.5 832,161 835,161 C838,161 851.5,192.5 850,196 C848.5,199.5 821.5,199.5 820,196 Z" fill="#388E3C" stroke="none" stroke-width="0"/>
    <path d="M900,210 C898.5,206.5 912,175 915,175 C918,175 931.5,206.5 930,210 C928.5,213.5 901.5,213.5 900,210 Z" fill="#2E7D32" stroke="none" stroke-width="0"/>
    <path d="M0,455 C5,442.05 90,442.05 100,441 C110,439.95 185,435.05 200,434 C215,432.95 380,420.7 400,420 C420,419.3 580,419.3 600,420 C620,420.7 785,432.95 800,434 C815,435.05 890,439.95 900,441 C910,442.05 995,442.05 1000,455 C1005,467.95 1050,687.75 1000,700 C950,712.25 50,712.25 0,700 C-50,687.75 -5,467.95 0,455 Z" fill="#5B8C2A" stroke="#333333" stroke-width="0.7"/>
    <polygon points="80,462 200,462 200,476 80,476" fill="#3E5A1E" stroke="none" stroke-width="0" opacity="0.3"/>
    <polygon points="300,462 460,462 460,469 300,469" fill="#3E5A1E" stroke="none" stroke-width="0" opacity="0.3"/>
    <polygon points="550,462 720,462 720,469 550,469" fill="#3E5A1E" stroke="none" stroke-width="0" opacity="0.3"/>
    <polygon points="760,462 1000,462 1000,476 760,476" fill="#3E5A1E" stroke="none" stroke-width="0" opacity="0.3"/>
    <polygon points="80,392 180,392 180,399 80,399" fill="#3E5A1E" stroke="none" stroke-width="0" opacity="0.3"/>
    <polygon points="880,420 960,420 960,434 880,434" fill="#3E5A1E" stroke="none" stroke-width="0" opacity="0.3"/>
    <rect x="100" y="434" width="70" height="42" fill="#EDE7D9" stroke="#888888" stroke-width="1.05"/>
    <path d="M350,546 C356.167,543.4331 643.833,543.4331 650,546 C656.167,548.5669 726.167,697.4331 720,700 C713.833,702.5669 286.167,702.5669 280,700 C273.833,697.4331 343.833,548.5669 350,546 Z" fill="#C8B89C" stroke="#333333" stroke-width="0.7"/>
    <path d="M0,574 C8.333,569.9169 85,547.1669 100,546 C115,544.8331 170,555.9169 180,560 C190,564.0831 211.667,588 220,595 C228.333,602 273.333,635.25 280,644 C286.667,652.75 303.333,695.3331 300,700 C296.667,704.6669 248.333,704.6669 240,700 C231.667,695.3331 208.333,652.75 200,644 C191.667,635.25 151.667,600.8331 140,595 C128.333,589.1669 71.667,574 60,574 C48.333,574 5,595 0,595 C-5,595 -8.333,578.0831 0,574 Z" fill="#64B5F6" stroke="#333333" stroke-width="0.7" opacity="0.5"/>
    <rect x="100" y="462" width="90" height="70" fill="#F5F0E8" stroke="#888888" stroke-width="1.05"/>
    <polygon points="135,406 170,434 100,434" fill="#455A64" stroke="#555555" stroke-width="1.05"/>
    <rect x="315" y="434" width="70" height="42" fill="#EDE7D9" stroke="#888888" stroke-width="1.05"/>
    <rect x="460" y="434" width="70" height="42" fill="#EDE7D9" stroke="#888888" stroke-width="1.05"/>
    <rect x="605" y="434" width="70" height="42" fill="#EDE7D9" stroke="#888888" stroke-width="1.05"/>
    <rect x="750" y="434" width="70" height="42" fill="#EDE7D9" stroke="#888888" stroke-width="1.05"/>
    <rect x="895" y="434" width="70" height="42" fill="#EDE7D9" stroke="#888888" stroke-width="1.05"/>
    <rect x="80" y="392" width="100" height="70" fill="#EDE7D9" stroke="#888888" stroke-width="1.05"/>
    <rect x="880" y="420" width="80" height="98" fill="#EDE7D9" stroke="#888888" stroke-width="1.05"/>
    <rect x="115" y="448" width="10" height="14" fill="#B3E5FC" stroke="#333333" stroke-width="0.7"/>
    <rect x="330" y="448" width="10" height="14" fill="#B3E5FC" stroke="#333333" stroke-width="0.7"/>
    <rect x="475" y="448" width="10" height="14" fill="#B3E5FC" stroke="#333333" stroke-width="0.7"/>
    <rect x="620" y="448" width="10" height="14" fill="#B3E5FC" stroke="#333333" stroke-width="0.7"/>
    <rect x="765" y="448" width="10" height="14" fill="#B3E5FC" stroke="#333333" stroke-width="0.7"/>
    <rect x="20" y="462" width="90" height="70" fill="#F5F0E8" stroke="#888888" stroke-width="1.05"/>
    <polygon points="145,420 190,462 100,462" fill="#37474F" stroke="#555555" stroke-width="1.05"/>
    <rect x="375" y="462" width="90" height="70" fill="#F5F0E8" stroke="#888888" stroke-width="1.05"/>
    <rect x="560" y="462" width="90" height="70" fill="#F5F0E8" stroke="#888888" stroke-width="1.05"/>
    <rect x="745" y="462" width="90" height="70" fill="#F5F0E8" stroke="#888888" stroke-width="1.05"/>
    <rect x="930" y="462" width="90" height="70" fill="#F5F0E8" stroke="#888888" stroke-width="1.05"/>
    <polygon points="350,406 385,434 315,434" fill="#455A64" stroke="#555555" stroke-width="1.05"/>
    <polygon points="495,406 530,434 460,434" fill="#455A64" stroke="#555555" stroke-width="1.05"/>
    <polygon points="640,406 675,434 605,434" fill="#455A64" stroke="#555555" stroke-width="1.05"/>
    <polygon points="785,406 820,434 750,434" fill="#455A64" stroke="#555555" stroke-width="1.05"/>
    <polygon points="930,406 965,434 895,434" fill="#455A64" stroke="#555555" stroke-width="1.05"/>
    <polygon points="130,343 180,392 80,392" fill="#1A237E" stroke="#555555" stroke-width="1.05"/>
    <polygon points="920,385 960,420 880,420" fill="#263238" stroke="#555555" stroke-width="1.05"/>
    <rect x="10" y="490" width="15" height="112" fill="#4E342E" stroke="#333333" stroke-width="0.7"/>
    <rect x="940" y="490" width="15" height="105" fill="#4E342E" stroke="#333333" stroke-width="0.7"/>
    <rect x="650" y="518" width="12" height="84" fill="#4E342E" stroke="#333333" stroke-width="0.7"/>
    <rect x="140" y="518" width="12" height="98" fill="#4E342E" stroke="#333333" stroke-width="0.7"/>
    <rect x="730" y="490" width="10" height="84" fill="#4E342E" stroke="#333333" stroke-width="0.7"/>
    <rect x="50" y="518" width="12" height="112" fill="#4E342E" stroke="#333333" stroke-width="0.7"/>
    <rect x="110" y="434" width="20" height="24.5" fill="#6D4C41" stroke="#333333" stroke-width="0.7"/>
    <rect x="900" y="462" width="15" height="17.5" fill="#B3E5FC" stroke="#333333" stroke-width="0.7"/>
    <rect x="920" y="462" width="15" height="17.5" fill="#B3E5FC" stroke="#333333" stroke-width="0.7"/>
    <rect x="900" y="490" width="15" height="17.5" fill="#FFF9C4" stroke="#333333" stroke-width="0.7"/>
    <rect x="920" y="490" width="15" height="17.5" fill="#FFF9C4" stroke="#333333" stroke-width="0.7"/>
    <rect x="650" y="518" width="12" height="98" fill="#4E342E" stroke="#333333" stroke-width="0.7"/>
    <rect x="140" y="518" width="12" height="98" fill="#4E342E" stroke="#333333" stroke-width="0.7"/>
    <rect x="730" y="490" width="10" height="84" fill="#4E342E" stroke="#333333" stroke-width="0.7"/>
    <rect x="50" y="518" width="12" height="112" fill="#4E342E" stroke="#333333" stroke-width="0.7"/>
    <rect x="115" y="483" width="15" height="17.5" fill="#B3E5FC" stroke="#333333" stroke-width="0.7"/>
    <rect x="150" y="483" width="15" height="17.5" fill="#B3E5FC" stroke="#333333" stroke-width="0.7"/>
    <rect x="390" y="483" width="15" height="17.5" fill="#B3E5FC" stroke="#333333" stroke-width="0.7"/>
    <rect x="425" y="483" width="15" height="17.5" fill="#B3E5FC" stroke="#333333" stroke-width="0.7"/>
    <rect x="575" y="483" width="15" height="17.5" fill="#B3E5FC" stroke="#333333" stroke-width="0.7"/>
    <rect x="610" y="483" width="15" height="17.5" fill="#B3E5FC" stroke="#333333" stroke-width="0.7"/>
    <rect x="760" y="483" width="15" height="17.5" fill="#B3E5FC" stroke="#333333" stroke-width="0.7"/>
    <rect x="795" y="483" width="15" height="17.5" fill="#B3E5FC" stroke="#333333" stroke-width="0.7"/>
    <rect x="945" y="483" width="15" height="17.5" fill="#B3E5FC" stroke="#333333" stroke-width="0.7"/>
    <rect x="980" y="483" width="15" height="17.5" fill="#B3E5FC" stroke="#333333" stroke-width="0.7"/>
    <rect x="95" y="413" width="15" height="17.5" fill="#B3E5FC" stroke="#333333" stroke-width="0.7"/>
    <rect x="140" y="413" width="15" height="17.5" fill="#FFF9C4" stroke="#333333" stroke-width="0.7"/>
    <rect x="95" y="441" width="15" height="17.5" fill="#B3E5FC" stroke="#333333" stroke-width="0.7"/>
    <polygon points="65,427 110,462 20,462" fill="#37474F" stroke="#555555" stroke-width="1.05"/>
    <rect x="205" y="462" width="90" height="70" fill="#F5F0E8" stroke="#888888" stroke-width="1.05"/>
    <rect x="820" y="504" width="15" height="112" fill="#4E342E" stroke="#333333" stroke-width="0.7"/>
    <rect x="960" y="504" width="15" height="105" fill="#4E342E" stroke="#333333" stroke-width="0.7"/>
    <rect x="60" y="518" width="12" height="105" fill="#4E342E" stroke="#333333" stroke-width="0.7"/>
    <rect x="870" y="518" width="12" height="98" fill="#4E342E" stroke="#333333" stroke-width="0.7"/>
    <rect x="990" y="476" width="15" height="126" fill="#4E342E" stroke="#333333" stroke-width="0.7"/>
    <polygon points="420,420 465,462 375,462" fill="#37474F" stroke="#555555" stroke-width="1.05"/>
    <polygon points="605,420 650,462 560,462" fill="#37474F" stroke="#555555" stroke-width="1.05"/>
    <polygon points="790,420 835,462 745,462" fill="#37474F" stroke="#555555" stroke-width="1.05"/>
    <polygon points="975,420 1020,462 930,462" fill="#37474F" stroke="#555555" stroke-width="1.05"/>
    <path d="M0,490 C-1.7,484.4 14.5,434 18,434 C21.5,434 36.8,484.4 35,490 C33.2,495.6 1.7,495.6 0,490 Z" fill="#2E7D32" stroke="#333333" stroke-width="0.7"/>
    <path d="M925,490 C922.8,484.4 943.5,434 948,434 C952.5,434 972.3,484.4 970,490 C967.7,495.6 927.2,495.6 925,490 Z" fill="#388E3C" stroke="#333333" stroke-width="0.7"/>
    <rect x="-10" y="462" width="25" height="133" fill="#5D4037" stroke="#333333" stroke-width="1.4"/>
    <rect x="40" y="462" width="25" height="133" fill="#5D4037" stroke="#333333" stroke-width="1.4"/>
    <rect x="-15" y="462" width="85" height="14" fill="#5D4037" stroke="#333333" stroke-width="1.4"/>
    <path d="M0,462 C-0.883,461.3 30.583,420 32,420 C33.417,420 85.533,461.3 85,462 C84.467,462.7 0.883,462.7 0,462 Z" fill="#1A237E" stroke="#333333" stroke-width="1.4"/>
    <path d="M635,518 C632.9,512.4 651.8,462 656,462 C660.2,462 679.1,512.4 677,518 C674.9,523.6 637.1,523.6 635,518 Z" fill="#43A047" stroke="none" stroke-width="0"/>
    <path d="M125,518 C122.9,512.4 141.8,462 146,462 C150.2,462 169.1,512.4 167,518 C164.9,523.6 127.1,523.6 125,518 Z" fill="#388E3C" stroke="none" stroke-width="0"/>
    <path d="M718,490 C716.3,485.1 731.6,441 735,441 C738.4,441 753.7,485.1 752,490 C750.3,494.9 719.7,494.9 718,490 Z" fill="#2E7D32" stroke="none" stroke-width="0"/>
    <path d="M35,518 C32.9,512.4 51.8,462 56,462 C60.2,462 79.1,512.4 77,518 C74.9,523.6 37.1,523.6 35,518 Z" fill="#2E7D32" stroke="none" stroke-width="0"/>
    <line x1="85" y1="420" x2="195" y2="420" fill="none" stroke="#BDBDBD" stroke-width="1.4"/>
    <line x1="885" y1="385" x2="965" y2="385" fill="none" stroke="#BDBDBD" stroke-width="1.4"/>
    <path d="M628,518 C625.2,511.7 650.4,455 656,455 C661.6,455 686.8,511.7 684,518 C681.2,524.3 630.8,524.3 628,518 Z" fill="#43A047" stroke="none" stroke-width="0"/>
    <path d="M118,518 C115.2,511.7 140.4,455 146,455 C151.6,455 176.8,511.7 174,518 C171.2,524.3 120.8,524.3 118,518 Z" fill="#388E3C" stroke="none" stroke-width="0"/>
    <path d="M712,490 C709.7,484.4 730.4,434 735,434 C739.6,434 760.3,484.4 758,490 C755.7,495.6 714.3,495.6 712,490 Z" fill="#2E7D32" stroke="none" stroke-width="0"/>
    <path d="M28,518 C25.2,511.7 50.4,455 56,455 C61.6,455 86.8,511.7 84,518 C81.2,524.3 30.8,524.3 28,518 Z" fill="#2E7D32" stroke="none" stroke-width="0"/>
    <rect x="120" y="409.5" width="7" height="21" fill="#6D4C41" stroke="#333333" stroke-width="0.7"/>
    <rect x="330" y="409.5" width="7" height="21" fill="#6D4C41" stroke="#333333" stroke-width="0.7"/>
    <rect x="475" y="409.5" width="7" height="21" fill="#6D4C41" stroke="#333333" stroke-width="0.7"/>
    <rect x="620" y="409.5" width="7" height="21" fill="#6D4C41" stroke="#333333" stroke-width="0.7"/>
    <rect x="765" y="409.5" width="7" height="21" fill="#6D4C41" stroke="#333333" stroke-width="0.7"/>
    <polygon points="250,427 295,462 205,462" fill="#37474F" stroke="#555555" stroke-width="1.05"/>
    <path d="M798,504 C795,497 822,434 828,434 C834,434 861,497 858,504 C855,511 801,511 798,504 Z" fill="#2E7D32" stroke="none" stroke-width="0"/>
    <path d="M940,504 C937.3,497 962.5,434 968,434 C973.5,434 997.8,497 995,504 C992.2,511 942.7,511 940,504 Z" fill="#388E3C" stroke="none" stroke-width="0"/>
    <path d="M40,518 C37.4,511 60.8,448 66,448 C71.2,448 94.6,511 92,518 C89.4,525 42.6,525 40,518 Z" fill="#2E7D32" stroke="none" stroke-width="0"/>
    <path d="M850,518 C847.4,511 870.8,448 876,448 C881.2,448 904.6,511 902,518 C899.4,525 852.6,525 850,518 Z" fill="#43A047" stroke="none" stroke-width="0"/>
    <path d="M970,476 C969.8,467.6 995,392 998,392 C1001,392 1002.8,467.6 1000,476 C997.2,484.4 970.2,484.4 970,476 Z" fill="#2E7D32" stroke="none" stroke-width="0"/>
    <path d="M0,511 C1,508.2 7,497.7 10,497 C13,496.3 27,502.6 30,504 C33,505.4 41,508.9 40,511 C39,513.1 24,523.6 20,525 C16,526.4 2,526.4 0,525 C-2,523.6 -1,513.8 0,511 Z" fill="#558B2F" stroke="none" stroke-width="0" opacity="0.4"/>
    <path d="M0,511 C0,510.5331 9.333,504 10,504 C10.667,504 20,510.5331 20,511 C20,511.4669 10.667,518 10,518 C9.333,518 0,511.4669 0,511 Z" fill="#9E9E9E" stroke="none" stroke-width="0" opacity="0.3"/>
    <path d="M120,409.5 C119.533,408.9281 122.183,404.6 123,404.6 C123.817,404.6 127.35,408.9281 127,409.5 C126.65,410.0719 120.467,410.0719 120,409.5 Z" fill="#BDBDBD" stroke="none" stroke-width="0" opacity="0.5"/>
    <path d="M330,409.5 C329.533,408.9281 332.183,404.6 333,404.6 C333.817,404.6 337.35,408.9281 337,409.5 C336.65,410.0719 330.467,410.0719 330,409.5 Z" fill="#BDBDBD" stroke="none" stroke-width="0" opacity="0.5"/>
    <path d="M475,409.5 C474.533,408.9281 477.183,404.6 478,404.6 C478.817,404.6 482.35,408.9281 482,409.5 C481.65,410.0719 475.467,410.0719 475,409.5 Z" fill="#BDBDBD" stroke="none" stroke-width="0" opacity="0.5"/>
    <path d="M620,409.5 C619.533,408.9281 622.183,404.6 623,404.6 C623.817,404.6 627.35,408.9281 627,409.5 C626.65,410.0719 620.467,410.0719 620,409.5 Z" fill="#BDBDBD" stroke="none" stroke-width="0" opacity="0.5"/>
    <path d="M765,409.5 C764.533,408.9281 767.183,404.6 768,404.6 C768.817,404.6 772.35,408.9281 772,409.5 C771.65,410.0719 765.467,410.0719 765,409.5 Z" fill="#BDBDBD" stroke="none" stroke-width="0" opacity="0.5"/>
    <path d="M0,588 C1,584.5 32,574.7 40,574 C48,573.3 72,579.6 80,581 C88,582.4 120,585.2 120,588 C120,590.8 89,606.9 80,609 C71,611.1 38,611.1 30,609 C22,606.9 -1,591.5 0,588 Z" fill="#1B5E20" stroke="none" stroke-width="0"/>
    <path d="M880,581 C882,577.5 912,567.7 920,567 C928,566.3 952,571.9 960,574 C968,576.1 1000,585.2 1000,588 C1000,590.8 970,600.6 960,602 C950,603.4 908,604.1 900,602 C892,599.9 878,584.5 880,581 Z" fill="#1B5E20" stroke="none" stroke-width="0"/>
    <path d="M0,525 C0.5,520.8 11.5,505.4 15,504 C18.5,502.6 32.5,508.9 35,511 C37.5,513.1 40.5,521.5 40,525 C39.5,528.5 33,543.9 30,546 C27,548.1 13,548.1 10,546 C7,543.9 -0.5,529.2 0,525 Z" fill="#1B5E20" stroke="none" stroke-width="0"/>
    <path d="M960,518 C961.5,513.8 971.5,498.4 975,497 C978.5,495.6 992.5,501.9 995,504 C997.5,506.1 1001.5,514.5 1000,518 C998.5,521.5 984,536.9 980,539 C976,541.1 962,541.1 960,539 C958,536.9 958.5,522.2 960,518 Z" fill="#1B5E20" stroke="none" stroke-width="0"/>
    <path d="M100,546 C99.583,544.8331 104.167,532 105,532 C105.833,532 110.417,544.8331 110,546 C109.583,547.1669 100.417,547.1669 100,546 Z" fill="#2E7D32" stroke="none" stroke-width="0"/>
    <path d="M150,553 C149.583,551.8331 154.167,539 155,539 C155.833,539 160.417,551.8331 160,553 C159.583,554.1669 150.417,554.1669 150,553 Z" fill="#388E3C" stroke="none" stroke-width="0"/>
    <path d="M550,553 C549.583,551.8331 554.167,539 555,539 C555.833,539 560.417,551.8331 560,553 C559.583,554.1669 550.417,554.1669 550,553 Z" fill="#2E7D32" stroke="none" stroke-width="0"/>
    <path d="M600,546 C599.583,544.8331 604.167,532 605,532 C605.833,532 610.417,544.8331 610,546 C609.583,547.1669 600.417,547.1669 600,546 Z" fill="#388E3C" stroke="none" stroke-width="0"/>
    <path d="M100,574 C100,571.2 112,560.7 120,560 C128,559.3 170,565.6 180,567 C190,568.4 220,571.9 220,574 C220,576.1 190,586.6 180,588 C170,589.4 128,589.4 120,588 C112,586.6 100,576.8 100,574 Z" fill="#1B5E20" stroke="none" stroke-width="0"/>
    <path d="M220,574 C220,571.9 235,567.35 240,567 C245,566.65 264,569.8 270,570.5 C276,571.2 300,572.25 300,574 C300,575.75 276,586.6 270,588 C264,589.4 245,589.4 240,588 C235,586.6 220,576.1 220,574 Z" fill="#1B5E20" stroke="none" stroke-width="0" opacity="0.6"/>
    <path d="M40,546 C39.75,545.4169 44.333,539 45,539 C45.667,539 48.417,545.4169 48,546 C47.583,546.5831 40.25,546.5831 40,546 Z" fill="#43A047" stroke="none" stroke-width="0"/>
    <path d="M650,553 C649.583,551.8331 654.167,539 655,539 C655.833,539 660.417,551.8331 660,553 C659.583,554.1669 650.417,554.1669 650,553 Z" fill="#2E7D32" stroke="none" stroke-width="0"/>
    <path d="M60,546 C59.583,545.4169 68.75,539 70,539 C71.25,539 75.833,545.4169 75,546 C74.167,546.5831 60.417,546.5831 60,546 Z" fill="#43A047" stroke="none" stroke-width="0"/>
    <path d="M280,546 C279.5,543.6669 285,518 286,518 C287,518 292.5,543.6669 292,546 C291.5,548.3331 280.5,548.3331 280,546 Z" fill="#43A047" stroke="none" stroke-width="0"/>
    <path d="M500,546 C499.5,543.6669 505,518 506,518 C507,518 512.5,543.6669 512,546 C511.5,548.3331 500.5,548.3331 500,546 Z" fill="#388E3C" stroke="none" stroke-width="0"/>
</svg>
