<?xml version="1.0" encoding="UTF-8"?>
<svg xmlns="http://www.w3.org/2000/svg"
     xmlns:xlink="http://www.w3.org/1999/xlink"
     width="1200" height="1600"
     viewBox="0 0 1200 1600">
  <rect width="100%" height="100%" fill="#F5F0E8"/>
    <rect x="18" y="24" width="1164" height="592" fill="#FFFFFF" stroke="#222222" stroke-width="4.8"/>
    <rect x="18" y="640" width="570" height="480" fill="#FFFFFF" stroke="#222222" stroke-width="4.8"/>
    <rect x="612" y="640" width="570" height="480" fill="#FFFFFF" stroke="#222222" stroke-width="4.8"/>
    <rect x="18" y="1184" width="1164" height="392" fill="#FFFFFF" stroke="#222222" stroke-width="4.8"/>
    <line x1="36" y1="592" x2="1164" y2="592" fill="none" stroke="#CCCCCC" stroke-width="2.4"/>
    <line x1="36" y1="1072" x2="564" y2="1072" fill="none" stroke="#CCCCCC" stroke-width="2.4"/>
    <ellipse cx="720" cy="880" rx="84" ry="144" fill="#4A90D9" stroke="#333333" stroke-width="6" opacity="0.15"/>
    <ellipse cx="900" cy="880" rx="84" ry="144" fill="#E8553A" stroke="#333333" stroke-width="6" opacity="0.15"/>
    <ellipse cx="1080" cy="880" rx="84" ry="144" fill="#8E44AD" stroke="#333333" stroke-width="6" opacity="0.15"/>
    <line x1="636" y1="1088" x2="1164" y2="1088" fill="none" stroke="#CCCCCC" stroke-width="2.4"/>
    <line x1="36" y1="1536" x2="1164" y2="1536" fill="none" stroke="#CCCCCC" stroke-width="2.4"/>
    <line x1="660" y1="720" x2="660" y2="1024" fill="none" stroke="#999999" stroke-width="1.8" opacity="0.3"/>
    <line x1="780" y1="704" x2="780" y2="992" fill="none" stroke="#999999" stroke-width="1.8" opacity="0.3"/>
    <line x1="840" y1="720" x2="840" y2="1040" fill="none" stroke="#999999" stroke-width="1.8" opacity="0.3"/>
    <line x1="960" y1="704" x2="960" y2="1008" fill="none" stroke="#999999" stroke-width="1.8" opacity="0.3"/>
    <line x1="1020" y1="720" x2="1020" y2="1024" fill="none" stroke="#999999" stroke-width="1.8" opacity="0.3"/>
    <line x1="1140" y1="704" x2="1140" y2="992" fill="none" stroke="#999999" stroke-width="1.8" opacity="0.3"/>
    <line x1="60" y1="1280" x2="60" y2="1504" fill="none" stroke="#999999" stroke-width="1.8" opacity="0.3"/>
    <line x1="420" y1="1264" x2="420" y2="1504" fill="none" stroke="#999999" stroke-width="1.8" opacity="0.3"/>
    <line x1="780" y1="1264" x2="780" y2="1504" fill="none" stroke="#999999" stroke-width="1.8" opacity="0.3"/>
    <line x1="1140" y1="1280" x2="1140" y2="1488" fill="none" stroke="#999999" stroke-width="1.8" opacity="0.3"/>
    <rect x="186" y="224" width="108" height="128" rx="6" fill="#4A90D9" stroke="#222222" stroke-width="3.6"/>
    <rect x="204" y="352" width="72" height="144" rx="3.6" fill="#4A90D9" stroke="#222222" stroke-width="3.6"/>
    <ellipse cx="600" cy="288" rx="60" ry="80" fill="#E8553A" stroke="#222222" stroke-width="3.6"/>
    <ellipse cx="600" cy="432" rx="42" ry="80" fill="#E8553A" stroke="#222222" stroke-width="3.6"/>
    <polygon points="960,192 1044,288 960,384 876,288" fill="#8E44AD" stroke="#222222" stroke-width="3.6"/>
    <rect x="924" y="384" width="72" height="144" rx="3.6" fill="#8E44AD" stroke="#222222" stroke-width="3.6"/>
    <rect x="120" y="736" width="90" height="108.8" rx="6" fill="#4A90D9" stroke="#222222" stroke-width="3.6"/>
    <rect x="138" y="844.8" width="60" height="136" rx="3.6" fill="#4A90D9" stroke="#222222" stroke-width="3.6"/>
    <ellipse cx="306" cy="784" rx="50.4" ry="67.2" fill="#E8553A" stroke="#222222" stroke-width="3.6"/>
    <ellipse cx="306" cy="912" rx="36" ry="67.2" fill="#E8553A" stroke="#222222" stroke-width="3.6"/>
    <polygon points="444,704 486,784 444,864 402,784" fill="#8E44AD" stroke="#222222" stroke-width="3.6"/>
    <rect x="414" y="864" width="60" height="136" rx="3.6" fill="#8E44AD" stroke="#222222" stroke-width="3.6"/>
    <rect x="690" y="752" width="60" height="120" rx="3.6" fill="#4A90D9" stroke="#222222" stroke-width="3.6"/>
    <rect x="870" y="752" width="60" height="120" rx="3.6" fill="#E8553A" stroke="#222222" stroke-width="3.6"/>
    <rect x="1050" y="752" width="60" height="120" rx="3.6" fill="#8E44AD" stroke="#222222" stroke-width="3.6"/>
    <rect x="690" y="648" width="60" height="96" rx="4.8" fill="#4A90D9" stroke="#222222" stroke-width="3.6"/>
    <ellipse cx="900" cy="672" rx="42" ry="56" fill="#E8553A" stroke="#222222" stroke-width="3.6"/>
    <polygon points="1080,624 1110,680 1080,736 1050,680" fill="#8E44AD" stroke="#222222" stroke-width="3.6"/>
    <rect x="168" y="1312" width="120" height="176" rx="3.6" fill="#FFD700" stroke="#222222" stroke-width="2.4" opacity="0.7"/>
    <rect x="528" y="1312" width="120" height="176" rx="3.6" fill="#FFD700" stroke="#222222" stroke-width="2.4" opacity="0.7"/>
    <rect x="888" y="1312" width="120" height="176" rx="3.6" fill="#FFD700" stroke="#222222" stroke-width="2.4" opacity="0.7"/>
    <line x1="204" y1="384" x2="156" y2="480" fill="none" stroke="#222222" stroke-width="8.4" stroke-linecap="round"/>
    <line x1="276" y1="384" x2="324" y2="480" fill="none" stroke="#222222" stroke-width="8.4" stroke-linecap="round"/>
    <line x1="216" y1="496" x2="180" y2="592" fill="none" stroke="#222222" stroke-width="8.4" stroke-linecap="round"/>
    <line x1="264" y1="496" x2="300" y2="592" fill="none" stroke="#222222" stroke-width="8.4" stroke-linecap="round"/>
    <line x1="570" y1="400" x2="528" y2="480" fill="none" stroke="#222222" stroke-width="8.4" stroke-linecap="round"/>
    <line x1="630" y1="400" x2="672" y2="480" fill="none" stroke="#222222" stroke-width="8.4" stroke-linecap="round"/>
    <line x1="582" y1="512" x2="564" y2="592" fill="none" stroke="#222222" stroke-width="8.4" stroke-linecap="round"/>
    <line x1="618" y1="512" x2="636" y2="592" fill="none" stroke="#222222" stroke-width="8.4" stroke-linecap="round"/>
    <line x1="924" y1="416" x2="876" y2="496" fill="none" stroke="#222222" stroke-width="8.4" stroke-linecap="round"/>
    <line x1="996" y1="416" x2="1044" y2="496" fill="none" stroke="#222222" stroke-width="8.4" stroke-linecap="round"/>
    <line x1="948" y1="528" x2="912" y2="592" fill="none" stroke="#222222" stroke-width="8.4" stroke-linecap="round"/>
    <line x1="972" y1="528" x2="1008" y2="592" fill="none" stroke="#222222" stroke-width="8.4" stroke-linecap="round"/>
    <line x1="138" y1="880" x2="108" y2="832" fill="none" stroke="#222222" stroke-width="8.4" stroke-linecap="round"/>
    <line x1="198" y1="880" x2="228" y2="832" fill="none" stroke="#222222" stroke-width="8.4" stroke-linecap="round"/>
    <line x1="150" y1="980.8" x2="132" y2="1072" fill="none" stroke="#222222" stroke-width="8.4" stroke-linecap="round"/>
    <line x1="186" y1="980.8" x2="204" y2="1072" fill="none" stroke="#222222" stroke-width="8.4" stroke-linecap="round"/>
    <line x1="276" y1="880" x2="234" y2="848" fill="none" stroke="#222222" stroke-width="8.4" stroke-linecap="round"/>
    <line x1="336" y1="880" x2="378" y2="848" fill="none" stroke="#222222" stroke-width="8.4" stroke-linecap="round"/>
    <line x1="288" y1="976" x2="276" y2="1072" fill="none" stroke="#222222" stroke-width="8.4" stroke-linecap="round"/>
    <line x1="324" y1="976" x2="336" y2="1072" fill="none" stroke="#222222" stroke-width="8.4" stroke-linecap="round"/>
    <line x1="414" y1="896" x2="384" y2="848" fill="none" stroke="#222222" stroke-width="8.4" stroke-linecap="round"/>
    <line x1="474" y1="896" x2="504" y2="848" fill="none" stroke="#222222" stroke-width="8.4" stroke-linecap="round"/>
    <line x1="426" y1="1000" x2="408" y2="1072" fill="none" stroke="#222222" stroke-width="8.4" stroke-linecap="round"/>
    <line x1="462" y1="1000" x2="480" y2="1072" fill="none" stroke="#222222" stroke-width="8.4" stroke-linecap="round"/>
    <line x1="690" y1="784" x2="660" y2="832" fill="none" stroke="#222222" stroke-width="8.4" stroke-linecap="round"/>
    <line x1="750" y1="784" x2="780" y2="832" fill="none" stroke="#222222" stroke-width="8.4" stroke-linecap="round"/>
    <line x1="702" y1="872" x2="678" y2="1088" fill="none" stroke="#222222" stroke-width="8.4" stroke-linecap="round"/>
    <line x1="738" y1="872" x2="762" y2="1088" fill="none" stroke="#222222" stroke-width="8.4" stroke-linecap="round"/>
    <line x1="870" y1="784" x2="840" y2="832" fill="none" stroke="#222222" stroke-width="8.4" stroke-linecap="round"/>
    <line x1="930" y1="784" x2="960" y2="832" fill="none" stroke="#222222" stroke-width="8.4" stroke-linecap="round"/>
    <line x1="882" y1="872" x2="858" y2="1088" fill="none" stroke="#222222" stroke-width="8.4" stroke-linecap="round"/>
    <line x1="918" y1="872" x2="942" y2="1088" fill="none" stroke="#222222" stroke-width="8.4" stroke-linecap="round"/>
    <line x1="1050" y1="784" x2="1020" y2="832" fill="none" stroke="#222222" stroke-width="8.4" stroke-linecap="round"/>
    <line x1="1110" y1="784" x2="1140" y2="832" fill="none" stroke="#222222" stroke-width="8.4" stroke-linecap="round"/>
    <line x1="1062" y1="872" x2="1038" y2="1088" fill="none" stroke="#222222" stroke-width="8.4" stroke-linecap="round"/>
    <line x1="1098" y1="872" x2="1122" y2="1088" fill="none" stroke="#222222" stroke-width="8.4" stroke-linecap="round"/>
    <ellipse cx="210" cy="264" rx="9.6" ry="12.8" fill="#FFFFFF" stroke="#222222" stroke-width="2.4"/>
    <ellipse cx="270" cy="264" rx="9.6" ry="12.8" fill="#FFFFFF" stroke="#222222" stroke-width="2.4"/>
    <ellipse cx="576" cy="272" rx="9.6" ry="12.8" fill="#FFFFFF" stroke="#222222" stroke-width="2.4"/>
    <ellipse cx="624" cy="272" rx="9.6" ry="12.8" fill="#FFFFFF" stroke="#222222" stroke-width="2.4"/>
    <ellipse cx="942" cy="280" rx="8.4" ry="11.2" fill="#FFFFFF" stroke="#222222" stroke-width="2.4"/>
    <ellipse cx="978" cy="280" rx="8.4" ry="11.2" fill="#FFFFFF" stroke="#222222" stroke-width="2.4"/>
    <ellipse cx="138" cy="768" rx="12" ry="16" fill="#FFFFFF" stroke="#222222" stroke-width="2.4"/>
    <ellipse cx="192" cy="768" rx="12" ry="16" fill="#FFFFFF" stroke="#222222" stroke-width="2.4"/>
    <ellipse cx="288" cy="776" rx="8.4" ry="11.2" fill="#FFFFFF" stroke="#222222" stroke-width="2.4"/>
    <ellipse cx="324" cy="776" rx="8.4" ry="11.2" fill="#FFFFFF" stroke="#222222" stroke-width="2.4"/>
    <ellipse cx="428.4" cy="777.6" rx="7.2" ry="9.6" fill="#FFFFFF" stroke="#222222" stroke-width="2.4"/>
    <ellipse cx="459.6" cy="777.6" rx="7.2" ry="9.6" fill="#FFFFFF" stroke="#222222" stroke-width="2.4"/>
    <ellipse cx="702" cy="672" rx="6" ry="8" fill="#FFFFFF" stroke="#222222" stroke-width="2.4"/>
    <ellipse cx="738" cy="672" rx="6" ry="8" fill="#FFFFFF" stroke="#222222" stroke-width="2.4"/>
    <ellipse cx="888" cy="668.8" rx="6" ry="8" fill="#FFFFFF" stroke="#222222" stroke-width="2.4"/>
    <ellipse cx="912" cy="668.8" rx="6" ry="8" fill="#FFFFFF" stroke="#222222" stroke-width="2.4"/>
    <ellipse cx="1068" cy="672" rx="4.8" ry="6.4" fill="#FFFFFF" stroke="#222222" stroke-width="2.4"/>
    <ellipse cx="1092" cy="672" rx="4.8" ry="6.4" fill="#FFFFFF" stroke="#222222" stroke-width="2.4"/>
    <rect x="186" y="1216" width="108" height="112" rx="6" fill="#2B7BE8" stroke="#222222" stroke-width="3.6"/>
    <rect x="204" y="1328" width="72" height="160" rx="4.8" fill="#4A90D9" stroke="#222222" stroke-width="3.6"/>
    <ellipse cx="600" cy="1280" rx="57.6" ry="76.8" fill="#E8553A" stroke="#222222" stroke-width="3.6"/>
    <ellipse cx="600" cy="1408" rx="42" ry="88" fill="#FF6B4A" stroke="#222222" stroke-width="3.6"/>
    <polygon points="960,1208 1014,1272 960,1336 906,1272" fill="#8E44AD" stroke="#222222" stroke-width="3.6"/>
    <rect x="924" y="1328" width="72" height="160" rx="4.8" fill="#A55EE0" stroke="#222222" stroke-width="3.6"/>
    <ellipse cx="156" cy="480" rx="7.2" ry="9.6" fill="#4A90D9" stroke="#222222" stroke-width="2.4"/>
    <ellipse cx="324" cy="480" rx="7.2" ry="9.6" fill="#4A90D9" stroke="#222222" stroke-width="2.4"/>
    <ellipse cx="180" cy="600" rx="9.6" ry="6.4" fill="#333333" stroke="#333333" stroke-width="6"/>
    <ellipse cx="300" cy="600" rx="9.6" ry="6.4" fill="#333333" stroke="#333333" stroke-width="6"/>
    <ellipse cx="528" cy="480" rx="7.2" ry="9.6" fill="#E8553A" stroke="#222222" stroke-width="2.4"/>
    <ellipse cx="672" cy="480" rx="7.2" ry="9.6" fill="#E8553A" stroke="#222222" stroke-width="2.4"/>
    <ellipse cx="564" cy="600" rx="9.6" ry="6.4" fill="#333333" stroke="#333333" stroke-width="6"/>
    <ellipse cx="636" cy="600" rx="9.6" ry="6.4" fill="#333333" stroke="#333333" stroke-width="6"/>
    <ellipse cx="876" cy="496" rx="7.2" ry="9.6" fill="#8E44AD" stroke="#222222" stroke-width="2.4"/>
    <ellipse cx="1044" cy="496" rx="7.2" ry="9.6" fill="#8E44AD" stroke="#222222" stroke-width="2.4"/>
    <ellipse cx="912" cy="600" rx="9.6" ry="6.4" fill="#333333" stroke="#333333" stroke-width="6"/>
    <ellipse cx="1008" cy="600" rx="9.6" ry="6.4" fill="#333333" stroke="#333333" stroke-width="6"/>
    <ellipse cx="108" cy="832" rx="7.2" ry="9.6" fill="#4A90D9" stroke="#222222" stroke-width="2.4"/>
    <ellipse cx="228" cy="832" rx="7.2" ry="9.6" fill="#4A90D9" stroke="#222222" stroke-width="2.4"/>
    <ellipse cx="132" cy="1076.8" rx="9.6" ry="6.4" fill="#333333" stroke="#333333" stroke-width="6"/>
    <ellipse cx="204" cy="1076.8" rx="9.6" ry="6.4" fill="#333333" stroke="#333333" stroke-width="6"/>
    <ellipse cx="234" cy="848" rx="7.2" ry="9.6" fill="#E8553A" stroke="#222222" stroke-width="2.4"/>
    <ellipse cx="378" cy="848" rx="7.2" ry="9.6" fill="#E8553A" stroke="#222222" stroke-width="2.4"/>
    <ellipse cx="276" cy="1076.8" rx="9.6" ry="6.4" fill="#333333" stroke="#333333" stroke-width="6"/>
    <ellipse cx="336" cy="1076.8" rx="9.6" ry="6.4" fill="#333333" stroke="#333333" stroke-width="6"/>
    <ellipse cx="384" cy="848" rx="7.2" ry="9.6" fill="#8E44AD" stroke="#222222" stroke-width="2.4"/>
    <ellipse cx="504" cy="848" rx="7.2" ry="9.6" fill="#8E44AD" stroke="#222222" stroke-width="2.4"/>
    <ellipse cx="408" cy="1076.8" rx="9.6" ry="6.4" fill="#333333" stroke="#333333" stroke-width="6"/>
    <ellipse cx="480" cy="1076.8" rx="9.6" ry="6.4" fill="#333333" stroke="#333333" stroke-width="6"/>
    <ellipse cx="660" cy="832" rx="7.2" ry="9.6" fill="#4A90D9" stroke="#222222" stroke-width="2.4"/>
    <ellipse cx="780" cy="832" rx="7.2" ry="9.6" fill="#4A90D9" stroke="#222222" stroke-width="2.4"/>
    <ellipse cx="678" cy="1092.8" rx="8.4" ry="6.4" fill="#333333" stroke="#333333" stroke-width="6"/>
    <ellipse cx="762" cy="1092.8" rx="8.4" ry="6.4" fill="#333333" stroke="#333333" stroke-width="6"/>
    <ellipse cx="840" cy="832" rx="7.2" ry="9.6" fill="#E8553A" stroke="#222222" stroke-width="2.4"/>
    <ellipse cx="960" cy="832" rx="7.2" ry="9.6" fill="#E8553A" stroke="#222222" stroke-width="2.4"/>
    <ellipse cx="858" cy="1092.8" rx="8.4" ry="6.4" fill="#333333" stroke="#333333" stroke-width="6"/>
    <ellipse cx="942" cy="1092.8" rx="8.4" ry="6.4" fill="#333333" stroke="#333333" stroke-width="6"/>
    <ellipse cx="1020" cy="832" rx="7.2" ry="9.6" fill="#8E44AD" stroke="#222222" stroke-width="2.4"/>
    <ellipse cx="1140" cy="832" rx="7.2" ry="9.6" fill="#8E44AD" stroke="#222222" stroke-width="2.4"/>
    <ellipse cx="1038" cy="1092.8" rx="8.4" ry="6.4" fill="#333333" stroke="#333333" stroke-width="6"/>
    <ellipse cx="1122" cy="1092.8" rx="8.4" ry="6.4" fill="#333333" stroke="#333333" stroke-width="6"/>
    <line x1="204" y1="1376" x2="168" y2="1488" fill="none" stroke="#222222" stroke-width="8.4" stroke-linecap="round"/>
    <line x1="276" y1="1344" x2="306" y2="1408" fill="none" stroke="#222222" stroke-width="8.4" stroke-linecap="round"/>
    <line x1="216" y1="1488" x2="192" y2="1536" fill="none" stroke="#222222" stroke-width="8.4" stroke-linecap="round"/>
    <line x1="264" y1="1488" x2="288" y2="1536" fill="none" stroke="#222222" stroke-width="8.4" stroke-linecap="round"/>
    <line x1="564" y1="1376" x2="522" y2="1488" fill="none" stroke="#222222" stroke-width="8.4" stroke-linecap="round"/>
    <line x1="636" y1="1376" x2="678" y2="1488" fill="none" stroke="#222222" stroke-width="8.4" stroke-linecap="round"/>
    <line x1="582" y1="1496" x2="564" y2="1536" fill="none" stroke="#222222" stroke-width="8.4" stroke-linecap="round"/>
    <line x1="618" y1="1496" x2="636" y2="1536" fill="none" stroke="#222222" stroke-width="8.4" stroke-linecap="round"/>
    <line x1="924" y1="1360" x2="882" y2="1488" fill="none" stroke="#222222" stroke-width="8.4" stroke-linecap="round"/>
    <line x1="996" y1="1376" x2="1038" y2="1456" fill="none" stroke="#222222" stroke-width="8.4" stroke-linecap="round"/>
    <line x1="936" y1="1488" x2="912" y2="1536" fill="none" stroke="#222222" stroke-width="8.4" stroke-linecap="round"/>
    <line x1="984" y1="1488" x2="1008" y2="1536" fill="none" stroke="#222222" stroke-width="8.4" stroke-linecap="round"/>
    <ellipse cx="210" cy="264" rx="4.8" ry="6.4" fill="#222222" stroke="#333333" stroke-width="6"/>
    <ellipse cx="270" cy="264" rx="4.8" ry="6.4" fill="#222222" stroke="#333333" stroke-width="6"/>
    <rect x="222" y="304" width="36" height="16" rx="3.6" fill="#222222" stroke="#333333" stroke-width="6"/>
    <ellipse cx="576" cy="272" rx="4.8" ry="6.4" fill="#222222" stroke="#333333" stroke-width="6"/>
    <ellipse cx="624" cy="272" rx="4.8" ry="6.4" fill="#222222" stroke="#333333" stroke-width="6"/>
    <ellipse cx="600" cy="336" rx="14.4" ry="12.8" fill="#222222" stroke="#333333" stroke-width="6"/>
    <ellipse cx="942" cy="280" rx="3.6" ry="4.8" fill="#222222" stroke="#333333" stroke-width="6"/>
    <ellipse cx="978" cy="280" rx="3.6" ry="4.8" fill="#222222" stroke="#333333" stroke-width="6"/>
    <rect x="948" y="328" width="24" height="12.8" rx="3.6" fill="#222222" stroke="#333333" stroke-width="6"/>
    <ellipse cx="138" cy="768" rx="6" ry="8" fill="#222222" stroke="#333333" stroke-width="6"/>
    <ellipse cx="192" cy="768" rx="6" ry="8" fill="#222222" stroke="#333333" stroke-width="6"/>
    <ellipse cx="164.4" cy="808" rx="9.6" ry="9.6" fill="#222222" stroke="#333333" stroke-width="6"/>
    <ellipse cx="288" cy="776" rx="3.6" ry="4.8" fill="#222222" stroke="#333333" stroke-width="6"/>
    <ellipse cx="324" cy="776" rx="3.6" ry="4.8" fill="#222222" stroke="#333333" stroke-width="6"/>
    <ellipse cx="306" cy="824" rx="9.6" ry="8" fill="#222222" stroke="#333333" stroke-width="6"/>
    <ellipse cx="428.4" cy="777.6" rx="3.6" ry="4.8" fill="#222222" stroke="#333333" stroke-width="6"/>
    <ellipse cx="459.6" cy="777.6" rx="3.6" ry="4.8" fill="#222222" stroke="#333333" stroke-width="6"/>
    <ellipse cx="444" cy="816" rx="7.2" ry="8" fill="#222222" stroke="#333333" stroke-width="6"/>
    <ellipse cx="720" cy="712" rx="6" ry="6.4" fill="#222222" stroke="#333333" stroke-width="6"/>
    <ellipse cx="900" cy="704" rx="6" ry="6.4" fill="#222222" stroke="#333333" stroke-width="6"/>
    <ellipse cx="1080" cy="704" rx="4.8" ry="4.8" fill="#222222" stroke="#333333" stroke-width="6"/>
    <rect x="186" y="1248" width="108" height="32" rx="3.6" fill="#222222" stroke="#333333" stroke-width="6" opacity="0.85"/>
    <rect x="554.4" y="1252.8" width="91.2" height="28.8" rx="3.6" fill="#222222" stroke="#333333" stroke-width="6" opacity="0.85"/>
    <rect x="912" y="1248" width="96" height="25.6" rx="3.6" fill="#222222" stroke="#333333" stroke-width="6" opacity="0.85"/>
    <rect x="204" y="464" width="72" height="9.6" rx="3.6" fill="#FFD700" stroke="#222222" stroke-width="1.8"/>
    <rect x="564" y="499.2" width="72" height="9.6" rx="3.6" fill="#FFD700" stroke="#222222" stroke-width="1.8"/>
    <rect x="924" y="515.2" width="72" height="9.6" rx="3.6" fill="#FFD700" stroke="#222222" stroke-width="1.8"/>
    <rect x="138" y="968" width="60" height="8" rx="3" fill="#FFD700" stroke="#222222" stroke-width="1.8"/>
    <rect x="288" y="819.2" width="36" height="8" rx="3" fill="#FFD700" stroke="#222222" stroke-width="1.8"/>
    <rect x="414" y="848" width="60" height="8" rx="3" fill="#FFD700" stroke="#222222" stroke-width="1.8"/>
    <rect x="186" y="1528" width="21.6" height="19.2" rx="3.6" fill="#1A4A8A" stroke="#222222" stroke-width="2.4"/>
    <rect x="272.4" y="1528" width="21.6" height="19.2" rx="3.6" fill="#1A4A8A" stroke="#222222" stroke-width="2.4"/>
    <ellipse cx="168" cy="1488" rx="7.2" ry="9.6" fill="#1A4A8A" stroke="#222222" stroke-width="2.4"/>
    <ellipse cx="306" cy="1408" rx="7.2" ry="9.6" fill="#1A4A8A" stroke="#222222" stroke-width="2.4"/>
    <rect x="558" y="1528" width="19.2" height="19.2" rx="3.6" fill="#AA2211" stroke="#222222" stroke-width="2.4"/>
    <rect x="622.8" y="1528" width="19.2" height="19.2" rx="3.6" fill="#AA2211" stroke="#222222" stroke-width="2.4"/>
    <ellipse cx="522" cy="1488" rx="7.2" ry="9.6" fill="#AA2211" stroke="#222222" stroke-width="2.4"/>
    <ellipse cx="678" cy="1488" rx="7.2" ry="9.6" fill="#AA2211" stroke="#222222" stroke-width="2.4"/>
    <rect x="906" y="1528" width="19.2" height="19.2" rx="3.6" fill="#552277" stroke="#222222" stroke-width="2.4"/>
    <rect x="994.8" y="1528" width="19.2" height="19.2" rx="3.6" fill="#552277" stroke="#222222" stroke-width="2.4"/>
    <ellipse cx="882" cy="1488" rx="7.2" ry="9.6" fill="#552277" stroke="#222222" stroke-width="2.4"/>
    <ellipse cx="1038" cy="1456" rx="7.2" ry="9.6" fill="#552277" stroke="#222222" stroke-width="2.4"/>
    <text x="240" y="176" font-size="40" font-family="sans-serif, Apple Symbols, sans-serif" font-weight="bold" font-style="normal" text-anchor="middle" fill="#4A90D9" stroke="none" stroke-width="6">SQUARE</text>
    <text x="600" y="176" font-size="40" font-family="sans-serif, Apple Symbols, sans-serif" font-weight="bold" font-style="normal" text-anchor="middle" fill="#E8553A" stroke="none" stroke-width="6">CIRCLE</text>
    <text x="960" y="176" font-size="40" font-family="sans-serif, Apple Symbols, sans-serif" font-weight="bold" font-style="normal" text-anchor="middle" fill="#8E44AD" stroke="none" stroke-width="6">DIAMOND</text>
    <ellipse cx="720" cy="880" rx="60" ry="112" fill="none" stroke="#4A90D9" stroke-width="3.6" opacity="0.6"/>
    <ellipse cx="900" cy="880" rx="60" ry="112" fill="none" stroke="#E8553A" stroke-width="3.6" opacity="0.6"/>
    <ellipse cx="1080" cy="880" rx="60" ry="112" fill="none" stroke="#8E44AD" stroke-width="3.6" opacity="0.6"/>
    <ellipse cx="213.6" cy="1256" rx="8.4" ry="8" fill="#FFFFFF" stroke="#333333" stroke-width="6"/>
    <ellipse cx="266.4" cy="1256" rx="8.4" ry="8" fill="#FFFFFF" stroke="#333333" stroke-width="6"/>
    <ellipse cx="576" cy="1264" rx="8.4" ry="8" fill="#FFFFFF" stroke="#333333" stroke-width="6"/>
    <ellipse cx="624" cy="1264" rx="8.4" ry="8" fill="#FFFFFF" stroke="#333333" stroke-width="6"/>
    <ellipse cx="936" cy="1260.8" rx="7.2" ry="6.4" fill="#FFFFFF" stroke="#333333" stroke-width="6"/>
    <ellipse cx="984" cy="1260.8" rx="7.2" ry="6.4" fill="#FFFFFF" stroke="#333333" stroke-width="6"/>
    <rect x="186" y="216" width="108" height="24" rx="6" fill="#2B5EA7" stroke="#333333" stroke-width="6"/>
    <line x1="206.4" y1="248" x2="216" y2="243.2" fill="none" stroke="#222222" stroke-width="3" stroke-linecap="round"/>
    <line x1="264" y1="248" x2="273.6" y2="243.2" fill="none" stroke="#222222" stroke-width="3" stroke-linecap="round"/>
    <ellipse cx="600" cy="216" rx="42" ry="19.2" fill="#CC3333" stroke="#333333" stroke-width="6"/>
    <ellipse cx="600" cy="200" rx="21.6" ry="28.8" fill="#CC3333" stroke="#333333" stroke-width="6"/>
    <line x1="571.2" y1="264" x2="580.8" y2="259.2" fill="none" stroke="#222222" stroke-width="3" stroke-linecap="round"/>
    <line x1="619.2" y1="264" x2="628.8" y2="259.2" fill="none" stroke="#222222" stroke-width="3" stroke-linecap="round"/>
    <line x1="936" y1="268.8" x2="945.6" y2="264" fill="none" stroke="#222222" stroke-width="3" stroke-linecap="round"/>
    <line x1="974.4" y1="268.8" x2="984" y2="264" fill="none" stroke="#222222" stroke-width="3" stroke-linecap="round"/>
    <path d="M876,192 C877.4004,191.6 957.2004,160 960,160 C962.7996,160 1042.5996,191.6 1044,192 C1045.4004,192.4 1045.4004,184.6672 1044,184 C1042.5996,183.3328 962.7996,152 960,152 C957.2004,152 877.4004,183.3328 876,184 C874.5996,184.6672 874.5996,192.4 876,192 Z" fill="#6B2D8E" stroke="#222222" stroke-width="2.4"/>
    <rect x="120" y="728" width="90" height="19.2" rx="4.8" fill="#2B5EA7" stroke="#333333" stroke-width="6"/>
    <line x1="129.6" y1="760" x2="138" y2="755.2" fill="none" stroke="#222222" stroke-width="3" stroke-linecap="round"/>
    <line x1="186" y1="760" x2="194.4" y2="755.2" fill="none" stroke="#222222" stroke-width="3" stroke-linecap="round"/>
    <ellipse cx="306" cy="723.2" rx="33.6" ry="16" fill="#CC3333" stroke="#333333" stroke-width="6"/>
    <ellipse cx="306" cy="712" rx="16.8" ry="22.4" fill="#CC3333" stroke="#333333" stroke-width="6"/>
    <line x1="294" y1="768" x2="300" y2="763.2" fill="none" stroke="#222222" stroke-width="3" stroke-linecap="round"/>
    <line x1="312" y1="768" x2="318" y2="763.2" fill="none" stroke="#222222" stroke-width="3" stroke-linecap="round"/>
    <path d="M408,696 C408.6,695.8128 442.7004,680 444,680 C445.2996,680 485.3004,695.8128 486,696 C486.6996,696.1872 486.6996,691.5472 486,691.2 C485.3004,690.8528 445.2996,675.2 444,675.2 C442.7004,675.2 408.6,690.8528 408,691.2 C407.4,691.5472 407.4,696.1872 408,696 Z" fill="#6B2D8E" stroke="#222222" stroke-width="2.4"/>
    <line x1="432" y1="764.8" x2="438" y2="760" fill="none" stroke="#222222" stroke-width="3" stroke-linecap="round"/>
    <line x1="456" y1="764.8" x2="462" y2="760" fill="none" stroke="#222222" stroke-width="3" stroke-linecap="round"/>
    <rect x="216" y="1464" width="48" height="9.6" rx="3.6" fill="#FFD700" stroke="#222222" stroke-width="1.8"/>
    <rect x="582" y="1472" width="36" height="9.6" rx="3.6" fill="#FFD700" stroke="#222222" stroke-width="1.8"/>
    <rect x="936" y="1464" width="48" height="9.6" rx="3.6" fill="#FFD700" stroke="#222222" stroke-width="1.8"/>
    <rect x="690" y="640" width="60" height="19.2" rx="4.8" fill="#2B5EA7" stroke="#333333" stroke-width="6"/>
    <ellipse cx="900" cy="620.8" rx="30" ry="16" fill="#CC3333" stroke="#333333" stroke-width="6"/>
    <ellipse cx="900" cy="611.2" rx="14.4" ry="19.2" fill="#CC3333" stroke="#333333" stroke-width="6"/>
    <path d="M1056,608 C1056.3996,607.9472 1079.1996,601.6 1080,601.6 C1080.8004,601.6 1103.6004,607.9472 1104,608 C1104.3996,608.0528 1104.3996,604.96 1104,604.8 C1103.6004,604.64 1080.8004,598.4 1080,598.4 C1079.1996,598.4 1056.3996,604.64 1056,604.8 C1055.6004,604.96 1055.6004,608.0528 1056,608 Z" fill="#6B2D8E" stroke="#222222" stroke-width="2.4"/>
    <text x="164.4" y="688" font-size="64" font-family="sans-serif, Apple Symbols, sans-serif" font-weight="bold" font-style="normal" text-anchor="middle" fill="#222222" stroke="none" stroke-width="6">!</text>
    <text x="444" y="672" font-size="64" font-family="sans-serif, Apple Symbols, sans-serif" font-weight="bold" font-style="normal" text-anchor="middle" fill="#222222" stroke="none" stroke-width="6">!</text>
    <text x="306" y="688" font-size="56" font-family="sans-serif, Apple Symbols, sans-serif" font-weight="bold" font-style="normal" text-anchor="middle" fill="#222222" stroke="none" stroke-width="6">?</text>
    <text x="306" y="648" font-size="28.8" font-family="sans-serif, Apple Symbols, sans-serif" font-weight="bold" font-style="normal" text-anchor="middle" fill="#555555" stroke="none" stroke-width="6">YOU?</text>
    <text x="900" y="672" font-size="48" font-family="sans-serif, Apple Symbols, sans-serif" font-weight="bold" font-style="normal" text-anchor="middle" fill="#FF6600" stroke="none" stroke-width="6">POWER UP!!</text>
    <text x="720" y="608" font-size="40" font-family="sans-serif, Apple Symbols, sans-serif" font-weight="normal" font-style="normal" text-anchor="middle" fill="#4A90D9" stroke="none" stroke-width="6">✦</text>
    <text x="900" y="608" font-size="40" font-family="sans-serif, Apple Symbols, sans-serif" font-weight="normal" font-style="normal" text-anchor="middle" fill="#E8553A" stroke="none" stroke-width="6">✦</text>
    <text x="1080" y="608" font-size="40" font-family="sans-serif, Apple Symbols, sans-serif" font-weight="normal" font-style="normal" text-anchor="middle" fill="#8E44AD" stroke="none" stroke-width="6">✦</text>
    <text x="720" y="928" font-size="32" font-family="sans-serif, Apple Symbols, sans-serif" font-weight="normal" font-style="normal" text-anchor="middle" fill="#4A90D9" stroke="none" stroke-width="6">✦</text>
    <text x="900" y="960" font-size="32" font-family="sans-serif, Apple Symbols, sans-serif" font-weight="normal" font-style="normal" text-anchor="middle" fill="#E8553A" stroke="none" stroke-width="6">✦</text>
    <text x="1080" y="928" font-size="32" font-family="sans-serif, Apple Symbols, sans-serif" font-weight="normal" font-style="normal" text-anchor="middle" fill="#8E44AD" stroke="none" stroke-width="6">✦</text>
    <rect x="228" y="1288" width="24" height="12.8" rx="3.6" fill="#222222" stroke="#333333" stroke-width="6"/>
    <ellipse cx="600" cy="1304" rx="7.2" ry="8" fill="#222222" stroke="#333333" stroke-width="6"/>
    <rect x="950.4" y="1299.2" width="19.2" height="9.6" rx="3.6" fill="#222222" stroke="#333333" stroke-width="6"/>
    <text x="240" y="1400" font-size="40" font-family="sans-serif, Apple Symbols, sans-serif" font-weight="normal" font-style="normal" text-anchor="middle" fill="#FFD700" stroke="none" stroke-width="6">★</text>
    <text x="240" y="1560" font-size="28.8" font-family="sans-serif, Apple Symbols, sans-serif" font-weight="bold" font-style="normal" text-anchor="middle" fill="#2B7BE8" stroke="none" stroke-width="6">CAPTAIN SQUARE</text>
    <text x="600" y="1404.8" font-size="40" font-family="sans-serif, Apple Symbols, sans-serif" font-weight="normal" font-style="normal" text-anchor="middle" fill="#FFD700" stroke="none" stroke-width="6">★</text>
    <text x="600" y="1560" font-size="28.8" font-family="sans-serif, Apple Symbols, sans-serif" font-weight="bold" font-style="normal" text-anchor="middle" fill="#E8553A" stroke="none" stroke-width="6">ORBITER</text>
    <text x="960" y="1404.8" font-size="40" font-family="sans-serif, Apple Symbols, sans-serif" font-weight="normal" font-style="normal" text-anchor="middle" fill="#FFD700" stroke="none" stroke-width="6">★</text>
    <text x="960" y="1560" font-size="28.8" font-family="sans-serif, Apple Symbols, sans-serif" font-weight="bold" font-style="normal" text-anchor="middle" fill="#8E44AD" stroke="none" stroke-width="6">DIAMOND PRISM</text>
    <text x="600" y="1576" font-size="25.6" font-family="sans-serif, Apple Symbols, sans-serif" font-weight="bold" font-style="normal" text-anchor="middle" fill="#555555" stroke="none" stroke-width="6">— THE GEOMETRIC HEROES —</text>
    <text x="600" y="1208" font-size="48" font-family="sans-serif, Apple Symbols, sans-serif" font-weight="bold" font-style="normal" text-anchor="middle" fill="#FF4400" stroke="none" stroke-width="6">SUPERHERO FORM!</text>
</svg>
