<?xml version="1.0" encoding="UTF-8"?>
<svg xmlns="http://www.w3.org/2000/svg"
     xmlns:xlink="http://www.w3.org/1999/xlink"
     width="920" height="650"
     viewBox="0 0 920 650">
  <rect width="100%" height="100%" fill="#dfeef6"/>
    <path d="M0,52 C69,25.1875 851,8.125 920,32.5 C989,56.875 989,350.1875 920,377 C851,403.8125 69,414.375 0,390 C-69,365.625 -69,78.8125 0,52 Z" fill="#edf5f8" stroke="none" stroke-width="0" opacity="0.78"/>
    <path d="M18.4,117 C39.1,110.5 127.65,97.5 165.6,97.5 C203.55,97.5 282.9,117 322,117 C361.1,117 433.55,96.6875 478.4,97.5 C523.25,98.3125 630.2,121.875 680.8,123.5 C731.4,125.125 853.3,106.4375 883.2,110.5 C913.1,114.5625 947.6,149.5 920,156 C892.4,162.5 725.65,163.3125 662.4,162.5 C599.15,161.6875 476.1,149.5 414,149.5 C351.9,149.5 217.35,162.5 165.6,162.5 C113.85,162.5 18.4,155.1875 0,149.5 C-18.4,143.8125 -2.3,123.5 18.4,117 Z" fill="#f7fbfb" stroke="none" stroke-width="0" opacity="0.62"/>
    <path d="M64.4,182 C88.93364,172.46645 159.46636,161.63355 202.4,162.5 C245.33364,163.36645 338.56,187.63355 386.4,188.5 C434.24,189.36645 506,168.13355 561.2,169 C616.4,169.86645 755.01364,188.93355 800.4,195 C845.78636,201.06645 900.37364,207.56645 901.6,214.5 C902.82636,221.43355 852.53364,245.26645 809.6,247 C766.66636,248.73355 639.70636,228.36645 579.6,227.5 C519.49364,226.63355 415.22636,241.36645 358.8,240.5 C302.37364,239.63355 201.78636,221.86645 156.4,221 C111.01364,220.13355 30.66636,239.2 18.4,234 C6.13364,228.8 39.86636,191.53355 64.4,182 Z" fill="#c9dce8" stroke="none" stroke-width="0" opacity="0.3"/>
    <path d="M0,286 C17.94,271.91645 131.71364,267.20395 165.6,266.5 C199.48636,265.79605 276.92,280.20395 312.8,279.5 C348.68,278.79605 455.93636,260 496.8,260 C537.66364,260 644.15364,280.20395 690,279.5 C735.84636,278.79605 895.08364,242.23355 920,253.5 C944.91636,264.76645 1019.66636,368.00855 920,383.5 C820.33364,398.99145 99.66636,407.0625 0,396.5 C-99.66636,385.9375 -17.94,300.08355 0,286 Z" fill="#b8cfdd" stroke="none" stroke-width="0" opacity="0.45"/>
    <path d="M0,338 C15.02636,322.83355 96.6,317.74145 128.8,318.5 C161,319.25855 239.50636,343.74145 276,344.5 C312.49364,345.25855 401.88636,325.75855 441.6,325 C481.31364,324.24145 579.90636,340.275 616.4,338 C652.89364,335.725 718.98,307.01645 754.4,305.5 C789.82,303.98355 900.68,309.075 920,325 C939.32,340.925 1027.33364,427.59145 920,442 C812.66636,456.40855 107.33364,460.63355 0,448.5 C-107.33364,436.36645 -15.02636,353.16645 0,338 Z" fill="#d0b44e" stroke="none" stroke-width="0" opacity="0.55"/>
    <rect x="699.2" y="260" width="32.2" height="110.5" fill="#6fb0ce" stroke="none" stroke-width="0" opacity="0.65"/>
    <rect x="745.2" y="234" width="23" height="136.5" fill="#2d92c4" stroke="none" stroke-width="0" opacity="0.62"/>
    <rect x="782" y="273" width="32.2" height="97.5" fill="#8ac5db" stroke="none" stroke-width="0" opacity="0.55"/>
    <rect x="322" y="286" width="23" height="71.5" fill="#7eb7cf" stroke="none" stroke-width="0" opacity="0.55"/>
    <rect x="358.8" y="273" width="29.44" height="84.5" fill="#5fa9c9" stroke="none" stroke-width="0" opacity="0.5"/>
    <rect x="368" y="224.25" width="138" height="110.5" fill="#d2c7aa" stroke="#52636b" stroke-width="1.43"/>
    <rect x="381.8" y="198.25" width="110.4" height="39" fill="#c5b795" stroke="#52636b" stroke-width="1.43"/>
    <path d="M349.6,221 C350.612,221.10855 523.388,221.10855 524.4,221 C525.412,220.89145 502.412,204.85855 501.4,204.75 C500.388,204.64145 373.612,204.64145 372.6,204.75 C371.588,204.85855 348.588,220.89145 349.6,221 Z" fill="#456b78" stroke="#2f4952" stroke-width="1.43"/>
    <path d="M386.4,198.25 C386.98236,198.34555 491.61764,198.34555 492.2,198.25 C492.78236,198.15445 474.38236,184.04555 473.8,183.95 C473.21764,183.85445 405.38236,183.85445 404.8,183.95 C404.21764,184.04555 385.81764,198.15445 386.4,198.25 Z" fill="#536973" stroke="#2f4952" stroke-width="1.43"/>
    <line x1="438.84" y1="136.5" x2="438.84" y2="185.25" fill="none" stroke="#53616b" stroke-width="1.95"/>
    <line x1="425.04" y1="159.25" x2="452.64" y2="159.25" fill="none" stroke="#53616b" stroke-width="1.95"/>
    <line x1="421.36" y1="167.7" x2="456.32" y2="167.7" fill="none" stroke="#53616b" stroke-width="1.95"/>
    <rect x="391" y="243.75" width="32.2" height="16.25" fill="#5f9ab0" stroke="#3f6270" stroke-width="1.43"/>
    <rect x="450.8" y="243.75" width="32.2" height="16.25" fill="#5f9ab0" stroke="#3f6270" stroke-width="1.43"/>
    <rect x="483" y="227.5" width="23" height="107.25" fill="#b0a27f" stroke="none" stroke-width="0" opacity="0.55"/>
    <path d="M156.4,253.5 C150.88,259.74 135.424,291.46 128.8,305.5 C122.176,319.54 96.784,365.04 101.2,370.5 C105.616,375.96 152.352,349.44 165.6,351 C178.848,352.56 207.184,388.18 211.6,383.5 C216.016,378.82 206.816,327.6 202.4,312 C197.984,296.4 180.32,260.52 174.8,253.5 C169.28,246.48 161.92,247.26 156.4,253.5 Z" fill="#d29621" stroke="#9c751d" stroke-width="65"/>
    <path d="M607.2,279.5 C600.76,286.325 586.04,324.35 579.6,338 C573.16,351.65 546.63364,391.19145 552,396.5 C557.36636,401.80855 611.64636,382.74145 625.6,383.5 C639.55364,384.25855 668.38,408.30855 671.6,403 C674.82,397.69145 657.49364,352.40855 653.2,338 C648.90636,323.59145 640.16636,286.325 634.8,279.5 C629.43364,272.675 613.64,272.675 607.2,279.5 Z" fill="#d9a32c" stroke="#a37b22" stroke-width="65"/>
    <line x1="156.4" y1="247" x2="165.6" y2="390" fill="none" stroke="#7b5b31" stroke-width="1.95"/>
    <line x1="616.4" y1="273" x2="616.4" y2="403" fill="none" stroke="#7b5b31" stroke-width="1.95"/>
    <line x1="156.4" y1="305.5" x2="110.4" y2="325" fill="none" stroke="#8b6425" stroke-width="1.95"/>
    <line x1="156.4" y1="318.5" x2="202.4" y2="338" fill="none" stroke="#8b6425" stroke-width="1.95"/>
    <line x1="616.4" y1="325" x2="561.2" y2="357.5" fill="none" stroke="#8b6425" stroke-width="1.95"/>
    <line x1="616.4" y1="331.5" x2="662.4" y2="357.5" fill="none" stroke="#8b6425" stroke-width="1.95"/>
    <path d="M0,380.25 C1.77836,379.81645 530.80964,373.815 533.6,373.75 C536.39036,373.685 835.912,360.7825 837.2,360.75 C838.488,360.7175 919.724,363.545 920,364 C920.276,364.455 923.06636,496.78395 920,497.25 C916.93364,497.71605 3.06636,504.14 0,503.75 C-3.06636,503.36 -1.77836,380.68355 0,380.25 Z" fill="#35b7ae" stroke="#2c8581" stroke-width="1.43"/>
    <path d="M0,484.25 C3.06636,484.10895 916.93364,477.66355 920,477.75 C923.06636,477.83645 923.06636,510.10895 920,510.25 C916.93364,510.39105 3.06636,520.08645 0,520 C-3.06636,519.91355 -3.06636,484.39105 0,484.25 Z" fill="#249890" stroke="none" stroke-width="0" opacity="0.65"/>
    <path d="M0,533 C0.39836,532.52355 117.63764,507.11895 119.6,507 C121.56236,506.88105 586.684,497.01145 588.8,497.25 C590.916,497.48855 756.36236,577.99105 754.4,578.5 C752.43764,579.00895 2.51436,650.15145 0,650 C-2.51436,649.84855 -0.39836,533.47645 0,533 Z" fill="#b9b4a8" stroke="#827d73" stroke-width="1.43"/>
    <path d="M0,591.5 C2.26964,591.25105 678.132,575.16355 680.8,575.25 C683.468,575.33645 802.66964,617.25105 800.4,617.5 C798.13036,617.74895 2.668,650.08645 0,650 C-2.668,649.91355 -2.26964,591.74895 0,591.5 Z" fill="#8d8a82" stroke="#333333" stroke-width="3.25" opacity="0.78"/>
    <path d="M147.2,503.75 C148.79436,503.46855 568.59036,497.03355 570.4,497.25 C572.20964,497.46645 691.59436,568.46855 690,568.75 C688.40564,569.03145 93.80964,581.96645 92,581.75 C90.19036,581.53355 145.60564,504.03145 147.2,503.75 Z" fill="#dfc05a" stroke="#b89938" stroke-width="1.43"/>
    <rect x="0" y="282.75" width="82.8" height="136.5" fill="#d6d5bd" stroke="#9b9b84" stroke-width="1.43"/>
    <rect x="0" y="305.5" width="25.76" height="227.5" fill="#c8c7b1" stroke="#8f907b" stroke-width="1.43"/>
    <rect x="0" y="277.55" width="84.64" height="11.7" fill="#bbb99e" stroke="#8d8b75" stroke-width="1.43"/>
    <rect x="6.44" y="292.5" width="50.6" height="39" fill="#eef2e5" stroke="#a3a58c" stroke-width="1.43"/>
    <line x1="0" y1="409.5" x2="138" y2="351" fill="none" stroke="#e8e8dc" stroke-width="1.95"/>
    <line x1="0" y1="417.3" x2="138" y2="358.8" fill="none" stroke="#9fa38f" stroke-width="1.95"/>
    <rect x="69" y="390" width="588.8" height="29.25" fill="#eaf0df" stroke="#a7b0a1" stroke-width="0.975" opacity="0.52"/>
    <line x1="73.6" y1="334.75" x2="864.8" y2="328.25" fill="none" stroke="#e8eadb" stroke-width="1.95"/>
    <line x1="73.6" y1="409.5" x2="662.4" y2="399.75" fill="none" stroke="#d8ddcc" stroke-width="1.95"/>
    <line x1="73.6" y1="343.2" x2="864.8" y2="336.7" fill="none" stroke="#9aa18e" stroke-width="1.95"/>
    <line x1="671.6" y1="328.25" x2="809.6" y2="448.5" fill="none" stroke="#e8eadb" stroke-width="1.95"/>
    <line x1="644" y1="399.75" x2="772.8" y2="471.25" fill="none" stroke="#d7dccb" stroke-width="1.95"/>
    <rect x="855.6" y="302.25" width="27.6" height="149.5" fill="#cdd1bd" stroke="#8d927f" stroke-width="1.43"/>
    <rect x="874" y="328.25" width="46" height="110.5" fill="#c8d1c5" stroke="#8d927f" stroke-width="1.43"/>
    <line x1="717.6" y1="292.5" x2="740.6" y2="279.5" fill="none" stroke="#2f3b3f" stroke-width="1.95"/>
    <line x1="740.6" y1="279.5" x2="818.8" y2="279.5" fill="none" stroke="#2f3b3f" stroke-width="1.95"/>
    <ellipse cx="823.4" cy="278.85" rx="23" ry="5.2" fill="#26363b" stroke="none" stroke-width="0"/>
    <line x1="18.4" y1="553.8" x2="598" y2="536.25" fill="none" stroke="#77766f" stroke-width="1.95"/>
    <line x1="0" y1="581.75" x2="662.4" y2="560.3" fill="none" stroke="#77766f" stroke-width="1.95"/>
    <line x1="0" y1="611" x2="717.6" y2="588.25" fill="none" stroke="#77766f" stroke-width="1.95"/>
    <line x1="92" y1="513.5" x2="331.2" y2="637" fill="none" stroke="#73746d" stroke-width="1.95" opacity="0.7"/>
    <line x1="128.8" y1="511.55" x2="395.6" y2="630.5" fill="none" stroke="#73746d" stroke-width="1.95" opacity="0.7"/>
    <line x1="174.8" y1="509.6" x2="478.4" y2="625.3" fill="none" stroke="#73746d" stroke-width="1.95" opacity="0.7"/>
    <ellipse cx="230" cy="521.3" rx="5.52" ry="2.6" fill="#b89938" stroke="none" stroke-width="0" opacity="0.65"/>
    <ellipse cx="294.4" cy="521.3" rx="5.52" ry="2.6" fill="#b89938" stroke="none" stroke-width="0" opacity="0.65"/>
    <ellipse cx="358.8" cy="521.3" rx="5.52" ry="2.6" fill="#b89938" stroke="none" stroke-width="0" opacity="0.65"/>
    <ellipse cx="441.6" cy="521.3" rx="5.52" ry="2.6" fill="#b89938" stroke="none" stroke-width="0" opacity="0.65"/>
    <ellipse cx="524.4" cy="533" rx="5.52" ry="2.6" fill="#b89938" stroke="none" stroke-width="0" opacity="0.65"/>
    <ellipse cx="607.2" cy="550.55" rx="5.52" ry="2.6" fill="#b89938" stroke="none" stroke-width="0" opacity="0.65"/>
    <ellipse cx="257.6" cy="542.1" rx="5.52" ry="2.6" fill="#b89938" stroke="none" stroke-width="0" opacity="0.65"/>
    <ellipse cx="331.2" cy="542.75" rx="5.52" ry="2.6" fill="#b89938" stroke="none" stroke-width="0" opacity="0.65"/>
    <ellipse cx="414" cy="546" rx="5.52" ry="2.6" fill="#b89938" stroke="none" stroke-width="0" opacity="0.65"/>
    <ellipse cx="496.8" cy="553.8" rx="5.52" ry="2.6" fill="#b89938" stroke="none" stroke-width="0" opacity="0.65"/>
    <ellipse cx="579.6" cy="566.8" rx="5.52" ry="2.6" fill="#b89938" stroke="none" stroke-width="0" opacity="0.65"/>
    <line x1="0" y1="562.25" x2="478.4" y2="546" fill="none" stroke="#2b9c95" stroke-width="1.95"/>
    <line x1="101.2" y1="334.75" x2="101.2" y2="416" fill="none" stroke="#eef0de" stroke-width="1.95"/>
    <line x1="147.2" y1="334.1" x2="147.2" y2="416" fill="none" stroke="#eef0de" stroke-width="1.95"/>
    <line x1="193.2" y1="333.45" x2="193.2" y2="414.7" fill="none" stroke="#eef0de" stroke-width="1.95"/>
    <line x1="239.2" y1="332.8" x2="239.2" y2="414.05" fill="none" stroke="#eef0de" stroke-width="1.95"/>
    <line x1="285.2" y1="332.15" x2="285.2" y2="413.4" fill="none" stroke="#eef0de" stroke-width="1.95"/>
    <line x1="331.2" y1="331.5" x2="331.2" y2="412.75" fill="none" stroke="#eef0de" stroke-width="1.95"/>
    <line x1="377.2" y1="330.85" x2="377.2" y2="412.1" fill="none" stroke="#eef0de" stroke-width="1.95"/>
    <line x1="423.2" y1="330.2" x2="423.2" y2="411.45" fill="none" stroke="#eef0de" stroke-width="1.95"/>
    <line x1="469.2" y1="329.55" x2="469.2" y2="410.8" fill="none" stroke="#eef0de" stroke-width="1.95"/>
    <line x1="515.2" y1="328.9" x2="515.2" y2="409.5" fill="none" stroke="#eef0de" stroke-width="1.95"/>
    <line x1="561.2" y1="328.25" x2="561.2" y2="408.2" fill="none" stroke="#eef0de" stroke-width="1.95"/>
    <line x1="607.2" y1="327.6" x2="607.2" y2="406.25" fill="none" stroke="#eef0de" stroke-width="1.95"/>
    <line x1="653.2" y1="326.95" x2="653.2" y2="401.7" fill="none" stroke="#eef0de" stroke-width="1.95"/>
    <line x1="694.6" y1="351" x2="694.6" y2="435.5" fill="none" stroke="#eef0de" stroke-width="1.95"/>
    <line x1="726.8" y1="377" x2="726.8" y2="451.75" fill="none" stroke="#eef0de" stroke-width="1.95"/>
    <line x1="759" y1="406.25" x2="759" y2="469.3" fill="none" stroke="#eef0de" stroke-width="1.95"/>
    <line x1="73.6" y1="392.6" x2="653.2" y2="383.5" fill="none" stroke="#f4f7e9" stroke-width="1.95" opacity="0.7"/>
    <path d="M883.2,0 C882.51,14.625 879.98,81.9 878.6,97.5 C877.22,113.1 866.663,190.45 864.8,208 C862.937,225.55 855.416,312.975 853.76,331.5" fill="none" stroke="#3f3835" stroke-width="2.925" stroke-linecap="round"/>
    <path d="M877.68,58.5 C870.25836,52.54145 845.12764,30.17105 837.2,26 C829.27236,21.82895 799.63364,15.38355 791.2,13" fill="none" stroke="#3f3835" stroke-width="1.43" stroke-linecap="round"/>
    <path d="M874,104 C866.33364,100.75 836.43364,86.66645 828,84.5 C819.56636,82.33355 782,79.08355 772.8,78" fill="none" stroke="#3f3835" stroke-width="1.17" stroke-linecap="round"/>
    <path d="M868.48,156 C860.2,153.83355 827.54,143 818.8,143 C810.06,143 772.8,153.83355 763.6,156" fill="none" stroke="#3f3835" stroke-width="1.105" stroke-linecap="round"/>
    <path d="M864.8,201.5 C870.93364,198.25 897,184.70855 901.6,182 C906.2,179.29145 916.93364,171.16645 920,169" fill="none" stroke="#3f3835" stroke-width="1.3" stroke-linecap="round"/>
    <path d="M860.2,253.5 C867.1,252.41645 896.61636,247 901.6,247 C906.58364,247 916.93364,252.41645 920,253.5" fill="none" stroke="#3f3835" stroke-width="1.105" stroke-linecap="round"/>
    <path d="M837.2,26 C835.728,20.8 830.944,2.6 829.84,0 C828.736,-2.6 826.896,0 826.16,0" fill="none" stroke="#3f3835" stroke-width="0.78" stroke-linecap="round"/>
    <path d="M818.8,143 C816.04,137.8 807.76,120.9 805,117 C802.24,113.1 793.96,106.6 791.2,104" fill="none" stroke="#3f3835" stroke-width="0.78" stroke-linecap="round"/>
</svg>
