<?xml version="1.0" encoding="UTF-8"?>
<svg xmlns="http://www.w3.org/2000/svg"
     xmlns:xlink="http://www.w3.org/1999/xlink"
     width="800" height="800"
     viewBox="0 0 800 800">
  <rect width="100%" height="100%" fill="#F5F0E8"/>
    <polygon points="105.4216,485.6472 84.9016,497.4944 84.9016,531.6944 105.4216,519.8472" fill="#666" stroke="#333333" stroke-width="2.4"/>
    <polygon points="393.7048,465.1272 373.1848,476.9744 373.1848,511.1744 393.7048,499.3272" fill="#555" stroke="#333333" stroke-width="2.4"/>
    <polygon points="105.4216,326.0472 84.9016,337.8944 84.9016,372.0944 105.4216,360.2472" fill="#777" stroke="#333333" stroke-width="2.4"/>
    <polygon points="393.7048,346.5672 373.1848,358.4144 373.1848,392.6144 393.7048,380.7672" fill="#888" stroke="#333333" stroke-width="2.4"/>
    <polygon points="64.3816,485.6472 64.3816,519.8472 84.9016,531.6944 84.9016,497.4944" fill="#666" stroke="#333333" stroke-width="2.4"/>
    <polygon points="352.6648,465.1272 352.6648,499.3272 373.1848,511.1744 373.1848,476.9744" fill="#555" stroke="#333333" stroke-width="2.4"/>
    <polygon points="64.3816,326.0472 64.3816,360.2472 84.9016,372.0944 84.9016,337.8944" fill="#777" stroke="#333333" stroke-width="2.4"/>
    <polygon points="352.6648,346.5672 352.6648,380.7672 373.1848,392.6144 373.1848,358.4144" fill="#888" stroke="#333333" stroke-width="2.4"/>
    <ellipse cx="234.9664" cy="434" rx="121.2432" ry="36.3728" fill="#000000" stroke="none" stroke-width="4" opacity="0.12" style="mix-blend-mode:multiply"/>
    <polygon points="432.4208,368 189.9336,508 189.9336,548 432.4208,408" fill="#A0522D" stroke="#333333" stroke-width="2.4"/>
    <polygon points="37.5128,420 37.5128,460 189.9336,548 189.9336,508" fill="#A0522D" stroke="#333333" stroke-width="2.4"/>
    <polygon points="280,280 37.5128,420 189.9336,508 432.4208,368" fill="#A0522D" stroke="#333333" stroke-width="2.4"/>
</svg>
